%TF.GenerationSoftware,KiCad,Pcbnew,9.0.6*%
%TF.CreationDate,2026-03-09T22:44:48+09:00*%
%TF.ProjectId,ARDFReceiver,41524446-5265-4636-9569-7665722e6b69,rev?*%
%TF.SameCoordinates,Original*%
%TF.FileFunction,Legend,Top*%
%TF.FilePolarity,Positive*%
%FSLAX46Y46*%
G04 Gerber Fmt 4.6, Leading zero omitted, Abs format (unit mm)*
G04 Created by KiCad (PCBNEW 9.0.6) date 2026-03-09 22:44:48*
%MOMM*%
%LPD*%
G01*
G04 APERTURE LIST*
%ADD10C,0.150000*%
%ADD11C,0.120000*%
%ADD12C,0.127000*%
%ADD13C,0.100000*%
%ADD14C,0.504000*%
G04 APERTURE END LIST*
D10*
X77857142Y-61254819D02*
X77523809Y-60778628D01*
X77285714Y-61254819D02*
X77285714Y-60254819D01*
X77285714Y-60254819D02*
X77666666Y-60254819D01*
X77666666Y-60254819D02*
X77761904Y-60302438D01*
X77761904Y-60302438D02*
X77809523Y-60350057D01*
X77809523Y-60350057D02*
X77857142Y-60445295D01*
X77857142Y-60445295D02*
X77857142Y-60588152D01*
X77857142Y-60588152D02*
X77809523Y-60683390D01*
X77809523Y-60683390D02*
X77761904Y-60731009D01*
X77761904Y-60731009D02*
X77666666Y-60778628D01*
X77666666Y-60778628D02*
X77285714Y-60778628D01*
X78190476Y-60254819D02*
X78809523Y-60254819D01*
X78809523Y-60254819D02*
X78476190Y-60635771D01*
X78476190Y-60635771D02*
X78619047Y-60635771D01*
X78619047Y-60635771D02*
X78714285Y-60683390D01*
X78714285Y-60683390D02*
X78761904Y-60731009D01*
X78761904Y-60731009D02*
X78809523Y-60826247D01*
X78809523Y-60826247D02*
X78809523Y-61064342D01*
X78809523Y-61064342D02*
X78761904Y-61159580D01*
X78761904Y-61159580D02*
X78714285Y-61207200D01*
X78714285Y-61207200D02*
X78619047Y-61254819D01*
X78619047Y-61254819D02*
X78333333Y-61254819D01*
X78333333Y-61254819D02*
X78238095Y-61207200D01*
X78238095Y-61207200D02*
X78190476Y-61159580D01*
X79714285Y-60254819D02*
X79238095Y-60254819D01*
X79238095Y-60254819D02*
X79190476Y-60731009D01*
X79190476Y-60731009D02*
X79238095Y-60683390D01*
X79238095Y-60683390D02*
X79333333Y-60635771D01*
X79333333Y-60635771D02*
X79571428Y-60635771D01*
X79571428Y-60635771D02*
X79666666Y-60683390D01*
X79666666Y-60683390D02*
X79714285Y-60731009D01*
X79714285Y-60731009D02*
X79761904Y-60826247D01*
X79761904Y-60826247D02*
X79761904Y-61064342D01*
X79761904Y-61064342D02*
X79714285Y-61159580D01*
X79714285Y-61159580D02*
X79666666Y-61207200D01*
X79666666Y-61207200D02*
X79571428Y-61254819D01*
X79571428Y-61254819D02*
X79333333Y-61254819D01*
X79333333Y-61254819D02*
X79238095Y-61207200D01*
X79238095Y-61207200D02*
X79190476Y-61159580D01*
X87886142Y-68154819D02*
X87552809Y-67678628D01*
X87314714Y-68154819D02*
X87314714Y-67154819D01*
X87314714Y-67154819D02*
X87695666Y-67154819D01*
X87695666Y-67154819D02*
X87790904Y-67202438D01*
X87790904Y-67202438D02*
X87838523Y-67250057D01*
X87838523Y-67250057D02*
X87886142Y-67345295D01*
X87886142Y-67345295D02*
X87886142Y-67488152D01*
X87886142Y-67488152D02*
X87838523Y-67583390D01*
X87838523Y-67583390D02*
X87790904Y-67631009D01*
X87790904Y-67631009D02*
X87695666Y-67678628D01*
X87695666Y-67678628D02*
X87314714Y-67678628D01*
X88838523Y-68154819D02*
X88267095Y-68154819D01*
X88552809Y-68154819D02*
X88552809Y-67154819D01*
X88552809Y-67154819D02*
X88457571Y-67297676D01*
X88457571Y-67297676D02*
X88362333Y-67392914D01*
X88362333Y-67392914D02*
X88267095Y-67440533D01*
X89695666Y-67154819D02*
X89505190Y-67154819D01*
X89505190Y-67154819D02*
X89409952Y-67202438D01*
X89409952Y-67202438D02*
X89362333Y-67250057D01*
X89362333Y-67250057D02*
X89267095Y-67392914D01*
X89267095Y-67392914D02*
X89219476Y-67583390D01*
X89219476Y-67583390D02*
X89219476Y-67964342D01*
X89219476Y-67964342D02*
X89267095Y-68059580D01*
X89267095Y-68059580D02*
X89314714Y-68107200D01*
X89314714Y-68107200D02*
X89409952Y-68154819D01*
X89409952Y-68154819D02*
X89600428Y-68154819D01*
X89600428Y-68154819D02*
X89695666Y-68107200D01*
X89695666Y-68107200D02*
X89743285Y-68059580D01*
X89743285Y-68059580D02*
X89790904Y-67964342D01*
X89790904Y-67964342D02*
X89790904Y-67726247D01*
X89790904Y-67726247D02*
X89743285Y-67631009D01*
X89743285Y-67631009D02*
X89695666Y-67583390D01*
X89695666Y-67583390D02*
X89600428Y-67535771D01*
X89600428Y-67535771D02*
X89409952Y-67535771D01*
X89409952Y-67535771D02*
X89314714Y-67583390D01*
X89314714Y-67583390D02*
X89267095Y-67631009D01*
X89267095Y-67631009D02*
X89219476Y-67726247D01*
X85320833Y-56154819D02*
X84987500Y-55678628D01*
X84749405Y-56154819D02*
X84749405Y-55154819D01*
X84749405Y-55154819D02*
X85130357Y-55154819D01*
X85130357Y-55154819D02*
X85225595Y-55202438D01*
X85225595Y-55202438D02*
X85273214Y-55250057D01*
X85273214Y-55250057D02*
X85320833Y-55345295D01*
X85320833Y-55345295D02*
X85320833Y-55488152D01*
X85320833Y-55488152D02*
X85273214Y-55583390D01*
X85273214Y-55583390D02*
X85225595Y-55631009D01*
X85225595Y-55631009D02*
X85130357Y-55678628D01*
X85130357Y-55678628D02*
X84749405Y-55678628D01*
X85654167Y-55154819D02*
X86320833Y-55154819D01*
X86320833Y-55154819D02*
X85892262Y-56154819D01*
X80969642Y-56154819D02*
X80636309Y-55678628D01*
X80398214Y-56154819D02*
X80398214Y-55154819D01*
X80398214Y-55154819D02*
X80779166Y-55154819D01*
X80779166Y-55154819D02*
X80874404Y-55202438D01*
X80874404Y-55202438D02*
X80922023Y-55250057D01*
X80922023Y-55250057D02*
X80969642Y-55345295D01*
X80969642Y-55345295D02*
X80969642Y-55488152D01*
X80969642Y-55488152D02*
X80922023Y-55583390D01*
X80922023Y-55583390D02*
X80874404Y-55631009D01*
X80874404Y-55631009D02*
X80779166Y-55678628D01*
X80779166Y-55678628D02*
X80398214Y-55678628D01*
X81302976Y-55154819D02*
X81922023Y-55154819D01*
X81922023Y-55154819D02*
X81588690Y-55535771D01*
X81588690Y-55535771D02*
X81731547Y-55535771D01*
X81731547Y-55535771D02*
X81826785Y-55583390D01*
X81826785Y-55583390D02*
X81874404Y-55631009D01*
X81874404Y-55631009D02*
X81922023Y-55726247D01*
X81922023Y-55726247D02*
X81922023Y-55964342D01*
X81922023Y-55964342D02*
X81874404Y-56059580D01*
X81874404Y-56059580D02*
X81826785Y-56107200D01*
X81826785Y-56107200D02*
X81731547Y-56154819D01*
X81731547Y-56154819D02*
X81445833Y-56154819D01*
X81445833Y-56154819D02*
X81350595Y-56107200D01*
X81350595Y-56107200D02*
X81302976Y-56059580D01*
X82255357Y-55154819D02*
X82874404Y-55154819D01*
X82874404Y-55154819D02*
X82541071Y-55535771D01*
X82541071Y-55535771D02*
X82683928Y-55535771D01*
X82683928Y-55535771D02*
X82779166Y-55583390D01*
X82779166Y-55583390D02*
X82826785Y-55631009D01*
X82826785Y-55631009D02*
X82874404Y-55726247D01*
X82874404Y-55726247D02*
X82874404Y-55964342D01*
X82874404Y-55964342D02*
X82826785Y-56059580D01*
X82826785Y-56059580D02*
X82779166Y-56107200D01*
X82779166Y-56107200D02*
X82683928Y-56154819D01*
X82683928Y-56154819D02*
X82398214Y-56154819D01*
X82398214Y-56154819D02*
X82302976Y-56107200D01*
X82302976Y-56107200D02*
X82255357Y-56059580D01*
X75904761Y-66259058D02*
X75809523Y-66211439D01*
X75809523Y-66211439D02*
X75714285Y-66116201D01*
X75714285Y-66116201D02*
X75571428Y-65973343D01*
X75571428Y-65973343D02*
X75476190Y-65925724D01*
X75476190Y-65925724D02*
X75380952Y-65925724D01*
X75428571Y-66163820D02*
X75333333Y-66116201D01*
X75333333Y-66116201D02*
X75238095Y-66020962D01*
X75238095Y-66020962D02*
X75190476Y-65830486D01*
X75190476Y-65830486D02*
X75190476Y-65497153D01*
X75190476Y-65497153D02*
X75238095Y-65306677D01*
X75238095Y-65306677D02*
X75333333Y-65211439D01*
X75333333Y-65211439D02*
X75428571Y-65163820D01*
X75428571Y-65163820D02*
X75619047Y-65163820D01*
X75619047Y-65163820D02*
X75714285Y-65211439D01*
X75714285Y-65211439D02*
X75809523Y-65306677D01*
X75809523Y-65306677D02*
X75857142Y-65497153D01*
X75857142Y-65497153D02*
X75857142Y-65830486D01*
X75857142Y-65830486D02*
X75809523Y-66020962D01*
X75809523Y-66020962D02*
X75714285Y-66116201D01*
X75714285Y-66116201D02*
X75619047Y-66163820D01*
X75619047Y-66163820D02*
X75428571Y-66163820D01*
X76238095Y-65259058D02*
X76285714Y-65211439D01*
X76285714Y-65211439D02*
X76380952Y-65163820D01*
X76380952Y-65163820D02*
X76619047Y-65163820D01*
X76619047Y-65163820D02*
X76714285Y-65211439D01*
X76714285Y-65211439D02*
X76761904Y-65259058D01*
X76761904Y-65259058D02*
X76809523Y-65354296D01*
X76809523Y-65354296D02*
X76809523Y-65449534D01*
X76809523Y-65449534D02*
X76761904Y-65592391D01*
X76761904Y-65592391D02*
X76190476Y-66163820D01*
X76190476Y-66163820D02*
X76809523Y-66163820D01*
X76904761Y-58550057D02*
X76809523Y-58502438D01*
X76809523Y-58502438D02*
X76714285Y-58407200D01*
X76714285Y-58407200D02*
X76571428Y-58264342D01*
X76571428Y-58264342D02*
X76476190Y-58216723D01*
X76476190Y-58216723D02*
X76380952Y-58216723D01*
X76428571Y-58454819D02*
X76333333Y-58407200D01*
X76333333Y-58407200D02*
X76238095Y-58311961D01*
X76238095Y-58311961D02*
X76190476Y-58121485D01*
X76190476Y-58121485D02*
X76190476Y-57788152D01*
X76190476Y-57788152D02*
X76238095Y-57597676D01*
X76238095Y-57597676D02*
X76333333Y-57502438D01*
X76333333Y-57502438D02*
X76428571Y-57454819D01*
X76428571Y-57454819D02*
X76619047Y-57454819D01*
X76619047Y-57454819D02*
X76714285Y-57502438D01*
X76714285Y-57502438D02*
X76809523Y-57597676D01*
X76809523Y-57597676D02*
X76857142Y-57788152D01*
X76857142Y-57788152D02*
X76857142Y-58121485D01*
X76857142Y-58121485D02*
X76809523Y-58311961D01*
X76809523Y-58311961D02*
X76714285Y-58407200D01*
X76714285Y-58407200D02*
X76619047Y-58454819D01*
X76619047Y-58454819D02*
X76428571Y-58454819D01*
X77809523Y-58454819D02*
X77238095Y-58454819D01*
X77523809Y-58454819D02*
X77523809Y-57454819D01*
X77523809Y-57454819D02*
X77428571Y-57597676D01*
X77428571Y-57597676D02*
X77333333Y-57692914D01*
X77333333Y-57692914D02*
X77238095Y-57740533D01*
X75833333Y-110454819D02*
X75500000Y-109978628D01*
X75261905Y-110454819D02*
X75261905Y-109454819D01*
X75261905Y-109454819D02*
X75642857Y-109454819D01*
X75642857Y-109454819D02*
X75738095Y-109502438D01*
X75738095Y-109502438D02*
X75785714Y-109550057D01*
X75785714Y-109550057D02*
X75833333Y-109645295D01*
X75833333Y-109645295D02*
X75833333Y-109788152D01*
X75833333Y-109788152D02*
X75785714Y-109883390D01*
X75785714Y-109883390D02*
X75738095Y-109931009D01*
X75738095Y-109931009D02*
X75642857Y-109978628D01*
X75642857Y-109978628D02*
X75261905Y-109978628D01*
X76690476Y-109788152D02*
X76690476Y-110454819D01*
X76452381Y-109407200D02*
X76214286Y-110121485D01*
X76214286Y-110121485D02*
X76833333Y-110121485D01*
X86220833Y-62454819D02*
X85887500Y-61978628D01*
X85649405Y-62454819D02*
X85649405Y-61454819D01*
X85649405Y-61454819D02*
X86030357Y-61454819D01*
X86030357Y-61454819D02*
X86125595Y-61502438D01*
X86125595Y-61502438D02*
X86173214Y-61550057D01*
X86173214Y-61550057D02*
X86220833Y-61645295D01*
X86220833Y-61645295D02*
X86220833Y-61788152D01*
X86220833Y-61788152D02*
X86173214Y-61883390D01*
X86173214Y-61883390D02*
X86125595Y-61931009D01*
X86125595Y-61931009D02*
X86030357Y-61978628D01*
X86030357Y-61978628D02*
X85649405Y-61978628D01*
X87125595Y-61454819D02*
X86649405Y-61454819D01*
X86649405Y-61454819D02*
X86601786Y-61931009D01*
X86601786Y-61931009D02*
X86649405Y-61883390D01*
X86649405Y-61883390D02*
X86744643Y-61835771D01*
X86744643Y-61835771D02*
X86982738Y-61835771D01*
X86982738Y-61835771D02*
X87077976Y-61883390D01*
X87077976Y-61883390D02*
X87125595Y-61931009D01*
X87125595Y-61931009D02*
X87173214Y-62026247D01*
X87173214Y-62026247D02*
X87173214Y-62264342D01*
X87173214Y-62264342D02*
X87125595Y-62359580D01*
X87125595Y-62359580D02*
X87077976Y-62407200D01*
X87077976Y-62407200D02*
X86982738Y-62454819D01*
X86982738Y-62454819D02*
X86744643Y-62454819D01*
X86744643Y-62454819D02*
X86649405Y-62407200D01*
X86649405Y-62407200D02*
X86601786Y-62359580D01*
X90857142Y-104459580D02*
X90809523Y-104507200D01*
X90809523Y-104507200D02*
X90666666Y-104554819D01*
X90666666Y-104554819D02*
X90571428Y-104554819D01*
X90571428Y-104554819D02*
X90428571Y-104507200D01*
X90428571Y-104507200D02*
X90333333Y-104411961D01*
X90333333Y-104411961D02*
X90285714Y-104316723D01*
X90285714Y-104316723D02*
X90238095Y-104126247D01*
X90238095Y-104126247D02*
X90238095Y-103983390D01*
X90238095Y-103983390D02*
X90285714Y-103792914D01*
X90285714Y-103792914D02*
X90333333Y-103697676D01*
X90333333Y-103697676D02*
X90428571Y-103602438D01*
X90428571Y-103602438D02*
X90571428Y-103554819D01*
X90571428Y-103554819D02*
X90666666Y-103554819D01*
X90666666Y-103554819D02*
X90809523Y-103602438D01*
X90809523Y-103602438D02*
X90857142Y-103650057D01*
X91238095Y-103650057D02*
X91285714Y-103602438D01*
X91285714Y-103602438D02*
X91380952Y-103554819D01*
X91380952Y-103554819D02*
X91619047Y-103554819D01*
X91619047Y-103554819D02*
X91714285Y-103602438D01*
X91714285Y-103602438D02*
X91761904Y-103650057D01*
X91761904Y-103650057D02*
X91809523Y-103745295D01*
X91809523Y-103745295D02*
X91809523Y-103840533D01*
X91809523Y-103840533D02*
X91761904Y-103983390D01*
X91761904Y-103983390D02*
X91190476Y-104554819D01*
X91190476Y-104554819D02*
X91809523Y-104554819D01*
X92142857Y-103554819D02*
X92761904Y-103554819D01*
X92761904Y-103554819D02*
X92428571Y-103935771D01*
X92428571Y-103935771D02*
X92571428Y-103935771D01*
X92571428Y-103935771D02*
X92666666Y-103983390D01*
X92666666Y-103983390D02*
X92714285Y-104031009D01*
X92714285Y-104031009D02*
X92761904Y-104126247D01*
X92761904Y-104126247D02*
X92761904Y-104364342D01*
X92761904Y-104364342D02*
X92714285Y-104459580D01*
X92714285Y-104459580D02*
X92666666Y-104507200D01*
X92666666Y-104507200D02*
X92571428Y-104554819D01*
X92571428Y-104554819D02*
X92285714Y-104554819D01*
X92285714Y-104554819D02*
X92190476Y-104507200D01*
X92190476Y-104507200D02*
X92142857Y-104459580D01*
X91433333Y-66259580D02*
X91385714Y-66307200D01*
X91385714Y-66307200D02*
X91242857Y-66354819D01*
X91242857Y-66354819D02*
X91147619Y-66354819D01*
X91147619Y-66354819D02*
X91004762Y-66307200D01*
X91004762Y-66307200D02*
X90909524Y-66211961D01*
X90909524Y-66211961D02*
X90861905Y-66116723D01*
X90861905Y-66116723D02*
X90814286Y-65926247D01*
X90814286Y-65926247D02*
X90814286Y-65783390D01*
X90814286Y-65783390D02*
X90861905Y-65592914D01*
X90861905Y-65592914D02*
X90909524Y-65497676D01*
X90909524Y-65497676D02*
X91004762Y-65402438D01*
X91004762Y-65402438D02*
X91147619Y-65354819D01*
X91147619Y-65354819D02*
X91242857Y-65354819D01*
X91242857Y-65354819D02*
X91385714Y-65402438D01*
X91385714Y-65402438D02*
X91433333Y-65450057D01*
X91766667Y-65354819D02*
X92433333Y-65354819D01*
X92433333Y-65354819D02*
X92004762Y-66354819D01*
X81057142Y-85354819D02*
X80723809Y-84878628D01*
X80485714Y-85354819D02*
X80485714Y-84354819D01*
X80485714Y-84354819D02*
X80866666Y-84354819D01*
X80866666Y-84354819D02*
X80961904Y-84402438D01*
X80961904Y-84402438D02*
X81009523Y-84450057D01*
X81009523Y-84450057D02*
X81057142Y-84545295D01*
X81057142Y-84545295D02*
X81057142Y-84688152D01*
X81057142Y-84688152D02*
X81009523Y-84783390D01*
X81009523Y-84783390D02*
X80961904Y-84831009D01*
X80961904Y-84831009D02*
X80866666Y-84878628D01*
X80866666Y-84878628D02*
X80485714Y-84878628D01*
X81438095Y-84450057D02*
X81485714Y-84402438D01*
X81485714Y-84402438D02*
X81580952Y-84354819D01*
X81580952Y-84354819D02*
X81819047Y-84354819D01*
X81819047Y-84354819D02*
X81914285Y-84402438D01*
X81914285Y-84402438D02*
X81961904Y-84450057D01*
X81961904Y-84450057D02*
X82009523Y-84545295D01*
X82009523Y-84545295D02*
X82009523Y-84640533D01*
X82009523Y-84640533D02*
X81961904Y-84783390D01*
X81961904Y-84783390D02*
X81390476Y-85354819D01*
X81390476Y-85354819D02*
X82009523Y-85354819D01*
X82580952Y-84783390D02*
X82485714Y-84735771D01*
X82485714Y-84735771D02*
X82438095Y-84688152D01*
X82438095Y-84688152D02*
X82390476Y-84592914D01*
X82390476Y-84592914D02*
X82390476Y-84545295D01*
X82390476Y-84545295D02*
X82438095Y-84450057D01*
X82438095Y-84450057D02*
X82485714Y-84402438D01*
X82485714Y-84402438D02*
X82580952Y-84354819D01*
X82580952Y-84354819D02*
X82771428Y-84354819D01*
X82771428Y-84354819D02*
X82866666Y-84402438D01*
X82866666Y-84402438D02*
X82914285Y-84450057D01*
X82914285Y-84450057D02*
X82961904Y-84545295D01*
X82961904Y-84545295D02*
X82961904Y-84592914D01*
X82961904Y-84592914D02*
X82914285Y-84688152D01*
X82914285Y-84688152D02*
X82866666Y-84735771D01*
X82866666Y-84735771D02*
X82771428Y-84783390D01*
X82771428Y-84783390D02*
X82580952Y-84783390D01*
X82580952Y-84783390D02*
X82485714Y-84831009D01*
X82485714Y-84831009D02*
X82438095Y-84878628D01*
X82438095Y-84878628D02*
X82390476Y-84973866D01*
X82390476Y-84973866D02*
X82390476Y-85164342D01*
X82390476Y-85164342D02*
X82438095Y-85259580D01*
X82438095Y-85259580D02*
X82485714Y-85307200D01*
X82485714Y-85307200D02*
X82580952Y-85354819D01*
X82580952Y-85354819D02*
X82771428Y-85354819D01*
X82771428Y-85354819D02*
X82866666Y-85307200D01*
X82866666Y-85307200D02*
X82914285Y-85259580D01*
X82914285Y-85259580D02*
X82961904Y-85164342D01*
X82961904Y-85164342D02*
X82961904Y-84973866D01*
X82961904Y-84973866D02*
X82914285Y-84878628D01*
X82914285Y-84878628D02*
X82866666Y-84831009D01*
X82866666Y-84831009D02*
X82771428Y-84783390D01*
X83957142Y-88754819D02*
X83623809Y-88278628D01*
X83385714Y-88754819D02*
X83385714Y-87754819D01*
X83385714Y-87754819D02*
X83766666Y-87754819D01*
X83766666Y-87754819D02*
X83861904Y-87802438D01*
X83861904Y-87802438D02*
X83909523Y-87850057D01*
X83909523Y-87850057D02*
X83957142Y-87945295D01*
X83957142Y-87945295D02*
X83957142Y-88088152D01*
X83957142Y-88088152D02*
X83909523Y-88183390D01*
X83909523Y-88183390D02*
X83861904Y-88231009D01*
X83861904Y-88231009D02*
X83766666Y-88278628D01*
X83766666Y-88278628D02*
X83385714Y-88278628D01*
X84338095Y-87850057D02*
X84385714Y-87802438D01*
X84385714Y-87802438D02*
X84480952Y-87754819D01*
X84480952Y-87754819D02*
X84719047Y-87754819D01*
X84719047Y-87754819D02*
X84814285Y-87802438D01*
X84814285Y-87802438D02*
X84861904Y-87850057D01*
X84861904Y-87850057D02*
X84909523Y-87945295D01*
X84909523Y-87945295D02*
X84909523Y-88040533D01*
X84909523Y-88040533D02*
X84861904Y-88183390D01*
X84861904Y-88183390D02*
X84290476Y-88754819D01*
X84290476Y-88754819D02*
X84909523Y-88754819D01*
X85385714Y-88754819D02*
X85576190Y-88754819D01*
X85576190Y-88754819D02*
X85671428Y-88707200D01*
X85671428Y-88707200D02*
X85719047Y-88659580D01*
X85719047Y-88659580D02*
X85814285Y-88516723D01*
X85814285Y-88516723D02*
X85861904Y-88326247D01*
X85861904Y-88326247D02*
X85861904Y-87945295D01*
X85861904Y-87945295D02*
X85814285Y-87850057D01*
X85814285Y-87850057D02*
X85766666Y-87802438D01*
X85766666Y-87802438D02*
X85671428Y-87754819D01*
X85671428Y-87754819D02*
X85480952Y-87754819D01*
X85480952Y-87754819D02*
X85385714Y-87802438D01*
X85385714Y-87802438D02*
X85338095Y-87850057D01*
X85338095Y-87850057D02*
X85290476Y-87945295D01*
X85290476Y-87945295D02*
X85290476Y-88183390D01*
X85290476Y-88183390D02*
X85338095Y-88278628D01*
X85338095Y-88278628D02*
X85385714Y-88326247D01*
X85385714Y-88326247D02*
X85480952Y-88373866D01*
X85480952Y-88373866D02*
X85671428Y-88373866D01*
X85671428Y-88373866D02*
X85766666Y-88326247D01*
X85766666Y-88326247D02*
X85814285Y-88278628D01*
X85814285Y-88278628D02*
X85861904Y-88183390D01*
X84320833Y-62454819D02*
X83987500Y-61978628D01*
X83749405Y-62454819D02*
X83749405Y-61454819D01*
X83749405Y-61454819D02*
X84130357Y-61454819D01*
X84130357Y-61454819D02*
X84225595Y-61502438D01*
X84225595Y-61502438D02*
X84273214Y-61550057D01*
X84273214Y-61550057D02*
X84320833Y-61645295D01*
X84320833Y-61645295D02*
X84320833Y-61788152D01*
X84320833Y-61788152D02*
X84273214Y-61883390D01*
X84273214Y-61883390D02*
X84225595Y-61931009D01*
X84225595Y-61931009D02*
X84130357Y-61978628D01*
X84130357Y-61978628D02*
X83749405Y-61978628D01*
X85177976Y-61454819D02*
X84987500Y-61454819D01*
X84987500Y-61454819D02*
X84892262Y-61502438D01*
X84892262Y-61502438D02*
X84844643Y-61550057D01*
X84844643Y-61550057D02*
X84749405Y-61692914D01*
X84749405Y-61692914D02*
X84701786Y-61883390D01*
X84701786Y-61883390D02*
X84701786Y-62264342D01*
X84701786Y-62264342D02*
X84749405Y-62359580D01*
X84749405Y-62359580D02*
X84797024Y-62407200D01*
X84797024Y-62407200D02*
X84892262Y-62454819D01*
X84892262Y-62454819D02*
X85082738Y-62454819D01*
X85082738Y-62454819D02*
X85177976Y-62407200D01*
X85177976Y-62407200D02*
X85225595Y-62359580D01*
X85225595Y-62359580D02*
X85273214Y-62264342D01*
X85273214Y-62264342D02*
X85273214Y-62026247D01*
X85273214Y-62026247D02*
X85225595Y-61931009D01*
X85225595Y-61931009D02*
X85177976Y-61883390D01*
X85177976Y-61883390D02*
X85082738Y-61835771D01*
X85082738Y-61835771D02*
X84892262Y-61835771D01*
X84892262Y-61835771D02*
X84797024Y-61883390D01*
X84797024Y-61883390D02*
X84749405Y-61931009D01*
X84749405Y-61931009D02*
X84701786Y-62026247D01*
X85988095Y-117954819D02*
X85988095Y-118764342D01*
X85988095Y-118764342D02*
X86035714Y-118859580D01*
X86035714Y-118859580D02*
X86083333Y-118907200D01*
X86083333Y-118907200D02*
X86178571Y-118954819D01*
X86178571Y-118954819D02*
X86369047Y-118954819D01*
X86369047Y-118954819D02*
X86464285Y-118907200D01*
X86464285Y-118907200D02*
X86511904Y-118859580D01*
X86511904Y-118859580D02*
X86559523Y-118764342D01*
X86559523Y-118764342D02*
X86559523Y-117954819D01*
X86988095Y-118050057D02*
X87035714Y-118002438D01*
X87035714Y-118002438D02*
X87130952Y-117954819D01*
X87130952Y-117954819D02*
X87369047Y-117954819D01*
X87369047Y-117954819D02*
X87464285Y-118002438D01*
X87464285Y-118002438D02*
X87511904Y-118050057D01*
X87511904Y-118050057D02*
X87559523Y-118145295D01*
X87559523Y-118145295D02*
X87559523Y-118240533D01*
X87559523Y-118240533D02*
X87511904Y-118383390D01*
X87511904Y-118383390D02*
X86940476Y-118954819D01*
X86940476Y-118954819D02*
X87559523Y-118954819D01*
X72857142Y-72622080D02*
X72809523Y-72669700D01*
X72809523Y-72669700D02*
X72666666Y-72717319D01*
X72666666Y-72717319D02*
X72571428Y-72717319D01*
X72571428Y-72717319D02*
X72428571Y-72669700D01*
X72428571Y-72669700D02*
X72333333Y-72574461D01*
X72333333Y-72574461D02*
X72285714Y-72479223D01*
X72285714Y-72479223D02*
X72238095Y-72288747D01*
X72238095Y-72288747D02*
X72238095Y-72145890D01*
X72238095Y-72145890D02*
X72285714Y-71955414D01*
X72285714Y-71955414D02*
X72333333Y-71860176D01*
X72333333Y-71860176D02*
X72428571Y-71764938D01*
X72428571Y-71764938D02*
X72571428Y-71717319D01*
X72571428Y-71717319D02*
X72666666Y-71717319D01*
X72666666Y-71717319D02*
X72809523Y-71764938D01*
X72809523Y-71764938D02*
X72857142Y-71812557D01*
X73809523Y-72717319D02*
X73238095Y-72717319D01*
X73523809Y-72717319D02*
X73523809Y-71717319D01*
X73523809Y-71717319D02*
X73428571Y-71860176D01*
X73428571Y-71860176D02*
X73333333Y-71955414D01*
X73333333Y-71955414D02*
X73238095Y-72003033D01*
X74666666Y-71717319D02*
X74476190Y-71717319D01*
X74476190Y-71717319D02*
X74380952Y-71764938D01*
X74380952Y-71764938D02*
X74333333Y-71812557D01*
X74333333Y-71812557D02*
X74238095Y-71955414D01*
X74238095Y-71955414D02*
X74190476Y-72145890D01*
X74190476Y-72145890D02*
X74190476Y-72526842D01*
X74190476Y-72526842D02*
X74238095Y-72622080D01*
X74238095Y-72622080D02*
X74285714Y-72669700D01*
X74285714Y-72669700D02*
X74380952Y-72717319D01*
X74380952Y-72717319D02*
X74571428Y-72717319D01*
X74571428Y-72717319D02*
X74666666Y-72669700D01*
X74666666Y-72669700D02*
X74714285Y-72622080D01*
X74714285Y-72622080D02*
X74761904Y-72526842D01*
X74761904Y-72526842D02*
X74761904Y-72288747D01*
X74761904Y-72288747D02*
X74714285Y-72193509D01*
X74714285Y-72193509D02*
X74666666Y-72145890D01*
X74666666Y-72145890D02*
X74571428Y-72098271D01*
X74571428Y-72098271D02*
X74380952Y-72098271D01*
X74380952Y-72098271D02*
X74285714Y-72145890D01*
X74285714Y-72145890D02*
X74238095Y-72193509D01*
X74238095Y-72193509D02*
X74190476Y-72288747D01*
X95907142Y-86042319D02*
X95573809Y-85566128D01*
X95335714Y-86042319D02*
X95335714Y-85042319D01*
X95335714Y-85042319D02*
X95716666Y-85042319D01*
X95716666Y-85042319D02*
X95811904Y-85089938D01*
X95811904Y-85089938D02*
X95859523Y-85137557D01*
X95859523Y-85137557D02*
X95907142Y-85232795D01*
X95907142Y-85232795D02*
X95907142Y-85375652D01*
X95907142Y-85375652D02*
X95859523Y-85470890D01*
X95859523Y-85470890D02*
X95811904Y-85518509D01*
X95811904Y-85518509D02*
X95716666Y-85566128D01*
X95716666Y-85566128D02*
X95335714Y-85566128D01*
X96288095Y-85137557D02*
X96335714Y-85089938D01*
X96335714Y-85089938D02*
X96430952Y-85042319D01*
X96430952Y-85042319D02*
X96669047Y-85042319D01*
X96669047Y-85042319D02*
X96764285Y-85089938D01*
X96764285Y-85089938D02*
X96811904Y-85137557D01*
X96811904Y-85137557D02*
X96859523Y-85232795D01*
X96859523Y-85232795D02*
X96859523Y-85328033D01*
X96859523Y-85328033D02*
X96811904Y-85470890D01*
X96811904Y-85470890D02*
X96240476Y-86042319D01*
X96240476Y-86042319D02*
X96859523Y-86042319D01*
X97240476Y-85137557D02*
X97288095Y-85089938D01*
X97288095Y-85089938D02*
X97383333Y-85042319D01*
X97383333Y-85042319D02*
X97621428Y-85042319D01*
X97621428Y-85042319D02*
X97716666Y-85089938D01*
X97716666Y-85089938D02*
X97764285Y-85137557D01*
X97764285Y-85137557D02*
X97811904Y-85232795D01*
X97811904Y-85232795D02*
X97811904Y-85328033D01*
X97811904Y-85328033D02*
X97764285Y-85470890D01*
X97764285Y-85470890D02*
X97192857Y-86042319D01*
X97192857Y-86042319D02*
X97811904Y-86042319D01*
X56857142Y-77609580D02*
X56809523Y-77657200D01*
X56809523Y-77657200D02*
X56666666Y-77704819D01*
X56666666Y-77704819D02*
X56571428Y-77704819D01*
X56571428Y-77704819D02*
X56428571Y-77657200D01*
X56428571Y-77657200D02*
X56333333Y-77561961D01*
X56333333Y-77561961D02*
X56285714Y-77466723D01*
X56285714Y-77466723D02*
X56238095Y-77276247D01*
X56238095Y-77276247D02*
X56238095Y-77133390D01*
X56238095Y-77133390D02*
X56285714Y-76942914D01*
X56285714Y-76942914D02*
X56333333Y-76847676D01*
X56333333Y-76847676D02*
X56428571Y-76752438D01*
X56428571Y-76752438D02*
X56571428Y-76704819D01*
X56571428Y-76704819D02*
X56666666Y-76704819D01*
X56666666Y-76704819D02*
X56809523Y-76752438D01*
X56809523Y-76752438D02*
X56857142Y-76800057D01*
X57809523Y-77704819D02*
X57238095Y-77704819D01*
X57523809Y-77704819D02*
X57523809Y-76704819D01*
X57523809Y-76704819D02*
X57428571Y-76847676D01*
X57428571Y-76847676D02*
X57333333Y-76942914D01*
X57333333Y-76942914D02*
X57238095Y-76990533D01*
X58190476Y-76800057D02*
X58238095Y-76752438D01*
X58238095Y-76752438D02*
X58333333Y-76704819D01*
X58333333Y-76704819D02*
X58571428Y-76704819D01*
X58571428Y-76704819D02*
X58666666Y-76752438D01*
X58666666Y-76752438D02*
X58714285Y-76800057D01*
X58714285Y-76800057D02*
X58761904Y-76895295D01*
X58761904Y-76895295D02*
X58761904Y-76990533D01*
X58761904Y-76990533D02*
X58714285Y-77133390D01*
X58714285Y-77133390D02*
X58142857Y-77704819D01*
X58142857Y-77704819D02*
X58761904Y-77704819D01*
X101607142Y-87165830D02*
X101559523Y-87213450D01*
X101559523Y-87213450D02*
X101416666Y-87261069D01*
X101416666Y-87261069D02*
X101321428Y-87261069D01*
X101321428Y-87261069D02*
X101178571Y-87213450D01*
X101178571Y-87213450D02*
X101083333Y-87118211D01*
X101083333Y-87118211D02*
X101035714Y-87022973D01*
X101035714Y-87022973D02*
X100988095Y-86832497D01*
X100988095Y-86832497D02*
X100988095Y-86689640D01*
X100988095Y-86689640D02*
X101035714Y-86499164D01*
X101035714Y-86499164D02*
X101083333Y-86403926D01*
X101083333Y-86403926D02*
X101178571Y-86308688D01*
X101178571Y-86308688D02*
X101321428Y-86261069D01*
X101321428Y-86261069D02*
X101416666Y-86261069D01*
X101416666Y-86261069D02*
X101559523Y-86308688D01*
X101559523Y-86308688D02*
X101607142Y-86356307D01*
X101988095Y-86356307D02*
X102035714Y-86308688D01*
X102035714Y-86308688D02*
X102130952Y-86261069D01*
X102130952Y-86261069D02*
X102369047Y-86261069D01*
X102369047Y-86261069D02*
X102464285Y-86308688D01*
X102464285Y-86308688D02*
X102511904Y-86356307D01*
X102511904Y-86356307D02*
X102559523Y-86451545D01*
X102559523Y-86451545D02*
X102559523Y-86546783D01*
X102559523Y-86546783D02*
X102511904Y-86689640D01*
X102511904Y-86689640D02*
X101940476Y-87261069D01*
X101940476Y-87261069D02*
X102559523Y-87261069D01*
X102892857Y-86261069D02*
X103559523Y-86261069D01*
X103559523Y-86261069D02*
X103130952Y-87261069D01*
X71607142Y-69954819D02*
X71273809Y-69478628D01*
X71035714Y-69954819D02*
X71035714Y-68954819D01*
X71035714Y-68954819D02*
X71416666Y-68954819D01*
X71416666Y-68954819D02*
X71511904Y-69002438D01*
X71511904Y-69002438D02*
X71559523Y-69050057D01*
X71559523Y-69050057D02*
X71607142Y-69145295D01*
X71607142Y-69145295D02*
X71607142Y-69288152D01*
X71607142Y-69288152D02*
X71559523Y-69383390D01*
X71559523Y-69383390D02*
X71511904Y-69431009D01*
X71511904Y-69431009D02*
X71416666Y-69478628D01*
X71416666Y-69478628D02*
X71035714Y-69478628D01*
X72559523Y-69954819D02*
X71988095Y-69954819D01*
X72273809Y-69954819D02*
X72273809Y-68954819D01*
X72273809Y-68954819D02*
X72178571Y-69097676D01*
X72178571Y-69097676D02*
X72083333Y-69192914D01*
X72083333Y-69192914D02*
X71988095Y-69240533D01*
X73511904Y-69954819D02*
X72940476Y-69954819D01*
X73226190Y-69954819D02*
X73226190Y-68954819D01*
X73226190Y-68954819D02*
X73130952Y-69097676D01*
X73130952Y-69097676D02*
X73035714Y-69192914D01*
X73035714Y-69192914D02*
X72940476Y-69240533D01*
X100757142Y-98354819D02*
X100423809Y-97878628D01*
X100185714Y-98354819D02*
X100185714Y-97354819D01*
X100185714Y-97354819D02*
X100566666Y-97354819D01*
X100566666Y-97354819D02*
X100661904Y-97402438D01*
X100661904Y-97402438D02*
X100709523Y-97450057D01*
X100709523Y-97450057D02*
X100757142Y-97545295D01*
X100757142Y-97545295D02*
X100757142Y-97688152D01*
X100757142Y-97688152D02*
X100709523Y-97783390D01*
X100709523Y-97783390D02*
X100661904Y-97831009D01*
X100661904Y-97831009D02*
X100566666Y-97878628D01*
X100566666Y-97878628D02*
X100185714Y-97878628D01*
X101138095Y-97450057D02*
X101185714Y-97402438D01*
X101185714Y-97402438D02*
X101280952Y-97354819D01*
X101280952Y-97354819D02*
X101519047Y-97354819D01*
X101519047Y-97354819D02*
X101614285Y-97402438D01*
X101614285Y-97402438D02*
X101661904Y-97450057D01*
X101661904Y-97450057D02*
X101709523Y-97545295D01*
X101709523Y-97545295D02*
X101709523Y-97640533D01*
X101709523Y-97640533D02*
X101661904Y-97783390D01*
X101661904Y-97783390D02*
X101090476Y-98354819D01*
X101090476Y-98354819D02*
X101709523Y-98354819D01*
X102614285Y-97354819D02*
X102138095Y-97354819D01*
X102138095Y-97354819D02*
X102090476Y-97831009D01*
X102090476Y-97831009D02*
X102138095Y-97783390D01*
X102138095Y-97783390D02*
X102233333Y-97735771D01*
X102233333Y-97735771D02*
X102471428Y-97735771D01*
X102471428Y-97735771D02*
X102566666Y-97783390D01*
X102566666Y-97783390D02*
X102614285Y-97831009D01*
X102614285Y-97831009D02*
X102661904Y-97926247D01*
X102661904Y-97926247D02*
X102661904Y-98164342D01*
X102661904Y-98164342D02*
X102614285Y-98259580D01*
X102614285Y-98259580D02*
X102566666Y-98307200D01*
X102566666Y-98307200D02*
X102471428Y-98354819D01*
X102471428Y-98354819D02*
X102233333Y-98354819D01*
X102233333Y-98354819D02*
X102138095Y-98307200D01*
X102138095Y-98307200D02*
X102090476Y-98259580D01*
X86357142Y-115359580D02*
X86309523Y-115407200D01*
X86309523Y-115407200D02*
X86166666Y-115454819D01*
X86166666Y-115454819D02*
X86071428Y-115454819D01*
X86071428Y-115454819D02*
X85928571Y-115407200D01*
X85928571Y-115407200D02*
X85833333Y-115311961D01*
X85833333Y-115311961D02*
X85785714Y-115216723D01*
X85785714Y-115216723D02*
X85738095Y-115026247D01*
X85738095Y-115026247D02*
X85738095Y-114883390D01*
X85738095Y-114883390D02*
X85785714Y-114692914D01*
X85785714Y-114692914D02*
X85833333Y-114597676D01*
X85833333Y-114597676D02*
X85928571Y-114502438D01*
X85928571Y-114502438D02*
X86071428Y-114454819D01*
X86071428Y-114454819D02*
X86166666Y-114454819D01*
X86166666Y-114454819D02*
X86309523Y-114502438D01*
X86309523Y-114502438D02*
X86357142Y-114550057D01*
X87309523Y-115454819D02*
X86738095Y-115454819D01*
X87023809Y-115454819D02*
X87023809Y-114454819D01*
X87023809Y-114454819D02*
X86928571Y-114597676D01*
X86928571Y-114597676D02*
X86833333Y-114692914D01*
X86833333Y-114692914D02*
X86738095Y-114740533D01*
X87880952Y-114883390D02*
X87785714Y-114835771D01*
X87785714Y-114835771D02*
X87738095Y-114788152D01*
X87738095Y-114788152D02*
X87690476Y-114692914D01*
X87690476Y-114692914D02*
X87690476Y-114645295D01*
X87690476Y-114645295D02*
X87738095Y-114550057D01*
X87738095Y-114550057D02*
X87785714Y-114502438D01*
X87785714Y-114502438D02*
X87880952Y-114454819D01*
X87880952Y-114454819D02*
X88071428Y-114454819D01*
X88071428Y-114454819D02*
X88166666Y-114502438D01*
X88166666Y-114502438D02*
X88214285Y-114550057D01*
X88214285Y-114550057D02*
X88261904Y-114645295D01*
X88261904Y-114645295D02*
X88261904Y-114692914D01*
X88261904Y-114692914D02*
X88214285Y-114788152D01*
X88214285Y-114788152D02*
X88166666Y-114835771D01*
X88166666Y-114835771D02*
X88071428Y-114883390D01*
X88071428Y-114883390D02*
X87880952Y-114883390D01*
X87880952Y-114883390D02*
X87785714Y-114931009D01*
X87785714Y-114931009D02*
X87738095Y-114978628D01*
X87738095Y-114978628D02*
X87690476Y-115073866D01*
X87690476Y-115073866D02*
X87690476Y-115264342D01*
X87690476Y-115264342D02*
X87738095Y-115359580D01*
X87738095Y-115359580D02*
X87785714Y-115407200D01*
X87785714Y-115407200D02*
X87880952Y-115454819D01*
X87880952Y-115454819D02*
X88071428Y-115454819D01*
X88071428Y-115454819D02*
X88166666Y-115407200D01*
X88166666Y-115407200D02*
X88214285Y-115359580D01*
X88214285Y-115359580D02*
X88261904Y-115264342D01*
X88261904Y-115264342D02*
X88261904Y-115073866D01*
X88261904Y-115073866D02*
X88214285Y-114978628D01*
X88214285Y-114978628D02*
X88166666Y-114931009D01*
X88166666Y-114931009D02*
X88071428Y-114883390D01*
X66133333Y-60204819D02*
X65800000Y-59728628D01*
X65561905Y-60204819D02*
X65561905Y-59204819D01*
X65561905Y-59204819D02*
X65942857Y-59204819D01*
X65942857Y-59204819D02*
X66038095Y-59252438D01*
X66038095Y-59252438D02*
X66085714Y-59300057D01*
X66085714Y-59300057D02*
X66133333Y-59395295D01*
X66133333Y-59395295D02*
X66133333Y-59538152D01*
X66133333Y-59538152D02*
X66085714Y-59633390D01*
X66085714Y-59633390D02*
X66038095Y-59681009D01*
X66038095Y-59681009D02*
X65942857Y-59728628D01*
X65942857Y-59728628D02*
X65561905Y-59728628D01*
X66609524Y-60204819D02*
X66800000Y-60204819D01*
X66800000Y-60204819D02*
X66895238Y-60157200D01*
X66895238Y-60157200D02*
X66942857Y-60109580D01*
X66942857Y-60109580D02*
X67038095Y-59966723D01*
X67038095Y-59966723D02*
X67085714Y-59776247D01*
X67085714Y-59776247D02*
X67085714Y-59395295D01*
X67085714Y-59395295D02*
X67038095Y-59300057D01*
X67038095Y-59300057D02*
X66990476Y-59252438D01*
X66990476Y-59252438D02*
X66895238Y-59204819D01*
X66895238Y-59204819D02*
X66704762Y-59204819D01*
X66704762Y-59204819D02*
X66609524Y-59252438D01*
X66609524Y-59252438D02*
X66561905Y-59300057D01*
X66561905Y-59300057D02*
X66514286Y-59395295D01*
X66514286Y-59395295D02*
X66514286Y-59633390D01*
X66514286Y-59633390D02*
X66561905Y-59728628D01*
X66561905Y-59728628D02*
X66609524Y-59776247D01*
X66609524Y-59776247D02*
X66704762Y-59823866D01*
X66704762Y-59823866D02*
X66895238Y-59823866D01*
X66895238Y-59823866D02*
X66990476Y-59776247D01*
X66990476Y-59776247D02*
X67038095Y-59728628D01*
X67038095Y-59728628D02*
X67085714Y-59633390D01*
X72238095Y-92704819D02*
X72238095Y-93514342D01*
X72238095Y-93514342D02*
X72285714Y-93609580D01*
X72285714Y-93609580D02*
X72333333Y-93657200D01*
X72333333Y-93657200D02*
X72428571Y-93704819D01*
X72428571Y-93704819D02*
X72619047Y-93704819D01*
X72619047Y-93704819D02*
X72714285Y-93657200D01*
X72714285Y-93657200D02*
X72761904Y-93609580D01*
X72761904Y-93609580D02*
X72809523Y-93514342D01*
X72809523Y-93514342D02*
X72809523Y-92704819D01*
X73428571Y-93133390D02*
X73333333Y-93085771D01*
X73333333Y-93085771D02*
X73285714Y-93038152D01*
X73285714Y-93038152D02*
X73238095Y-92942914D01*
X73238095Y-92942914D02*
X73238095Y-92895295D01*
X73238095Y-92895295D02*
X73285714Y-92800057D01*
X73285714Y-92800057D02*
X73333333Y-92752438D01*
X73333333Y-92752438D02*
X73428571Y-92704819D01*
X73428571Y-92704819D02*
X73619047Y-92704819D01*
X73619047Y-92704819D02*
X73714285Y-92752438D01*
X73714285Y-92752438D02*
X73761904Y-92800057D01*
X73761904Y-92800057D02*
X73809523Y-92895295D01*
X73809523Y-92895295D02*
X73809523Y-92942914D01*
X73809523Y-92942914D02*
X73761904Y-93038152D01*
X73761904Y-93038152D02*
X73714285Y-93085771D01*
X73714285Y-93085771D02*
X73619047Y-93133390D01*
X73619047Y-93133390D02*
X73428571Y-93133390D01*
X73428571Y-93133390D02*
X73333333Y-93181009D01*
X73333333Y-93181009D02*
X73285714Y-93228628D01*
X73285714Y-93228628D02*
X73238095Y-93323866D01*
X73238095Y-93323866D02*
X73238095Y-93514342D01*
X73238095Y-93514342D02*
X73285714Y-93609580D01*
X73285714Y-93609580D02*
X73333333Y-93657200D01*
X73333333Y-93657200D02*
X73428571Y-93704819D01*
X73428571Y-93704819D02*
X73619047Y-93704819D01*
X73619047Y-93704819D02*
X73714285Y-93657200D01*
X73714285Y-93657200D02*
X73761904Y-93609580D01*
X73761904Y-93609580D02*
X73809523Y-93514342D01*
X73809523Y-93514342D02*
X73809523Y-93323866D01*
X73809523Y-93323866D02*
X73761904Y-93228628D01*
X73761904Y-93228628D02*
X73714285Y-93181009D01*
X73714285Y-93181009D02*
X73619047Y-93133390D01*
X78916666Y-83181009D02*
X78583333Y-83181009D01*
X78583333Y-83704819D02*
X78583333Y-82704819D01*
X78583333Y-82704819D02*
X79059523Y-82704819D01*
X79964285Y-83704819D02*
X79392857Y-83704819D01*
X79678571Y-83704819D02*
X79678571Y-82704819D01*
X79678571Y-82704819D02*
X79583333Y-82847676D01*
X79583333Y-82847676D02*
X79488095Y-82942914D01*
X79488095Y-82942914D02*
X79392857Y-82990533D01*
X105333333Y-58859580D02*
X105285714Y-58907200D01*
X105285714Y-58907200D02*
X105142857Y-58954819D01*
X105142857Y-58954819D02*
X105047619Y-58954819D01*
X105047619Y-58954819D02*
X104904762Y-58907200D01*
X104904762Y-58907200D02*
X104809524Y-58811961D01*
X104809524Y-58811961D02*
X104761905Y-58716723D01*
X104761905Y-58716723D02*
X104714286Y-58526247D01*
X104714286Y-58526247D02*
X104714286Y-58383390D01*
X104714286Y-58383390D02*
X104761905Y-58192914D01*
X104761905Y-58192914D02*
X104809524Y-58097676D01*
X104809524Y-58097676D02*
X104904762Y-58002438D01*
X104904762Y-58002438D02*
X105047619Y-57954819D01*
X105047619Y-57954819D02*
X105142857Y-57954819D01*
X105142857Y-57954819D02*
X105285714Y-58002438D01*
X105285714Y-58002438D02*
X105333333Y-58050057D01*
X106238095Y-57954819D02*
X105761905Y-57954819D01*
X105761905Y-57954819D02*
X105714286Y-58431009D01*
X105714286Y-58431009D02*
X105761905Y-58383390D01*
X105761905Y-58383390D02*
X105857143Y-58335771D01*
X105857143Y-58335771D02*
X106095238Y-58335771D01*
X106095238Y-58335771D02*
X106190476Y-58383390D01*
X106190476Y-58383390D02*
X106238095Y-58431009D01*
X106238095Y-58431009D02*
X106285714Y-58526247D01*
X106285714Y-58526247D02*
X106285714Y-58764342D01*
X106285714Y-58764342D02*
X106238095Y-58859580D01*
X106238095Y-58859580D02*
X106190476Y-58907200D01*
X106190476Y-58907200D02*
X106095238Y-58954819D01*
X106095238Y-58954819D02*
X105857143Y-58954819D01*
X105857143Y-58954819D02*
X105761905Y-58907200D01*
X105761905Y-58907200D02*
X105714286Y-58859580D01*
X62838095Y-57606819D02*
X63409523Y-57606819D01*
X63123809Y-58606819D02*
X63123809Y-57606819D01*
X63742857Y-58606819D02*
X63742857Y-57606819D01*
X63742857Y-57606819D02*
X64123809Y-57606819D01*
X64123809Y-57606819D02*
X64219047Y-57654438D01*
X64219047Y-57654438D02*
X64266666Y-57702057D01*
X64266666Y-57702057D02*
X64314285Y-57797295D01*
X64314285Y-57797295D02*
X64314285Y-57940152D01*
X64314285Y-57940152D02*
X64266666Y-58035390D01*
X64266666Y-58035390D02*
X64219047Y-58083009D01*
X64219047Y-58083009D02*
X64123809Y-58130628D01*
X64123809Y-58130628D02*
X63742857Y-58130628D01*
X64695238Y-57702057D02*
X64742857Y-57654438D01*
X64742857Y-57654438D02*
X64838095Y-57606819D01*
X64838095Y-57606819D02*
X65076190Y-57606819D01*
X65076190Y-57606819D02*
X65171428Y-57654438D01*
X65171428Y-57654438D02*
X65219047Y-57702057D01*
X65219047Y-57702057D02*
X65266666Y-57797295D01*
X65266666Y-57797295D02*
X65266666Y-57892533D01*
X65266666Y-57892533D02*
X65219047Y-58035390D01*
X65219047Y-58035390D02*
X64647619Y-58606819D01*
X64647619Y-58606819D02*
X65266666Y-58606819D01*
X83357142Y-99559580D02*
X83309523Y-99607200D01*
X83309523Y-99607200D02*
X83166666Y-99654819D01*
X83166666Y-99654819D02*
X83071428Y-99654819D01*
X83071428Y-99654819D02*
X82928571Y-99607200D01*
X82928571Y-99607200D02*
X82833333Y-99511961D01*
X82833333Y-99511961D02*
X82785714Y-99416723D01*
X82785714Y-99416723D02*
X82738095Y-99226247D01*
X82738095Y-99226247D02*
X82738095Y-99083390D01*
X82738095Y-99083390D02*
X82785714Y-98892914D01*
X82785714Y-98892914D02*
X82833333Y-98797676D01*
X82833333Y-98797676D02*
X82928571Y-98702438D01*
X82928571Y-98702438D02*
X83071428Y-98654819D01*
X83071428Y-98654819D02*
X83166666Y-98654819D01*
X83166666Y-98654819D02*
X83309523Y-98702438D01*
X83309523Y-98702438D02*
X83357142Y-98750057D01*
X83738095Y-98750057D02*
X83785714Y-98702438D01*
X83785714Y-98702438D02*
X83880952Y-98654819D01*
X83880952Y-98654819D02*
X84119047Y-98654819D01*
X84119047Y-98654819D02*
X84214285Y-98702438D01*
X84214285Y-98702438D02*
X84261904Y-98750057D01*
X84261904Y-98750057D02*
X84309523Y-98845295D01*
X84309523Y-98845295D02*
X84309523Y-98940533D01*
X84309523Y-98940533D02*
X84261904Y-99083390D01*
X84261904Y-99083390D02*
X83690476Y-99654819D01*
X83690476Y-99654819D02*
X84309523Y-99654819D01*
X85166666Y-98654819D02*
X84976190Y-98654819D01*
X84976190Y-98654819D02*
X84880952Y-98702438D01*
X84880952Y-98702438D02*
X84833333Y-98750057D01*
X84833333Y-98750057D02*
X84738095Y-98892914D01*
X84738095Y-98892914D02*
X84690476Y-99083390D01*
X84690476Y-99083390D02*
X84690476Y-99464342D01*
X84690476Y-99464342D02*
X84738095Y-99559580D01*
X84738095Y-99559580D02*
X84785714Y-99607200D01*
X84785714Y-99607200D02*
X84880952Y-99654819D01*
X84880952Y-99654819D02*
X85071428Y-99654819D01*
X85071428Y-99654819D02*
X85166666Y-99607200D01*
X85166666Y-99607200D02*
X85214285Y-99559580D01*
X85214285Y-99559580D02*
X85261904Y-99464342D01*
X85261904Y-99464342D02*
X85261904Y-99226247D01*
X85261904Y-99226247D02*
X85214285Y-99131009D01*
X85214285Y-99131009D02*
X85166666Y-99083390D01*
X85166666Y-99083390D02*
X85071428Y-99035771D01*
X85071428Y-99035771D02*
X84880952Y-99035771D01*
X84880952Y-99035771D02*
X84785714Y-99083390D01*
X84785714Y-99083390D02*
X84738095Y-99131009D01*
X84738095Y-99131009D02*
X84690476Y-99226247D01*
X62488095Y-84954819D02*
X62488095Y-85764342D01*
X62488095Y-85764342D02*
X62535714Y-85859580D01*
X62535714Y-85859580D02*
X62583333Y-85907200D01*
X62583333Y-85907200D02*
X62678571Y-85954819D01*
X62678571Y-85954819D02*
X62869047Y-85954819D01*
X62869047Y-85954819D02*
X62964285Y-85907200D01*
X62964285Y-85907200D02*
X63011904Y-85859580D01*
X63011904Y-85859580D02*
X63059523Y-85764342D01*
X63059523Y-85764342D02*
X63059523Y-84954819D01*
X64011904Y-84954819D02*
X63535714Y-84954819D01*
X63535714Y-84954819D02*
X63488095Y-85431009D01*
X63488095Y-85431009D02*
X63535714Y-85383390D01*
X63535714Y-85383390D02*
X63630952Y-85335771D01*
X63630952Y-85335771D02*
X63869047Y-85335771D01*
X63869047Y-85335771D02*
X63964285Y-85383390D01*
X63964285Y-85383390D02*
X64011904Y-85431009D01*
X64011904Y-85431009D02*
X64059523Y-85526247D01*
X64059523Y-85526247D02*
X64059523Y-85764342D01*
X64059523Y-85764342D02*
X64011904Y-85859580D01*
X64011904Y-85859580D02*
X63964285Y-85907200D01*
X63964285Y-85907200D02*
X63869047Y-85954819D01*
X63869047Y-85954819D02*
X63630952Y-85954819D01*
X63630952Y-85954819D02*
X63535714Y-85907200D01*
X63535714Y-85907200D02*
X63488095Y-85859580D01*
X65607142Y-64704819D02*
X65273809Y-64228628D01*
X65035714Y-64704819D02*
X65035714Y-63704819D01*
X65035714Y-63704819D02*
X65416666Y-63704819D01*
X65416666Y-63704819D02*
X65511904Y-63752438D01*
X65511904Y-63752438D02*
X65559523Y-63800057D01*
X65559523Y-63800057D02*
X65607142Y-63895295D01*
X65607142Y-63895295D02*
X65607142Y-64038152D01*
X65607142Y-64038152D02*
X65559523Y-64133390D01*
X65559523Y-64133390D02*
X65511904Y-64181009D01*
X65511904Y-64181009D02*
X65416666Y-64228628D01*
X65416666Y-64228628D02*
X65035714Y-64228628D01*
X66559523Y-64704819D02*
X65988095Y-64704819D01*
X66273809Y-64704819D02*
X66273809Y-63704819D01*
X66273809Y-63704819D02*
X66178571Y-63847676D01*
X66178571Y-63847676D02*
X66083333Y-63942914D01*
X66083333Y-63942914D02*
X65988095Y-63990533D01*
X66940476Y-63800057D02*
X66988095Y-63752438D01*
X66988095Y-63752438D02*
X67083333Y-63704819D01*
X67083333Y-63704819D02*
X67321428Y-63704819D01*
X67321428Y-63704819D02*
X67416666Y-63752438D01*
X67416666Y-63752438D02*
X67464285Y-63800057D01*
X67464285Y-63800057D02*
X67511904Y-63895295D01*
X67511904Y-63895295D02*
X67511904Y-63990533D01*
X67511904Y-63990533D02*
X67464285Y-64133390D01*
X67464285Y-64133390D02*
X66892857Y-64704819D01*
X66892857Y-64704819D02*
X67511904Y-64704819D01*
X89257142Y-95854819D02*
X88923809Y-95378628D01*
X88685714Y-95854819D02*
X88685714Y-94854819D01*
X88685714Y-94854819D02*
X89066666Y-94854819D01*
X89066666Y-94854819D02*
X89161904Y-94902438D01*
X89161904Y-94902438D02*
X89209523Y-94950057D01*
X89209523Y-94950057D02*
X89257142Y-95045295D01*
X89257142Y-95045295D02*
X89257142Y-95188152D01*
X89257142Y-95188152D02*
X89209523Y-95283390D01*
X89209523Y-95283390D02*
X89161904Y-95331009D01*
X89161904Y-95331009D02*
X89066666Y-95378628D01*
X89066666Y-95378628D02*
X88685714Y-95378628D01*
X89638095Y-94950057D02*
X89685714Y-94902438D01*
X89685714Y-94902438D02*
X89780952Y-94854819D01*
X89780952Y-94854819D02*
X90019047Y-94854819D01*
X90019047Y-94854819D02*
X90114285Y-94902438D01*
X90114285Y-94902438D02*
X90161904Y-94950057D01*
X90161904Y-94950057D02*
X90209523Y-95045295D01*
X90209523Y-95045295D02*
X90209523Y-95140533D01*
X90209523Y-95140533D02*
X90161904Y-95283390D01*
X90161904Y-95283390D02*
X89590476Y-95854819D01*
X89590476Y-95854819D02*
X90209523Y-95854819D01*
X91066666Y-94854819D02*
X90876190Y-94854819D01*
X90876190Y-94854819D02*
X90780952Y-94902438D01*
X90780952Y-94902438D02*
X90733333Y-94950057D01*
X90733333Y-94950057D02*
X90638095Y-95092914D01*
X90638095Y-95092914D02*
X90590476Y-95283390D01*
X90590476Y-95283390D02*
X90590476Y-95664342D01*
X90590476Y-95664342D02*
X90638095Y-95759580D01*
X90638095Y-95759580D02*
X90685714Y-95807200D01*
X90685714Y-95807200D02*
X90780952Y-95854819D01*
X90780952Y-95854819D02*
X90971428Y-95854819D01*
X90971428Y-95854819D02*
X91066666Y-95807200D01*
X91066666Y-95807200D02*
X91114285Y-95759580D01*
X91114285Y-95759580D02*
X91161904Y-95664342D01*
X91161904Y-95664342D02*
X91161904Y-95426247D01*
X91161904Y-95426247D02*
X91114285Y-95331009D01*
X91114285Y-95331009D02*
X91066666Y-95283390D01*
X91066666Y-95283390D02*
X90971428Y-95235771D01*
X90971428Y-95235771D02*
X90780952Y-95235771D01*
X90780952Y-95235771D02*
X90685714Y-95283390D01*
X90685714Y-95283390D02*
X90638095Y-95331009D01*
X90638095Y-95331009D02*
X90590476Y-95426247D01*
X94557142Y-83259580D02*
X94509523Y-83307200D01*
X94509523Y-83307200D02*
X94366666Y-83354819D01*
X94366666Y-83354819D02*
X94271428Y-83354819D01*
X94271428Y-83354819D02*
X94128571Y-83307200D01*
X94128571Y-83307200D02*
X94033333Y-83211961D01*
X94033333Y-83211961D02*
X93985714Y-83116723D01*
X93985714Y-83116723D02*
X93938095Y-82926247D01*
X93938095Y-82926247D02*
X93938095Y-82783390D01*
X93938095Y-82783390D02*
X93985714Y-82592914D01*
X93985714Y-82592914D02*
X94033333Y-82497676D01*
X94033333Y-82497676D02*
X94128571Y-82402438D01*
X94128571Y-82402438D02*
X94271428Y-82354819D01*
X94271428Y-82354819D02*
X94366666Y-82354819D01*
X94366666Y-82354819D02*
X94509523Y-82402438D01*
X94509523Y-82402438D02*
X94557142Y-82450057D01*
X94938095Y-82450057D02*
X94985714Y-82402438D01*
X94985714Y-82402438D02*
X95080952Y-82354819D01*
X95080952Y-82354819D02*
X95319047Y-82354819D01*
X95319047Y-82354819D02*
X95414285Y-82402438D01*
X95414285Y-82402438D02*
X95461904Y-82450057D01*
X95461904Y-82450057D02*
X95509523Y-82545295D01*
X95509523Y-82545295D02*
X95509523Y-82640533D01*
X95509523Y-82640533D02*
X95461904Y-82783390D01*
X95461904Y-82783390D02*
X94890476Y-83354819D01*
X94890476Y-83354819D02*
X95509523Y-83354819D01*
X96128571Y-82354819D02*
X96223809Y-82354819D01*
X96223809Y-82354819D02*
X96319047Y-82402438D01*
X96319047Y-82402438D02*
X96366666Y-82450057D01*
X96366666Y-82450057D02*
X96414285Y-82545295D01*
X96414285Y-82545295D02*
X96461904Y-82735771D01*
X96461904Y-82735771D02*
X96461904Y-82973866D01*
X96461904Y-82973866D02*
X96414285Y-83164342D01*
X96414285Y-83164342D02*
X96366666Y-83259580D01*
X96366666Y-83259580D02*
X96319047Y-83307200D01*
X96319047Y-83307200D02*
X96223809Y-83354819D01*
X96223809Y-83354819D02*
X96128571Y-83354819D01*
X96128571Y-83354819D02*
X96033333Y-83307200D01*
X96033333Y-83307200D02*
X95985714Y-83259580D01*
X95985714Y-83259580D02*
X95938095Y-83164342D01*
X95938095Y-83164342D02*
X95890476Y-82973866D01*
X95890476Y-82973866D02*
X95890476Y-82735771D01*
X95890476Y-82735771D02*
X95938095Y-82545295D01*
X95938095Y-82545295D02*
X95985714Y-82450057D01*
X95985714Y-82450057D02*
X96033333Y-82402438D01*
X96033333Y-82402438D02*
X96128571Y-82354819D01*
X97938095Y-71954819D02*
X97938095Y-72764342D01*
X97938095Y-72764342D02*
X97985714Y-72859580D01*
X97985714Y-72859580D02*
X98033333Y-72907200D01*
X98033333Y-72907200D02*
X98128571Y-72954819D01*
X98128571Y-72954819D02*
X98319047Y-72954819D01*
X98319047Y-72954819D02*
X98414285Y-72907200D01*
X98414285Y-72907200D02*
X98461904Y-72859580D01*
X98461904Y-72859580D02*
X98509523Y-72764342D01*
X98509523Y-72764342D02*
X98509523Y-71954819D01*
X98890476Y-71954819D02*
X99557142Y-71954819D01*
X99557142Y-71954819D02*
X99128571Y-72954819D01*
X56857142Y-81859580D02*
X56809523Y-81907200D01*
X56809523Y-81907200D02*
X56666666Y-81954819D01*
X56666666Y-81954819D02*
X56571428Y-81954819D01*
X56571428Y-81954819D02*
X56428571Y-81907200D01*
X56428571Y-81907200D02*
X56333333Y-81811961D01*
X56333333Y-81811961D02*
X56285714Y-81716723D01*
X56285714Y-81716723D02*
X56238095Y-81526247D01*
X56238095Y-81526247D02*
X56238095Y-81383390D01*
X56238095Y-81383390D02*
X56285714Y-81192914D01*
X56285714Y-81192914D02*
X56333333Y-81097676D01*
X56333333Y-81097676D02*
X56428571Y-81002438D01*
X56428571Y-81002438D02*
X56571428Y-80954819D01*
X56571428Y-80954819D02*
X56666666Y-80954819D01*
X56666666Y-80954819D02*
X56809523Y-81002438D01*
X56809523Y-81002438D02*
X56857142Y-81050057D01*
X57809523Y-81954819D02*
X57238095Y-81954819D01*
X57523809Y-81954819D02*
X57523809Y-80954819D01*
X57523809Y-80954819D02*
X57428571Y-81097676D01*
X57428571Y-81097676D02*
X57333333Y-81192914D01*
X57333333Y-81192914D02*
X57238095Y-81240533D01*
X58142857Y-80954819D02*
X58761904Y-80954819D01*
X58761904Y-80954819D02*
X58428571Y-81335771D01*
X58428571Y-81335771D02*
X58571428Y-81335771D01*
X58571428Y-81335771D02*
X58666666Y-81383390D01*
X58666666Y-81383390D02*
X58714285Y-81431009D01*
X58714285Y-81431009D02*
X58761904Y-81526247D01*
X58761904Y-81526247D02*
X58761904Y-81764342D01*
X58761904Y-81764342D02*
X58714285Y-81859580D01*
X58714285Y-81859580D02*
X58666666Y-81907200D01*
X58666666Y-81907200D02*
X58571428Y-81954819D01*
X58571428Y-81954819D02*
X58285714Y-81954819D01*
X58285714Y-81954819D02*
X58190476Y-81907200D01*
X58190476Y-81907200D02*
X58142857Y-81859580D01*
X93557142Y-90859580D02*
X93509523Y-90907200D01*
X93509523Y-90907200D02*
X93366666Y-90954819D01*
X93366666Y-90954819D02*
X93271428Y-90954819D01*
X93271428Y-90954819D02*
X93128571Y-90907200D01*
X93128571Y-90907200D02*
X93033333Y-90811961D01*
X93033333Y-90811961D02*
X92985714Y-90716723D01*
X92985714Y-90716723D02*
X92938095Y-90526247D01*
X92938095Y-90526247D02*
X92938095Y-90383390D01*
X92938095Y-90383390D02*
X92985714Y-90192914D01*
X92985714Y-90192914D02*
X93033333Y-90097676D01*
X93033333Y-90097676D02*
X93128571Y-90002438D01*
X93128571Y-90002438D02*
X93271428Y-89954819D01*
X93271428Y-89954819D02*
X93366666Y-89954819D01*
X93366666Y-89954819D02*
X93509523Y-90002438D01*
X93509523Y-90002438D02*
X93557142Y-90050057D01*
X93938095Y-90050057D02*
X93985714Y-90002438D01*
X93985714Y-90002438D02*
X94080952Y-89954819D01*
X94080952Y-89954819D02*
X94319047Y-89954819D01*
X94319047Y-89954819D02*
X94414285Y-90002438D01*
X94414285Y-90002438D02*
X94461904Y-90050057D01*
X94461904Y-90050057D02*
X94509523Y-90145295D01*
X94509523Y-90145295D02*
X94509523Y-90240533D01*
X94509523Y-90240533D02*
X94461904Y-90383390D01*
X94461904Y-90383390D02*
X93890476Y-90954819D01*
X93890476Y-90954819D02*
X94509523Y-90954819D01*
X94985714Y-90954819D02*
X95176190Y-90954819D01*
X95176190Y-90954819D02*
X95271428Y-90907200D01*
X95271428Y-90907200D02*
X95319047Y-90859580D01*
X95319047Y-90859580D02*
X95414285Y-90716723D01*
X95414285Y-90716723D02*
X95461904Y-90526247D01*
X95461904Y-90526247D02*
X95461904Y-90145295D01*
X95461904Y-90145295D02*
X95414285Y-90050057D01*
X95414285Y-90050057D02*
X95366666Y-90002438D01*
X95366666Y-90002438D02*
X95271428Y-89954819D01*
X95271428Y-89954819D02*
X95080952Y-89954819D01*
X95080952Y-89954819D02*
X94985714Y-90002438D01*
X94985714Y-90002438D02*
X94938095Y-90050057D01*
X94938095Y-90050057D02*
X94890476Y-90145295D01*
X94890476Y-90145295D02*
X94890476Y-90383390D01*
X94890476Y-90383390D02*
X94938095Y-90478628D01*
X94938095Y-90478628D02*
X94985714Y-90526247D01*
X94985714Y-90526247D02*
X95080952Y-90573866D01*
X95080952Y-90573866D02*
X95271428Y-90573866D01*
X95271428Y-90573866D02*
X95366666Y-90526247D01*
X95366666Y-90526247D02*
X95414285Y-90478628D01*
X95414285Y-90478628D02*
X95461904Y-90383390D01*
X94757142Y-77759580D02*
X94709523Y-77807200D01*
X94709523Y-77807200D02*
X94566666Y-77854819D01*
X94566666Y-77854819D02*
X94471428Y-77854819D01*
X94471428Y-77854819D02*
X94328571Y-77807200D01*
X94328571Y-77807200D02*
X94233333Y-77711961D01*
X94233333Y-77711961D02*
X94185714Y-77616723D01*
X94185714Y-77616723D02*
X94138095Y-77426247D01*
X94138095Y-77426247D02*
X94138095Y-77283390D01*
X94138095Y-77283390D02*
X94185714Y-77092914D01*
X94185714Y-77092914D02*
X94233333Y-76997676D01*
X94233333Y-76997676D02*
X94328571Y-76902438D01*
X94328571Y-76902438D02*
X94471428Y-76854819D01*
X94471428Y-76854819D02*
X94566666Y-76854819D01*
X94566666Y-76854819D02*
X94709523Y-76902438D01*
X94709523Y-76902438D02*
X94757142Y-76950057D01*
X95138095Y-76950057D02*
X95185714Y-76902438D01*
X95185714Y-76902438D02*
X95280952Y-76854819D01*
X95280952Y-76854819D02*
X95519047Y-76854819D01*
X95519047Y-76854819D02*
X95614285Y-76902438D01*
X95614285Y-76902438D02*
X95661904Y-76950057D01*
X95661904Y-76950057D02*
X95709523Y-77045295D01*
X95709523Y-77045295D02*
X95709523Y-77140533D01*
X95709523Y-77140533D02*
X95661904Y-77283390D01*
X95661904Y-77283390D02*
X95090476Y-77854819D01*
X95090476Y-77854819D02*
X95709523Y-77854819D01*
X96280952Y-77283390D02*
X96185714Y-77235771D01*
X96185714Y-77235771D02*
X96138095Y-77188152D01*
X96138095Y-77188152D02*
X96090476Y-77092914D01*
X96090476Y-77092914D02*
X96090476Y-77045295D01*
X96090476Y-77045295D02*
X96138095Y-76950057D01*
X96138095Y-76950057D02*
X96185714Y-76902438D01*
X96185714Y-76902438D02*
X96280952Y-76854819D01*
X96280952Y-76854819D02*
X96471428Y-76854819D01*
X96471428Y-76854819D02*
X96566666Y-76902438D01*
X96566666Y-76902438D02*
X96614285Y-76950057D01*
X96614285Y-76950057D02*
X96661904Y-77045295D01*
X96661904Y-77045295D02*
X96661904Y-77092914D01*
X96661904Y-77092914D02*
X96614285Y-77188152D01*
X96614285Y-77188152D02*
X96566666Y-77235771D01*
X96566666Y-77235771D02*
X96471428Y-77283390D01*
X96471428Y-77283390D02*
X96280952Y-77283390D01*
X96280952Y-77283390D02*
X96185714Y-77331009D01*
X96185714Y-77331009D02*
X96138095Y-77378628D01*
X96138095Y-77378628D02*
X96090476Y-77473866D01*
X96090476Y-77473866D02*
X96090476Y-77664342D01*
X96090476Y-77664342D02*
X96138095Y-77759580D01*
X96138095Y-77759580D02*
X96185714Y-77807200D01*
X96185714Y-77807200D02*
X96280952Y-77854819D01*
X96280952Y-77854819D02*
X96471428Y-77854819D01*
X96471428Y-77854819D02*
X96566666Y-77807200D01*
X96566666Y-77807200D02*
X96614285Y-77759580D01*
X96614285Y-77759580D02*
X96661904Y-77664342D01*
X96661904Y-77664342D02*
X96661904Y-77473866D01*
X96661904Y-77473866D02*
X96614285Y-77378628D01*
X96614285Y-77378628D02*
X96566666Y-77331009D01*
X96566666Y-77331009D02*
X96471428Y-77283390D01*
X100757142Y-100354819D02*
X100423809Y-99878628D01*
X100185714Y-100354819D02*
X100185714Y-99354819D01*
X100185714Y-99354819D02*
X100566666Y-99354819D01*
X100566666Y-99354819D02*
X100661904Y-99402438D01*
X100661904Y-99402438D02*
X100709523Y-99450057D01*
X100709523Y-99450057D02*
X100757142Y-99545295D01*
X100757142Y-99545295D02*
X100757142Y-99688152D01*
X100757142Y-99688152D02*
X100709523Y-99783390D01*
X100709523Y-99783390D02*
X100661904Y-99831009D01*
X100661904Y-99831009D02*
X100566666Y-99878628D01*
X100566666Y-99878628D02*
X100185714Y-99878628D01*
X101090476Y-99354819D02*
X101709523Y-99354819D01*
X101709523Y-99354819D02*
X101376190Y-99735771D01*
X101376190Y-99735771D02*
X101519047Y-99735771D01*
X101519047Y-99735771D02*
X101614285Y-99783390D01*
X101614285Y-99783390D02*
X101661904Y-99831009D01*
X101661904Y-99831009D02*
X101709523Y-99926247D01*
X101709523Y-99926247D02*
X101709523Y-100164342D01*
X101709523Y-100164342D02*
X101661904Y-100259580D01*
X101661904Y-100259580D02*
X101614285Y-100307200D01*
X101614285Y-100307200D02*
X101519047Y-100354819D01*
X101519047Y-100354819D02*
X101233333Y-100354819D01*
X101233333Y-100354819D02*
X101138095Y-100307200D01*
X101138095Y-100307200D02*
X101090476Y-100259580D01*
X102090476Y-99450057D02*
X102138095Y-99402438D01*
X102138095Y-99402438D02*
X102233333Y-99354819D01*
X102233333Y-99354819D02*
X102471428Y-99354819D01*
X102471428Y-99354819D02*
X102566666Y-99402438D01*
X102566666Y-99402438D02*
X102614285Y-99450057D01*
X102614285Y-99450057D02*
X102661904Y-99545295D01*
X102661904Y-99545295D02*
X102661904Y-99640533D01*
X102661904Y-99640533D02*
X102614285Y-99783390D01*
X102614285Y-99783390D02*
X102042857Y-100354819D01*
X102042857Y-100354819D02*
X102661904Y-100354819D01*
X73583333Y-58204819D02*
X73250000Y-57728628D01*
X73011905Y-58204819D02*
X73011905Y-57204819D01*
X73011905Y-57204819D02*
X73392857Y-57204819D01*
X73392857Y-57204819D02*
X73488095Y-57252438D01*
X73488095Y-57252438D02*
X73535714Y-57300057D01*
X73535714Y-57300057D02*
X73583333Y-57395295D01*
X73583333Y-57395295D02*
X73583333Y-57538152D01*
X73583333Y-57538152D02*
X73535714Y-57633390D01*
X73535714Y-57633390D02*
X73488095Y-57681009D01*
X73488095Y-57681009D02*
X73392857Y-57728628D01*
X73392857Y-57728628D02*
X73011905Y-57728628D01*
X74154762Y-57633390D02*
X74059524Y-57585771D01*
X74059524Y-57585771D02*
X74011905Y-57538152D01*
X74011905Y-57538152D02*
X73964286Y-57442914D01*
X73964286Y-57442914D02*
X73964286Y-57395295D01*
X73964286Y-57395295D02*
X74011905Y-57300057D01*
X74011905Y-57300057D02*
X74059524Y-57252438D01*
X74059524Y-57252438D02*
X74154762Y-57204819D01*
X74154762Y-57204819D02*
X74345238Y-57204819D01*
X74345238Y-57204819D02*
X74440476Y-57252438D01*
X74440476Y-57252438D02*
X74488095Y-57300057D01*
X74488095Y-57300057D02*
X74535714Y-57395295D01*
X74535714Y-57395295D02*
X74535714Y-57442914D01*
X74535714Y-57442914D02*
X74488095Y-57538152D01*
X74488095Y-57538152D02*
X74440476Y-57585771D01*
X74440476Y-57585771D02*
X74345238Y-57633390D01*
X74345238Y-57633390D02*
X74154762Y-57633390D01*
X74154762Y-57633390D02*
X74059524Y-57681009D01*
X74059524Y-57681009D02*
X74011905Y-57728628D01*
X74011905Y-57728628D02*
X73964286Y-57823866D01*
X73964286Y-57823866D02*
X73964286Y-58014342D01*
X73964286Y-58014342D02*
X74011905Y-58109580D01*
X74011905Y-58109580D02*
X74059524Y-58157200D01*
X74059524Y-58157200D02*
X74154762Y-58204819D01*
X74154762Y-58204819D02*
X74345238Y-58204819D01*
X74345238Y-58204819D02*
X74440476Y-58157200D01*
X74440476Y-58157200D02*
X74488095Y-58109580D01*
X74488095Y-58109580D02*
X74535714Y-58014342D01*
X74535714Y-58014342D02*
X74535714Y-57823866D01*
X74535714Y-57823866D02*
X74488095Y-57728628D01*
X74488095Y-57728628D02*
X74440476Y-57681009D01*
X74440476Y-57681009D02*
X74345238Y-57633390D01*
X65107142Y-66704819D02*
X64773809Y-66228628D01*
X64535714Y-66704819D02*
X64535714Y-65704819D01*
X64535714Y-65704819D02*
X64916666Y-65704819D01*
X64916666Y-65704819D02*
X65011904Y-65752438D01*
X65011904Y-65752438D02*
X65059523Y-65800057D01*
X65059523Y-65800057D02*
X65107142Y-65895295D01*
X65107142Y-65895295D02*
X65107142Y-66038152D01*
X65107142Y-66038152D02*
X65059523Y-66133390D01*
X65059523Y-66133390D02*
X65011904Y-66181009D01*
X65011904Y-66181009D02*
X64916666Y-66228628D01*
X64916666Y-66228628D02*
X64535714Y-66228628D01*
X66059523Y-66704819D02*
X65488095Y-66704819D01*
X65773809Y-66704819D02*
X65773809Y-65704819D01*
X65773809Y-65704819D02*
X65678571Y-65847676D01*
X65678571Y-65847676D02*
X65583333Y-65942914D01*
X65583333Y-65942914D02*
X65488095Y-65990533D01*
X66916666Y-66038152D02*
X66916666Y-66704819D01*
X66678571Y-65657200D02*
X66440476Y-66371485D01*
X66440476Y-66371485D02*
X67059523Y-66371485D01*
X75833333Y-108204819D02*
X75500000Y-107728628D01*
X75261905Y-108204819D02*
X75261905Y-107204819D01*
X75261905Y-107204819D02*
X75642857Y-107204819D01*
X75642857Y-107204819D02*
X75738095Y-107252438D01*
X75738095Y-107252438D02*
X75785714Y-107300057D01*
X75785714Y-107300057D02*
X75833333Y-107395295D01*
X75833333Y-107395295D02*
X75833333Y-107538152D01*
X75833333Y-107538152D02*
X75785714Y-107633390D01*
X75785714Y-107633390D02*
X75738095Y-107681009D01*
X75738095Y-107681009D02*
X75642857Y-107728628D01*
X75642857Y-107728628D02*
X75261905Y-107728628D01*
X76166667Y-107204819D02*
X76785714Y-107204819D01*
X76785714Y-107204819D02*
X76452381Y-107585771D01*
X76452381Y-107585771D02*
X76595238Y-107585771D01*
X76595238Y-107585771D02*
X76690476Y-107633390D01*
X76690476Y-107633390D02*
X76738095Y-107681009D01*
X76738095Y-107681009D02*
X76785714Y-107776247D01*
X76785714Y-107776247D02*
X76785714Y-108014342D01*
X76785714Y-108014342D02*
X76738095Y-108109580D01*
X76738095Y-108109580D02*
X76690476Y-108157200D01*
X76690476Y-108157200D02*
X76595238Y-108204819D01*
X76595238Y-108204819D02*
X76309524Y-108204819D01*
X76309524Y-108204819D02*
X76214286Y-108157200D01*
X76214286Y-108157200D02*
X76166667Y-108109580D01*
X76957142Y-92959580D02*
X76909523Y-93007200D01*
X76909523Y-93007200D02*
X76766666Y-93054819D01*
X76766666Y-93054819D02*
X76671428Y-93054819D01*
X76671428Y-93054819D02*
X76528571Y-93007200D01*
X76528571Y-93007200D02*
X76433333Y-92911961D01*
X76433333Y-92911961D02*
X76385714Y-92816723D01*
X76385714Y-92816723D02*
X76338095Y-92626247D01*
X76338095Y-92626247D02*
X76338095Y-92483390D01*
X76338095Y-92483390D02*
X76385714Y-92292914D01*
X76385714Y-92292914D02*
X76433333Y-92197676D01*
X76433333Y-92197676D02*
X76528571Y-92102438D01*
X76528571Y-92102438D02*
X76671428Y-92054819D01*
X76671428Y-92054819D02*
X76766666Y-92054819D01*
X76766666Y-92054819D02*
X76909523Y-92102438D01*
X76909523Y-92102438D02*
X76957142Y-92150057D01*
X77338095Y-92150057D02*
X77385714Y-92102438D01*
X77385714Y-92102438D02*
X77480952Y-92054819D01*
X77480952Y-92054819D02*
X77719047Y-92054819D01*
X77719047Y-92054819D02*
X77814285Y-92102438D01*
X77814285Y-92102438D02*
X77861904Y-92150057D01*
X77861904Y-92150057D02*
X77909523Y-92245295D01*
X77909523Y-92245295D02*
X77909523Y-92340533D01*
X77909523Y-92340533D02*
X77861904Y-92483390D01*
X77861904Y-92483390D02*
X77290476Y-93054819D01*
X77290476Y-93054819D02*
X77909523Y-93054819D01*
X78290476Y-92150057D02*
X78338095Y-92102438D01*
X78338095Y-92102438D02*
X78433333Y-92054819D01*
X78433333Y-92054819D02*
X78671428Y-92054819D01*
X78671428Y-92054819D02*
X78766666Y-92102438D01*
X78766666Y-92102438D02*
X78814285Y-92150057D01*
X78814285Y-92150057D02*
X78861904Y-92245295D01*
X78861904Y-92245295D02*
X78861904Y-92340533D01*
X78861904Y-92340533D02*
X78814285Y-92483390D01*
X78814285Y-92483390D02*
X78242857Y-93054819D01*
X78242857Y-93054819D02*
X78861904Y-93054819D01*
X95007142Y-95965830D02*
X94959523Y-96013450D01*
X94959523Y-96013450D02*
X94816666Y-96061069D01*
X94816666Y-96061069D02*
X94721428Y-96061069D01*
X94721428Y-96061069D02*
X94578571Y-96013450D01*
X94578571Y-96013450D02*
X94483333Y-95918211D01*
X94483333Y-95918211D02*
X94435714Y-95822973D01*
X94435714Y-95822973D02*
X94388095Y-95632497D01*
X94388095Y-95632497D02*
X94388095Y-95489640D01*
X94388095Y-95489640D02*
X94435714Y-95299164D01*
X94435714Y-95299164D02*
X94483333Y-95203926D01*
X94483333Y-95203926D02*
X94578571Y-95108688D01*
X94578571Y-95108688D02*
X94721428Y-95061069D01*
X94721428Y-95061069D02*
X94816666Y-95061069D01*
X94816666Y-95061069D02*
X94959523Y-95108688D01*
X94959523Y-95108688D02*
X95007142Y-95156307D01*
X95340476Y-95061069D02*
X95959523Y-95061069D01*
X95959523Y-95061069D02*
X95626190Y-95442021D01*
X95626190Y-95442021D02*
X95769047Y-95442021D01*
X95769047Y-95442021D02*
X95864285Y-95489640D01*
X95864285Y-95489640D02*
X95911904Y-95537259D01*
X95911904Y-95537259D02*
X95959523Y-95632497D01*
X95959523Y-95632497D02*
X95959523Y-95870592D01*
X95959523Y-95870592D02*
X95911904Y-95965830D01*
X95911904Y-95965830D02*
X95864285Y-96013450D01*
X95864285Y-96013450D02*
X95769047Y-96061069D01*
X95769047Y-96061069D02*
X95483333Y-96061069D01*
X95483333Y-96061069D02*
X95388095Y-96013450D01*
X95388095Y-96013450D02*
X95340476Y-95965830D01*
X96578571Y-95061069D02*
X96673809Y-95061069D01*
X96673809Y-95061069D02*
X96769047Y-95108688D01*
X96769047Y-95108688D02*
X96816666Y-95156307D01*
X96816666Y-95156307D02*
X96864285Y-95251545D01*
X96864285Y-95251545D02*
X96911904Y-95442021D01*
X96911904Y-95442021D02*
X96911904Y-95680116D01*
X96911904Y-95680116D02*
X96864285Y-95870592D01*
X96864285Y-95870592D02*
X96816666Y-95965830D01*
X96816666Y-95965830D02*
X96769047Y-96013450D01*
X96769047Y-96013450D02*
X96673809Y-96061069D01*
X96673809Y-96061069D02*
X96578571Y-96061069D01*
X96578571Y-96061069D02*
X96483333Y-96013450D01*
X96483333Y-96013450D02*
X96435714Y-95965830D01*
X96435714Y-95965830D02*
X96388095Y-95870592D01*
X96388095Y-95870592D02*
X96340476Y-95680116D01*
X96340476Y-95680116D02*
X96340476Y-95442021D01*
X96340476Y-95442021D02*
X96388095Y-95251545D01*
X96388095Y-95251545D02*
X96435714Y-95156307D01*
X96435714Y-95156307D02*
X96483333Y-95108688D01*
X96483333Y-95108688D02*
X96578571Y-95061069D01*
X57833333Y-83954819D02*
X57357143Y-83954819D01*
X57357143Y-83954819D02*
X57357143Y-82954819D01*
X58690476Y-83954819D02*
X58119048Y-83954819D01*
X58404762Y-83954819D02*
X58404762Y-82954819D01*
X58404762Y-82954819D02*
X58309524Y-83097676D01*
X58309524Y-83097676D02*
X58214286Y-83192914D01*
X58214286Y-83192914D02*
X58119048Y-83240533D01*
X56857142Y-66704819D02*
X56523809Y-66228628D01*
X56285714Y-66704819D02*
X56285714Y-65704819D01*
X56285714Y-65704819D02*
X56666666Y-65704819D01*
X56666666Y-65704819D02*
X56761904Y-65752438D01*
X56761904Y-65752438D02*
X56809523Y-65800057D01*
X56809523Y-65800057D02*
X56857142Y-65895295D01*
X56857142Y-65895295D02*
X56857142Y-66038152D01*
X56857142Y-66038152D02*
X56809523Y-66133390D01*
X56809523Y-66133390D02*
X56761904Y-66181009D01*
X56761904Y-66181009D02*
X56666666Y-66228628D01*
X56666666Y-66228628D02*
X56285714Y-66228628D01*
X57809523Y-66704819D02*
X57238095Y-66704819D01*
X57523809Y-66704819D02*
X57523809Y-65704819D01*
X57523809Y-65704819D02*
X57428571Y-65847676D01*
X57428571Y-65847676D02*
X57333333Y-65942914D01*
X57333333Y-65942914D02*
X57238095Y-65990533D01*
X58142857Y-65704819D02*
X58809523Y-65704819D01*
X58809523Y-65704819D02*
X58380952Y-66704819D01*
X83200595Y-92554819D02*
X83200595Y-93364342D01*
X83200595Y-93364342D02*
X83248214Y-93459580D01*
X83248214Y-93459580D02*
X83295833Y-93507200D01*
X83295833Y-93507200D02*
X83391071Y-93554819D01*
X83391071Y-93554819D02*
X83581547Y-93554819D01*
X83581547Y-93554819D02*
X83676785Y-93507200D01*
X83676785Y-93507200D02*
X83724404Y-93459580D01*
X83724404Y-93459580D02*
X83772023Y-93364342D01*
X83772023Y-93364342D02*
X83772023Y-92554819D01*
X84295833Y-93554819D02*
X84486309Y-93554819D01*
X84486309Y-93554819D02*
X84581547Y-93507200D01*
X84581547Y-93507200D02*
X84629166Y-93459580D01*
X84629166Y-93459580D02*
X84724404Y-93316723D01*
X84724404Y-93316723D02*
X84772023Y-93126247D01*
X84772023Y-93126247D02*
X84772023Y-92745295D01*
X84772023Y-92745295D02*
X84724404Y-92650057D01*
X84724404Y-92650057D02*
X84676785Y-92602438D01*
X84676785Y-92602438D02*
X84581547Y-92554819D01*
X84581547Y-92554819D02*
X84391071Y-92554819D01*
X84391071Y-92554819D02*
X84295833Y-92602438D01*
X84295833Y-92602438D02*
X84248214Y-92650057D01*
X84248214Y-92650057D02*
X84200595Y-92745295D01*
X84200595Y-92745295D02*
X84200595Y-92983390D01*
X84200595Y-92983390D02*
X84248214Y-93078628D01*
X84248214Y-93078628D02*
X84295833Y-93126247D01*
X84295833Y-93126247D02*
X84391071Y-93173866D01*
X84391071Y-93173866D02*
X84581547Y-93173866D01*
X84581547Y-93173866D02*
X84676785Y-93126247D01*
X84676785Y-93126247D02*
X84724404Y-93078628D01*
X84724404Y-93078628D02*
X84772023Y-92983390D01*
X96083333Y-114454819D02*
X95750000Y-113978628D01*
X95511905Y-114454819D02*
X95511905Y-113454819D01*
X95511905Y-113454819D02*
X95892857Y-113454819D01*
X95892857Y-113454819D02*
X95988095Y-113502438D01*
X95988095Y-113502438D02*
X96035714Y-113550057D01*
X96035714Y-113550057D02*
X96083333Y-113645295D01*
X96083333Y-113645295D02*
X96083333Y-113788152D01*
X96083333Y-113788152D02*
X96035714Y-113883390D01*
X96035714Y-113883390D02*
X95988095Y-113931009D01*
X95988095Y-113931009D02*
X95892857Y-113978628D01*
X95892857Y-113978628D02*
X95511905Y-113978628D01*
X96464286Y-113550057D02*
X96511905Y-113502438D01*
X96511905Y-113502438D02*
X96607143Y-113454819D01*
X96607143Y-113454819D02*
X96845238Y-113454819D01*
X96845238Y-113454819D02*
X96940476Y-113502438D01*
X96940476Y-113502438D02*
X96988095Y-113550057D01*
X96988095Y-113550057D02*
X97035714Y-113645295D01*
X97035714Y-113645295D02*
X97035714Y-113740533D01*
X97035714Y-113740533D02*
X96988095Y-113883390D01*
X96988095Y-113883390D02*
X96416667Y-114454819D01*
X96416667Y-114454819D02*
X97035714Y-114454819D01*
X70557142Y-83759580D02*
X70509523Y-83807200D01*
X70509523Y-83807200D02*
X70366666Y-83854819D01*
X70366666Y-83854819D02*
X70271428Y-83854819D01*
X70271428Y-83854819D02*
X70128571Y-83807200D01*
X70128571Y-83807200D02*
X70033333Y-83711961D01*
X70033333Y-83711961D02*
X69985714Y-83616723D01*
X69985714Y-83616723D02*
X69938095Y-83426247D01*
X69938095Y-83426247D02*
X69938095Y-83283390D01*
X69938095Y-83283390D02*
X69985714Y-83092914D01*
X69985714Y-83092914D02*
X70033333Y-82997676D01*
X70033333Y-82997676D02*
X70128571Y-82902438D01*
X70128571Y-82902438D02*
X70271428Y-82854819D01*
X70271428Y-82854819D02*
X70366666Y-82854819D01*
X70366666Y-82854819D02*
X70509523Y-82902438D01*
X70509523Y-82902438D02*
X70557142Y-82950057D01*
X71509523Y-83854819D02*
X70938095Y-83854819D01*
X71223809Y-83854819D02*
X71223809Y-82854819D01*
X71223809Y-82854819D02*
X71128571Y-82997676D01*
X71128571Y-82997676D02*
X71033333Y-83092914D01*
X71033333Y-83092914D02*
X70938095Y-83140533D01*
X72366666Y-83188152D02*
X72366666Y-83854819D01*
X72128571Y-82807200D02*
X71890476Y-83521485D01*
X71890476Y-83521485D02*
X72509523Y-83521485D01*
X91738095Y-62954819D02*
X91738095Y-63764342D01*
X91738095Y-63764342D02*
X91785714Y-63859580D01*
X91785714Y-63859580D02*
X91833333Y-63907200D01*
X91833333Y-63907200D02*
X91928571Y-63954819D01*
X91928571Y-63954819D02*
X92119047Y-63954819D01*
X92119047Y-63954819D02*
X92214285Y-63907200D01*
X92214285Y-63907200D02*
X92261904Y-63859580D01*
X92261904Y-63859580D02*
X92309523Y-63764342D01*
X92309523Y-63764342D02*
X92309523Y-62954819D01*
X92690476Y-62954819D02*
X93309523Y-62954819D01*
X93309523Y-62954819D02*
X92976190Y-63335771D01*
X92976190Y-63335771D02*
X93119047Y-63335771D01*
X93119047Y-63335771D02*
X93214285Y-63383390D01*
X93214285Y-63383390D02*
X93261904Y-63431009D01*
X93261904Y-63431009D02*
X93309523Y-63526247D01*
X93309523Y-63526247D02*
X93309523Y-63764342D01*
X93309523Y-63764342D02*
X93261904Y-63859580D01*
X93261904Y-63859580D02*
X93214285Y-63907200D01*
X93214285Y-63907200D02*
X93119047Y-63954819D01*
X93119047Y-63954819D02*
X92833333Y-63954819D01*
X92833333Y-63954819D02*
X92738095Y-63907200D01*
X92738095Y-63907200D02*
X92690476Y-63859580D01*
X94733333Y-74159580D02*
X94685714Y-74207200D01*
X94685714Y-74207200D02*
X94542857Y-74254819D01*
X94542857Y-74254819D02*
X94447619Y-74254819D01*
X94447619Y-74254819D02*
X94304762Y-74207200D01*
X94304762Y-74207200D02*
X94209524Y-74111961D01*
X94209524Y-74111961D02*
X94161905Y-74016723D01*
X94161905Y-74016723D02*
X94114286Y-73826247D01*
X94114286Y-73826247D02*
X94114286Y-73683390D01*
X94114286Y-73683390D02*
X94161905Y-73492914D01*
X94161905Y-73492914D02*
X94209524Y-73397676D01*
X94209524Y-73397676D02*
X94304762Y-73302438D01*
X94304762Y-73302438D02*
X94447619Y-73254819D01*
X94447619Y-73254819D02*
X94542857Y-73254819D01*
X94542857Y-73254819D02*
X94685714Y-73302438D01*
X94685714Y-73302438D02*
X94733333Y-73350057D01*
X95590476Y-73254819D02*
X95400000Y-73254819D01*
X95400000Y-73254819D02*
X95304762Y-73302438D01*
X95304762Y-73302438D02*
X95257143Y-73350057D01*
X95257143Y-73350057D02*
X95161905Y-73492914D01*
X95161905Y-73492914D02*
X95114286Y-73683390D01*
X95114286Y-73683390D02*
X95114286Y-74064342D01*
X95114286Y-74064342D02*
X95161905Y-74159580D01*
X95161905Y-74159580D02*
X95209524Y-74207200D01*
X95209524Y-74207200D02*
X95304762Y-74254819D01*
X95304762Y-74254819D02*
X95495238Y-74254819D01*
X95495238Y-74254819D02*
X95590476Y-74207200D01*
X95590476Y-74207200D02*
X95638095Y-74159580D01*
X95638095Y-74159580D02*
X95685714Y-74064342D01*
X95685714Y-74064342D02*
X95685714Y-73826247D01*
X95685714Y-73826247D02*
X95638095Y-73731009D01*
X95638095Y-73731009D02*
X95590476Y-73683390D01*
X95590476Y-73683390D02*
X95495238Y-73635771D01*
X95495238Y-73635771D02*
X95304762Y-73635771D01*
X95304762Y-73635771D02*
X95209524Y-73683390D01*
X95209524Y-73683390D02*
X95161905Y-73731009D01*
X95161905Y-73731009D02*
X95114286Y-73826247D01*
X72857142Y-81609580D02*
X72809523Y-81657200D01*
X72809523Y-81657200D02*
X72666666Y-81704819D01*
X72666666Y-81704819D02*
X72571428Y-81704819D01*
X72571428Y-81704819D02*
X72428571Y-81657200D01*
X72428571Y-81657200D02*
X72333333Y-81561961D01*
X72333333Y-81561961D02*
X72285714Y-81466723D01*
X72285714Y-81466723D02*
X72238095Y-81276247D01*
X72238095Y-81276247D02*
X72238095Y-81133390D01*
X72238095Y-81133390D02*
X72285714Y-80942914D01*
X72285714Y-80942914D02*
X72333333Y-80847676D01*
X72333333Y-80847676D02*
X72428571Y-80752438D01*
X72428571Y-80752438D02*
X72571428Y-80704819D01*
X72571428Y-80704819D02*
X72666666Y-80704819D01*
X72666666Y-80704819D02*
X72809523Y-80752438D01*
X72809523Y-80752438D02*
X72857142Y-80800057D01*
X73809523Y-81704819D02*
X73238095Y-81704819D01*
X73523809Y-81704819D02*
X73523809Y-80704819D01*
X73523809Y-80704819D02*
X73428571Y-80847676D01*
X73428571Y-80847676D02*
X73333333Y-80942914D01*
X73333333Y-80942914D02*
X73238095Y-80990533D01*
X74714285Y-80704819D02*
X74238095Y-80704819D01*
X74238095Y-80704819D02*
X74190476Y-81181009D01*
X74190476Y-81181009D02*
X74238095Y-81133390D01*
X74238095Y-81133390D02*
X74333333Y-81085771D01*
X74333333Y-81085771D02*
X74571428Y-81085771D01*
X74571428Y-81085771D02*
X74666666Y-81133390D01*
X74666666Y-81133390D02*
X74714285Y-81181009D01*
X74714285Y-81181009D02*
X74761904Y-81276247D01*
X74761904Y-81276247D02*
X74761904Y-81514342D01*
X74761904Y-81514342D02*
X74714285Y-81609580D01*
X74714285Y-81609580D02*
X74666666Y-81657200D01*
X74666666Y-81657200D02*
X74571428Y-81704819D01*
X74571428Y-81704819D02*
X74333333Y-81704819D01*
X74333333Y-81704819D02*
X74238095Y-81657200D01*
X74238095Y-81657200D02*
X74190476Y-81609580D01*
X97333333Y-115609580D02*
X97285714Y-115657200D01*
X97285714Y-115657200D02*
X97142857Y-115704819D01*
X97142857Y-115704819D02*
X97047619Y-115704819D01*
X97047619Y-115704819D02*
X96904762Y-115657200D01*
X96904762Y-115657200D02*
X96809524Y-115561961D01*
X96809524Y-115561961D02*
X96761905Y-115466723D01*
X96761905Y-115466723D02*
X96714286Y-115276247D01*
X96714286Y-115276247D02*
X96714286Y-115133390D01*
X96714286Y-115133390D02*
X96761905Y-114942914D01*
X96761905Y-114942914D02*
X96809524Y-114847676D01*
X96809524Y-114847676D02*
X96904762Y-114752438D01*
X96904762Y-114752438D02*
X97047619Y-114704819D01*
X97047619Y-114704819D02*
X97142857Y-114704819D01*
X97142857Y-114704819D02*
X97285714Y-114752438D01*
X97285714Y-114752438D02*
X97333333Y-114800057D01*
X98285714Y-115704819D02*
X97714286Y-115704819D01*
X98000000Y-115704819D02*
X98000000Y-114704819D01*
X98000000Y-114704819D02*
X97904762Y-114847676D01*
X97904762Y-114847676D02*
X97809524Y-114942914D01*
X97809524Y-114942914D02*
X97714286Y-114990533D01*
X57833333Y-62359580D02*
X57785714Y-62407200D01*
X57785714Y-62407200D02*
X57642857Y-62454819D01*
X57642857Y-62454819D02*
X57547619Y-62454819D01*
X57547619Y-62454819D02*
X57404762Y-62407200D01*
X57404762Y-62407200D02*
X57309524Y-62311961D01*
X57309524Y-62311961D02*
X57261905Y-62216723D01*
X57261905Y-62216723D02*
X57214286Y-62026247D01*
X57214286Y-62026247D02*
X57214286Y-61883390D01*
X57214286Y-61883390D02*
X57261905Y-61692914D01*
X57261905Y-61692914D02*
X57309524Y-61597676D01*
X57309524Y-61597676D02*
X57404762Y-61502438D01*
X57404762Y-61502438D02*
X57547619Y-61454819D01*
X57547619Y-61454819D02*
X57642857Y-61454819D01*
X57642857Y-61454819D02*
X57785714Y-61502438D01*
X57785714Y-61502438D02*
X57833333Y-61550057D01*
X58309524Y-62454819D02*
X58500000Y-62454819D01*
X58500000Y-62454819D02*
X58595238Y-62407200D01*
X58595238Y-62407200D02*
X58642857Y-62359580D01*
X58642857Y-62359580D02*
X58738095Y-62216723D01*
X58738095Y-62216723D02*
X58785714Y-62026247D01*
X58785714Y-62026247D02*
X58785714Y-61645295D01*
X58785714Y-61645295D02*
X58738095Y-61550057D01*
X58738095Y-61550057D02*
X58690476Y-61502438D01*
X58690476Y-61502438D02*
X58595238Y-61454819D01*
X58595238Y-61454819D02*
X58404762Y-61454819D01*
X58404762Y-61454819D02*
X58309524Y-61502438D01*
X58309524Y-61502438D02*
X58261905Y-61550057D01*
X58261905Y-61550057D02*
X58214286Y-61645295D01*
X58214286Y-61645295D02*
X58214286Y-61883390D01*
X58214286Y-61883390D02*
X58261905Y-61978628D01*
X58261905Y-61978628D02*
X58309524Y-62026247D01*
X58309524Y-62026247D02*
X58404762Y-62073866D01*
X58404762Y-62073866D02*
X58595238Y-62073866D01*
X58595238Y-62073866D02*
X58690476Y-62026247D01*
X58690476Y-62026247D02*
X58738095Y-61978628D01*
X58738095Y-61978628D02*
X58785714Y-61883390D01*
X99007142Y-96061069D02*
X98673809Y-95584878D01*
X98435714Y-96061069D02*
X98435714Y-95061069D01*
X98435714Y-95061069D02*
X98816666Y-95061069D01*
X98816666Y-95061069D02*
X98911904Y-95108688D01*
X98911904Y-95108688D02*
X98959523Y-95156307D01*
X98959523Y-95156307D02*
X99007142Y-95251545D01*
X99007142Y-95251545D02*
X99007142Y-95394402D01*
X99007142Y-95394402D02*
X98959523Y-95489640D01*
X98959523Y-95489640D02*
X98911904Y-95537259D01*
X98911904Y-95537259D02*
X98816666Y-95584878D01*
X98816666Y-95584878D02*
X98435714Y-95584878D01*
X99340476Y-95061069D02*
X99959523Y-95061069D01*
X99959523Y-95061069D02*
X99626190Y-95442021D01*
X99626190Y-95442021D02*
X99769047Y-95442021D01*
X99769047Y-95442021D02*
X99864285Y-95489640D01*
X99864285Y-95489640D02*
X99911904Y-95537259D01*
X99911904Y-95537259D02*
X99959523Y-95632497D01*
X99959523Y-95632497D02*
X99959523Y-95870592D01*
X99959523Y-95870592D02*
X99911904Y-95965830D01*
X99911904Y-95965830D02*
X99864285Y-96013450D01*
X99864285Y-96013450D02*
X99769047Y-96061069D01*
X99769047Y-96061069D02*
X99483333Y-96061069D01*
X99483333Y-96061069D02*
X99388095Y-96013450D01*
X99388095Y-96013450D02*
X99340476Y-95965830D01*
X100911904Y-96061069D02*
X100340476Y-96061069D01*
X100626190Y-96061069D02*
X100626190Y-95061069D01*
X100626190Y-95061069D02*
X100530952Y-95203926D01*
X100530952Y-95203926D02*
X100435714Y-95299164D01*
X100435714Y-95299164D02*
X100340476Y-95346783D01*
X91083333Y-113454819D02*
X90750000Y-112978628D01*
X90511905Y-113454819D02*
X90511905Y-112454819D01*
X90511905Y-112454819D02*
X90892857Y-112454819D01*
X90892857Y-112454819D02*
X90988095Y-112502438D01*
X90988095Y-112502438D02*
X91035714Y-112550057D01*
X91035714Y-112550057D02*
X91083333Y-112645295D01*
X91083333Y-112645295D02*
X91083333Y-112788152D01*
X91083333Y-112788152D02*
X91035714Y-112883390D01*
X91035714Y-112883390D02*
X90988095Y-112931009D01*
X90988095Y-112931009D02*
X90892857Y-112978628D01*
X90892857Y-112978628D02*
X90511905Y-112978628D01*
X92035714Y-113454819D02*
X91464286Y-113454819D01*
X91750000Y-113454819D02*
X91750000Y-112454819D01*
X91750000Y-112454819D02*
X91654762Y-112597676D01*
X91654762Y-112597676D02*
X91559524Y-112692914D01*
X91559524Y-112692914D02*
X91464286Y-112740533D01*
X86416666Y-83181009D02*
X86083333Y-83181009D01*
X86083333Y-83704819D02*
X86083333Y-82704819D01*
X86083333Y-82704819D02*
X86559523Y-82704819D01*
X86892857Y-82800057D02*
X86940476Y-82752438D01*
X86940476Y-82752438D02*
X87035714Y-82704819D01*
X87035714Y-82704819D02*
X87273809Y-82704819D01*
X87273809Y-82704819D02*
X87369047Y-82752438D01*
X87369047Y-82752438D02*
X87416666Y-82800057D01*
X87416666Y-82800057D02*
X87464285Y-82895295D01*
X87464285Y-82895295D02*
X87464285Y-82990533D01*
X87464285Y-82990533D02*
X87416666Y-83133390D01*
X87416666Y-83133390D02*
X86845238Y-83704819D01*
X86845238Y-83704819D02*
X87464285Y-83704819D01*
X94583333Y-122359580D02*
X94535714Y-122407200D01*
X94535714Y-122407200D02*
X94392857Y-122454819D01*
X94392857Y-122454819D02*
X94297619Y-122454819D01*
X94297619Y-122454819D02*
X94154762Y-122407200D01*
X94154762Y-122407200D02*
X94059524Y-122311961D01*
X94059524Y-122311961D02*
X94011905Y-122216723D01*
X94011905Y-122216723D02*
X93964286Y-122026247D01*
X93964286Y-122026247D02*
X93964286Y-121883390D01*
X93964286Y-121883390D02*
X94011905Y-121692914D01*
X94011905Y-121692914D02*
X94059524Y-121597676D01*
X94059524Y-121597676D02*
X94154762Y-121502438D01*
X94154762Y-121502438D02*
X94297619Y-121454819D01*
X94297619Y-121454819D02*
X94392857Y-121454819D01*
X94392857Y-121454819D02*
X94535714Y-121502438D01*
X94535714Y-121502438D02*
X94583333Y-121550057D01*
X94964286Y-121550057D02*
X95011905Y-121502438D01*
X95011905Y-121502438D02*
X95107143Y-121454819D01*
X95107143Y-121454819D02*
X95345238Y-121454819D01*
X95345238Y-121454819D02*
X95440476Y-121502438D01*
X95440476Y-121502438D02*
X95488095Y-121550057D01*
X95488095Y-121550057D02*
X95535714Y-121645295D01*
X95535714Y-121645295D02*
X95535714Y-121740533D01*
X95535714Y-121740533D02*
X95488095Y-121883390D01*
X95488095Y-121883390D02*
X94916667Y-122454819D01*
X94916667Y-122454819D02*
X95535714Y-122454819D01*
X88457142Y-89459580D02*
X88409523Y-89507200D01*
X88409523Y-89507200D02*
X88266666Y-89554819D01*
X88266666Y-89554819D02*
X88171428Y-89554819D01*
X88171428Y-89554819D02*
X88028571Y-89507200D01*
X88028571Y-89507200D02*
X87933333Y-89411961D01*
X87933333Y-89411961D02*
X87885714Y-89316723D01*
X87885714Y-89316723D02*
X87838095Y-89126247D01*
X87838095Y-89126247D02*
X87838095Y-88983390D01*
X87838095Y-88983390D02*
X87885714Y-88792914D01*
X87885714Y-88792914D02*
X87933333Y-88697676D01*
X87933333Y-88697676D02*
X88028571Y-88602438D01*
X88028571Y-88602438D02*
X88171428Y-88554819D01*
X88171428Y-88554819D02*
X88266666Y-88554819D01*
X88266666Y-88554819D02*
X88409523Y-88602438D01*
X88409523Y-88602438D02*
X88457142Y-88650057D01*
X88838095Y-88650057D02*
X88885714Y-88602438D01*
X88885714Y-88602438D02*
X88980952Y-88554819D01*
X88980952Y-88554819D02*
X89219047Y-88554819D01*
X89219047Y-88554819D02*
X89314285Y-88602438D01*
X89314285Y-88602438D02*
X89361904Y-88650057D01*
X89361904Y-88650057D02*
X89409523Y-88745295D01*
X89409523Y-88745295D02*
X89409523Y-88840533D01*
X89409523Y-88840533D02*
X89361904Y-88983390D01*
X89361904Y-88983390D02*
X88790476Y-89554819D01*
X88790476Y-89554819D02*
X89409523Y-89554819D01*
X90266666Y-88888152D02*
X90266666Y-89554819D01*
X90028571Y-88507200D02*
X89790476Y-89221485D01*
X89790476Y-89221485D02*
X90409523Y-89221485D01*
X85257142Y-86059580D02*
X85209523Y-86107200D01*
X85209523Y-86107200D02*
X85066666Y-86154819D01*
X85066666Y-86154819D02*
X84971428Y-86154819D01*
X84971428Y-86154819D02*
X84828571Y-86107200D01*
X84828571Y-86107200D02*
X84733333Y-86011961D01*
X84733333Y-86011961D02*
X84685714Y-85916723D01*
X84685714Y-85916723D02*
X84638095Y-85726247D01*
X84638095Y-85726247D02*
X84638095Y-85583390D01*
X84638095Y-85583390D02*
X84685714Y-85392914D01*
X84685714Y-85392914D02*
X84733333Y-85297676D01*
X84733333Y-85297676D02*
X84828571Y-85202438D01*
X84828571Y-85202438D02*
X84971428Y-85154819D01*
X84971428Y-85154819D02*
X85066666Y-85154819D01*
X85066666Y-85154819D02*
X85209523Y-85202438D01*
X85209523Y-85202438D02*
X85257142Y-85250057D01*
X85638095Y-85250057D02*
X85685714Y-85202438D01*
X85685714Y-85202438D02*
X85780952Y-85154819D01*
X85780952Y-85154819D02*
X86019047Y-85154819D01*
X86019047Y-85154819D02*
X86114285Y-85202438D01*
X86114285Y-85202438D02*
X86161904Y-85250057D01*
X86161904Y-85250057D02*
X86209523Y-85345295D01*
X86209523Y-85345295D02*
X86209523Y-85440533D01*
X86209523Y-85440533D02*
X86161904Y-85583390D01*
X86161904Y-85583390D02*
X85590476Y-86154819D01*
X85590476Y-86154819D02*
X86209523Y-86154819D01*
X87114285Y-85154819D02*
X86638095Y-85154819D01*
X86638095Y-85154819D02*
X86590476Y-85631009D01*
X86590476Y-85631009D02*
X86638095Y-85583390D01*
X86638095Y-85583390D02*
X86733333Y-85535771D01*
X86733333Y-85535771D02*
X86971428Y-85535771D01*
X86971428Y-85535771D02*
X87066666Y-85583390D01*
X87066666Y-85583390D02*
X87114285Y-85631009D01*
X87114285Y-85631009D02*
X87161904Y-85726247D01*
X87161904Y-85726247D02*
X87161904Y-85964342D01*
X87161904Y-85964342D02*
X87114285Y-86059580D01*
X87114285Y-86059580D02*
X87066666Y-86107200D01*
X87066666Y-86107200D02*
X86971428Y-86154819D01*
X86971428Y-86154819D02*
X86733333Y-86154819D01*
X86733333Y-86154819D02*
X86638095Y-86107200D01*
X86638095Y-86107200D02*
X86590476Y-86059580D01*
X91057142Y-83259580D02*
X91009523Y-83307200D01*
X91009523Y-83307200D02*
X90866666Y-83354819D01*
X90866666Y-83354819D02*
X90771428Y-83354819D01*
X90771428Y-83354819D02*
X90628571Y-83307200D01*
X90628571Y-83307200D02*
X90533333Y-83211961D01*
X90533333Y-83211961D02*
X90485714Y-83116723D01*
X90485714Y-83116723D02*
X90438095Y-82926247D01*
X90438095Y-82926247D02*
X90438095Y-82783390D01*
X90438095Y-82783390D02*
X90485714Y-82592914D01*
X90485714Y-82592914D02*
X90533333Y-82497676D01*
X90533333Y-82497676D02*
X90628571Y-82402438D01*
X90628571Y-82402438D02*
X90771428Y-82354819D01*
X90771428Y-82354819D02*
X90866666Y-82354819D01*
X90866666Y-82354819D02*
X91009523Y-82402438D01*
X91009523Y-82402438D02*
X91057142Y-82450057D01*
X92009523Y-83354819D02*
X91438095Y-83354819D01*
X91723809Y-83354819D02*
X91723809Y-82354819D01*
X91723809Y-82354819D02*
X91628571Y-82497676D01*
X91628571Y-82497676D02*
X91533333Y-82592914D01*
X91533333Y-82592914D02*
X91438095Y-82640533D01*
X92485714Y-83354819D02*
X92676190Y-83354819D01*
X92676190Y-83354819D02*
X92771428Y-83307200D01*
X92771428Y-83307200D02*
X92819047Y-83259580D01*
X92819047Y-83259580D02*
X92914285Y-83116723D01*
X92914285Y-83116723D02*
X92961904Y-82926247D01*
X92961904Y-82926247D02*
X92961904Y-82545295D01*
X92961904Y-82545295D02*
X92914285Y-82450057D01*
X92914285Y-82450057D02*
X92866666Y-82402438D01*
X92866666Y-82402438D02*
X92771428Y-82354819D01*
X92771428Y-82354819D02*
X92580952Y-82354819D01*
X92580952Y-82354819D02*
X92485714Y-82402438D01*
X92485714Y-82402438D02*
X92438095Y-82450057D01*
X92438095Y-82450057D02*
X92390476Y-82545295D01*
X92390476Y-82545295D02*
X92390476Y-82783390D01*
X92390476Y-82783390D02*
X92438095Y-82878628D01*
X92438095Y-82878628D02*
X92485714Y-82926247D01*
X92485714Y-82926247D02*
X92580952Y-82973866D01*
X92580952Y-82973866D02*
X92771428Y-82973866D01*
X92771428Y-82973866D02*
X92866666Y-82926247D01*
X92866666Y-82926247D02*
X92914285Y-82878628D01*
X92914285Y-82878628D02*
X92961904Y-82783390D01*
X81357142Y-62454819D02*
X81023809Y-61978628D01*
X80785714Y-62454819D02*
X80785714Y-61454819D01*
X80785714Y-61454819D02*
X81166666Y-61454819D01*
X81166666Y-61454819D02*
X81261904Y-61502438D01*
X81261904Y-61502438D02*
X81309523Y-61550057D01*
X81309523Y-61550057D02*
X81357142Y-61645295D01*
X81357142Y-61645295D02*
X81357142Y-61788152D01*
X81357142Y-61788152D02*
X81309523Y-61883390D01*
X81309523Y-61883390D02*
X81261904Y-61931009D01*
X81261904Y-61931009D02*
X81166666Y-61978628D01*
X81166666Y-61978628D02*
X80785714Y-61978628D01*
X81690476Y-61454819D02*
X82309523Y-61454819D01*
X82309523Y-61454819D02*
X81976190Y-61835771D01*
X81976190Y-61835771D02*
X82119047Y-61835771D01*
X82119047Y-61835771D02*
X82214285Y-61883390D01*
X82214285Y-61883390D02*
X82261904Y-61931009D01*
X82261904Y-61931009D02*
X82309523Y-62026247D01*
X82309523Y-62026247D02*
X82309523Y-62264342D01*
X82309523Y-62264342D02*
X82261904Y-62359580D01*
X82261904Y-62359580D02*
X82214285Y-62407200D01*
X82214285Y-62407200D02*
X82119047Y-62454819D01*
X82119047Y-62454819D02*
X81833333Y-62454819D01*
X81833333Y-62454819D02*
X81738095Y-62407200D01*
X81738095Y-62407200D02*
X81690476Y-62359580D01*
X83166666Y-61788152D02*
X83166666Y-62454819D01*
X82928571Y-61407200D02*
X82690476Y-62121485D01*
X82690476Y-62121485D02*
X83309523Y-62121485D01*
X61333333Y-123359580D02*
X61285714Y-123407200D01*
X61285714Y-123407200D02*
X61142857Y-123454819D01*
X61142857Y-123454819D02*
X61047619Y-123454819D01*
X61047619Y-123454819D02*
X60904762Y-123407200D01*
X60904762Y-123407200D02*
X60809524Y-123311961D01*
X60809524Y-123311961D02*
X60761905Y-123216723D01*
X60761905Y-123216723D02*
X60714286Y-123026247D01*
X60714286Y-123026247D02*
X60714286Y-122883390D01*
X60714286Y-122883390D02*
X60761905Y-122692914D01*
X60761905Y-122692914D02*
X60809524Y-122597676D01*
X60809524Y-122597676D02*
X60904762Y-122502438D01*
X60904762Y-122502438D02*
X61047619Y-122454819D01*
X61047619Y-122454819D02*
X61142857Y-122454819D01*
X61142857Y-122454819D02*
X61285714Y-122502438D01*
X61285714Y-122502438D02*
X61333333Y-122550057D01*
X62190476Y-122788152D02*
X62190476Y-123454819D01*
X61952381Y-122407200D02*
X61714286Y-123121485D01*
X61714286Y-123121485D02*
X62333333Y-123121485D01*
X102357142Y-65359580D02*
X102309523Y-65407200D01*
X102309523Y-65407200D02*
X102166666Y-65454819D01*
X102166666Y-65454819D02*
X102071428Y-65454819D01*
X102071428Y-65454819D02*
X101928571Y-65407200D01*
X101928571Y-65407200D02*
X101833333Y-65311961D01*
X101833333Y-65311961D02*
X101785714Y-65216723D01*
X101785714Y-65216723D02*
X101738095Y-65026247D01*
X101738095Y-65026247D02*
X101738095Y-64883390D01*
X101738095Y-64883390D02*
X101785714Y-64692914D01*
X101785714Y-64692914D02*
X101833333Y-64597676D01*
X101833333Y-64597676D02*
X101928571Y-64502438D01*
X101928571Y-64502438D02*
X102071428Y-64454819D01*
X102071428Y-64454819D02*
X102166666Y-64454819D01*
X102166666Y-64454819D02*
X102309523Y-64502438D01*
X102309523Y-64502438D02*
X102357142Y-64550057D01*
X102690476Y-64454819D02*
X103309523Y-64454819D01*
X103309523Y-64454819D02*
X102976190Y-64835771D01*
X102976190Y-64835771D02*
X103119047Y-64835771D01*
X103119047Y-64835771D02*
X103214285Y-64883390D01*
X103214285Y-64883390D02*
X103261904Y-64931009D01*
X103261904Y-64931009D02*
X103309523Y-65026247D01*
X103309523Y-65026247D02*
X103309523Y-65264342D01*
X103309523Y-65264342D02*
X103261904Y-65359580D01*
X103261904Y-65359580D02*
X103214285Y-65407200D01*
X103214285Y-65407200D02*
X103119047Y-65454819D01*
X103119047Y-65454819D02*
X102833333Y-65454819D01*
X102833333Y-65454819D02*
X102738095Y-65407200D01*
X102738095Y-65407200D02*
X102690476Y-65359580D01*
X104261904Y-65454819D02*
X103690476Y-65454819D01*
X103976190Y-65454819D02*
X103976190Y-64454819D01*
X103976190Y-64454819D02*
X103880952Y-64597676D01*
X103880952Y-64597676D02*
X103785714Y-64692914D01*
X103785714Y-64692914D02*
X103690476Y-64740533D01*
X69357142Y-61954819D02*
X69023809Y-61478628D01*
X68785714Y-61954819D02*
X68785714Y-60954819D01*
X68785714Y-60954819D02*
X69166666Y-60954819D01*
X69166666Y-60954819D02*
X69261904Y-61002438D01*
X69261904Y-61002438D02*
X69309523Y-61050057D01*
X69309523Y-61050057D02*
X69357142Y-61145295D01*
X69357142Y-61145295D02*
X69357142Y-61288152D01*
X69357142Y-61288152D02*
X69309523Y-61383390D01*
X69309523Y-61383390D02*
X69261904Y-61431009D01*
X69261904Y-61431009D02*
X69166666Y-61478628D01*
X69166666Y-61478628D02*
X68785714Y-61478628D01*
X70309523Y-61954819D02*
X69738095Y-61954819D01*
X70023809Y-61954819D02*
X70023809Y-60954819D01*
X70023809Y-60954819D02*
X69928571Y-61097676D01*
X69928571Y-61097676D02*
X69833333Y-61192914D01*
X69833333Y-61192914D02*
X69738095Y-61240533D01*
X70928571Y-60954819D02*
X71023809Y-60954819D01*
X71023809Y-60954819D02*
X71119047Y-61002438D01*
X71119047Y-61002438D02*
X71166666Y-61050057D01*
X71166666Y-61050057D02*
X71214285Y-61145295D01*
X71214285Y-61145295D02*
X71261904Y-61335771D01*
X71261904Y-61335771D02*
X71261904Y-61573866D01*
X71261904Y-61573866D02*
X71214285Y-61764342D01*
X71214285Y-61764342D02*
X71166666Y-61859580D01*
X71166666Y-61859580D02*
X71119047Y-61907200D01*
X71119047Y-61907200D02*
X71023809Y-61954819D01*
X71023809Y-61954819D02*
X70928571Y-61954819D01*
X70928571Y-61954819D02*
X70833333Y-61907200D01*
X70833333Y-61907200D02*
X70785714Y-61859580D01*
X70785714Y-61859580D02*
X70738095Y-61764342D01*
X70738095Y-61764342D02*
X70690476Y-61573866D01*
X70690476Y-61573866D02*
X70690476Y-61335771D01*
X70690476Y-61335771D02*
X70738095Y-61145295D01*
X70738095Y-61145295D02*
X70785714Y-61050057D01*
X70785714Y-61050057D02*
X70833333Y-61002438D01*
X70833333Y-61002438D02*
X70928571Y-60954819D01*
X56857142Y-68454819D02*
X56523809Y-67978628D01*
X56285714Y-68454819D02*
X56285714Y-67454819D01*
X56285714Y-67454819D02*
X56666666Y-67454819D01*
X56666666Y-67454819D02*
X56761904Y-67502438D01*
X56761904Y-67502438D02*
X56809523Y-67550057D01*
X56809523Y-67550057D02*
X56857142Y-67645295D01*
X56857142Y-67645295D02*
X56857142Y-67788152D01*
X56857142Y-67788152D02*
X56809523Y-67883390D01*
X56809523Y-67883390D02*
X56761904Y-67931009D01*
X56761904Y-67931009D02*
X56666666Y-67978628D01*
X56666666Y-67978628D02*
X56285714Y-67978628D01*
X57809523Y-68454819D02*
X57238095Y-68454819D01*
X57523809Y-68454819D02*
X57523809Y-67454819D01*
X57523809Y-67454819D02*
X57428571Y-67597676D01*
X57428571Y-67597676D02*
X57333333Y-67692914D01*
X57333333Y-67692914D02*
X57238095Y-67740533D01*
X58285714Y-68454819D02*
X58476190Y-68454819D01*
X58476190Y-68454819D02*
X58571428Y-68407200D01*
X58571428Y-68407200D02*
X58619047Y-68359580D01*
X58619047Y-68359580D02*
X58714285Y-68216723D01*
X58714285Y-68216723D02*
X58761904Y-68026247D01*
X58761904Y-68026247D02*
X58761904Y-67645295D01*
X58761904Y-67645295D02*
X58714285Y-67550057D01*
X58714285Y-67550057D02*
X58666666Y-67502438D01*
X58666666Y-67502438D02*
X58571428Y-67454819D01*
X58571428Y-67454819D02*
X58380952Y-67454819D01*
X58380952Y-67454819D02*
X58285714Y-67502438D01*
X58285714Y-67502438D02*
X58238095Y-67550057D01*
X58238095Y-67550057D02*
X58190476Y-67645295D01*
X58190476Y-67645295D02*
X58190476Y-67883390D01*
X58190476Y-67883390D02*
X58238095Y-67978628D01*
X58238095Y-67978628D02*
X58285714Y-68026247D01*
X58285714Y-68026247D02*
X58380952Y-68073866D01*
X58380952Y-68073866D02*
X58571428Y-68073866D01*
X58571428Y-68073866D02*
X58666666Y-68026247D01*
X58666666Y-68026247D02*
X58714285Y-67978628D01*
X58714285Y-67978628D02*
X58761904Y-67883390D01*
X80607142Y-71704819D02*
X80273809Y-71228628D01*
X80035714Y-71704819D02*
X80035714Y-70704819D01*
X80035714Y-70704819D02*
X80416666Y-70704819D01*
X80416666Y-70704819D02*
X80511904Y-70752438D01*
X80511904Y-70752438D02*
X80559523Y-70800057D01*
X80559523Y-70800057D02*
X80607142Y-70895295D01*
X80607142Y-70895295D02*
X80607142Y-71038152D01*
X80607142Y-71038152D02*
X80559523Y-71133390D01*
X80559523Y-71133390D02*
X80511904Y-71181009D01*
X80511904Y-71181009D02*
X80416666Y-71228628D01*
X80416666Y-71228628D02*
X80035714Y-71228628D01*
X81559523Y-71704819D02*
X80988095Y-71704819D01*
X81273809Y-71704819D02*
X81273809Y-70704819D01*
X81273809Y-70704819D02*
X81178571Y-70847676D01*
X81178571Y-70847676D02*
X81083333Y-70942914D01*
X81083333Y-70942914D02*
X80988095Y-70990533D01*
X81892857Y-70704819D02*
X82511904Y-70704819D01*
X82511904Y-70704819D02*
X82178571Y-71085771D01*
X82178571Y-71085771D02*
X82321428Y-71085771D01*
X82321428Y-71085771D02*
X82416666Y-71133390D01*
X82416666Y-71133390D02*
X82464285Y-71181009D01*
X82464285Y-71181009D02*
X82511904Y-71276247D01*
X82511904Y-71276247D02*
X82511904Y-71514342D01*
X82511904Y-71514342D02*
X82464285Y-71609580D01*
X82464285Y-71609580D02*
X82416666Y-71657200D01*
X82416666Y-71657200D02*
X82321428Y-71704819D01*
X82321428Y-71704819D02*
X82035714Y-71704819D01*
X82035714Y-71704819D02*
X81940476Y-71657200D01*
X81940476Y-71657200D02*
X81892857Y-71609580D01*
X104241666Y-95854819D02*
X104241666Y-96569104D01*
X104241666Y-96569104D02*
X104194047Y-96711961D01*
X104194047Y-96711961D02*
X104098809Y-96807200D01*
X104098809Y-96807200D02*
X103955952Y-96854819D01*
X103955952Y-96854819D02*
X103860714Y-96854819D01*
X104717857Y-96854819D02*
X104717857Y-95854819D01*
X104717857Y-95854819D02*
X105098809Y-95854819D01*
X105098809Y-95854819D02*
X105194047Y-95902438D01*
X105194047Y-95902438D02*
X105241666Y-95950057D01*
X105241666Y-95950057D02*
X105289285Y-96045295D01*
X105289285Y-96045295D02*
X105289285Y-96188152D01*
X105289285Y-96188152D02*
X105241666Y-96283390D01*
X105241666Y-96283390D02*
X105194047Y-96331009D01*
X105194047Y-96331009D02*
X105098809Y-96378628D01*
X105098809Y-96378628D02*
X104717857Y-96378628D01*
X106241666Y-96854819D02*
X105670238Y-96854819D01*
X105955952Y-96854819D02*
X105955952Y-95854819D01*
X105955952Y-95854819D02*
X105860714Y-95997676D01*
X105860714Y-95997676D02*
X105765476Y-96092914D01*
X105765476Y-96092914D02*
X105670238Y-96140533D01*
X94757142Y-76054819D02*
X94423809Y-75578628D01*
X94185714Y-76054819D02*
X94185714Y-75054819D01*
X94185714Y-75054819D02*
X94566666Y-75054819D01*
X94566666Y-75054819D02*
X94661904Y-75102438D01*
X94661904Y-75102438D02*
X94709523Y-75150057D01*
X94709523Y-75150057D02*
X94757142Y-75245295D01*
X94757142Y-75245295D02*
X94757142Y-75388152D01*
X94757142Y-75388152D02*
X94709523Y-75483390D01*
X94709523Y-75483390D02*
X94661904Y-75531009D01*
X94661904Y-75531009D02*
X94566666Y-75578628D01*
X94566666Y-75578628D02*
X94185714Y-75578628D01*
X95090476Y-75054819D02*
X95709523Y-75054819D01*
X95709523Y-75054819D02*
X95376190Y-75435771D01*
X95376190Y-75435771D02*
X95519047Y-75435771D01*
X95519047Y-75435771D02*
X95614285Y-75483390D01*
X95614285Y-75483390D02*
X95661904Y-75531009D01*
X95661904Y-75531009D02*
X95709523Y-75626247D01*
X95709523Y-75626247D02*
X95709523Y-75864342D01*
X95709523Y-75864342D02*
X95661904Y-75959580D01*
X95661904Y-75959580D02*
X95614285Y-76007200D01*
X95614285Y-76007200D02*
X95519047Y-76054819D01*
X95519047Y-76054819D02*
X95233333Y-76054819D01*
X95233333Y-76054819D02*
X95138095Y-76007200D01*
X95138095Y-76007200D02*
X95090476Y-75959580D01*
X96328571Y-75054819D02*
X96423809Y-75054819D01*
X96423809Y-75054819D02*
X96519047Y-75102438D01*
X96519047Y-75102438D02*
X96566666Y-75150057D01*
X96566666Y-75150057D02*
X96614285Y-75245295D01*
X96614285Y-75245295D02*
X96661904Y-75435771D01*
X96661904Y-75435771D02*
X96661904Y-75673866D01*
X96661904Y-75673866D02*
X96614285Y-75864342D01*
X96614285Y-75864342D02*
X96566666Y-75959580D01*
X96566666Y-75959580D02*
X96519047Y-76007200D01*
X96519047Y-76007200D02*
X96423809Y-76054819D01*
X96423809Y-76054819D02*
X96328571Y-76054819D01*
X96328571Y-76054819D02*
X96233333Y-76007200D01*
X96233333Y-76007200D02*
X96185714Y-75959580D01*
X96185714Y-75959580D02*
X96138095Y-75864342D01*
X96138095Y-75864342D02*
X96090476Y-75673866D01*
X96090476Y-75673866D02*
X96090476Y-75435771D01*
X96090476Y-75435771D02*
X96138095Y-75245295D01*
X96138095Y-75245295D02*
X96185714Y-75150057D01*
X96185714Y-75150057D02*
X96233333Y-75102438D01*
X96233333Y-75102438D02*
X96328571Y-75054819D01*
X77457142Y-86854819D02*
X77123809Y-86378628D01*
X76885714Y-86854819D02*
X76885714Y-85854819D01*
X76885714Y-85854819D02*
X77266666Y-85854819D01*
X77266666Y-85854819D02*
X77361904Y-85902438D01*
X77361904Y-85902438D02*
X77409523Y-85950057D01*
X77409523Y-85950057D02*
X77457142Y-86045295D01*
X77457142Y-86045295D02*
X77457142Y-86188152D01*
X77457142Y-86188152D02*
X77409523Y-86283390D01*
X77409523Y-86283390D02*
X77361904Y-86331009D01*
X77361904Y-86331009D02*
X77266666Y-86378628D01*
X77266666Y-86378628D02*
X76885714Y-86378628D01*
X77838095Y-85950057D02*
X77885714Y-85902438D01*
X77885714Y-85902438D02*
X77980952Y-85854819D01*
X77980952Y-85854819D02*
X78219047Y-85854819D01*
X78219047Y-85854819D02*
X78314285Y-85902438D01*
X78314285Y-85902438D02*
X78361904Y-85950057D01*
X78361904Y-85950057D02*
X78409523Y-86045295D01*
X78409523Y-86045295D02*
X78409523Y-86140533D01*
X78409523Y-86140533D02*
X78361904Y-86283390D01*
X78361904Y-86283390D02*
X77790476Y-86854819D01*
X77790476Y-86854819D02*
X78409523Y-86854819D01*
X78742857Y-85854819D02*
X79361904Y-85854819D01*
X79361904Y-85854819D02*
X79028571Y-86235771D01*
X79028571Y-86235771D02*
X79171428Y-86235771D01*
X79171428Y-86235771D02*
X79266666Y-86283390D01*
X79266666Y-86283390D02*
X79314285Y-86331009D01*
X79314285Y-86331009D02*
X79361904Y-86426247D01*
X79361904Y-86426247D02*
X79361904Y-86664342D01*
X79361904Y-86664342D02*
X79314285Y-86759580D01*
X79314285Y-86759580D02*
X79266666Y-86807200D01*
X79266666Y-86807200D02*
X79171428Y-86854819D01*
X79171428Y-86854819D02*
X78885714Y-86854819D01*
X78885714Y-86854819D02*
X78790476Y-86807200D01*
X78790476Y-86807200D02*
X78742857Y-86759580D01*
X72154761Y-65259058D02*
X72059523Y-65211439D01*
X72059523Y-65211439D02*
X71964285Y-65116201D01*
X71964285Y-65116201D02*
X71821428Y-64973343D01*
X71821428Y-64973343D02*
X71726190Y-64925724D01*
X71726190Y-64925724D02*
X71630952Y-64925724D01*
X71678571Y-65163820D02*
X71583333Y-65116201D01*
X71583333Y-65116201D02*
X71488095Y-65020962D01*
X71488095Y-65020962D02*
X71440476Y-64830486D01*
X71440476Y-64830486D02*
X71440476Y-64497153D01*
X71440476Y-64497153D02*
X71488095Y-64306677D01*
X71488095Y-64306677D02*
X71583333Y-64211439D01*
X71583333Y-64211439D02*
X71678571Y-64163820D01*
X71678571Y-64163820D02*
X71869047Y-64163820D01*
X71869047Y-64163820D02*
X71964285Y-64211439D01*
X71964285Y-64211439D02*
X72059523Y-64306677D01*
X72059523Y-64306677D02*
X72107142Y-64497153D01*
X72107142Y-64497153D02*
X72107142Y-64830486D01*
X72107142Y-64830486D02*
X72059523Y-65020962D01*
X72059523Y-65020962D02*
X71964285Y-65116201D01*
X71964285Y-65116201D02*
X71869047Y-65163820D01*
X71869047Y-65163820D02*
X71678571Y-65163820D01*
X72440476Y-64163820D02*
X73059523Y-64163820D01*
X73059523Y-64163820D02*
X72726190Y-64544772D01*
X72726190Y-64544772D02*
X72869047Y-64544772D01*
X72869047Y-64544772D02*
X72964285Y-64592391D01*
X72964285Y-64592391D02*
X73011904Y-64640010D01*
X73011904Y-64640010D02*
X73059523Y-64735248D01*
X73059523Y-64735248D02*
X73059523Y-64973343D01*
X73059523Y-64973343D02*
X73011904Y-65068581D01*
X73011904Y-65068581D02*
X72964285Y-65116201D01*
X72964285Y-65116201D02*
X72869047Y-65163820D01*
X72869047Y-65163820D02*
X72583333Y-65163820D01*
X72583333Y-65163820D02*
X72488095Y-65116201D01*
X72488095Y-65116201D02*
X72440476Y-65068581D01*
X56857142Y-64454819D02*
X56523809Y-63978628D01*
X56285714Y-64454819D02*
X56285714Y-63454819D01*
X56285714Y-63454819D02*
X56666666Y-63454819D01*
X56666666Y-63454819D02*
X56761904Y-63502438D01*
X56761904Y-63502438D02*
X56809523Y-63550057D01*
X56809523Y-63550057D02*
X56857142Y-63645295D01*
X56857142Y-63645295D02*
X56857142Y-63788152D01*
X56857142Y-63788152D02*
X56809523Y-63883390D01*
X56809523Y-63883390D02*
X56761904Y-63931009D01*
X56761904Y-63931009D02*
X56666666Y-63978628D01*
X56666666Y-63978628D02*
X56285714Y-63978628D01*
X57809523Y-64454819D02*
X57238095Y-64454819D01*
X57523809Y-64454819D02*
X57523809Y-63454819D01*
X57523809Y-63454819D02*
X57428571Y-63597676D01*
X57428571Y-63597676D02*
X57333333Y-63692914D01*
X57333333Y-63692914D02*
X57238095Y-63740533D01*
X58380952Y-63883390D02*
X58285714Y-63835771D01*
X58285714Y-63835771D02*
X58238095Y-63788152D01*
X58238095Y-63788152D02*
X58190476Y-63692914D01*
X58190476Y-63692914D02*
X58190476Y-63645295D01*
X58190476Y-63645295D02*
X58238095Y-63550057D01*
X58238095Y-63550057D02*
X58285714Y-63502438D01*
X58285714Y-63502438D02*
X58380952Y-63454819D01*
X58380952Y-63454819D02*
X58571428Y-63454819D01*
X58571428Y-63454819D02*
X58666666Y-63502438D01*
X58666666Y-63502438D02*
X58714285Y-63550057D01*
X58714285Y-63550057D02*
X58761904Y-63645295D01*
X58761904Y-63645295D02*
X58761904Y-63692914D01*
X58761904Y-63692914D02*
X58714285Y-63788152D01*
X58714285Y-63788152D02*
X58666666Y-63835771D01*
X58666666Y-63835771D02*
X58571428Y-63883390D01*
X58571428Y-63883390D02*
X58380952Y-63883390D01*
X58380952Y-63883390D02*
X58285714Y-63931009D01*
X58285714Y-63931009D02*
X58238095Y-63978628D01*
X58238095Y-63978628D02*
X58190476Y-64073866D01*
X58190476Y-64073866D02*
X58190476Y-64264342D01*
X58190476Y-64264342D02*
X58238095Y-64359580D01*
X58238095Y-64359580D02*
X58285714Y-64407200D01*
X58285714Y-64407200D02*
X58380952Y-64454819D01*
X58380952Y-64454819D02*
X58571428Y-64454819D01*
X58571428Y-64454819D02*
X58666666Y-64407200D01*
X58666666Y-64407200D02*
X58714285Y-64359580D01*
X58714285Y-64359580D02*
X58761904Y-64264342D01*
X58761904Y-64264342D02*
X58761904Y-64073866D01*
X58761904Y-64073866D02*
X58714285Y-63978628D01*
X58714285Y-63978628D02*
X58666666Y-63931009D01*
X58666666Y-63931009D02*
X58571428Y-63883390D01*
X56857142Y-73359580D02*
X56809523Y-73407200D01*
X56809523Y-73407200D02*
X56666666Y-73454819D01*
X56666666Y-73454819D02*
X56571428Y-73454819D01*
X56571428Y-73454819D02*
X56428571Y-73407200D01*
X56428571Y-73407200D02*
X56333333Y-73311961D01*
X56333333Y-73311961D02*
X56285714Y-73216723D01*
X56285714Y-73216723D02*
X56238095Y-73026247D01*
X56238095Y-73026247D02*
X56238095Y-72883390D01*
X56238095Y-72883390D02*
X56285714Y-72692914D01*
X56285714Y-72692914D02*
X56333333Y-72597676D01*
X56333333Y-72597676D02*
X56428571Y-72502438D01*
X56428571Y-72502438D02*
X56571428Y-72454819D01*
X56571428Y-72454819D02*
X56666666Y-72454819D01*
X56666666Y-72454819D02*
X56809523Y-72502438D01*
X56809523Y-72502438D02*
X56857142Y-72550057D01*
X57809523Y-73454819D02*
X57238095Y-73454819D01*
X57523809Y-73454819D02*
X57523809Y-72454819D01*
X57523809Y-72454819D02*
X57428571Y-72597676D01*
X57428571Y-72597676D02*
X57333333Y-72692914D01*
X57333333Y-72692914D02*
X57238095Y-72740533D01*
X58761904Y-73454819D02*
X58190476Y-73454819D01*
X58476190Y-73454819D02*
X58476190Y-72454819D01*
X58476190Y-72454819D02*
X58380952Y-72597676D01*
X58380952Y-72597676D02*
X58285714Y-72692914D01*
X58285714Y-72692914D02*
X58190476Y-72740533D01*
X65857142Y-72609580D02*
X65809523Y-72657200D01*
X65809523Y-72657200D02*
X65666666Y-72704819D01*
X65666666Y-72704819D02*
X65571428Y-72704819D01*
X65571428Y-72704819D02*
X65428571Y-72657200D01*
X65428571Y-72657200D02*
X65333333Y-72561961D01*
X65333333Y-72561961D02*
X65285714Y-72466723D01*
X65285714Y-72466723D02*
X65238095Y-72276247D01*
X65238095Y-72276247D02*
X65238095Y-72133390D01*
X65238095Y-72133390D02*
X65285714Y-71942914D01*
X65285714Y-71942914D02*
X65333333Y-71847676D01*
X65333333Y-71847676D02*
X65428571Y-71752438D01*
X65428571Y-71752438D02*
X65571428Y-71704819D01*
X65571428Y-71704819D02*
X65666666Y-71704819D01*
X65666666Y-71704819D02*
X65809523Y-71752438D01*
X65809523Y-71752438D02*
X65857142Y-71800057D01*
X66809523Y-72704819D02*
X66238095Y-72704819D01*
X66523809Y-72704819D02*
X66523809Y-71704819D01*
X66523809Y-71704819D02*
X66428571Y-71847676D01*
X66428571Y-71847676D02*
X66333333Y-71942914D01*
X66333333Y-71942914D02*
X66238095Y-71990533D01*
X67142857Y-71704819D02*
X67809523Y-71704819D01*
X67809523Y-71704819D02*
X67380952Y-72704819D01*
X97666666Y-57254819D02*
X97666666Y-57969104D01*
X97666666Y-57969104D02*
X97619047Y-58111961D01*
X97619047Y-58111961D02*
X97523809Y-58207200D01*
X97523809Y-58207200D02*
X97380952Y-58254819D01*
X97380952Y-58254819D02*
X97285714Y-58254819D01*
X98047619Y-57254819D02*
X98666666Y-57254819D01*
X98666666Y-57254819D02*
X98333333Y-57635771D01*
X98333333Y-57635771D02*
X98476190Y-57635771D01*
X98476190Y-57635771D02*
X98571428Y-57683390D01*
X98571428Y-57683390D02*
X98619047Y-57731009D01*
X98619047Y-57731009D02*
X98666666Y-57826247D01*
X98666666Y-57826247D02*
X98666666Y-58064342D01*
X98666666Y-58064342D02*
X98619047Y-58159580D01*
X98619047Y-58159580D02*
X98571428Y-58207200D01*
X98571428Y-58207200D02*
X98476190Y-58254819D01*
X98476190Y-58254819D02*
X98190476Y-58254819D01*
X98190476Y-58254819D02*
X98095238Y-58207200D01*
X98095238Y-58207200D02*
X98047619Y-58159580D01*
X56857142Y-70609580D02*
X56809523Y-70657200D01*
X56809523Y-70657200D02*
X56666666Y-70704819D01*
X56666666Y-70704819D02*
X56571428Y-70704819D01*
X56571428Y-70704819D02*
X56428571Y-70657200D01*
X56428571Y-70657200D02*
X56333333Y-70561961D01*
X56333333Y-70561961D02*
X56285714Y-70466723D01*
X56285714Y-70466723D02*
X56238095Y-70276247D01*
X56238095Y-70276247D02*
X56238095Y-70133390D01*
X56238095Y-70133390D02*
X56285714Y-69942914D01*
X56285714Y-69942914D02*
X56333333Y-69847676D01*
X56333333Y-69847676D02*
X56428571Y-69752438D01*
X56428571Y-69752438D02*
X56571428Y-69704819D01*
X56571428Y-69704819D02*
X56666666Y-69704819D01*
X56666666Y-69704819D02*
X56809523Y-69752438D01*
X56809523Y-69752438D02*
X56857142Y-69800057D01*
X57809523Y-70704819D02*
X57238095Y-70704819D01*
X57523809Y-70704819D02*
X57523809Y-69704819D01*
X57523809Y-69704819D02*
X57428571Y-69847676D01*
X57428571Y-69847676D02*
X57333333Y-69942914D01*
X57333333Y-69942914D02*
X57238095Y-69990533D01*
X58428571Y-69704819D02*
X58523809Y-69704819D01*
X58523809Y-69704819D02*
X58619047Y-69752438D01*
X58619047Y-69752438D02*
X58666666Y-69800057D01*
X58666666Y-69800057D02*
X58714285Y-69895295D01*
X58714285Y-69895295D02*
X58761904Y-70085771D01*
X58761904Y-70085771D02*
X58761904Y-70323866D01*
X58761904Y-70323866D02*
X58714285Y-70514342D01*
X58714285Y-70514342D02*
X58666666Y-70609580D01*
X58666666Y-70609580D02*
X58619047Y-70657200D01*
X58619047Y-70657200D02*
X58523809Y-70704819D01*
X58523809Y-70704819D02*
X58428571Y-70704819D01*
X58428571Y-70704819D02*
X58333333Y-70657200D01*
X58333333Y-70657200D02*
X58285714Y-70609580D01*
X58285714Y-70609580D02*
X58238095Y-70514342D01*
X58238095Y-70514342D02*
X58190476Y-70323866D01*
X58190476Y-70323866D02*
X58190476Y-70085771D01*
X58190476Y-70085771D02*
X58238095Y-69895295D01*
X58238095Y-69895295D02*
X58285714Y-69800057D01*
X58285714Y-69800057D02*
X58333333Y-69752438D01*
X58333333Y-69752438D02*
X58428571Y-69704819D01*
X103638095Y-79254819D02*
X104209523Y-79254819D01*
X103923809Y-80254819D02*
X103923809Y-79254819D01*
X104542857Y-80254819D02*
X104542857Y-79254819D01*
X104542857Y-79254819D02*
X104923809Y-79254819D01*
X104923809Y-79254819D02*
X105019047Y-79302438D01*
X105019047Y-79302438D02*
X105066666Y-79350057D01*
X105066666Y-79350057D02*
X105114285Y-79445295D01*
X105114285Y-79445295D02*
X105114285Y-79588152D01*
X105114285Y-79588152D02*
X105066666Y-79683390D01*
X105066666Y-79683390D02*
X105019047Y-79731009D01*
X105019047Y-79731009D02*
X104923809Y-79778628D01*
X104923809Y-79778628D02*
X104542857Y-79778628D01*
X106066666Y-80254819D02*
X105495238Y-80254819D01*
X105780952Y-80254819D02*
X105780952Y-79254819D01*
X105780952Y-79254819D02*
X105685714Y-79397676D01*
X105685714Y-79397676D02*
X105590476Y-79492914D01*
X105590476Y-79492914D02*
X105495238Y-79540533D01*
X100033333Y-122609580D02*
X99985714Y-122657200D01*
X99985714Y-122657200D02*
X99842857Y-122704819D01*
X99842857Y-122704819D02*
X99747619Y-122704819D01*
X99747619Y-122704819D02*
X99604762Y-122657200D01*
X99604762Y-122657200D02*
X99509524Y-122561961D01*
X99509524Y-122561961D02*
X99461905Y-122466723D01*
X99461905Y-122466723D02*
X99414286Y-122276247D01*
X99414286Y-122276247D02*
X99414286Y-122133390D01*
X99414286Y-122133390D02*
X99461905Y-121942914D01*
X99461905Y-121942914D02*
X99509524Y-121847676D01*
X99509524Y-121847676D02*
X99604762Y-121752438D01*
X99604762Y-121752438D02*
X99747619Y-121704819D01*
X99747619Y-121704819D02*
X99842857Y-121704819D01*
X99842857Y-121704819D02*
X99985714Y-121752438D01*
X99985714Y-121752438D02*
X100033333Y-121800057D01*
X100366667Y-121704819D02*
X100985714Y-121704819D01*
X100985714Y-121704819D02*
X100652381Y-122085771D01*
X100652381Y-122085771D02*
X100795238Y-122085771D01*
X100795238Y-122085771D02*
X100890476Y-122133390D01*
X100890476Y-122133390D02*
X100938095Y-122181009D01*
X100938095Y-122181009D02*
X100985714Y-122276247D01*
X100985714Y-122276247D02*
X100985714Y-122514342D01*
X100985714Y-122514342D02*
X100938095Y-122609580D01*
X100938095Y-122609580D02*
X100890476Y-122657200D01*
X100890476Y-122657200D02*
X100795238Y-122704819D01*
X100795238Y-122704819D02*
X100509524Y-122704819D01*
X100509524Y-122704819D02*
X100414286Y-122657200D01*
X100414286Y-122657200D02*
X100366667Y-122609580D01*
X104007142Y-76154819D02*
X103673809Y-75678628D01*
X103435714Y-76154819D02*
X103435714Y-75154819D01*
X103435714Y-75154819D02*
X103816666Y-75154819D01*
X103816666Y-75154819D02*
X103911904Y-75202438D01*
X103911904Y-75202438D02*
X103959523Y-75250057D01*
X103959523Y-75250057D02*
X104007142Y-75345295D01*
X104007142Y-75345295D02*
X104007142Y-75488152D01*
X104007142Y-75488152D02*
X103959523Y-75583390D01*
X103959523Y-75583390D02*
X103911904Y-75631009D01*
X103911904Y-75631009D02*
X103816666Y-75678628D01*
X103816666Y-75678628D02*
X103435714Y-75678628D01*
X104388095Y-75250057D02*
X104435714Y-75202438D01*
X104435714Y-75202438D02*
X104530952Y-75154819D01*
X104530952Y-75154819D02*
X104769047Y-75154819D01*
X104769047Y-75154819D02*
X104864285Y-75202438D01*
X104864285Y-75202438D02*
X104911904Y-75250057D01*
X104911904Y-75250057D02*
X104959523Y-75345295D01*
X104959523Y-75345295D02*
X104959523Y-75440533D01*
X104959523Y-75440533D02*
X104911904Y-75583390D01*
X104911904Y-75583390D02*
X104340476Y-76154819D01*
X104340476Y-76154819D02*
X104959523Y-76154819D01*
X105578571Y-75154819D02*
X105673809Y-75154819D01*
X105673809Y-75154819D02*
X105769047Y-75202438D01*
X105769047Y-75202438D02*
X105816666Y-75250057D01*
X105816666Y-75250057D02*
X105864285Y-75345295D01*
X105864285Y-75345295D02*
X105911904Y-75535771D01*
X105911904Y-75535771D02*
X105911904Y-75773866D01*
X105911904Y-75773866D02*
X105864285Y-75964342D01*
X105864285Y-75964342D02*
X105816666Y-76059580D01*
X105816666Y-76059580D02*
X105769047Y-76107200D01*
X105769047Y-76107200D02*
X105673809Y-76154819D01*
X105673809Y-76154819D02*
X105578571Y-76154819D01*
X105578571Y-76154819D02*
X105483333Y-76107200D01*
X105483333Y-76107200D02*
X105435714Y-76059580D01*
X105435714Y-76059580D02*
X105388095Y-75964342D01*
X105388095Y-75964342D02*
X105340476Y-75773866D01*
X105340476Y-75773866D02*
X105340476Y-75535771D01*
X105340476Y-75535771D02*
X105388095Y-75345295D01*
X105388095Y-75345295D02*
X105435714Y-75250057D01*
X105435714Y-75250057D02*
X105483333Y-75202438D01*
X105483333Y-75202438D02*
X105578571Y-75154819D01*
X75704819Y-90142857D02*
X75228628Y-90476190D01*
X75704819Y-90714285D02*
X74704819Y-90714285D01*
X74704819Y-90714285D02*
X74704819Y-90333333D01*
X74704819Y-90333333D02*
X74752438Y-90238095D01*
X74752438Y-90238095D02*
X74800057Y-90190476D01*
X74800057Y-90190476D02*
X74895295Y-90142857D01*
X74895295Y-90142857D02*
X75038152Y-90142857D01*
X75038152Y-90142857D02*
X75133390Y-90190476D01*
X75133390Y-90190476D02*
X75181009Y-90238095D01*
X75181009Y-90238095D02*
X75228628Y-90333333D01*
X75228628Y-90333333D02*
X75228628Y-90714285D01*
X74800057Y-89761904D02*
X74752438Y-89714285D01*
X74752438Y-89714285D02*
X74704819Y-89619047D01*
X74704819Y-89619047D02*
X74704819Y-89380952D01*
X74704819Y-89380952D02*
X74752438Y-89285714D01*
X74752438Y-89285714D02*
X74800057Y-89238095D01*
X74800057Y-89238095D02*
X74895295Y-89190476D01*
X74895295Y-89190476D02*
X74990533Y-89190476D01*
X74990533Y-89190476D02*
X75133390Y-89238095D01*
X75133390Y-89238095D02*
X75704819Y-89809523D01*
X75704819Y-89809523D02*
X75704819Y-89190476D01*
X75038152Y-88333333D02*
X75704819Y-88333333D01*
X74657200Y-88571428D02*
X75371485Y-88809523D01*
X75371485Y-88809523D02*
X75371485Y-88190476D01*
X86154761Y-69800057D02*
X86059523Y-69752438D01*
X86059523Y-69752438D02*
X85964285Y-69657200D01*
X85964285Y-69657200D02*
X85821428Y-69514342D01*
X85821428Y-69514342D02*
X85726190Y-69466723D01*
X85726190Y-69466723D02*
X85630952Y-69466723D01*
X85678571Y-69704819D02*
X85583333Y-69657200D01*
X85583333Y-69657200D02*
X85488095Y-69561961D01*
X85488095Y-69561961D02*
X85440476Y-69371485D01*
X85440476Y-69371485D02*
X85440476Y-69038152D01*
X85440476Y-69038152D02*
X85488095Y-68847676D01*
X85488095Y-68847676D02*
X85583333Y-68752438D01*
X85583333Y-68752438D02*
X85678571Y-68704819D01*
X85678571Y-68704819D02*
X85869047Y-68704819D01*
X85869047Y-68704819D02*
X85964285Y-68752438D01*
X85964285Y-68752438D02*
X86059523Y-68847676D01*
X86059523Y-68847676D02*
X86107142Y-69038152D01*
X86107142Y-69038152D02*
X86107142Y-69371485D01*
X86107142Y-69371485D02*
X86059523Y-69561961D01*
X86059523Y-69561961D02*
X85964285Y-69657200D01*
X85964285Y-69657200D02*
X85869047Y-69704819D01*
X85869047Y-69704819D02*
X85678571Y-69704819D01*
X86964285Y-69038152D02*
X86964285Y-69704819D01*
X86726190Y-68657200D02*
X86488095Y-69371485D01*
X86488095Y-69371485D02*
X87107142Y-69371485D01*
X57833333Y-79954819D02*
X57357143Y-79954819D01*
X57357143Y-79954819D02*
X57357143Y-78954819D01*
X58119048Y-79050057D02*
X58166667Y-79002438D01*
X58166667Y-79002438D02*
X58261905Y-78954819D01*
X58261905Y-78954819D02*
X58500000Y-78954819D01*
X58500000Y-78954819D02*
X58595238Y-79002438D01*
X58595238Y-79002438D02*
X58642857Y-79050057D01*
X58642857Y-79050057D02*
X58690476Y-79145295D01*
X58690476Y-79145295D02*
X58690476Y-79240533D01*
X58690476Y-79240533D02*
X58642857Y-79383390D01*
X58642857Y-79383390D02*
X58071429Y-79954819D01*
X58071429Y-79954819D02*
X58690476Y-79954819D01*
X82915642Y-64933820D02*
X82582309Y-64457629D01*
X82344214Y-64933820D02*
X82344214Y-63933820D01*
X82344214Y-63933820D02*
X82725166Y-63933820D01*
X82725166Y-63933820D02*
X82820404Y-63981439D01*
X82820404Y-63981439D02*
X82868023Y-64029058D01*
X82868023Y-64029058D02*
X82915642Y-64124296D01*
X82915642Y-64124296D02*
X82915642Y-64267153D01*
X82915642Y-64267153D02*
X82868023Y-64362391D01*
X82868023Y-64362391D02*
X82820404Y-64410010D01*
X82820404Y-64410010D02*
X82725166Y-64457629D01*
X82725166Y-64457629D02*
X82344214Y-64457629D01*
X83868023Y-64933820D02*
X83296595Y-64933820D01*
X83582309Y-64933820D02*
X83582309Y-63933820D01*
X83582309Y-63933820D02*
X83487071Y-64076677D01*
X83487071Y-64076677D02*
X83391833Y-64171915D01*
X83391833Y-64171915D02*
X83296595Y-64219534D01*
X84772785Y-63933820D02*
X84296595Y-63933820D01*
X84296595Y-63933820D02*
X84248976Y-64410010D01*
X84248976Y-64410010D02*
X84296595Y-64362391D01*
X84296595Y-64362391D02*
X84391833Y-64314772D01*
X84391833Y-64314772D02*
X84629928Y-64314772D01*
X84629928Y-64314772D02*
X84725166Y-64362391D01*
X84725166Y-64362391D02*
X84772785Y-64410010D01*
X84772785Y-64410010D02*
X84820404Y-64505248D01*
X84820404Y-64505248D02*
X84820404Y-64743343D01*
X84820404Y-64743343D02*
X84772785Y-64838581D01*
X84772785Y-64838581D02*
X84725166Y-64886201D01*
X84725166Y-64886201D02*
X84629928Y-64933820D01*
X84629928Y-64933820D02*
X84391833Y-64933820D01*
X84391833Y-64933820D02*
X84296595Y-64886201D01*
X84296595Y-64886201D02*
X84248976Y-64838581D01*
X101411905Y-89861069D02*
X101411905Y-90670592D01*
X101411905Y-90670592D02*
X101459524Y-90765830D01*
X101459524Y-90765830D02*
X101507143Y-90813450D01*
X101507143Y-90813450D02*
X101602381Y-90861069D01*
X101602381Y-90861069D02*
X101792857Y-90861069D01*
X101792857Y-90861069D02*
X101888095Y-90813450D01*
X101888095Y-90813450D02*
X101935714Y-90765830D01*
X101935714Y-90765830D02*
X101983333Y-90670592D01*
X101983333Y-90670592D02*
X101983333Y-89861069D01*
X102983333Y-90861069D02*
X102411905Y-90861069D01*
X102697619Y-90861069D02*
X102697619Y-89861069D01*
X102697619Y-89861069D02*
X102602381Y-90003926D01*
X102602381Y-90003926D02*
X102507143Y-90099164D01*
X102507143Y-90099164D02*
X102411905Y-90146783D01*
X103602381Y-89861069D02*
X103697619Y-89861069D01*
X103697619Y-89861069D02*
X103792857Y-89908688D01*
X103792857Y-89908688D02*
X103840476Y-89956307D01*
X103840476Y-89956307D02*
X103888095Y-90051545D01*
X103888095Y-90051545D02*
X103935714Y-90242021D01*
X103935714Y-90242021D02*
X103935714Y-90480116D01*
X103935714Y-90480116D02*
X103888095Y-90670592D01*
X103888095Y-90670592D02*
X103840476Y-90765830D01*
X103840476Y-90765830D02*
X103792857Y-90813450D01*
X103792857Y-90813450D02*
X103697619Y-90861069D01*
X103697619Y-90861069D02*
X103602381Y-90861069D01*
X103602381Y-90861069D02*
X103507143Y-90813450D01*
X103507143Y-90813450D02*
X103459524Y-90765830D01*
X103459524Y-90765830D02*
X103411905Y-90670592D01*
X103411905Y-90670592D02*
X103364286Y-90480116D01*
X103364286Y-90480116D02*
X103364286Y-90242021D01*
X103364286Y-90242021D02*
X103411905Y-90051545D01*
X103411905Y-90051545D02*
X103459524Y-89956307D01*
X103459524Y-89956307D02*
X103507143Y-89908688D01*
X103507143Y-89908688D02*
X103602381Y-89861069D01*
X92357142Y-92854819D02*
X92023809Y-92378628D01*
X91785714Y-92854819D02*
X91785714Y-91854819D01*
X91785714Y-91854819D02*
X92166666Y-91854819D01*
X92166666Y-91854819D02*
X92261904Y-91902438D01*
X92261904Y-91902438D02*
X92309523Y-91950057D01*
X92309523Y-91950057D02*
X92357142Y-92045295D01*
X92357142Y-92045295D02*
X92357142Y-92188152D01*
X92357142Y-92188152D02*
X92309523Y-92283390D01*
X92309523Y-92283390D02*
X92261904Y-92331009D01*
X92261904Y-92331009D02*
X92166666Y-92378628D01*
X92166666Y-92378628D02*
X91785714Y-92378628D01*
X92738095Y-91950057D02*
X92785714Y-91902438D01*
X92785714Y-91902438D02*
X92880952Y-91854819D01*
X92880952Y-91854819D02*
X93119047Y-91854819D01*
X93119047Y-91854819D02*
X93214285Y-91902438D01*
X93214285Y-91902438D02*
X93261904Y-91950057D01*
X93261904Y-91950057D02*
X93309523Y-92045295D01*
X93309523Y-92045295D02*
X93309523Y-92140533D01*
X93309523Y-92140533D02*
X93261904Y-92283390D01*
X93261904Y-92283390D02*
X92690476Y-92854819D01*
X92690476Y-92854819D02*
X93309523Y-92854819D01*
X93642857Y-91854819D02*
X94309523Y-91854819D01*
X94309523Y-91854819D02*
X93880952Y-92854819D01*
X79083333Y-66359580D02*
X79035714Y-66407200D01*
X79035714Y-66407200D02*
X78892857Y-66454819D01*
X78892857Y-66454819D02*
X78797619Y-66454819D01*
X78797619Y-66454819D02*
X78654762Y-66407200D01*
X78654762Y-66407200D02*
X78559524Y-66311961D01*
X78559524Y-66311961D02*
X78511905Y-66216723D01*
X78511905Y-66216723D02*
X78464286Y-66026247D01*
X78464286Y-66026247D02*
X78464286Y-65883390D01*
X78464286Y-65883390D02*
X78511905Y-65692914D01*
X78511905Y-65692914D02*
X78559524Y-65597676D01*
X78559524Y-65597676D02*
X78654762Y-65502438D01*
X78654762Y-65502438D02*
X78797619Y-65454819D01*
X78797619Y-65454819D02*
X78892857Y-65454819D01*
X78892857Y-65454819D02*
X79035714Y-65502438D01*
X79035714Y-65502438D02*
X79083333Y-65550057D01*
X79654762Y-65883390D02*
X79559524Y-65835771D01*
X79559524Y-65835771D02*
X79511905Y-65788152D01*
X79511905Y-65788152D02*
X79464286Y-65692914D01*
X79464286Y-65692914D02*
X79464286Y-65645295D01*
X79464286Y-65645295D02*
X79511905Y-65550057D01*
X79511905Y-65550057D02*
X79559524Y-65502438D01*
X79559524Y-65502438D02*
X79654762Y-65454819D01*
X79654762Y-65454819D02*
X79845238Y-65454819D01*
X79845238Y-65454819D02*
X79940476Y-65502438D01*
X79940476Y-65502438D02*
X79988095Y-65550057D01*
X79988095Y-65550057D02*
X80035714Y-65645295D01*
X80035714Y-65645295D02*
X80035714Y-65692914D01*
X80035714Y-65692914D02*
X79988095Y-65788152D01*
X79988095Y-65788152D02*
X79940476Y-65835771D01*
X79940476Y-65835771D02*
X79845238Y-65883390D01*
X79845238Y-65883390D02*
X79654762Y-65883390D01*
X79654762Y-65883390D02*
X79559524Y-65931009D01*
X79559524Y-65931009D02*
X79511905Y-65978628D01*
X79511905Y-65978628D02*
X79464286Y-66073866D01*
X79464286Y-66073866D02*
X79464286Y-66264342D01*
X79464286Y-66264342D02*
X79511905Y-66359580D01*
X79511905Y-66359580D02*
X79559524Y-66407200D01*
X79559524Y-66407200D02*
X79654762Y-66454819D01*
X79654762Y-66454819D02*
X79845238Y-66454819D01*
X79845238Y-66454819D02*
X79940476Y-66407200D01*
X79940476Y-66407200D02*
X79988095Y-66359580D01*
X79988095Y-66359580D02*
X80035714Y-66264342D01*
X80035714Y-66264342D02*
X80035714Y-66073866D01*
X80035714Y-66073866D02*
X79988095Y-65978628D01*
X79988095Y-65978628D02*
X79940476Y-65931009D01*
X79940476Y-65931009D02*
X79845238Y-65883390D01*
X74988095Y-100704819D02*
X74988095Y-101514342D01*
X74988095Y-101514342D02*
X75035714Y-101609580D01*
X75035714Y-101609580D02*
X75083333Y-101657200D01*
X75083333Y-101657200D02*
X75178571Y-101704819D01*
X75178571Y-101704819D02*
X75369047Y-101704819D01*
X75369047Y-101704819D02*
X75464285Y-101657200D01*
X75464285Y-101657200D02*
X75511904Y-101609580D01*
X75511904Y-101609580D02*
X75559523Y-101514342D01*
X75559523Y-101514342D02*
X75559523Y-100704819D01*
X76559523Y-101704819D02*
X75988095Y-101704819D01*
X76273809Y-101704819D02*
X76273809Y-100704819D01*
X76273809Y-100704819D02*
X76178571Y-100847676D01*
X76178571Y-100847676D02*
X76083333Y-100942914D01*
X76083333Y-100942914D02*
X75988095Y-100990533D01*
X73238095Y-62704819D02*
X73238095Y-63514342D01*
X73238095Y-63514342D02*
X73285714Y-63609580D01*
X73285714Y-63609580D02*
X73333333Y-63657200D01*
X73333333Y-63657200D02*
X73428571Y-63704819D01*
X73428571Y-63704819D02*
X73619047Y-63704819D01*
X73619047Y-63704819D02*
X73714285Y-63657200D01*
X73714285Y-63657200D02*
X73761904Y-63609580D01*
X73761904Y-63609580D02*
X73809523Y-63514342D01*
X73809523Y-63514342D02*
X73809523Y-62704819D01*
X74714285Y-63038152D02*
X74714285Y-63704819D01*
X74476190Y-62657200D02*
X74238095Y-63371485D01*
X74238095Y-63371485D02*
X74857142Y-63371485D01*
X97757142Y-83354819D02*
X97423809Y-82878628D01*
X97185714Y-83354819D02*
X97185714Y-82354819D01*
X97185714Y-82354819D02*
X97566666Y-82354819D01*
X97566666Y-82354819D02*
X97661904Y-82402438D01*
X97661904Y-82402438D02*
X97709523Y-82450057D01*
X97709523Y-82450057D02*
X97757142Y-82545295D01*
X97757142Y-82545295D02*
X97757142Y-82688152D01*
X97757142Y-82688152D02*
X97709523Y-82783390D01*
X97709523Y-82783390D02*
X97661904Y-82831009D01*
X97661904Y-82831009D02*
X97566666Y-82878628D01*
X97566666Y-82878628D02*
X97185714Y-82878628D01*
X98138095Y-82450057D02*
X98185714Y-82402438D01*
X98185714Y-82402438D02*
X98280952Y-82354819D01*
X98280952Y-82354819D02*
X98519047Y-82354819D01*
X98519047Y-82354819D02*
X98614285Y-82402438D01*
X98614285Y-82402438D02*
X98661904Y-82450057D01*
X98661904Y-82450057D02*
X98709523Y-82545295D01*
X98709523Y-82545295D02*
X98709523Y-82640533D01*
X98709523Y-82640533D02*
X98661904Y-82783390D01*
X98661904Y-82783390D02*
X98090476Y-83354819D01*
X98090476Y-83354819D02*
X98709523Y-83354819D01*
X99661904Y-83354819D02*
X99090476Y-83354819D01*
X99376190Y-83354819D02*
X99376190Y-82354819D01*
X99376190Y-82354819D02*
X99280952Y-82497676D01*
X99280952Y-82497676D02*
X99185714Y-82592914D01*
X99185714Y-82592914D02*
X99090476Y-82640533D01*
X69107142Y-86859580D02*
X69059523Y-86907200D01*
X69059523Y-86907200D02*
X68916666Y-86954819D01*
X68916666Y-86954819D02*
X68821428Y-86954819D01*
X68821428Y-86954819D02*
X68678571Y-86907200D01*
X68678571Y-86907200D02*
X68583333Y-86811961D01*
X68583333Y-86811961D02*
X68535714Y-86716723D01*
X68535714Y-86716723D02*
X68488095Y-86526247D01*
X68488095Y-86526247D02*
X68488095Y-86383390D01*
X68488095Y-86383390D02*
X68535714Y-86192914D01*
X68535714Y-86192914D02*
X68583333Y-86097676D01*
X68583333Y-86097676D02*
X68678571Y-86002438D01*
X68678571Y-86002438D02*
X68821428Y-85954819D01*
X68821428Y-85954819D02*
X68916666Y-85954819D01*
X68916666Y-85954819D02*
X69059523Y-86002438D01*
X69059523Y-86002438D02*
X69107142Y-86050057D01*
X69488095Y-86050057D02*
X69535714Y-86002438D01*
X69535714Y-86002438D02*
X69630952Y-85954819D01*
X69630952Y-85954819D02*
X69869047Y-85954819D01*
X69869047Y-85954819D02*
X69964285Y-86002438D01*
X69964285Y-86002438D02*
X70011904Y-86050057D01*
X70011904Y-86050057D02*
X70059523Y-86145295D01*
X70059523Y-86145295D02*
X70059523Y-86240533D01*
X70059523Y-86240533D02*
X70011904Y-86383390D01*
X70011904Y-86383390D02*
X69440476Y-86954819D01*
X69440476Y-86954819D02*
X70059523Y-86954819D01*
X71011904Y-86954819D02*
X70440476Y-86954819D01*
X70726190Y-86954819D02*
X70726190Y-85954819D01*
X70726190Y-85954819D02*
X70630952Y-86097676D01*
X70630952Y-86097676D02*
X70535714Y-86192914D01*
X70535714Y-86192914D02*
X70440476Y-86240533D01*
X57833333Y-75704819D02*
X57357143Y-75704819D01*
X57357143Y-75704819D02*
X57357143Y-74704819D01*
X58071429Y-74704819D02*
X58690476Y-74704819D01*
X58690476Y-74704819D02*
X58357143Y-75085771D01*
X58357143Y-75085771D02*
X58500000Y-75085771D01*
X58500000Y-75085771D02*
X58595238Y-75133390D01*
X58595238Y-75133390D02*
X58642857Y-75181009D01*
X58642857Y-75181009D02*
X58690476Y-75276247D01*
X58690476Y-75276247D02*
X58690476Y-75514342D01*
X58690476Y-75514342D02*
X58642857Y-75609580D01*
X58642857Y-75609580D02*
X58595238Y-75657200D01*
X58595238Y-75657200D02*
X58500000Y-75704819D01*
X58500000Y-75704819D02*
X58214286Y-75704819D01*
X58214286Y-75704819D02*
X58119048Y-75657200D01*
X58119048Y-75657200D02*
X58071429Y-75609580D01*
X66488095Y-77854819D02*
X66488095Y-78664342D01*
X66488095Y-78664342D02*
X66535714Y-78759580D01*
X66535714Y-78759580D02*
X66583333Y-78807200D01*
X66583333Y-78807200D02*
X66678571Y-78854819D01*
X66678571Y-78854819D02*
X66869047Y-78854819D01*
X66869047Y-78854819D02*
X66964285Y-78807200D01*
X66964285Y-78807200D02*
X67011904Y-78759580D01*
X67011904Y-78759580D02*
X67059523Y-78664342D01*
X67059523Y-78664342D02*
X67059523Y-77854819D01*
X67964285Y-77854819D02*
X67773809Y-77854819D01*
X67773809Y-77854819D02*
X67678571Y-77902438D01*
X67678571Y-77902438D02*
X67630952Y-77950057D01*
X67630952Y-77950057D02*
X67535714Y-78092914D01*
X67535714Y-78092914D02*
X67488095Y-78283390D01*
X67488095Y-78283390D02*
X67488095Y-78664342D01*
X67488095Y-78664342D02*
X67535714Y-78759580D01*
X67535714Y-78759580D02*
X67583333Y-78807200D01*
X67583333Y-78807200D02*
X67678571Y-78854819D01*
X67678571Y-78854819D02*
X67869047Y-78854819D01*
X67869047Y-78854819D02*
X67964285Y-78807200D01*
X67964285Y-78807200D02*
X68011904Y-78759580D01*
X68011904Y-78759580D02*
X68059523Y-78664342D01*
X68059523Y-78664342D02*
X68059523Y-78426247D01*
X68059523Y-78426247D02*
X68011904Y-78331009D01*
X68011904Y-78331009D02*
X67964285Y-78283390D01*
X67964285Y-78283390D02*
X67869047Y-78235771D01*
X67869047Y-78235771D02*
X67678571Y-78235771D01*
X67678571Y-78235771D02*
X67583333Y-78283390D01*
X67583333Y-78283390D02*
X67535714Y-78331009D01*
X67535714Y-78331009D02*
X67488095Y-78426247D01*
D11*
%TO.C,R35*%
X80090000Y-59954724D02*
X80090000Y-59445276D01*
X81135000Y-59954724D02*
X81135000Y-59445276D01*
%TO.C,R16*%
X85877500Y-66446743D02*
X85877500Y-66921259D01*
X86922500Y-66446743D02*
X86922500Y-66921259D01*
%TO.C,R7*%
X85232776Y-56477500D02*
X85742224Y-56477500D01*
X85232776Y-57522500D02*
X85742224Y-57522500D01*
%TO.C,R33*%
X81357776Y-56477500D02*
X81867224Y-56477500D01*
X81357776Y-57522500D02*
X81867224Y-57522500D01*
%TO.C,Q2*%
X76561000Y-66549001D02*
X78381000Y-66549001D01*
X76561000Y-66599001D02*
X76561000Y-66549001D01*
X76561000Y-68499001D02*
X76561000Y-67719001D01*
X76561000Y-69669001D02*
X76561000Y-69619001D01*
X78381000Y-66549001D02*
X78381000Y-67549001D01*
X78381000Y-68669001D02*
X78381000Y-69669001D01*
X78381000Y-69669001D02*
X76561000Y-69669001D01*
X76261000Y-68059001D02*
X75781000Y-68059001D01*
X76021000Y-67729001D01*
X76261000Y-68059001D01*
G36*
X76261000Y-68059001D02*
G01*
X75781000Y-68059001D01*
X76021000Y-67729001D01*
X76261000Y-68059001D01*
G37*
%TO.C,Q1*%
X73923500Y-58799001D02*
X74923500Y-58799001D01*
X73923500Y-60619001D02*
X73923500Y-58799001D01*
X73973500Y-60619001D02*
X73923500Y-60619001D01*
X75873500Y-60619001D02*
X75093500Y-60619001D01*
X76043500Y-58799001D02*
X77043500Y-58799001D01*
X77043500Y-58799001D02*
X77043500Y-60619001D01*
X77043500Y-60619001D02*
X76993500Y-60619001D01*
X75433500Y-61399001D02*
X75103500Y-61159001D01*
X75433500Y-60919001D01*
X75433500Y-61399001D01*
G36*
X75433500Y-61399001D02*
G01*
X75103500Y-61159001D01*
X75433500Y-60919001D01*
X75433500Y-61399001D01*
G37*
%TO.C,R4*%
X78967224Y-109436000D02*
X78457776Y-109436000D01*
X78967224Y-110481000D02*
X78457776Y-110481000D01*
%TO.C,R5*%
X85865000Y-59967224D02*
X85865000Y-59457776D01*
X86910000Y-59967224D02*
X86910000Y-59457776D01*
%TO.C,C23*%
X87162500Y-98052500D02*
X87950000Y-98052500D01*
X87556250Y-97658750D02*
X87556250Y-98446250D01*
X88190000Y-97554437D02*
X88190000Y-98840000D01*
X88190000Y-97554437D02*
X89254437Y-96490000D01*
X88190000Y-102245563D02*
X88190000Y-100960000D01*
X88190000Y-102245563D02*
X89254437Y-103310000D01*
X89254437Y-96490000D02*
X95010000Y-96490000D01*
X89254437Y-103310000D02*
X95010000Y-103310000D01*
X95010000Y-96490000D02*
X95010000Y-98840000D01*
X95010000Y-103310000D02*
X95010000Y-100960000D01*
%TO.C,C7*%
X89246267Y-65390000D02*
X88953733Y-65390000D01*
X89246267Y-66410000D02*
X88953733Y-66410000D01*
%TO.C,R28*%
X81954724Y-85777500D02*
X81445276Y-85777500D01*
X81954724Y-86822500D02*
X81445276Y-86822500D01*
%TO.C,R29*%
X81432776Y-87477500D02*
X81942224Y-87477500D01*
X81432776Y-88522500D02*
X81942224Y-88522500D01*
%TO.C,R6*%
X83965000Y-59967224D02*
X83965000Y-59457776D01*
X85010000Y-59967224D02*
X85010000Y-59457776D01*
%TO.C,U2*%
X89640000Y-116140000D02*
X92360000Y-116140000D01*
X89640000Y-117120000D02*
X89640000Y-116140000D01*
X89640000Y-119880000D02*
X89640000Y-120860000D01*
X92220000Y-120860000D02*
X89640000Y-120860000D01*
X92360000Y-120860000D02*
X89640000Y-120860000D01*
X93010000Y-121040000D02*
X92530000Y-121040000D01*
X92770000Y-120710000D01*
X93010000Y-121040000D01*
G36*
X93010000Y-121040000D02*
G01*
X92530000Y-121040000D01*
X92770000Y-120710000D01*
X93010000Y-121040000D01*
G37*
%TO.C,C16*%
X72490000Y-74516233D02*
X72490000Y-74808767D01*
X73510000Y-74516233D02*
X73510000Y-74808767D01*
%TO.C,R22*%
X95777500Y-88042224D02*
X95777500Y-87532776D01*
X96822500Y-88042224D02*
X96822500Y-87532776D01*
%TO.C,C12*%
X60696267Y-76800000D02*
X60403733Y-76800000D01*
X60696267Y-77820000D02*
X60403733Y-77820000D01*
%TO.C,C27*%
X98991233Y-86346250D02*
X99283767Y-86346250D01*
X98991233Y-87366250D02*
X99283767Y-87366250D01*
%TO.C,R11*%
X73748500Y-67854277D02*
X73748500Y-68363725D01*
X74793500Y-67854277D02*
X74793500Y-68363725D01*
%TO.C,R25*%
X98132776Y-97377500D02*
X98642224Y-97377500D01*
X98132776Y-98422500D02*
X98642224Y-98422500D01*
%TO.C,C18*%
X90083767Y-114490000D02*
X89791233Y-114490000D01*
X90083767Y-115510000D02*
X89791233Y-115510000D01*
%TO.C,R9*%
X69054724Y-59073751D02*
X68545276Y-59073751D01*
X69054724Y-60118751D02*
X68545276Y-60118751D01*
%TO.C,U8*%
X71840000Y-89300000D02*
X71840000Y-90700000D01*
X74160000Y-89290000D02*
X74160000Y-90700000D01*
X74440000Y-89160000D02*
X74110000Y-88920000D01*
X74440000Y-88680000D01*
X74440000Y-89160000D01*
G36*
X74440000Y-89160000D02*
G01*
X74110000Y-88920000D01*
X74440000Y-88680000D01*
X74440000Y-89160000D01*
G37*
%TO.C,F1*%
X75900000Y-72350000D02*
X82600000Y-72350000D01*
X75900000Y-82150000D02*
X75900000Y-72450000D01*
X82700000Y-72350000D02*
X82700000Y-82050000D01*
X82700000Y-82150000D02*
X75900000Y-82150000D01*
%TO.C,C5*%
X103240000Y-59353733D02*
X103240000Y-59646267D01*
X104260000Y-59353733D02*
X104260000Y-59646267D01*
%TO.C,TP2*%
X64800000Y-59600000D02*
G75*
G02*
X63400000Y-59600000I-700000J0D01*
G01*
X63400000Y-59600000D02*
G75*
G02*
X64800000Y-59600000I700000J0D01*
G01*
%TO.C,C26*%
X81740000Y-93740000D02*
X81740000Y-94940000D01*
X81740000Y-98260000D02*
X81740000Y-97060000D01*
X85195563Y-93740000D02*
X81740000Y-93740000D01*
X85195563Y-98260000D02*
X81740000Y-98260000D01*
X86260000Y-94804437D02*
X85195563Y-93740000D01*
X86260000Y-94804437D02*
X86260000Y-94940000D01*
X86260000Y-97195563D02*
X85195563Y-98260000D01*
X86260000Y-97195563D02*
X86260000Y-97060000D01*
X86750000Y-97810000D02*
X86750000Y-97310000D01*
X87000000Y-97560000D02*
X86500000Y-97560000D01*
%TO.C,U5*%
X60790000Y-86170000D02*
X60790000Y-96450000D01*
X60790000Y-96450000D02*
X62440000Y-96450000D01*
X64440000Y-96450000D02*
X66090000Y-96450000D01*
X66090000Y-86170000D02*
X60790000Y-86170000D01*
X66090000Y-96450000D02*
X66090000Y-86170000D01*
X62440000Y-96450000D02*
G75*
G02*
X64440000Y-96450000I1000000J0D01*
G01*
%TO.C,R12*%
X68995276Y-63786501D02*
X69504724Y-63786501D01*
X68995276Y-64831501D02*
X69504724Y-64831501D01*
%TO.C,R26*%
X89745276Y-93477500D02*
X90254724Y-93477500D01*
X89745276Y-94522500D02*
X90254724Y-94522500D01*
%TO.C,C20*%
X94990000Y-80416233D02*
X94990000Y-80708767D01*
X96010000Y-80416233D02*
X96010000Y-80708767D01*
%TO.C,U7*%
X97040000Y-73780000D02*
X97040000Y-77630000D01*
X97040000Y-73780000D02*
G75*
G02*
X97049878Y-77668611I1700000J-1940000D01*
G01*
%TO.C,C13*%
X60403733Y-81000000D02*
X60696267Y-81000000D01*
X60403733Y-82020000D02*
X60696267Y-82020000D01*
%TO.C,C29*%
X95790000Y-91708767D02*
X95790000Y-91416233D01*
X96810000Y-91708767D02*
X96810000Y-91416233D01*
%TO.C,C28*%
X92546267Y-76890000D02*
X92253733Y-76890000D01*
X92546267Y-77910000D02*
X92253733Y-77910000D01*
%TO.C,R32*%
X98132776Y-99377500D02*
X98642224Y-99377500D01*
X98132776Y-100422500D02*
X98642224Y-100422500D01*
%TO.C,R8*%
X71438224Y-57277500D02*
X70928776Y-57277500D01*
X71438224Y-58322500D02*
X70928776Y-58322500D01*
%TO.C,R14*%
X67348500Y-67451225D02*
X67348500Y-66941777D01*
X68393500Y-67451225D02*
X68393500Y-66941777D01*
%TO.C,R3*%
X78967224Y-107036000D02*
X78457776Y-107036000D01*
X78967224Y-108081000D02*
X78457776Y-108081000D01*
%TO.C,C22*%
X77453733Y-90690000D02*
X77746267Y-90690000D01*
X77453733Y-91710000D02*
X77746267Y-91710000D01*
%TO.C,C30*%
X95566233Y-93696250D02*
X95858767Y-93696250D01*
X95566233Y-94716250D02*
X95858767Y-94716250D01*
%TO.C,L1*%
X61210242Y-83050000D02*
X60389758Y-83050000D01*
X61210242Y-84170000D02*
X60389758Y-84170000D01*
%TO.C,R17*%
X60804724Y-65587500D02*
X60295276Y-65587500D01*
X60804724Y-66632500D02*
X60295276Y-66632500D01*
%TO.C,U9*%
X81702500Y-89090000D02*
X86322500Y-89090000D01*
X81702500Y-89265000D02*
X81702500Y-89090000D01*
X81702500Y-92310000D02*
X81702500Y-92135000D01*
X86322500Y-89090000D02*
X86322500Y-89265000D01*
X86322500Y-92135000D02*
X86322500Y-92310000D01*
X86322500Y-92310000D02*
X81702500Y-92310000D01*
X81142500Y-89260000D02*
X80902500Y-88930000D01*
X81382500Y-88930000D01*
X81142500Y-89260000D01*
G36*
X81142500Y-89260000D02*
G01*
X80902500Y-88930000D01*
X81382500Y-88930000D01*
X81142500Y-89260000D01*
G37*
%TO.C,R2*%
X93992224Y-112477500D02*
X93482776Y-112477500D01*
X93992224Y-113522500D02*
X93482776Y-113522500D01*
%TO.C,C14*%
X68346267Y-82790000D02*
X68053733Y-82790000D01*
X68346267Y-83810000D02*
X68053733Y-83810000D01*
%TO.C,U3*%
X89771000Y-62349001D02*
X88371000Y-62349001D01*
X89781000Y-64669001D02*
X88371000Y-64669001D01*
X90391000Y-64949001D02*
X89911000Y-64949001D01*
X90151000Y-64619001D01*
X90391000Y-64949001D01*
G36*
X90391000Y-64949001D02*
G01*
X89911000Y-64949001D01*
X90151000Y-64619001D01*
X90391000Y-64949001D01*
G37*
%TO.C,C6*%
X92191233Y-73290000D02*
X92483767Y-73290000D01*
X92191233Y-74310000D02*
X92483767Y-74310000D01*
%TO.C,C15*%
X72390000Y-78896267D02*
X72390000Y-78603733D01*
X73410000Y-78896267D02*
X73410000Y-78603733D01*
%TO.C,C1*%
X95990000Y-117353733D02*
X95990000Y-117646267D01*
X97010000Y-117353733D02*
X97010000Y-117646267D01*
%TO.C,C9*%
X60746267Y-61300000D02*
X60453733Y-61300000D01*
X60746267Y-62320000D02*
X60453733Y-62320000D01*
%TO.C,R31*%
X99395276Y-93683750D02*
X99904724Y-93683750D01*
X99395276Y-94728750D02*
X99904724Y-94728750D01*
%TO.C,R1*%
X93482776Y-114540000D02*
X93992224Y-114540000D01*
X93482776Y-115585000D02*
X93992224Y-115585000D01*
%TO.C,F2*%
X83600000Y-72350000D02*
X90300000Y-72350000D01*
X83600000Y-82150000D02*
X83600000Y-72450000D01*
X90400000Y-72350000D02*
X90400000Y-82050000D01*
X90400000Y-82150000D02*
X83600000Y-82150000D01*
%TO.C,C2*%
X95990000Y-120853733D02*
X95990000Y-121146267D01*
X97010000Y-120853733D02*
X97010000Y-121146267D01*
%TO.C,C24*%
X88590000Y-91446267D02*
X88590000Y-91153733D01*
X89610000Y-91446267D02*
X89610000Y-91153733D01*
%TO.C,C25*%
X86146267Y-86490000D02*
X85853733Y-86490000D01*
X86146267Y-87510000D02*
X85853733Y-87510000D01*
%TO.C,C19*%
X91240000Y-80746267D02*
X91240000Y-80453733D01*
X92260000Y-80746267D02*
X92260000Y-80453733D01*
%TO.C,R34*%
X81990000Y-59954724D02*
X81990000Y-59445276D01*
X83035000Y-59954724D02*
X83035000Y-59445276D01*
%TO.C,C4*%
X59240000Y-117604437D02*
X59240000Y-121060000D01*
X59240000Y-121060000D02*
X60440000Y-121060000D01*
X60304437Y-116540000D02*
X59240000Y-117604437D01*
X60304437Y-116540000D02*
X60440000Y-116540000D01*
X62695563Y-116540000D02*
X62560000Y-116540000D01*
X62695563Y-116540000D02*
X63760000Y-117604437D01*
X63060000Y-115800000D02*
X63060000Y-116300000D01*
X63310000Y-116050000D02*
X62810000Y-116050000D01*
X63760000Y-117604437D02*
X63760000Y-121060000D01*
X63760000Y-121060000D02*
X62560000Y-121060000D01*
%TO.C,C31*%
X100490000Y-65853733D02*
X100490000Y-66146267D01*
X101510000Y-65853733D02*
X101510000Y-66146267D01*
%TO.C,R10*%
X71561000Y-60254027D02*
X71561000Y-60763475D01*
X72606000Y-60254027D02*
X72606000Y-60763475D01*
%TO.C,R19*%
X60295276Y-67587500D02*
X60804724Y-67587500D01*
X60295276Y-68632500D02*
X60804724Y-68632500D01*
%TO.C,R13*%
X81216276Y-69277500D02*
X81725724Y-69277500D01*
X81216276Y-70322500D02*
X81725724Y-70322500D01*
%TO.C,JP1*%
X103675000Y-97200000D02*
X106475000Y-97200000D01*
X103675000Y-99200000D02*
X103675000Y-97200000D01*
X106475000Y-97200000D02*
X106475000Y-99200000D01*
X106475000Y-99200000D02*
X103675000Y-99200000D01*
%TO.C,R30*%
X92145276Y-75077500D02*
X92654724Y-75077500D01*
X92145276Y-76122500D02*
X92654724Y-76122500D01*
%TO.C,R23*%
X77345276Y-87227500D02*
X77854724Y-87227500D01*
X77345276Y-88272500D02*
X77854724Y-88272500D01*
%TO.C,Q3*%
X70223500Y-65549001D02*
X72043500Y-65549001D01*
X70223500Y-65599001D02*
X70223500Y-65549001D01*
X70223500Y-67499001D02*
X70223500Y-66719001D01*
X70223500Y-68669001D02*
X70223500Y-68619001D01*
X72043500Y-65549001D02*
X72043500Y-66549001D01*
X72043500Y-67669001D02*
X72043500Y-68669001D01*
X72043500Y-68669001D02*
X70223500Y-68669001D01*
X69923500Y-67059001D02*
X69443500Y-67059001D01*
X69683500Y-66729001D01*
X69923500Y-67059001D01*
G36*
X69923500Y-67059001D02*
G01*
X69443500Y-67059001D01*
X69683500Y-66729001D01*
X69923500Y-67059001D01*
G37*
%TO.C,R18*%
X60804724Y-63387500D02*
X60295276Y-63387500D01*
X60804724Y-64432500D02*
X60295276Y-64432500D01*
%TO.C,C11*%
X60403733Y-72300000D02*
X60696267Y-72300000D01*
X60403733Y-73320000D02*
X60696267Y-73320000D01*
%TO.C,C17*%
X69646267Y-71740000D02*
X69353733Y-71740000D01*
X69646267Y-72760000D02*
X69353733Y-72760000D01*
%TO.C,J3*%
X97750000Y-56895000D02*
X98000000Y-56395000D01*
X98000000Y-56395000D02*
X98250000Y-56895000D01*
X98250000Y-56895000D02*
X97750000Y-56895000D01*
%TO.C,C10*%
X60721267Y-69800000D02*
X60428733Y-69800000D01*
X60721267Y-70820000D02*
X60428733Y-70820000D01*
%TO.C,TP1*%
X103100000Y-79700000D02*
G75*
G02*
X101700000Y-79700000I-700000J0D01*
G01*
X101700000Y-79700000D02*
G75*
G02*
X103100000Y-79700000I700000J0D01*
G01*
%TO.C,C3*%
X97940000Y-115881500D02*
X99140000Y-115881500D01*
X97940000Y-119337063D02*
X97940000Y-115881500D01*
X98390000Y-120891500D02*
X98890000Y-120891500D01*
X98640000Y-121141500D02*
X98640000Y-120641500D01*
X99004437Y-120401500D02*
X97940000Y-119337063D01*
X99004437Y-120401500D02*
X99140000Y-120401500D01*
X101395563Y-120401500D02*
X101260000Y-120401500D01*
X101395563Y-120401500D02*
X102460000Y-119337063D01*
X102460000Y-115881500D02*
X101260000Y-115881500D01*
X102460000Y-119337063D02*
X102460000Y-115881500D01*
%TO.C,R20*%
X101877500Y-76954724D02*
X101877500Y-76445276D01*
X102922500Y-76954724D02*
X102922500Y-76445276D01*
%TO.C,R24*%
X77854724Y-88977500D02*
X77345276Y-88977500D01*
X77854724Y-90022500D02*
X77345276Y-90022500D01*
%TO.C,Q4*%
X83371000Y-69114001D02*
X83371000Y-67814001D01*
X85171000Y-69114001D02*
X85171000Y-67814001D01*
D10*
X84856000Y-66964001D02*
G75*
G02*
X84706000Y-66964001I-75000J0D01*
G01*
X84706000Y-66964001D02*
G75*
G02*
X84856000Y-66964001I75000J0D01*
G01*
D11*
%TO.C,L2*%
X60389758Y-78850000D02*
X61210242Y-78850000D01*
X60389758Y-79970000D02*
X61210242Y-79970000D01*
%TO.C,R15*%
X83303776Y-65386501D02*
X83813224Y-65386501D01*
X83303776Y-66431501D02*
X83813224Y-66431501D01*
%TO.C,U10*%
X97840000Y-90306250D02*
X97840000Y-89506250D01*
X97840000Y-90306250D02*
X97840000Y-91106250D01*
X101060000Y-91306250D02*
X101060000Y-89506250D01*
X97890000Y-91606250D02*
X97560000Y-91846250D01*
X97560000Y-91366250D01*
X97890000Y-91606250D01*
G36*
X97890000Y-91606250D02*
G01*
X97560000Y-91846250D01*
X97560000Y-91366250D01*
X97890000Y-91606250D01*
G37*
%TO.C,R27*%
X90390000Y-91554724D02*
X90390000Y-91045276D01*
X91435000Y-91554724D02*
X91435000Y-91045276D01*
%TO.C,C8*%
X80361000Y-67055268D02*
X80361000Y-66762734D01*
X81381000Y-67055268D02*
X81381000Y-66762734D01*
D12*
%TO.C,U1*%
X66740000Y-104111000D02*
X66740000Y-121256000D01*
D13*
X68645000Y-123161000D02*
X82615000Y-123161000D01*
D12*
X68645000Y-123161000D02*
X82615000Y-123161000D01*
X71126000Y-124171000D02*
X71126000Y-123161000D01*
X79621272Y-124671000D02*
X71626000Y-124671000D01*
X80125000Y-123161000D02*
X80121272Y-124171272D01*
X82615000Y-102206000D02*
X68645000Y-102206000D01*
X84520000Y-104111000D02*
X84520000Y-121256000D01*
X66740000Y-104111000D02*
G75*
G02*
X68645000Y-102206000I1905000J0D01*
G01*
X68645000Y-123161000D02*
G75*
G02*
X66740000Y-121256000I0J1905000D01*
G01*
X71626000Y-124671000D02*
G75*
G02*
X71126000Y-124171000I0J500000D01*
G01*
X80121272Y-124171272D02*
G75*
G02*
X79621272Y-124670999I-500018J291D01*
G01*
X82615000Y-102206000D02*
G75*
G02*
X84520000Y-104111000I-1J-1905001D01*
G01*
X84520000Y-121256000D02*
G75*
G02*
X82615000Y-123161000I-1905001J1D01*
G01*
D14*
X83689000Y-122040000D02*
G75*
G02*
X83185000Y-122040000I-252000J0D01*
G01*
X83185000Y-122040000D02*
G75*
G02*
X83689000Y-122040000I252000J0D01*
G01*
X84832000Y-122920000D02*
G75*
G02*
X84328000Y-122920000I-252000J0D01*
G01*
X84328000Y-122920000D02*
G75*
G02*
X84832000Y-122920000I252000J0D01*
G01*
D11*
%TO.C,U4*%
X78241000Y-62279001D02*
X76841000Y-62279001D01*
X78251000Y-64599001D02*
X76841000Y-64599001D01*
X78861000Y-64879001D02*
X78381000Y-64879001D01*
X78621000Y-64549001D01*
X78861000Y-64879001D01*
G36*
X78861000Y-64879001D02*
G01*
X78381000Y-64879001D01*
X78621000Y-64549001D01*
X78861000Y-64879001D01*
G37*
%TO.C,R21*%
X97077500Y-80867224D02*
X97077500Y-80357776D01*
X98122500Y-80867224D02*
X98122500Y-80357776D01*
%TO.C,C21*%
X73046267Y-85990000D02*
X72753733Y-85990000D01*
X73046267Y-87010000D02*
X72753733Y-87010000D01*
%TO.C,L3*%
X61260242Y-74550000D02*
X60439758Y-74550000D01*
X61260242Y-75670000D02*
X60439758Y-75670000D01*
%TO.C,U6*%
X68490000Y-76090000D02*
X68665000Y-76090000D01*
X68490000Y-80710000D02*
X68490000Y-76090000D01*
X68665000Y-80710000D02*
X68490000Y-80710000D01*
X71535000Y-76090000D02*
X71710000Y-76090000D01*
X71710000Y-76090000D02*
X71710000Y-80710000D01*
X71710000Y-80710000D02*
X71535000Y-80710000D01*
X68660000Y-81270000D02*
X68330000Y-81510000D01*
X68330000Y-81030000D01*
X68660000Y-81270000D01*
G36*
X68660000Y-81270000D02*
G01*
X68330000Y-81510000D01*
X68330000Y-81030000D01*
X68660000Y-81270000D01*
G37*
%TD*%
M02*
