M48
; DRILL file {KiCad 9.0.6} date 2026-03-09T22:44:44+0900
; FORMAT={-:-/ absolute / metric / decimal}
; #@! TF.CreationDate,2026-03-09T22:44:44+09:00
; #@! TF.GenerationSoftware,Kicad,Pcbnew,9.0.6
; #@! TF.FileFunction,Plated,1,2,PTH
FMAT,2
METRIC
; #@! TA.AperFunction,Plated,PTH,ViaDrill
T1C0.300
; #@! TA.AperFunction,Plated,PTH,ComponentDrill
T2C0.300
; #@! TA.AperFunction,Plated,PTH,ComponentDrill
T3C0.460
; #@! TA.AperFunction,Plated,PTH,ComponentDrill
T4C0.500
; #@! TA.AperFunction,Plated,PTH,ComponentDrill
T5C0.750
; #@! TA.AperFunction,Plated,PTH,ComponentDrill
T6C0.800
; #@! TA.AperFunction,Plated,PTH,ComponentDrill
T7C0.889
; #@! TA.AperFunction,Plated,PTH,ComponentDrill
T8C1.000
; #@! TA.AperFunction,Plated,PTH,ComponentDrill
T9C1.200
; #@! TA.AperFunction,Plated,PTH,ComponentDrill
T10C3.200
%
G90
G05
T1
X51.0Y-59.0
X51.0Y-67.75
X51.0Y-77.75
X51.0Y-90.5
X51.0Y-99.25
X51.0Y-107.75
X51.0Y-117.25
X52.25Y-95.0
X53.0Y-65.2
X53.0Y-72.6
X53.0Y-81.4
X53.0Y-92.2
X53.0Y-99.25
X53.0Y-106.8
X53.25Y-58.75
X53.651Y-116.149
X54.45Y-61.8
X54.5Y-68.0
X54.5Y-76.5
X54.55Y-87.8
X54.55Y-97.0
X55.6Y-100.5
X55.6Y-101.95
X55.85Y-62.4
X55.85Y-81.4
X55.9Y-110.0
X56.25Y-92.25
X56.35Y-72.75
X57.0Y-124.0
X57.2Y-99.0
X57.65Y-68.0
X57.65Y-87.8
X57.66Y-62.76
X57.7Y-77.3
X57.75Y-51.0
X57.75Y-113.0
X58.235Y-97.565
X58.25Y-95.11
X58.4Y-57.8
X58.43Y-54.03
X58.7Y-72.8
X58.7Y-81.5
X59.0Y-108.2
X59.018Y-106.89
X59.3Y-59.2
X59.4Y-104.3
X59.75Y-113.0
X60.4Y-84.9
X60.7Y-73.7
X61.3Y-95.9
X61.5Y-118.8
X61.8Y-54.45
X62.0Y-113.0
X62.25Y-124.0
X62.285Y-55.9
X62.4Y-77.25
X62.5Y-68.1
X62.81Y-57.65
X62.99Y-59.79
X63.25Y-62.0
X63.75Y-116.0
X64.0Y-97.5
X64.0Y-99.0
X64.0Y-100.5
X64.0Y-102.1
X64.071Y-60.6
X64.75Y-62.0
X65.4Y-73.3
X65.4Y-74.7
X65.4Y-106.7
X65.75Y-79.75
X65.8Y-53.15
X65.8Y-54.6
X65.9Y-95.8
X66.0Y-51.0
X66.25Y-86.25
X66.25Y-116.75
X66.4Y-57.66
X66.5Y-83.3
X67.0Y-68.1
X67.4Y-56.0
X67.858Y-88.891
X68.0Y-65.297
X68.25Y-52.25
X68.25Y-56.75
X68.371Y-82.437
X68.467Y-84.237
X68.473Y-74.66
X68.59Y-93.31
X68.7Y-67.0
X68.8Y-91.9
X68.8Y-96.5
X69.0Y-56.0
X69.2Y-111.25
X69.2Y-114.4
X69.2Y-116.0
X69.285Y-57.5
X69.5Y-88.75
X69.5Y-91.2
X69.5Y-95.0
X69.5Y-99.758
X69.66Y-121.84
X69.71Y-73.79
X69.9Y-82.5
X70.2Y-93.0
X70.2Y-96.5
X70.4Y-84.0
X70.6Y-53.15
X70.6Y-54.45
X70.6Y-69.1
X71.0Y-95.0
X71.0Y-101.3
X71.0Y-124.0
X71.013Y-74.3
X71.2Y-65.8
X71.2Y-86.5
X71.218Y-60.246
X71.65Y-88.1
X71.65Y-90.699
X71.66Y-92.089
X71.7Y-96.5
X71.9Y-81.701
X71.907Y-67.909
X72.1Y-76.2
X72.662Y-66.262
X72.8Y-106.7
X72.9Y-97.5
X72.9Y-99.0
X72.9Y-100.5
X72.9Y-102.0
X73.0Y-85.6
X73.0Y-89.7
X73.013Y-87.351
X73.3Y-82.5
X73.7Y-78.7
X74.3Y-93.5
X74.327Y-92.15
X74.793Y-64.132
X74.8Y-62.789
X75.0Y-51.0
X75.0Y-85.7
X75.25Y-84.076
X75.7Y-87.6
X75.7Y-118.6
X75.724Y-114.374
X75.8Y-72.1
X76.0Y-89.5
X76.115Y-76.715
X76.25Y-83.25
X76.25Y-86.5
X76.4Y-59.4
X76.5Y-70.5
X76.8Y-82.5
X76.871Y-62.309
X76.871Y-64.509
X77.05Y-86.0
X77.2Y-53.0
X77.2Y-54.45
X77.2Y-55.9
X77.6Y-90.4
X77.602Y-106.584
X77.7Y-100.5
X77.9Y-114.4
X77.974Y-79.388
X78.172Y-61.659
X78.221Y-65.159
X78.25Y-69.846
X78.537Y-86.775
X78.713Y-110.528
X78.865Y-73.265
X78.975Y-106.056
X79.424Y-88.585
X79.5Y-93.7
X79.5Y-97.6
X79.5Y-108.75
X79.521Y-61.659
X79.535Y-92.315
X79.64Y-65.159
X79.691Y-59.528
X79.7Y-57.9
X79.8Y-74.2
X80.2Y-63.396
X80.271Y-62.309
X80.271Y-64.509
X80.402Y-106.798
X80.715Y-88.979
X81.2Y-99.0
X81.6Y-59.5
X81.602Y-87.299
X81.8Y-66.796
X81.803Y-85.576
X82.0Y-110.608
X82.1Y-91.7
X82.2Y-121.8
X82.25Y-124.0
X82.6Y-68.734
X83.2Y-82.5
X83.2Y-84.0
X83.3Y-99.1
X83.4Y-72.15
X83.4Y-88.0
X83.5Y-51.0
X83.5Y-58.1
X83.5Y-59.5
X83.5Y-60.6
X83.5Y-62.2
X83.6Y-53.1
X83.6Y-54.45
X83.6Y-55.9
X83.9Y-85.7
X83.9Y-96.0
X83.9Y-103.738
X84.205Y-66.884
X84.3Y-87.1
X85.0Y-68.596
X85.356Y-70.5
X85.4Y-65.159
X85.5Y-59.5
X85.55Y-116.574
X85.827Y-79.553
X85.906Y-92.275
X86.1Y-85.6
X86.1Y-110.9
X86.112Y-87.851
X86.25Y-63.596
X86.4Y-119.4
X86.8Y-73.7
X87.2Y-57.9
X87.635Y-111.685
X87.71Y-74.71
X87.871Y-61.309
X87.925Y-85.661
X88.0Y-56.0
X88.0Y-94.9
X88.055Y-92.036
X88.2Y-89.6
X88.2Y-98.5
X88.35Y-62.159
X88.8Y-68.9
X89.6Y-98.5
X89.65Y-61.959
X89.751Y-64.9
X89.8Y-83.9
X89.81Y-96.31
X89.82Y-91.3
X90.04Y-110.34
X90.2Y-54.45
X90.25Y-51.0
X90.271Y-61.309
X90.6Y-53.0
X90.636Y-74.547
X90.9Y-105.8
X90.95Y-98.5
X90.95Y-101.2
X91.031Y-61.059
X91.051Y-64.859
X91.1Y-87.6
X91.6Y-78.3
X91.79Y-59.71
X91.8Y-67.0
X91.81Y-110.41
X92.175Y-114.0
X92.25Y-98.5
X92.25Y-101.2
X92.25Y-105.8
X92.361Y-120.932
X92.593Y-76.41
X92.7Y-90.2
X92.75Y-124.0
X93.1Y-80.388
X93.1Y-85.6
X93.1Y-96.3
X93.2Y-70.6
X93.2Y-72.2
X93.75Y-83.25
X93.8Y-59.8
X93.8Y-86.5
X93.835Y-67.1
X94.0Y-51.0
X94.0Y-76.5
X94.0Y-94.2
X94.25Y-121.0
X94.4Y-85.6
X94.561Y-80.396
X94.6Y-112.2
X94.89Y-74.51
X95.1Y-92.9
X95.2Y-68.4
X95.5Y-82.3
X95.5Y-89.7
X95.8Y-73.15
X95.87Y-95.06
X95.9Y-57.6
X96.475Y-80.35
X96.6Y-100.55
X96.625Y-99.233
X96.75Y-51.0
X97.089Y-84.076
X97.2Y-75.15
X97.233Y-95.091
X97.25Y-62.75
X97.25Y-64.25
X97.25Y-115.4
X97.35Y-60.35
X97.36Y-90.84
X97.6Y-119.387
X97.6Y-120.887
X97.612Y-93.556
X97.699Y-76.45
X97.7Y-85.576
X97.9Y-78.7
X98.0Y-124.0
X98.662Y-101.3
X98.7Y-73.7
X99.25Y-51.0
X99.25Y-110.0
X99.3Y-84.0
X99.4Y-78.263
X99.5Y-90.7
X99.75Y-69.75
X99.782Y-76.45
X99.9Y-85.6
X100.0Y-98.0
X100.117Y-100.615
X100.2Y-99.2
X100.2Y-118.0
X100.3Y-75.1
X101.0Y-68.0
X101.05Y-90.5
X101.6Y-120.8
X101.75Y-78.6
X102.25Y-51.0
X102.5Y-124.0
X102.918Y-57.9
X103.0Y-82.2
X103.05Y-78.6
X103.444Y-99.25
X103.8Y-113.0
X103.9Y-88.4
X104.4Y-62.5
X104.4Y-69.209
X105.3Y-78.0
X105.3Y-92.4
X105.3Y-96.6
X105.309Y-103.4
X105.35Y-99.455
X105.35Y-106.603
X106.5Y-116.25
X106.65Y-103.397
X106.67Y-74.13
X106.694Y-106.627
X106.73Y-85.07
X106.75Y-87.4
X106.75Y-100.859
X106.75Y-109.141
X109.0Y-57.75
X109.0Y-66.0
X109.0Y-74.1
X109.0Y-82.75
X109.0Y-89.75
X109.0Y-96.25
X109.0Y-105.0
X109.0Y-112.75
X109.0Y-118.0
T2
X88.0Y-117.5
X88.0Y-118.5
X88.0Y-119.5
X89.0Y-116.5
X89.0Y-117.5
X89.0Y-118.5
X89.0Y-119.5
X89.0Y-120.5
X90.0Y-116.5
X90.0Y-117.5
X90.0Y-118.5
X90.0Y-119.5
X90.0Y-120.5
X91.0Y-116.5
X91.0Y-117.5
X91.0Y-118.5
X91.0Y-119.5
X91.0Y-120.5
X92.0Y-118.5
T3
X95.25Y-55.925
X100.65Y-55.945
T4
X51.6Y-54.0
X51.6Y-121.158
X52.303Y-52.303
X52.303Y-55.697
X52.303Y-119.461
X52.303Y-122.856
X54.0Y-51.6
X54.0Y-56.4
X54.0Y-118.758
X54.0Y-123.558
X55.697Y-52.303
X55.697Y-55.697
X55.697Y-119.461
X55.697Y-122.856
X56.4Y-54.0
X56.4Y-121.158
X103.6Y-54.0
X103.6Y-121.158
X104.303Y-52.303
X104.303Y-55.697
X104.303Y-119.461
X104.303Y-122.856
X106.0Y-51.6
X106.0Y-56.4
X106.0Y-118.758
X106.0Y-123.558
X107.697Y-52.303
X107.697Y-55.697
X107.697Y-119.461
X107.697Y-122.856
X108.4Y-54.0
X108.4Y-121.158
T5
X98.74Y-74.53
X98.74Y-75.8
X98.74Y-77.07
T6
X59.63Y-87.5
X59.63Y-90.04
X59.63Y-92.58
X59.63Y-95.12
X67.25Y-87.5
X67.25Y-90.04
X67.25Y-92.58
X67.25Y-95.12
X77.1Y-73.25
X77.1Y-80.35
X81.4Y-75.75
X81.4Y-78.45
X81.4Y-81.25
X84.8Y-73.25
X84.8Y-80.35
X89.1Y-75.75
X89.1Y-78.45
X89.1Y-81.25
T7
X68.01Y-105.0
X68.01Y-107.54
X68.01Y-110.08
X68.01Y-112.62
X68.01Y-115.16
X68.01Y-117.7
X68.01Y-120.24
X83.25Y-105.0
X83.25Y-107.54
X83.25Y-110.08
X83.25Y-112.62
X83.25Y-115.16
X83.25Y-117.7
X83.25Y-120.24
T8
X98.7Y-61.0
X98.7Y-63.54
X98.7Y-66.08
X98.7Y-68.62
T9
X98.5Y-102.75
X98.5Y-107.25
X106.0Y-102.1
X106.0Y-107.9
T10
X54.0Y-54.0
X54.0Y-121.158
X106.0Y-54.0
X106.0Y-121.158
M30
