%TF.GenerationSoftware,KiCad,Pcbnew,9.0.6*%
%TF.CreationDate,2026-03-09T22:44:48+09:00*%
%TF.ProjectId,ARDFReceiver,41524446-5265-4636-9569-7665722e6b69,rev?*%
%TF.SameCoordinates,Original*%
%TF.FileFunction,Copper,L2,Bot*%
%TF.FilePolarity,Positive*%
%FSLAX46Y46*%
G04 Gerber Fmt 4.6, Leading zero omitted, Abs format (unit mm)*
G04 Created by KiCad (PCBNEW 9.0.6) date 2026-03-09 22:44:48*
%MOMM*%
%LPD*%
G01*
G04 APERTURE LIST*
G04 Aperture macros list*
%AMRoundRect*
0 Rectangle with rounded corners*
0 $1 Rounding radius*
0 $2 $3 $4 $5 $6 $7 $8 $9 X,Y pos of 4 corners*
0 Add a 4 corners polygon primitive as box body*
4,1,4,$2,$3,$4,$5,$6,$7,$8,$9,$2,$3,0*
0 Add four circle primitives for the rounded corners*
1,1,$1+$1,$2,$3*
1,1,$1+$1,$4,$5*
1,1,$1+$1,$6,$7*
1,1,$1+$1,$8,$9*
0 Add four rect primitives between the rounded corners*
20,1,$1+$1,$2,$3,$4,$5,0*
20,1,$1+$1,$4,$5,$6,$7,0*
20,1,$1+$1,$6,$7,$8,$9,0*
20,1,$1+$1,$8,$9,$2,$3,0*%
G04 Aperture macros list end*
%TA.AperFunction,ComponentPad*%
%ADD10C,0.800000*%
%TD*%
%TA.AperFunction,ComponentPad*%
%ADD11C,6.400000*%
%TD*%
%TA.AperFunction,ComponentPad*%
%ADD12C,0.600000*%
%TD*%
%TA.AperFunction,ComponentPad*%
%ADD13RoundRect,0.250000X-0.550000X-0.550000X0.550000X-0.550000X0.550000X0.550000X-0.550000X0.550000X0*%
%TD*%
%TA.AperFunction,ComponentPad*%
%ADD14C,1.600000*%
%TD*%
%TA.AperFunction,ComponentPad*%
%ADD15RoundRect,0.250000X0.550000X0.550000X-0.550000X0.550000X-0.550000X-0.550000X0.550000X-0.550000X0*%
%TD*%
%TA.AperFunction,ComponentPad*%
%ADD16R,1.500000X1.050000*%
%TD*%
%TA.AperFunction,ComponentPad*%
%ADD17O,1.500000X1.050000*%
%TD*%
%TA.AperFunction,SMDPad,CuDef*%
%ADD18R,1.500000X4.450000*%
%TD*%
%TA.AperFunction,SMDPad,CuDef*%
%ADD19R,1.500000X4.500000*%
%TD*%
%TA.AperFunction,SMDPad,CuDef*%
%ADD20R,0.460000X0.950000*%
%TD*%
%TA.AperFunction,ComponentPad*%
%ADD21C,0.970000*%
%TD*%
%TA.AperFunction,ComponentPad*%
%ADD22C,1.524000*%
%TD*%
%TA.AperFunction,ComponentPad*%
%ADD23R,1.900000X1.900000*%
%TD*%
%TA.AperFunction,ComponentPad*%
%ADD24C,1.900000*%
%TD*%
%TA.AperFunction,SMDPad,CuDef*%
%ADD25RoundRect,0.250000X-0.250000X-2.500000X0.250000X-2.500000X0.250000X2.500000X-0.250000X2.500000X0*%
%TD*%
%TA.AperFunction,SMDPad,CuDef*%
%ADD26RoundRect,0.250000X-0.550000X-1.250000X0.550000X-1.250000X0.550000X1.250000X-0.550000X1.250000X0*%
%TD*%
%TA.AperFunction,ComponentPad*%
%ADD27R,1.700000X1.700000*%
%TD*%
%TA.AperFunction,ComponentPad*%
%ADD28C,1.700000*%
%TD*%
%TA.AperFunction,SMDPad,CuDef*%
%ADD29RoundRect,0.250000X0.250000X2.500000X-0.250000X2.500000X-0.250000X-2.500000X0.250000X-2.500000X0*%
%TD*%
%TA.AperFunction,SMDPad,CuDef*%
%ADD30RoundRect,0.250000X0.550000X1.250000X-0.550000X1.250000X-0.550000X-1.250000X0.550000X-1.250000X0*%
%TD*%
%TA.AperFunction,ViaPad*%
%ADD31C,0.600000*%
%TD*%
%TA.AperFunction,Conductor*%
%ADD32C,0.300000*%
%TD*%
%TA.AperFunction,Conductor*%
%ADD33C,0.500000*%
%TD*%
G04 APERTURE END LIST*
D10*
%TO.P,H1,1,1*%
%TO.N,GND*%
X103600000Y-54000000D03*
X104302944Y-52302944D03*
X104302944Y-55697056D03*
X106000000Y-51600000D03*
D11*
X106000000Y-54000000D03*
D10*
X106000000Y-56400000D03*
X107697056Y-52302944D03*
X107697056Y-55697056D03*
X108400000Y-54000000D03*
%TD*%
D12*
%TO.P,U2,2,GND*%
%TO.N,GND*%
X92000000Y-118500000D03*
X91000000Y-120500000D03*
X91000000Y-119500000D03*
X91000000Y-118500000D03*
X91000000Y-117500000D03*
X91000000Y-116500000D03*
X90000000Y-120500000D03*
X90000000Y-119500000D03*
X90000000Y-118500000D03*
X90000000Y-117500000D03*
X90000000Y-116500000D03*
X89000000Y-120500000D03*
X89000000Y-119500000D03*
X89000000Y-118500000D03*
X89000000Y-117500000D03*
X89000000Y-116500000D03*
X88000000Y-119500000D03*
X88000000Y-118500000D03*
X88000000Y-117500000D03*
%TD*%
D13*
%TO.P,F1,1,Pin_1*%
%TO.N,Mix*%
X77100000Y-73250000D03*
D14*
%TO.P,F1,2,Pin_2*%
%TO.N,Net-(F1-Pin_2)*%
X77100000Y-80350000D03*
%TO.P,F1,3,Pin_3*%
%TO.N,GND*%
X81400000Y-75750000D03*
%TO.P,F1,4,Pin_4*%
X81400000Y-78450000D03*
%TO.P,F1,5,Pin_5*%
X81400000Y-81250000D03*
%TD*%
D15*
%TO.P,U5,1,Pin_1*%
%TO.N,+3.3V*%
X67250000Y-95120000D03*
D14*
%TO.P,U5,2,Pin_2*%
%TO.N,SCL*%
X67250000Y-92580000D03*
%TO.P,U5,3,Pin_3*%
%TO.N,SDA*%
X67250000Y-90040000D03*
%TO.P,U5,4,Pin_4*%
%TO.N,GND*%
X67250000Y-87500000D03*
%TO.P,U5,5,Pin_5*%
%TO.N,Net-(U5-Pin_5)*%
X59630000Y-87500000D03*
%TO.P,U5,6,Pin_6*%
%TO.N,unconnected-(U5-Pin_6-Pad6)*%
X59630000Y-90040000D03*
%TO.P,U5,7,Pin_7*%
%TO.N,unconnected-(U5-Pin_7-Pad7)*%
X59630000Y-92580000D03*
%TO.P,U5,8,Pin_8*%
%TO.N,+3.3V*%
X59630000Y-95120000D03*
%TD*%
D16*
%TO.P,U7,1,Pin_1*%
%TO.N,GND*%
X98740000Y-74530000D03*
D17*
%TO.P,U7,2,Pin_2*%
%TO.N,Net-(U7-Pin_2)*%
X98740000Y-75800000D03*
%TO.P,U7,3,Pin_3*%
%TO.N,Net-(U7-Pin_3)*%
X98740000Y-77070000D03*
%TD*%
D10*
%TO.P,H3,1,1*%
%TO.N,GND*%
X51600000Y-121158500D03*
X52302944Y-119461444D03*
X52302944Y-122855556D03*
X54000000Y-118758500D03*
D11*
X54000000Y-121158500D03*
D10*
X54000000Y-123558500D03*
X55697056Y-119461444D03*
X55697056Y-122855556D03*
X56400000Y-121158500D03*
%TD*%
%TO.P,H2,1,1*%
%TO.N,GND*%
X51600000Y-54000000D03*
X52302944Y-52302944D03*
X52302944Y-55697056D03*
X54000000Y-51600000D03*
D11*
X54000000Y-54000000D03*
D10*
X54000000Y-56400000D03*
X55697056Y-52302944D03*
X55697056Y-55697056D03*
X56400000Y-54000000D03*
%TD*%
D13*
%TO.P,F2,1,Pin_1*%
%TO.N,Net-(F1-Pin_2)*%
X84800000Y-73250000D03*
D14*
%TO.P,F2,2,Pin_2*%
%TO.N,Net-(F2-Pin_2)*%
X84800000Y-80350000D03*
%TO.P,F2,3,Pin_3*%
%TO.N,GND*%
X89100000Y-75750000D03*
%TO.P,F2,4,Pin_4*%
X89100000Y-78450000D03*
%TO.P,F2,5,Pin_5*%
X89100000Y-81250000D03*
%TD*%
D18*
%TO.P,J3,2,Ext*%
%TO.N,GND*%
X100700000Y-52795000D03*
D19*
X95325000Y-52795000D03*
D20*
X100650000Y-55495000D03*
X95250000Y-55495000D03*
D21*
X95250000Y-55925000D03*
X100650000Y-55945000D03*
%TD*%
D10*
%TO.P,H4,1,1*%
%TO.N,GND*%
X103600000Y-121158500D03*
X104302944Y-119461444D03*
X104302944Y-122855556D03*
X106000000Y-118758500D03*
D11*
X106000000Y-121158500D03*
D10*
X106000000Y-123558500D03*
X107697056Y-119461444D03*
X107697056Y-122855556D03*
X108400000Y-121158500D03*
%TD*%
D22*
%TO.P,U1,1,GPIO0/A0/D0*%
%TO.N,BatteryVoltage*%
X83250000Y-120240000D03*
%TO.P,U1,2,GPIO1/A1/D1*%
%TO.N,SStrengthADC*%
X83250000Y-117700000D03*
%TO.P,U1,3,GPIO2/A2/D2*%
%TO.N,unconnected-(U1-GPIO2{slash}A2{slash}D2-Pad3)*%
X83250000Y-115160000D03*
%TO.P,U1,4,GPIO21/D3*%
%TO.N,unconnected-(U1-GPIO21{slash}D3-Pad4)_1*%
X83250000Y-112620000D03*
%TO.P,U1,5,GPIO22/D4/SDA*%
%TO.N,SDA*%
X83250000Y-110080000D03*
%TO.P,U1,6,GPIO23/D5/SCL*%
%TO.N,SCL*%
X83250000Y-107540000D03*
%TO.P,U1,7,GPIO16/D6/TX*%
%TO.N,IORFSwitch*%
X83250000Y-105000000D03*
%TO.P,U1,8,GPIO17/D7/RX*%
%TO.N,unconnected-(U1-GPIO17{slash}D7{slash}RX-Pad8)*%
X68010000Y-105000000D03*
%TO.P,U1,9,GPIO19/D8/SCK*%
%TO.N,Net-(J2-Pin_3)*%
X68010000Y-107540000D03*
%TO.P,U1,10,GPIO20/D9/MISO*%
%TO.N,Net-(J2-Pin_2)*%
X68010000Y-110080000D03*
%TO.P,U1,11,GPIO18/D10/MOSI*%
%TO.N,Net-(J2-Pin_1)*%
X68010000Y-112620000D03*
%TO.P,U1,12,3V3*%
%TO.N,+3.3V*%
X68010000Y-115160000D03*
%TO.P,U1,13,GND*%
%TO.N,GND*%
X68010000Y-117700000D03*
%TO.P,U1,14,VBUS*%
%TO.N,+5V*%
X68010000Y-120240000D03*
%TD*%
D23*
%TO.P,J4,R*%
%TO.N,Net-(JP1-A)*%
X98500000Y-102750000D03*
D24*
%TO.P,J4,S*%
%TO.N,GND*%
X98500000Y-107250000D03*
%TO.P,J4,T*%
%TO.N,Net-(JP1-B)*%
X106000000Y-107900000D03*
X106000000Y-102100000D03*
%TD*%
D25*
%TO.P,J1,1,Pin_1*%
%TO.N,+BATT*%
X97250000Y-113250000D03*
%TO.P,J1,2,Pin_2*%
%TO.N,GND*%
X99250000Y-113250000D03*
D26*
%TO.P,J1,MP,MountPin*%
X94850000Y-115500000D03*
X101650000Y-115500000D03*
%TD*%
D27*
%TO.P,P1,1,Pin_1*%
%TO.N,SDA*%
X98700000Y-61000000D03*
D28*
%TO.P,P1,2,Pin_2*%
%TO.N,SCL*%
X98700000Y-63540000D03*
%TO.P,P1,3,Pin_3*%
%TO.N,+3.3V*%
X98700000Y-66080000D03*
%TO.P,P1,4,Pin_4*%
%TO.N,GND*%
X98700000Y-68620000D03*
%TD*%
D29*
%TO.P,J2,1,Pin_1*%
%TO.N,Net-(J2-Pin_1)*%
X61850000Y-113250000D03*
%TO.P,J2,2,Pin_2*%
%TO.N,Net-(J2-Pin_2)*%
X59850000Y-113250000D03*
%TO.P,J2,3,Pin_3*%
%TO.N,Net-(J2-Pin_3)*%
X57850000Y-113250000D03*
%TO.P,J2,4,Pin_4*%
%TO.N,GND*%
X55850000Y-113250000D03*
D30*
%TO.P,J2,MP,MountPin*%
X64250000Y-111000000D03*
X53450000Y-111000000D03*
%TD*%
D31*
%TO.N,+BATT*%
X97250000Y-115400000D03*
%TO.N,GND*%
X96624676Y-99233482D03*
X83500000Y-51000000D03*
X79640238Y-65159000D03*
X69200000Y-114400000D03*
X89600000Y-98500000D03*
X57750000Y-51000000D03*
X97900000Y-78700000D03*
X97700000Y-85576000D03*
X105300000Y-78000000D03*
X78250000Y-69846251D03*
X89650000Y-61959001D03*
X77974349Y-79387961D03*
X61500000Y-118800000D03*
X57659620Y-62759620D03*
X76800000Y-82500000D03*
X88800000Y-68900000D03*
X53250000Y-58750000D03*
X72900000Y-100500000D03*
X71200000Y-65800000D03*
X76000000Y-89500000D03*
X93100000Y-85600000D03*
X93834620Y-67100000D03*
X83500000Y-59500000D03*
X99250000Y-51000000D03*
X105350000Y-106603078D03*
X94250000Y-121000000D03*
X101600000Y-120800000D03*
X81800000Y-66796251D03*
X101000000Y-68000000D03*
X65800000Y-53150000D03*
X72662031Y-66262031D03*
X91051000Y-64859001D03*
X59017533Y-106890000D03*
X75000000Y-85700000D03*
X89809620Y-96309620D03*
X63750000Y-116000000D03*
X103050000Y-78600000D03*
X53000000Y-65200000D03*
X79534620Y-92315380D03*
X83600000Y-54450000D03*
X97200000Y-75150000D03*
X105350000Y-99455000D03*
X79500000Y-97600000D03*
X66250000Y-86250000D03*
X87925256Y-85661405D03*
X82100000Y-91700000D03*
X92592705Y-76409799D03*
X95500000Y-82300000D03*
X68472974Y-74659999D03*
X97600000Y-119387500D03*
X76400000Y-59400000D03*
X70200000Y-93000000D03*
X90950000Y-101200000D03*
X77200000Y-55900000D03*
X68467474Y-84236997D03*
X86100000Y-85600000D03*
X66250000Y-116750000D03*
X83900000Y-85700000D03*
X91790380Y-59709620D03*
X71200000Y-86500000D03*
X75250000Y-84076000D03*
X83400000Y-72150000D03*
X64000000Y-99000000D03*
X100200000Y-99200000D03*
X82250000Y-124000000D03*
X109000000Y-89750000D03*
X57200000Y-99000000D03*
X69660331Y-121839669D03*
X79800000Y-74200000D03*
X83400000Y-88000000D03*
X68700000Y-67000000D03*
X79700000Y-57900000D03*
X109000000Y-105000000D03*
X75000000Y-51000000D03*
X103443837Y-99250000D03*
X94400000Y-85600000D03*
X54550000Y-97000000D03*
X81601731Y-87298752D03*
X106750000Y-100859031D03*
X58700000Y-81500000D03*
X72900000Y-97500000D03*
X92361494Y-120931681D03*
X88200000Y-98500000D03*
X53000000Y-99250000D03*
X67400000Y-56000000D03*
X82600000Y-68734001D03*
X62400000Y-77250000D03*
X83200000Y-82500000D03*
X71650000Y-88100000D03*
X71650000Y-90699000D03*
X73000000Y-85600000D03*
X90250000Y-51000000D03*
X88000000Y-56000000D03*
X94600000Y-112200000D03*
X58430331Y-54030331D03*
X67857748Y-88890805D03*
X57650000Y-68000000D03*
X85550001Y-116574308D03*
X58234620Y-97565380D03*
X93100000Y-80387500D03*
X79521000Y-61659001D03*
X68800000Y-91900000D03*
X77600000Y-90400000D03*
X106669669Y-74130331D03*
X106750000Y-109140969D03*
X83600000Y-53100000D03*
X83900000Y-96000000D03*
X69200000Y-116000000D03*
X88350000Y-62159001D03*
X87200000Y-57900000D03*
X51000000Y-67750000D03*
X68370735Y-82437284D03*
X91100000Y-87600000D03*
X83900000Y-103738000D03*
X81803196Y-85576000D03*
X69285032Y-57500000D03*
X85500000Y-59500000D03*
X78865380Y-73265380D03*
X77601645Y-106583500D03*
X57000000Y-124000000D03*
X109000000Y-66000000D03*
X68590380Y-93309620D03*
X99781597Y-76450487D03*
X90040380Y-110340380D03*
X53000000Y-81400000D03*
X101050000Y-90500000D03*
X70600000Y-69100000D03*
X102250000Y-51000000D03*
X53651081Y-116148919D03*
X97349998Y-60350000D03*
X87709620Y-74709620D03*
X106500000Y-116250000D03*
X87634620Y-111684620D03*
X57650000Y-87800000D03*
X54450000Y-61800000D03*
X72900000Y-99000000D03*
X53000000Y-92200000D03*
X70600000Y-53150000D03*
X55850000Y-62400000D03*
X99300000Y-84000000D03*
X93200000Y-70600000D03*
X89800000Y-83900000D03*
X97250000Y-62750000D03*
X109000000Y-96250000D03*
X79500000Y-93700000D03*
X92175000Y-114000000D03*
X64750000Y-62000000D03*
X70400000Y-84000000D03*
X106694337Y-106627049D03*
X82000000Y-110608500D03*
X95200000Y-68400000D03*
X91600000Y-78300000D03*
X99500000Y-90700000D03*
X98000000Y-124000000D03*
X103900000Y-88400000D03*
X101750000Y-78600000D03*
X94000000Y-76500000D03*
X102500000Y-124000000D03*
X76115380Y-76715380D03*
X68800000Y-96500000D03*
X70200000Y-96500000D03*
X54550000Y-87800000D03*
X83600000Y-55900000D03*
X57700000Y-77300000D03*
X99900000Y-85600000D03*
X71218382Y-60246251D03*
X77900000Y-114400000D03*
X74800000Y-62789001D03*
X78975001Y-106055762D03*
X96750000Y-51000000D03*
X73700000Y-78700000D03*
X78221000Y-65159001D03*
X51000000Y-99250000D03*
X98700000Y-73700000D03*
X71700000Y-96500000D03*
X62284620Y-55900000D03*
X72800000Y-106700000D03*
X100200000Y-118000000D03*
X71012603Y-74300000D03*
X66000000Y-51000000D03*
X95800000Y-73150000D03*
X73012500Y-87351356D03*
X78712501Y-110528402D03*
X97250000Y-64250000D03*
X75800000Y-72100000D03*
X69900000Y-82500000D03*
X106650000Y-103396922D03*
X62250000Y-124000000D03*
X80401786Y-106798234D03*
X97089341Y-84076000D03*
X78537288Y-86775000D03*
X96600000Y-100550000D03*
X65400000Y-73300000D03*
X86800000Y-73700000D03*
X65900000Y-95800000D03*
X99250000Y-110000000D03*
X55900000Y-110000000D03*
X81200000Y-99000000D03*
X83500000Y-62200000D03*
X64000000Y-97500000D03*
X83500000Y-60600000D03*
X74300000Y-93500000D03*
X67000000Y-68100000D03*
X109000000Y-57750000D03*
X69000000Y-56000000D03*
X96475000Y-80350000D03*
X99400000Y-78262500D03*
X55600000Y-100500000D03*
X62500000Y-68100000D03*
X75700000Y-118600000D03*
X94000000Y-94200000D03*
X98662500Y-101299998D03*
X109000000Y-112750000D03*
X71659871Y-92088714D03*
X104400000Y-62500000D03*
X64000000Y-100500000D03*
X71000000Y-124000000D03*
X97698774Y-76449999D03*
X100300000Y-75100000D03*
X97600000Y-120887500D03*
X91030935Y-61059001D03*
X93100000Y-96300000D03*
X65400000Y-74700000D03*
X53000000Y-106800000D03*
X70600000Y-54450000D03*
X104400000Y-69209311D03*
X68000000Y-65296501D03*
X62809620Y-57650000D03*
X62990380Y-59790380D03*
X102917845Y-57900000D03*
X77200000Y-53000000D03*
X51000000Y-107750000D03*
X92700000Y-90200000D03*
X105300000Y-92400000D03*
X58400000Y-57800000D03*
X56250000Y-92250000D03*
X89751000Y-64900000D03*
X59300000Y-59200000D03*
X92250000Y-98500000D03*
X105300000Y-96600000D03*
X106730331Y-85069669D03*
X106750000Y-87400000D03*
X92750000Y-124000000D03*
X59400000Y-104300000D03*
X72900000Y-102000000D03*
X66500000Y-83300000D03*
X71907500Y-67909001D03*
X100000000Y-98000000D03*
X75700000Y-87600000D03*
X74792531Y-64131532D03*
X65400000Y-106700000D03*
X109000000Y-74100000D03*
X64000000Y-102100000D03*
X95870253Y-95060291D03*
X64071327Y-60599588D03*
X79424385Y-88584715D03*
X85827351Y-79553410D03*
X54500000Y-68000000D03*
X51000000Y-59000000D03*
X97359620Y-90840380D03*
X90200000Y-54450000D03*
X103000000Y-82200000D03*
X83200000Y-84000000D03*
X76500000Y-70500000D03*
X86112500Y-87851356D03*
X74326737Y-92150000D03*
X55600000Y-101950000D03*
X91800000Y-67000000D03*
X51000000Y-90500000D03*
X93800000Y-59800000D03*
X80715370Y-88978870D03*
X85355979Y-70500000D03*
X92250000Y-101200000D03*
X61300000Y-95900000D03*
X85400000Y-65159001D03*
X80200000Y-63396251D03*
X97612500Y-93556250D03*
X73000000Y-89700000D03*
X59000000Y-108200000D03*
X88200000Y-89600000D03*
X73300000Y-82500000D03*
X86400000Y-119400000D03*
X85905789Y-92274973D03*
X77050000Y-86000000D03*
X90900000Y-105800000D03*
X109000000Y-118000000D03*
X82200000Y-121800000D03*
X94000000Y-51000000D03*
X56350000Y-72750000D03*
X77200000Y-54450000D03*
X65800000Y-54600000D03*
X60700000Y-73700000D03*
X61800000Y-54450000D03*
X51000000Y-117250000D03*
X69200000Y-111250000D03*
X53000000Y-72600000D03*
X79500000Y-108750000D03*
X60400000Y-84900000D03*
X91809620Y-110409620D03*
X97233471Y-95090966D03*
X99750000Y-69750000D03*
X81600000Y-59500000D03*
X77700000Y-100500000D03*
X84204956Y-66884001D03*
X75723919Y-114373919D03*
X51000000Y-77750000D03*
X94560987Y-80395753D03*
X79690870Y-59528370D03*
X90635522Y-74546947D03*
X109000000Y-82750000D03*
X83500000Y-58100000D03*
X88054568Y-92036307D03*
X95900000Y-57600000D03*
X72100000Y-76200000D03*
X71900000Y-81701000D03*
X88000000Y-94900000D03*
X103800000Y-113000000D03*
X95500000Y-89700000D03*
X65750000Y-79750000D03*
X90600000Y-53000000D03*
X78172000Y-61659001D03*
X58700000Y-72800000D03*
X92250000Y-105800000D03*
X93200000Y-72200000D03*
X89820026Y-91300000D03*
X83300000Y-99100000D03*
X54500000Y-76500000D03*
X69709620Y-73790380D03*
X86250000Y-63596251D03*
X63250000Y-62000000D03*
X55850000Y-81400000D03*
X66400000Y-57659620D03*
X90950000Y-98500000D03*
X86100000Y-110900000D03*
X94890380Y-74509620D03*
X85000000Y-68596251D03*
X84300000Y-87100000D03*
X95100000Y-92900000D03*
X105309388Y-103400000D03*
X100116766Y-100614587D03*
%TO.N,AudioSig*%
X76250000Y-86500000D03*
X76250000Y-83250000D03*
%TO.N,SCL*%
X69500000Y-88750000D03*
X69500000Y-91200000D03*
X69500000Y-95000000D03*
X69500000Y-99758500D03*
%TO.N,+3.3V*%
X58250000Y-95110000D03*
X68250000Y-56750000D03*
X52250000Y-95000000D03*
X68250000Y-52250000D03*
%TO.N,SDA*%
X71000000Y-95000000D03*
X71000000Y-101300000D03*
%TO.N,Net-(U7-Pin_3)*%
X93800000Y-86500000D03*
X93750000Y-83250000D03*
%TO.N,Net-(J2-Pin_1)*%
X62000000Y-113000000D03*
%TO.N,Net-(J2-Pin_3)*%
X57750000Y-113000000D03*
%TO.N,Net-(J2-Pin_2)*%
X59750000Y-113000000D03*
%TO.N,Net-(Q1-D)*%
X80271000Y-64509001D03*
X76871000Y-64509001D03*
%TO.N,Net-(Q1-G)*%
X80271000Y-62309001D03*
X76871000Y-62309001D03*
%TO.N,AttenuatorIn*%
X90271000Y-61309001D03*
X87871000Y-61309001D03*
%TD*%
D32*
%TO.N,AudioSig*%
X76250000Y-83250000D02*
X76250000Y-86500000D01*
%TO.N,SCL*%
X69500000Y-88750000D02*
X69500000Y-91200000D01*
X69500000Y-95000000D02*
X69500000Y-99758500D01*
D33*
%TO.N,+3.3V*%
X57640000Y-95000000D02*
X52250000Y-95000000D01*
X57750000Y-95110000D02*
X57640000Y-95000000D01*
X58250000Y-95110000D02*
X57750000Y-95110000D01*
X68250000Y-56750000D02*
X68250000Y-52250000D01*
D32*
%TO.N,SDA*%
X71000000Y-95000000D02*
X71000000Y-101300000D01*
%TO.N,Net-(U7-Pin_3)*%
X93750000Y-83250000D02*
X93750000Y-86450000D01*
X93750000Y-86450000D02*
X93800000Y-86500000D01*
%TO.N,Net-(Q1-D)*%
X76871000Y-64509001D02*
X80271000Y-64509001D01*
%TO.N,Net-(Q1-G)*%
X76871000Y-62309001D02*
X80271000Y-62309001D01*
%TO.N,AttenuatorIn*%
X87871000Y-61309001D02*
X90271000Y-61309001D01*
%TD*%
%TA.AperFunction,Conductor*%
%TO.N,GND*%
G36*
X94018039Y-51019685D02*
G01*
X94063794Y-51072489D01*
X94075000Y-51124000D01*
X94075000Y-52545000D01*
X96575000Y-52545000D01*
X96575000Y-51124000D01*
X96594685Y-51056961D01*
X96647489Y-51011206D01*
X96699000Y-51000000D01*
X99326000Y-51000000D01*
X99393039Y-51019685D01*
X99438794Y-51072489D01*
X99450000Y-51124000D01*
X99450000Y-52545000D01*
X101950000Y-52545000D01*
X101950000Y-51124000D01*
X101969685Y-51056961D01*
X102022489Y-51011206D01*
X102074000Y-51000000D01*
X107948638Y-51000000D01*
X108015677Y-51019685D01*
X108036319Y-51036319D01*
X108963681Y-51963681D01*
X108997166Y-52025004D01*
X109000000Y-52051362D01*
X109000000Y-122948638D01*
X108980315Y-123015677D01*
X108963681Y-123036319D01*
X108036319Y-123963681D01*
X107974996Y-123997166D01*
X107948638Y-124000000D01*
X52051362Y-124000000D01*
X51984323Y-123980315D01*
X51963681Y-123963681D01*
X51036319Y-123036319D01*
X51002834Y-122974996D01*
X51000000Y-122948638D01*
X51000000Y-120145197D01*
X67047500Y-120145197D01*
X67047500Y-120334802D01*
X67084486Y-120520743D01*
X67084488Y-120520751D01*
X67157042Y-120695912D01*
X67262377Y-120853558D01*
X67396441Y-120987622D01*
X67501300Y-121057686D01*
X67554085Y-121092956D01*
X67729249Y-121165512D01*
X67915197Y-121202499D01*
X67915201Y-121202500D01*
X67915202Y-121202500D01*
X68104799Y-121202500D01*
X68104800Y-121202499D01*
X68290751Y-121165512D01*
X68465915Y-121092956D01*
X68623558Y-120987622D01*
X68757622Y-120853558D01*
X68862956Y-120695915D01*
X68935512Y-120520751D01*
X68972500Y-120334798D01*
X68972500Y-120145202D01*
X68972499Y-120145197D01*
X82287500Y-120145197D01*
X82287500Y-120334802D01*
X82324486Y-120520743D01*
X82324488Y-120520751D01*
X82397042Y-120695912D01*
X82502377Y-120853558D01*
X82636441Y-120987622D01*
X82741300Y-121057686D01*
X82794085Y-121092956D01*
X82969249Y-121165512D01*
X83155197Y-121202499D01*
X83155201Y-121202500D01*
X83155202Y-121202500D01*
X83344799Y-121202500D01*
X83344800Y-121202499D01*
X83530751Y-121165512D01*
X83705915Y-121092956D01*
X83863558Y-120987622D01*
X83997622Y-120853558D01*
X84102956Y-120695915D01*
X84175512Y-120520751D01*
X84212500Y-120334798D01*
X84212500Y-120145202D01*
X84175512Y-119959249D01*
X84102956Y-119784085D01*
X84067686Y-119731300D01*
X83997622Y-119626441D01*
X83863558Y-119492377D01*
X83705912Y-119387042D01*
X83530751Y-119314488D01*
X83530743Y-119314486D01*
X83344802Y-119277500D01*
X83344798Y-119277500D01*
X83155202Y-119277500D01*
X83155197Y-119277500D01*
X82969256Y-119314486D01*
X82969248Y-119314488D01*
X82794087Y-119387042D01*
X82636441Y-119492377D01*
X82502377Y-119626441D01*
X82397042Y-119784087D01*
X82324488Y-119959248D01*
X82324486Y-119959256D01*
X82287500Y-120145197D01*
X68972499Y-120145197D01*
X68935512Y-119959249D01*
X68862956Y-119784085D01*
X68827686Y-119731300D01*
X68757622Y-119626441D01*
X68623558Y-119492377D01*
X68465912Y-119387042D01*
X68290751Y-119314488D01*
X68290743Y-119314486D01*
X68104802Y-119277500D01*
X68104798Y-119277500D01*
X67915202Y-119277500D01*
X67915197Y-119277500D01*
X67729256Y-119314486D01*
X67729248Y-119314488D01*
X67554087Y-119387042D01*
X67396441Y-119492377D01*
X67262377Y-119626441D01*
X67157042Y-119784087D01*
X67084488Y-119959248D01*
X67084486Y-119959256D01*
X67047500Y-120145197D01*
X51000000Y-120145197D01*
X51000000Y-117600678D01*
X66748000Y-117600678D01*
X66748000Y-117799321D01*
X66779075Y-117995520D01*
X66779075Y-117995523D01*
X66840457Y-118184437D01*
X66930641Y-118361432D01*
X66957730Y-118398715D01*
X67572352Y-117784093D01*
X67595792Y-117871571D01*
X67654311Y-117972930D01*
X67737070Y-118055689D01*
X67838429Y-118114208D01*
X67925905Y-118137647D01*
X67311283Y-118752268D01*
X67311283Y-118752269D01*
X67348567Y-118779358D01*
X67525562Y-118869542D01*
X67714477Y-118930924D01*
X67910679Y-118962000D01*
X68109321Y-118962000D01*
X68305520Y-118930924D01*
X68305523Y-118930924D01*
X68494437Y-118869542D01*
X68671425Y-118779362D01*
X68708716Y-118752268D01*
X68094095Y-118137647D01*
X68181571Y-118114208D01*
X68282930Y-118055689D01*
X68365689Y-117972930D01*
X68424208Y-117871571D01*
X68447647Y-117784094D01*
X69062268Y-118398715D01*
X69089362Y-118361425D01*
X69179542Y-118184437D01*
X69240924Y-117995523D01*
X69240924Y-117995520D01*
X69272000Y-117799321D01*
X69272000Y-117605197D01*
X82287500Y-117605197D01*
X82287500Y-117794802D01*
X82324486Y-117980743D01*
X82324488Y-117980751D01*
X82397042Y-118155912D01*
X82502377Y-118313558D01*
X82636441Y-118447622D01*
X82741300Y-118517686D01*
X82794085Y-118552956D01*
X82969249Y-118625512D01*
X83155197Y-118662499D01*
X83155201Y-118662500D01*
X83155202Y-118662500D01*
X83344799Y-118662500D01*
X83344800Y-118662499D01*
X83530751Y-118625512D01*
X83705915Y-118552956D01*
X83863558Y-118447622D01*
X83997622Y-118313558D01*
X84102956Y-118155915D01*
X84175512Y-117980751D01*
X84212500Y-117794798D01*
X84212500Y-117605202D01*
X84175512Y-117419249D01*
X84102956Y-117244085D01*
X84067686Y-117191300D01*
X83997622Y-117086441D01*
X83863558Y-116952377D01*
X83705912Y-116847042D01*
X83592309Y-116799986D01*
X93550001Y-116799986D01*
X93560494Y-116902697D01*
X93615641Y-117069119D01*
X93615643Y-117069124D01*
X93707684Y-117218345D01*
X93831654Y-117342315D01*
X93980875Y-117434356D01*
X93980880Y-117434358D01*
X94147302Y-117489505D01*
X94147309Y-117489506D01*
X94250019Y-117499999D01*
X94599999Y-117499999D01*
X95100000Y-117499999D01*
X95449972Y-117499999D01*
X95449986Y-117499998D01*
X95552697Y-117489505D01*
X95719119Y-117434358D01*
X95719124Y-117434356D01*
X95868345Y-117342315D01*
X95992315Y-117218345D01*
X96084356Y-117069124D01*
X96084358Y-117069119D01*
X96139505Y-116902697D01*
X96139506Y-116902690D01*
X96149999Y-116799986D01*
X96150000Y-116799973D01*
X96150000Y-115750000D01*
X95100000Y-115750000D01*
X95100000Y-117499999D01*
X94599999Y-117499999D01*
X94600000Y-117499998D01*
X94600000Y-115750000D01*
X93550001Y-115750000D01*
X93550001Y-116799986D01*
X83592309Y-116799986D01*
X83530751Y-116774488D01*
X83530743Y-116774486D01*
X83344802Y-116737500D01*
X83344798Y-116737500D01*
X83155202Y-116737500D01*
X83155197Y-116737500D01*
X82969256Y-116774486D01*
X82969248Y-116774488D01*
X82794087Y-116847042D01*
X82636441Y-116952377D01*
X82502377Y-117086441D01*
X82397042Y-117244087D01*
X82324488Y-117419248D01*
X82324486Y-117419256D01*
X82287500Y-117605197D01*
X69272000Y-117605197D01*
X69272000Y-117600678D01*
X69240924Y-117404479D01*
X69240924Y-117404476D01*
X69179542Y-117215562D01*
X69089358Y-117038567D01*
X69062268Y-117001283D01*
X68447647Y-117615904D01*
X68424208Y-117528429D01*
X68365689Y-117427070D01*
X68282930Y-117344311D01*
X68181571Y-117285792D01*
X68094094Y-117262352D01*
X68708716Y-116647731D01*
X68708715Y-116647730D01*
X68671432Y-116620641D01*
X68494437Y-116530457D01*
X68305522Y-116469075D01*
X68109321Y-116438000D01*
X67910679Y-116438000D01*
X67714479Y-116469075D01*
X67714476Y-116469075D01*
X67525562Y-116530457D01*
X67348564Y-116620643D01*
X67311283Y-116647729D01*
X67311282Y-116647730D01*
X67925906Y-117262352D01*
X67838429Y-117285792D01*
X67737070Y-117344311D01*
X67654311Y-117427070D01*
X67595792Y-117528429D01*
X67572352Y-117615905D01*
X66957730Y-117001282D01*
X66957729Y-117001283D01*
X66930643Y-117038564D01*
X66840457Y-117215562D01*
X66779075Y-117404476D01*
X66779075Y-117404479D01*
X66748000Y-117600678D01*
X51000000Y-117600678D01*
X51000000Y-115799986D01*
X54850001Y-115799986D01*
X54860494Y-115902697D01*
X54915641Y-116069119D01*
X54915643Y-116069124D01*
X55007684Y-116218345D01*
X55131654Y-116342315D01*
X55280875Y-116434356D01*
X55280880Y-116434358D01*
X55447302Y-116489505D01*
X55447309Y-116489506D01*
X55550019Y-116499999D01*
X56100000Y-116499999D01*
X56149972Y-116499999D01*
X56149986Y-116499998D01*
X56252697Y-116489505D01*
X56419119Y-116434358D01*
X56419124Y-116434356D01*
X56568345Y-116342315D01*
X56692315Y-116218345D01*
X56784356Y-116069124D01*
X56784358Y-116069119D01*
X56839505Y-115902697D01*
X56839506Y-115902690D01*
X56849999Y-115799986D01*
X56850000Y-115799973D01*
X56850000Y-113500000D01*
X56100000Y-113500000D01*
X56100000Y-116499999D01*
X55550019Y-116499999D01*
X55599999Y-116499998D01*
X55600000Y-116499998D01*
X55600000Y-113500000D01*
X54850001Y-113500000D01*
X54850001Y-115799986D01*
X51000000Y-115799986D01*
X51000000Y-112299986D01*
X52150001Y-112299986D01*
X52160494Y-112402697D01*
X52215641Y-112569119D01*
X52215643Y-112569124D01*
X52307684Y-112718345D01*
X52431654Y-112842315D01*
X52580875Y-112934356D01*
X52580880Y-112934358D01*
X52747302Y-112989505D01*
X52747309Y-112989506D01*
X52850019Y-112999999D01*
X53199999Y-112999999D01*
X53700000Y-112999999D01*
X54049972Y-112999999D01*
X54049986Y-112999998D01*
X54152697Y-112989505D01*
X54319119Y-112934358D01*
X54319124Y-112934356D01*
X54468345Y-112842315D01*
X54592317Y-112718343D01*
X54620461Y-112672715D01*
X54672409Y-112625990D01*
X54741371Y-112614767D01*
X54805453Y-112642610D01*
X54844310Y-112700679D01*
X54850000Y-112737811D01*
X54850000Y-113000000D01*
X55600000Y-113000000D01*
X56100000Y-113000000D01*
X56849999Y-113000000D01*
X56849999Y-110700020D01*
X56849561Y-110695730D01*
X57149500Y-110695730D01*
X57149500Y-115804269D01*
X57152353Y-115834699D01*
X57152353Y-115834701D01*
X57197206Y-115962880D01*
X57197207Y-115962882D01*
X57277850Y-116072150D01*
X57387118Y-116152793D01*
X57429845Y-116167744D01*
X57515299Y-116197646D01*
X57545730Y-116200500D01*
X57545734Y-116200500D01*
X58154270Y-116200500D01*
X58184699Y-116197646D01*
X58184701Y-116197646D01*
X58255948Y-116172715D01*
X58312882Y-116152793D01*
X58422150Y-116072150D01*
X58502793Y-115962882D01*
X58525219Y-115898790D01*
X58547646Y-115834701D01*
X58547646Y-115834699D01*
X58550500Y-115804269D01*
X58550500Y-110695730D01*
X59149500Y-110695730D01*
X59149500Y-115804269D01*
X59152353Y-115834699D01*
X59152353Y-115834701D01*
X59197206Y-115962880D01*
X59197207Y-115962882D01*
X59277850Y-116072150D01*
X59387118Y-116152793D01*
X59429845Y-116167744D01*
X59515299Y-116197646D01*
X59545730Y-116200500D01*
X59545734Y-116200500D01*
X60154270Y-116200500D01*
X60184699Y-116197646D01*
X60184701Y-116197646D01*
X60255948Y-116172715D01*
X60312882Y-116152793D01*
X60422150Y-116072150D01*
X60502793Y-115962882D01*
X60525219Y-115898790D01*
X60547646Y-115834701D01*
X60547646Y-115834699D01*
X60550500Y-115804269D01*
X60550500Y-110695730D01*
X61149500Y-110695730D01*
X61149500Y-115804269D01*
X61152353Y-115834699D01*
X61152353Y-115834701D01*
X61197206Y-115962880D01*
X61197207Y-115962882D01*
X61277850Y-116072150D01*
X61387118Y-116152793D01*
X61429845Y-116167744D01*
X61515299Y-116197646D01*
X61545730Y-116200500D01*
X61545734Y-116200500D01*
X62154270Y-116200500D01*
X62184699Y-116197646D01*
X62184701Y-116197646D01*
X62255948Y-116172715D01*
X62312882Y-116152793D01*
X62422150Y-116072150D01*
X62502793Y-115962882D01*
X62525219Y-115898790D01*
X62547646Y-115834701D01*
X62547646Y-115834699D01*
X62550500Y-115804269D01*
X62550500Y-115065197D01*
X67047500Y-115065197D01*
X67047500Y-115254802D01*
X67084486Y-115440743D01*
X67084488Y-115440751D01*
X67157042Y-115615912D01*
X67262377Y-115773558D01*
X67396441Y-115907622D01*
X67479141Y-115962880D01*
X67554085Y-116012956D01*
X67729249Y-116085512D01*
X67915197Y-116122499D01*
X67915201Y-116122500D01*
X67915202Y-116122500D01*
X68104799Y-116122500D01*
X68104800Y-116122499D01*
X68290751Y-116085512D01*
X68465915Y-116012956D01*
X68623558Y-115907622D01*
X68757622Y-115773558D01*
X68862956Y-115615915D01*
X68935512Y-115440751D01*
X68972500Y-115254798D01*
X68972500Y-115065202D01*
X68972499Y-115065197D01*
X82287500Y-115065197D01*
X82287500Y-115254802D01*
X82324486Y-115440743D01*
X82324488Y-115440751D01*
X82397042Y-115615912D01*
X82502377Y-115773558D01*
X82636441Y-115907622D01*
X82719141Y-115962880D01*
X82794085Y-116012956D01*
X82969249Y-116085512D01*
X83155197Y-116122499D01*
X83155201Y-116122500D01*
X83155202Y-116122500D01*
X83344799Y-116122500D01*
X83344800Y-116122499D01*
X83530751Y-116085512D01*
X83705915Y-116012956D01*
X83863558Y-115907622D01*
X83997622Y-115773558D01*
X84102956Y-115615915D01*
X84175512Y-115440751D01*
X84212500Y-115254798D01*
X84212500Y-115065202D01*
X84175512Y-114879249D01*
X84102956Y-114704085D01*
X84067686Y-114651300D01*
X83997622Y-114546441D01*
X83863558Y-114412377D01*
X83705915Y-114307044D01*
X83705909Y-114307041D01*
X83530751Y-114234488D01*
X83530743Y-114234486D01*
X83357436Y-114200013D01*
X93550000Y-114200013D01*
X93550000Y-115250000D01*
X94600000Y-115250000D01*
X95100000Y-115250000D01*
X96149999Y-115250000D01*
X96149999Y-114200028D01*
X96149998Y-114200013D01*
X96139505Y-114097302D01*
X96084358Y-113930880D01*
X96084356Y-113930875D01*
X95992315Y-113781654D01*
X95868345Y-113657684D01*
X95719124Y-113565643D01*
X95719119Y-113565641D01*
X95552697Y-113510494D01*
X95552690Y-113510493D01*
X95449986Y-113500000D01*
X95100000Y-113500000D01*
X95100000Y-115250000D01*
X94600000Y-115250000D01*
X94600000Y-113500000D01*
X94250028Y-113500000D01*
X94250012Y-113500001D01*
X94147302Y-113510494D01*
X93980880Y-113565641D01*
X93980875Y-113565643D01*
X93831654Y-113657684D01*
X93707684Y-113781654D01*
X93615643Y-113930875D01*
X93615641Y-113930880D01*
X93560494Y-114097302D01*
X93560493Y-114097309D01*
X93550000Y-114200013D01*
X83357436Y-114200013D01*
X83344802Y-114197500D01*
X83344798Y-114197500D01*
X83155202Y-114197500D01*
X83155197Y-114197500D01*
X82969256Y-114234486D01*
X82969248Y-114234488D01*
X82794087Y-114307042D01*
X82636441Y-114412377D01*
X82502377Y-114546441D01*
X82397042Y-114704087D01*
X82324488Y-114879248D01*
X82324486Y-114879256D01*
X82287500Y-115065197D01*
X68972499Y-115065197D01*
X68935512Y-114879249D01*
X68862956Y-114704085D01*
X68827686Y-114651300D01*
X68757622Y-114546441D01*
X68623558Y-114412377D01*
X68465912Y-114307042D01*
X68290751Y-114234488D01*
X68290743Y-114234486D01*
X68104802Y-114197500D01*
X68104798Y-114197500D01*
X67915202Y-114197500D01*
X67915197Y-114197500D01*
X67729256Y-114234486D01*
X67729248Y-114234488D01*
X67554087Y-114307042D01*
X67396441Y-114412377D01*
X67262377Y-114546441D01*
X67157042Y-114704087D01*
X67084488Y-114879248D01*
X67084486Y-114879256D01*
X67047500Y-115065197D01*
X62550500Y-115065197D01*
X62550500Y-112299986D01*
X62950001Y-112299986D01*
X62960494Y-112402697D01*
X63015641Y-112569119D01*
X63015643Y-112569124D01*
X63107684Y-112718345D01*
X63231654Y-112842315D01*
X63380875Y-112934356D01*
X63380880Y-112934358D01*
X63547302Y-112989505D01*
X63547309Y-112989506D01*
X63650019Y-112999999D01*
X63999999Y-112999999D01*
X64500000Y-112999999D01*
X64849972Y-112999999D01*
X64849986Y-112999998D01*
X64952697Y-112989505D01*
X65119119Y-112934358D01*
X65119124Y-112934356D01*
X65268345Y-112842315D01*
X65392315Y-112718345D01*
X65484356Y-112569124D01*
X65484358Y-112569119D01*
X65498913Y-112525197D01*
X67047500Y-112525197D01*
X67047500Y-112714802D01*
X67084486Y-112900743D01*
X67084488Y-112900751D01*
X67157042Y-113075912D01*
X67262377Y-113233558D01*
X67396441Y-113367622D01*
X67501300Y-113437686D01*
X67554085Y-113472956D01*
X67729249Y-113545512D01*
X67915197Y-113582499D01*
X67915201Y-113582500D01*
X67915202Y-113582500D01*
X68104799Y-113582500D01*
X68104800Y-113582499D01*
X68290751Y-113545512D01*
X68465915Y-113472956D01*
X68623558Y-113367622D01*
X68757622Y-113233558D01*
X68862956Y-113075915D01*
X68935512Y-112900751D01*
X68972500Y-112714798D01*
X68972500Y-112525202D01*
X68972499Y-112525197D01*
X82287500Y-112525197D01*
X82287500Y-112714802D01*
X82324486Y-112900743D01*
X82324488Y-112900751D01*
X82397042Y-113075912D01*
X82502377Y-113233558D01*
X82636441Y-113367622D01*
X82741300Y-113437686D01*
X82794085Y-113472956D01*
X82969249Y-113545512D01*
X83155197Y-113582499D01*
X83155201Y-113582500D01*
X83155202Y-113582500D01*
X83344799Y-113582500D01*
X83344800Y-113582499D01*
X83530751Y-113545512D01*
X83705915Y-113472956D01*
X83863558Y-113367622D01*
X83997622Y-113233558D01*
X84102956Y-113075915D01*
X84175512Y-112900751D01*
X84212500Y-112714798D01*
X84212500Y-112525202D01*
X84175512Y-112339249D01*
X84102956Y-112164085D01*
X84067686Y-112111300D01*
X83997622Y-112006441D01*
X83863558Y-111872377D01*
X83705912Y-111767042D01*
X83530751Y-111694488D01*
X83530743Y-111694486D01*
X83344802Y-111657500D01*
X83344798Y-111657500D01*
X83155202Y-111657500D01*
X83155197Y-111657500D01*
X82969256Y-111694486D01*
X82969248Y-111694488D01*
X82794087Y-111767042D01*
X82636441Y-111872377D01*
X82502377Y-112006441D01*
X82397042Y-112164087D01*
X82324488Y-112339248D01*
X82324486Y-112339256D01*
X82287500Y-112525197D01*
X68972499Y-112525197D01*
X68935512Y-112339249D01*
X68862956Y-112164085D01*
X68827686Y-112111300D01*
X68757622Y-112006441D01*
X68623558Y-111872377D01*
X68465912Y-111767042D01*
X68290751Y-111694488D01*
X68290743Y-111694486D01*
X68104802Y-111657500D01*
X68104798Y-111657500D01*
X67915202Y-111657500D01*
X67915197Y-111657500D01*
X67729256Y-111694486D01*
X67729248Y-111694488D01*
X67554087Y-111767042D01*
X67396441Y-111872377D01*
X67262377Y-112006441D01*
X67157042Y-112164087D01*
X67084488Y-112339248D01*
X67084486Y-112339256D01*
X67047500Y-112525197D01*
X65498913Y-112525197D01*
X65513855Y-112480106D01*
X65513855Y-112480105D01*
X65539504Y-112402700D01*
X65539506Y-112402690D01*
X65549999Y-112299986D01*
X65550000Y-112299973D01*
X65550000Y-111250000D01*
X64500000Y-111250000D01*
X64500000Y-112999999D01*
X63999999Y-112999999D01*
X64000000Y-112999998D01*
X64000000Y-111250000D01*
X62950001Y-111250000D01*
X62950001Y-112299986D01*
X62550500Y-112299986D01*
X62550500Y-110695730D01*
X62547646Y-110665300D01*
X62547646Y-110665298D01*
X62502793Y-110537119D01*
X62502792Y-110537117D01*
X62422150Y-110427850D01*
X62312882Y-110347207D01*
X62312880Y-110347206D01*
X62184700Y-110302353D01*
X62154270Y-110299500D01*
X62154266Y-110299500D01*
X61545734Y-110299500D01*
X61545730Y-110299500D01*
X61515300Y-110302353D01*
X61515298Y-110302353D01*
X61387119Y-110347206D01*
X61387117Y-110347207D01*
X61277850Y-110427850D01*
X61197207Y-110537117D01*
X61197206Y-110537119D01*
X61152353Y-110665298D01*
X61152353Y-110665300D01*
X61149500Y-110695730D01*
X60550500Y-110695730D01*
X60547646Y-110665300D01*
X60547646Y-110665298D01*
X60502793Y-110537119D01*
X60502792Y-110537117D01*
X60422150Y-110427850D01*
X60312882Y-110347207D01*
X60312880Y-110347206D01*
X60184700Y-110302353D01*
X60154270Y-110299500D01*
X60154266Y-110299500D01*
X59545734Y-110299500D01*
X59545730Y-110299500D01*
X59515300Y-110302353D01*
X59515298Y-110302353D01*
X59387119Y-110347206D01*
X59387117Y-110347207D01*
X59277850Y-110427850D01*
X59197207Y-110537117D01*
X59197206Y-110537119D01*
X59152353Y-110665298D01*
X59152353Y-110665300D01*
X59149500Y-110695730D01*
X58550500Y-110695730D01*
X58547646Y-110665300D01*
X58547646Y-110665298D01*
X58502793Y-110537119D01*
X58502792Y-110537117D01*
X58422150Y-110427850D01*
X58312882Y-110347207D01*
X58312880Y-110347206D01*
X58184700Y-110302353D01*
X58154270Y-110299500D01*
X58154266Y-110299500D01*
X57545734Y-110299500D01*
X57545730Y-110299500D01*
X57515300Y-110302353D01*
X57515298Y-110302353D01*
X57387119Y-110347206D01*
X57387117Y-110347207D01*
X57277850Y-110427850D01*
X57197207Y-110537117D01*
X57197206Y-110537119D01*
X57152353Y-110665298D01*
X57152353Y-110665300D01*
X57149500Y-110695730D01*
X56849561Y-110695730D01*
X56839505Y-110597302D01*
X56784358Y-110430880D01*
X56784356Y-110430875D01*
X56692315Y-110281654D01*
X56568345Y-110157684D01*
X56419124Y-110065643D01*
X56419119Y-110065641D01*
X56252697Y-110010494D01*
X56252690Y-110010493D01*
X56149986Y-110000000D01*
X56100000Y-110000000D01*
X56100000Y-113000000D01*
X55600000Y-113000000D01*
X55600000Y-110000000D01*
X55599999Y-109999999D01*
X55550029Y-110000000D01*
X55550011Y-110000001D01*
X55447302Y-110010494D01*
X55280880Y-110065641D01*
X55280875Y-110065643D01*
X55131654Y-110157684D01*
X55007682Y-110281656D01*
X54979537Y-110327287D01*
X54927589Y-110374011D01*
X54858626Y-110385232D01*
X54794544Y-110357388D01*
X54755689Y-110299319D01*
X54749999Y-110262189D01*
X54749999Y-109700029D01*
X54749998Y-109700013D01*
X62950000Y-109700013D01*
X62950000Y-110750000D01*
X64000000Y-110750000D01*
X64500000Y-110750000D01*
X65549999Y-110750000D01*
X65549999Y-109985197D01*
X67047500Y-109985197D01*
X67047500Y-110174802D01*
X67084486Y-110360743D01*
X67084488Y-110360751D01*
X67157042Y-110535912D01*
X67262377Y-110693558D01*
X67396441Y-110827622D01*
X67501300Y-110897686D01*
X67554085Y-110932956D01*
X67729249Y-111005512D01*
X67915197Y-111042499D01*
X67915201Y-111042500D01*
X67915202Y-111042500D01*
X68104799Y-111042500D01*
X68104800Y-111042499D01*
X68290751Y-111005512D01*
X68465915Y-110932956D01*
X68623558Y-110827622D01*
X68757622Y-110693558D01*
X68862956Y-110535915D01*
X68935512Y-110360751D01*
X68972500Y-110174798D01*
X68972500Y-109985202D01*
X68972499Y-109985197D01*
X82287500Y-109985197D01*
X82287500Y-110174802D01*
X82324486Y-110360743D01*
X82324488Y-110360751D01*
X82397042Y-110535912D01*
X82502377Y-110693558D01*
X82636441Y-110827622D01*
X82741300Y-110897686D01*
X82794085Y-110932956D01*
X82969249Y-111005512D01*
X83155197Y-111042499D01*
X83155201Y-111042500D01*
X83155202Y-111042500D01*
X83344799Y-111042500D01*
X83344800Y-111042499D01*
X83530751Y-111005512D01*
X83705915Y-110932956D01*
X83863558Y-110827622D01*
X83995450Y-110695730D01*
X96549500Y-110695730D01*
X96549500Y-115804269D01*
X96552353Y-115834699D01*
X96552353Y-115834701D01*
X96597206Y-115962880D01*
X96597207Y-115962882D01*
X96677850Y-116072150D01*
X96787118Y-116152793D01*
X96829845Y-116167744D01*
X96915299Y-116197646D01*
X96945730Y-116200500D01*
X96945734Y-116200500D01*
X97554270Y-116200500D01*
X97584699Y-116197646D01*
X97584701Y-116197646D01*
X97655948Y-116172715D01*
X97712882Y-116152793D01*
X97822150Y-116072150D01*
X97902793Y-115962882D01*
X97925219Y-115898790D01*
X97947646Y-115834701D01*
X97947646Y-115834699D01*
X97950500Y-115804269D01*
X97950500Y-115799986D01*
X98250001Y-115799986D01*
X98260494Y-115902697D01*
X98315641Y-116069119D01*
X98315643Y-116069124D01*
X98407684Y-116218345D01*
X98531654Y-116342315D01*
X98680875Y-116434356D01*
X98680880Y-116434358D01*
X98847302Y-116489505D01*
X98847309Y-116489506D01*
X98950019Y-116499999D01*
X99500000Y-116499999D01*
X99549972Y-116499999D01*
X99549986Y-116499998D01*
X99652697Y-116489505D01*
X99819119Y-116434358D01*
X99819124Y-116434356D01*
X99968345Y-116342315D01*
X100092316Y-116218344D01*
X100120460Y-116172715D01*
X100172408Y-116125989D01*
X100241370Y-116114766D01*
X100305453Y-116142609D01*
X100344310Y-116200677D01*
X100350000Y-116237810D01*
X100350000Y-116799971D01*
X100350001Y-116799987D01*
X100360494Y-116902697D01*
X100415641Y-117069119D01*
X100415643Y-117069124D01*
X100507684Y-117218345D01*
X100631654Y-117342315D01*
X100780875Y-117434356D01*
X100780880Y-117434358D01*
X100947302Y-117489505D01*
X100947309Y-117489506D01*
X101050019Y-117499999D01*
X101399999Y-117499999D01*
X101900000Y-117499999D01*
X102249972Y-117499999D01*
X102249986Y-117499998D01*
X102352697Y-117489505D01*
X102519119Y-117434358D01*
X102519124Y-117434356D01*
X102668345Y-117342315D01*
X102792315Y-117218345D01*
X102884356Y-117069124D01*
X102884358Y-117069119D01*
X102939505Y-116902697D01*
X102939506Y-116902690D01*
X102949999Y-116799986D01*
X102950000Y-116799973D01*
X102950000Y-115750000D01*
X101900000Y-115750000D01*
X101900000Y-117499999D01*
X101399999Y-117499999D01*
X101400000Y-117499998D01*
X101400000Y-115250000D01*
X101900000Y-115250000D01*
X102949999Y-115250000D01*
X102949999Y-114200028D01*
X102949998Y-114200013D01*
X102939505Y-114097302D01*
X102884358Y-113930880D01*
X102884356Y-113930875D01*
X102792315Y-113781654D01*
X102668345Y-113657684D01*
X102519124Y-113565643D01*
X102519119Y-113565641D01*
X102352697Y-113510494D01*
X102352690Y-113510493D01*
X102249986Y-113500000D01*
X101900000Y-113500000D01*
X101900000Y-115250000D01*
X101400000Y-115250000D01*
X101400000Y-113500000D01*
X101050028Y-113500000D01*
X101050012Y-113500001D01*
X100947302Y-113510494D01*
X100780880Y-113565641D01*
X100780875Y-113565643D01*
X100631654Y-113657684D01*
X100507683Y-113781655D01*
X100507680Y-113781659D01*
X100479538Y-113827285D01*
X100427590Y-113874010D01*
X100358628Y-113885231D01*
X100294546Y-113857388D01*
X100255690Y-113799319D01*
X100250000Y-113762188D01*
X100250000Y-113500000D01*
X99500000Y-113500000D01*
X99500000Y-116499999D01*
X98950019Y-116499999D01*
X98999999Y-116499998D01*
X99000000Y-116499998D01*
X99000000Y-113500000D01*
X98250001Y-113500000D01*
X98250001Y-115799986D01*
X97950500Y-115799986D01*
X97950500Y-110700013D01*
X98250000Y-110700013D01*
X98250000Y-113000000D01*
X99000000Y-113000000D01*
X99500000Y-113000000D01*
X100249999Y-113000000D01*
X100249999Y-110700028D01*
X100249998Y-110700013D01*
X100239505Y-110597302D01*
X100184358Y-110430880D01*
X100184356Y-110430875D01*
X100092315Y-110281654D01*
X99968345Y-110157684D01*
X99819124Y-110065643D01*
X99819119Y-110065641D01*
X99652697Y-110010494D01*
X99652690Y-110010493D01*
X99549986Y-110000000D01*
X99500000Y-110000000D01*
X99500000Y-113000000D01*
X99000000Y-113000000D01*
X99000000Y-110000000D01*
X98999999Y-109999999D01*
X98950029Y-110000000D01*
X98950011Y-110000001D01*
X98847302Y-110010494D01*
X98680880Y-110065641D01*
X98680875Y-110065643D01*
X98531654Y-110157684D01*
X98407684Y-110281654D01*
X98315643Y-110430875D01*
X98315641Y-110430880D01*
X98260494Y-110597302D01*
X98260493Y-110597309D01*
X98250000Y-110700013D01*
X97950500Y-110700013D01*
X97950500Y-110695730D01*
X97947646Y-110665300D01*
X97947646Y-110665298D01*
X97902793Y-110537119D01*
X97902792Y-110537117D01*
X97822150Y-110427850D01*
X97712882Y-110347207D01*
X97712880Y-110347206D01*
X97584700Y-110302353D01*
X97554270Y-110299500D01*
X97554266Y-110299500D01*
X96945734Y-110299500D01*
X96945730Y-110299500D01*
X96915300Y-110302353D01*
X96915298Y-110302353D01*
X96787119Y-110347206D01*
X96787117Y-110347207D01*
X96677850Y-110427850D01*
X96597207Y-110537117D01*
X96597206Y-110537119D01*
X96552353Y-110665298D01*
X96552353Y-110665300D01*
X96549500Y-110695730D01*
X83995450Y-110695730D01*
X83997622Y-110693558D01*
X84102956Y-110535915D01*
X84175512Y-110360751D01*
X84212500Y-110174798D01*
X84212500Y-109985202D01*
X84175512Y-109799249D01*
X84102956Y-109624085D01*
X84067686Y-109571300D01*
X83997622Y-109466441D01*
X83863558Y-109332377D01*
X83705912Y-109227042D01*
X83530751Y-109154488D01*
X83530743Y-109154486D01*
X83344802Y-109117500D01*
X83344798Y-109117500D01*
X83155202Y-109117500D01*
X83155197Y-109117500D01*
X82969256Y-109154486D01*
X82969248Y-109154488D01*
X82794087Y-109227042D01*
X82636441Y-109332377D01*
X82502377Y-109466441D01*
X82397042Y-109624087D01*
X82324488Y-109799248D01*
X82324486Y-109799256D01*
X82287500Y-109985197D01*
X68972499Y-109985197D01*
X68935512Y-109799249D01*
X68862956Y-109624085D01*
X68827686Y-109571300D01*
X68757622Y-109466441D01*
X68623558Y-109332377D01*
X68465912Y-109227042D01*
X68290751Y-109154488D01*
X68290743Y-109154486D01*
X68104802Y-109117500D01*
X68104798Y-109117500D01*
X67915202Y-109117500D01*
X67915197Y-109117500D01*
X67729256Y-109154486D01*
X67729248Y-109154488D01*
X67554087Y-109227042D01*
X67396441Y-109332377D01*
X67262377Y-109466441D01*
X67157042Y-109624087D01*
X67084488Y-109799248D01*
X67084486Y-109799256D01*
X67047500Y-109985197D01*
X65549999Y-109985197D01*
X65549999Y-109700028D01*
X65549998Y-109700013D01*
X65539505Y-109597302D01*
X65484358Y-109430880D01*
X65484356Y-109430875D01*
X65392315Y-109281654D01*
X65268345Y-109157684D01*
X65119124Y-109065643D01*
X65119119Y-109065641D01*
X64952697Y-109010494D01*
X64952690Y-109010493D01*
X64849986Y-109000000D01*
X64500000Y-109000000D01*
X64500000Y-110750000D01*
X64000000Y-110750000D01*
X64000000Y-109000000D01*
X63650028Y-109000000D01*
X63650012Y-109000001D01*
X63547302Y-109010494D01*
X63380880Y-109065641D01*
X63380875Y-109065643D01*
X63231654Y-109157684D01*
X63107684Y-109281654D01*
X63015643Y-109430875D01*
X63015641Y-109430880D01*
X62960494Y-109597302D01*
X62960493Y-109597309D01*
X62950000Y-109700013D01*
X54749998Y-109700013D01*
X54749998Y-109700012D01*
X54739505Y-109597302D01*
X54684358Y-109430880D01*
X54684356Y-109430875D01*
X54592315Y-109281654D01*
X54468345Y-109157684D01*
X54319124Y-109065643D01*
X54319119Y-109065641D01*
X54152697Y-109010494D01*
X54152690Y-109010493D01*
X54049986Y-109000000D01*
X53700000Y-109000000D01*
X53700000Y-112999999D01*
X53199999Y-112999999D01*
X53200000Y-112999998D01*
X53200000Y-111250000D01*
X52150001Y-111250000D01*
X52150001Y-112299986D01*
X51000000Y-112299986D01*
X51000000Y-109700013D01*
X52150000Y-109700013D01*
X52150000Y-110750000D01*
X53200000Y-110750000D01*
X53200000Y-109000000D01*
X52850028Y-109000000D01*
X52850012Y-109000001D01*
X52747302Y-109010494D01*
X52580880Y-109065641D01*
X52580875Y-109065643D01*
X52431654Y-109157684D01*
X52307684Y-109281654D01*
X52215643Y-109430875D01*
X52215641Y-109430880D01*
X52160494Y-109597302D01*
X52160493Y-109597309D01*
X52150000Y-109700013D01*
X51000000Y-109700013D01*
X51000000Y-107445197D01*
X67047500Y-107445197D01*
X67047500Y-107634802D01*
X67084486Y-107820743D01*
X67084488Y-107820751D01*
X67157042Y-107995912D01*
X67262377Y-108153558D01*
X67396441Y-108287622D01*
X67477279Y-108341636D01*
X67554085Y-108392956D01*
X67729249Y-108465512D01*
X67853104Y-108490148D01*
X67915197Y-108502499D01*
X67915201Y-108502500D01*
X67915202Y-108502500D01*
X68104799Y-108502500D01*
X68104800Y-108502499D01*
X68290751Y-108465512D01*
X68465915Y-108392956D01*
X68623558Y-108287622D01*
X68757622Y-108153558D01*
X68862956Y-107995915D01*
X68935512Y-107820751D01*
X68972500Y-107634798D01*
X68972500Y-107445202D01*
X68972499Y-107445197D01*
X82287500Y-107445197D01*
X82287500Y-107634802D01*
X82324486Y-107820743D01*
X82324488Y-107820751D01*
X82397042Y-107995912D01*
X82502377Y-108153558D01*
X82636441Y-108287622D01*
X82717279Y-108341636D01*
X82794085Y-108392956D01*
X82969249Y-108465512D01*
X83093104Y-108490148D01*
X83155197Y-108502499D01*
X83155201Y-108502500D01*
X83155202Y-108502500D01*
X83344799Y-108502500D01*
X83344800Y-108502499D01*
X83530751Y-108465512D01*
X83705915Y-108392956D01*
X83863558Y-108287622D01*
X83997622Y-108153558D01*
X84102956Y-107995915D01*
X84175512Y-107820751D01*
X84212500Y-107634798D01*
X84212500Y-107445202D01*
X84175512Y-107259249D01*
X84124412Y-107135883D01*
X97050000Y-107135883D01*
X97050000Y-107364116D01*
X97085704Y-107589544D01*
X97156230Y-107806604D01*
X97259851Y-108009969D01*
X97313135Y-108083309D01*
X97313137Y-108083309D01*
X97935387Y-107461058D01*
X97940889Y-107481591D01*
X98019881Y-107618408D01*
X98131592Y-107730119D01*
X98268409Y-107809111D01*
X98288939Y-107814612D01*
X97666688Y-108436862D01*
X97666689Y-108436863D01*
X97740030Y-108490148D01*
X97943395Y-108593769D01*
X98160455Y-108664295D01*
X98385884Y-108700000D01*
X98614116Y-108700000D01*
X98839544Y-108664295D01*
X99056604Y-108593769D01*
X99259966Y-108490150D01*
X99333309Y-108436862D01*
X99333310Y-108436862D01*
X98711059Y-107814612D01*
X98731591Y-107809111D01*
X98868408Y-107730119D01*
X98980119Y-107618408D01*
X99059111Y-107481591D01*
X99064612Y-107461059D01*
X99686862Y-108083310D01*
X99686862Y-108083309D01*
X99740150Y-108009966D01*
X99843769Y-107806604D01*
X99914295Y-107589544D01*
X99916770Y-107573920D01*
X101749499Y-107573920D01*
X101778340Y-107718907D01*
X101778343Y-107718917D01*
X101834912Y-107855488D01*
X101834919Y-107855501D01*
X101917048Y-107978415D01*
X101917051Y-107978419D01*
X102021580Y-108082948D01*
X102021584Y-108082951D01*
X102144498Y-108165080D01*
X102144511Y-108165087D01*
X102281082Y-108221656D01*
X102281087Y-108221658D01*
X102281091Y-108221658D01*
X102281092Y-108221659D01*
X102426079Y-108250500D01*
X102426082Y-108250500D01*
X102573920Y-108250500D01*
X102671462Y-108231096D01*
X102718913Y-108221658D01*
X102855495Y-108165084D01*
X102978416Y-108082951D01*
X103082951Y-107978416D01*
X103165084Y-107855495D01*
X103184157Y-107809448D01*
X104849500Y-107809448D01*
X104849500Y-107990551D01*
X104877829Y-108169410D01*
X104933787Y-108341636D01*
X104933788Y-108341639D01*
X104982308Y-108436862D01*
X105015752Y-108502500D01*
X105016006Y-108502997D01*
X105122441Y-108649494D01*
X105122445Y-108649499D01*
X105250500Y-108777554D01*
X105250505Y-108777558D01*
X105378287Y-108870396D01*
X105397006Y-108883996D01*
X105502484Y-108937740D01*
X105558360Y-108966211D01*
X105558363Y-108966212D01*
X105644476Y-108994191D01*
X105730591Y-109022171D01*
X105813429Y-109035291D01*
X105909449Y-109050500D01*
X105909454Y-109050500D01*
X106090551Y-109050500D01*
X106177259Y-109036765D01*
X106269409Y-109022171D01*
X106441639Y-108966211D01*
X106602994Y-108883996D01*
X106749501Y-108777553D01*
X106877553Y-108649501D01*
X106983996Y-108502994D01*
X107066211Y-108341639D01*
X107122171Y-108169409D01*
X107147424Y-108009969D01*
X107150500Y-107990551D01*
X107150500Y-107809448D01*
X107134019Y-107705397D01*
X107122171Y-107630591D01*
X107066211Y-107458361D01*
X107066211Y-107458360D01*
X107000293Y-107328991D01*
X106983996Y-107297006D01*
X106897871Y-107178464D01*
X106877558Y-107150505D01*
X106877554Y-107150500D01*
X106749499Y-107022445D01*
X106749494Y-107022441D01*
X106602997Y-106916006D01*
X106602996Y-106916005D01*
X106602994Y-106916004D01*
X106535457Y-106881592D01*
X106441639Y-106833788D01*
X106441636Y-106833787D01*
X106269410Y-106777829D01*
X106090551Y-106749500D01*
X106090546Y-106749500D01*
X105909454Y-106749500D01*
X105909449Y-106749500D01*
X105730589Y-106777829D01*
X105558363Y-106833787D01*
X105558360Y-106833788D01*
X105397002Y-106916006D01*
X105250505Y-107022441D01*
X105250500Y-107022445D01*
X105122445Y-107150500D01*
X105122441Y-107150505D01*
X105016006Y-107297002D01*
X104933788Y-107458360D01*
X104933787Y-107458363D01*
X104877829Y-107630589D01*
X104849500Y-107809448D01*
X103184157Y-107809448D01*
X103221658Y-107718913D01*
X103250500Y-107573918D01*
X103250500Y-107426082D01*
X103250500Y-107426079D01*
X103221659Y-107281092D01*
X103221658Y-107281091D01*
X103221658Y-107281087D01*
X103212615Y-107259256D01*
X103165087Y-107144511D01*
X103165080Y-107144498D01*
X103082951Y-107021584D01*
X103082948Y-107021580D01*
X102978419Y-106917051D01*
X102978415Y-106917048D01*
X102855501Y-106834919D01*
X102855488Y-106834912D01*
X102718917Y-106778343D01*
X102718907Y-106778340D01*
X102573920Y-106749500D01*
X102573918Y-106749500D01*
X102426082Y-106749500D01*
X102426080Y-106749500D01*
X102281092Y-106778340D01*
X102281082Y-106778343D01*
X102144511Y-106834912D01*
X102144498Y-106834919D01*
X102021584Y-106917048D01*
X102021580Y-106917051D01*
X101917051Y-107021580D01*
X101917048Y-107021584D01*
X101834919Y-107144498D01*
X101834912Y-107144511D01*
X101778343Y-107281082D01*
X101778340Y-107281092D01*
X101749500Y-107426079D01*
X101749500Y-107426082D01*
X101749500Y-107573918D01*
X101749500Y-107573920D01*
X101749499Y-107573920D01*
X99916770Y-107573920D01*
X99944223Y-107400592D01*
X99944223Y-107400591D01*
X99950000Y-107364117D01*
X99950000Y-107135883D01*
X99914295Y-106910455D01*
X99843769Y-106693395D01*
X99740148Y-106490030D01*
X99686863Y-106416689D01*
X99686862Y-106416688D01*
X99064612Y-107038939D01*
X99059111Y-107018409D01*
X98980119Y-106881592D01*
X98868408Y-106769881D01*
X98731591Y-106690889D01*
X98711058Y-106685387D01*
X99333309Y-106063137D01*
X99333309Y-106063135D01*
X99259969Y-106009851D01*
X99056604Y-105906230D01*
X98839544Y-105835704D01*
X98614116Y-105800000D01*
X98385884Y-105800000D01*
X98160455Y-105835704D01*
X97943395Y-105906230D01*
X97740035Y-106009848D01*
X97740033Y-106009849D01*
X97666689Y-106063135D01*
X97666689Y-106063136D01*
X98288941Y-106685387D01*
X98268409Y-106690889D01*
X98131592Y-106769881D01*
X98019881Y-106881592D01*
X97940889Y-107018409D01*
X97935387Y-107038940D01*
X97313136Y-106416689D01*
X97313135Y-106416689D01*
X97259849Y-106490033D01*
X97259848Y-106490035D01*
X97156230Y-106693395D01*
X97085704Y-106910455D01*
X97050000Y-107135883D01*
X84124412Y-107135883D01*
X84102956Y-107084085D01*
X84059073Y-107018409D01*
X83997622Y-106926441D01*
X83863558Y-106792377D01*
X83705912Y-106687042D01*
X83530751Y-106614488D01*
X83530743Y-106614486D01*
X83344802Y-106577500D01*
X83344798Y-106577500D01*
X83155202Y-106577500D01*
X83155197Y-106577500D01*
X82969256Y-106614486D01*
X82969248Y-106614488D01*
X82794087Y-106687042D01*
X82636441Y-106792377D01*
X82502377Y-106926441D01*
X82397042Y-107084087D01*
X82324488Y-107259248D01*
X82324486Y-107259256D01*
X82287500Y-107445197D01*
X68972499Y-107445197D01*
X68935512Y-107259249D01*
X68862956Y-107084085D01*
X68819073Y-107018409D01*
X68757622Y-106926441D01*
X68623558Y-106792377D01*
X68465912Y-106687042D01*
X68290751Y-106614488D01*
X68290743Y-106614486D01*
X68104802Y-106577500D01*
X68104798Y-106577500D01*
X67915202Y-106577500D01*
X67915197Y-106577500D01*
X67729256Y-106614486D01*
X67729248Y-106614488D01*
X67554087Y-106687042D01*
X67396441Y-106792377D01*
X67262377Y-106926441D01*
X67157042Y-107084087D01*
X67084488Y-107259248D01*
X67084486Y-107259256D01*
X67047500Y-107445197D01*
X51000000Y-107445197D01*
X51000000Y-104905197D01*
X67047500Y-104905197D01*
X67047500Y-105094802D01*
X67084486Y-105280743D01*
X67084488Y-105280751D01*
X67157042Y-105455912D01*
X67262377Y-105613558D01*
X67396441Y-105747622D01*
X67474831Y-105800000D01*
X67554085Y-105852956D01*
X67729249Y-105925512D01*
X67915197Y-105962499D01*
X67915201Y-105962500D01*
X67915202Y-105962500D01*
X68104799Y-105962500D01*
X68104800Y-105962499D01*
X68290751Y-105925512D01*
X68465915Y-105852956D01*
X68623558Y-105747622D01*
X68757622Y-105613558D01*
X68862956Y-105455915D01*
X68935512Y-105280751D01*
X68972500Y-105094798D01*
X68972500Y-104905202D01*
X68972499Y-104905197D01*
X82287500Y-104905197D01*
X82287500Y-105094802D01*
X82324486Y-105280743D01*
X82324488Y-105280751D01*
X82397042Y-105455912D01*
X82502377Y-105613558D01*
X82636441Y-105747622D01*
X82714831Y-105800000D01*
X82794085Y-105852956D01*
X82969249Y-105925512D01*
X83155197Y-105962499D01*
X83155201Y-105962500D01*
X83155202Y-105962500D01*
X83344799Y-105962500D01*
X83344800Y-105962499D01*
X83530751Y-105925512D01*
X83705915Y-105852956D01*
X83863558Y-105747622D01*
X83997622Y-105613558D01*
X84102956Y-105455915D01*
X84175512Y-105280751D01*
X84212500Y-105094798D01*
X84212500Y-104905202D01*
X84175512Y-104719249D01*
X84102956Y-104544085D01*
X84067686Y-104491300D01*
X83997622Y-104386441D01*
X83863558Y-104252377D01*
X83705912Y-104147042D01*
X83530751Y-104074488D01*
X83530743Y-104074486D01*
X83344802Y-104037500D01*
X83344798Y-104037500D01*
X83155202Y-104037500D01*
X83155197Y-104037500D01*
X82969256Y-104074486D01*
X82969248Y-104074488D01*
X82794087Y-104147042D01*
X82636441Y-104252377D01*
X82502377Y-104386441D01*
X82397042Y-104544087D01*
X82324488Y-104719248D01*
X82324486Y-104719256D01*
X82287500Y-104905197D01*
X68972499Y-104905197D01*
X68935512Y-104719249D01*
X68862956Y-104544085D01*
X68827686Y-104491300D01*
X68757622Y-104386441D01*
X68623558Y-104252377D01*
X68465912Y-104147042D01*
X68290751Y-104074488D01*
X68290743Y-104074486D01*
X68104802Y-104037500D01*
X68104798Y-104037500D01*
X67915202Y-104037500D01*
X67915197Y-104037500D01*
X67729256Y-104074486D01*
X67729248Y-104074488D01*
X67554087Y-104147042D01*
X67396441Y-104252377D01*
X67262377Y-104386441D01*
X67157042Y-104544087D01*
X67084488Y-104719248D01*
X67084486Y-104719256D01*
X67047500Y-104905197D01*
X51000000Y-104905197D01*
X51000000Y-94934108D01*
X51749500Y-94934108D01*
X51749500Y-95065891D01*
X51783608Y-95193187D01*
X51798248Y-95218543D01*
X51849500Y-95307314D01*
X51942686Y-95400500D01*
X52035342Y-95453995D01*
X52051425Y-95463281D01*
X52056814Y-95466392D01*
X52184108Y-95500500D01*
X52184110Y-95500500D01*
X52315890Y-95500500D01*
X52315892Y-95500500D01*
X52443186Y-95466392D01*
X52443194Y-95466387D01*
X52450696Y-95463281D01*
X52451249Y-95464618D01*
X52503937Y-95450500D01*
X57405538Y-95450500D01*
X57421026Y-95454649D01*
X57434771Y-95453995D01*
X57467537Y-95467112D01*
X57473385Y-95470488D01*
X57473386Y-95470489D01*
X57525367Y-95500500D01*
X57525368Y-95500501D01*
X57576108Y-95529796D01*
X57576109Y-95529797D01*
X57576111Y-95529797D01*
X57576114Y-95529799D01*
X57690691Y-95560500D01*
X57996063Y-95560500D01*
X58048750Y-95574618D01*
X58049304Y-95573281D01*
X58056807Y-95576388D01*
X58056814Y-95576392D01*
X58184108Y-95610500D01*
X58184110Y-95610500D01*
X58315890Y-95610500D01*
X58315892Y-95610500D01*
X58443186Y-95576392D01*
X58557128Y-95510607D01*
X58625025Y-95494135D01*
X58691052Y-95516987D01*
X58733687Y-95570543D01*
X58743364Y-95593907D01*
X58743371Y-95593920D01*
X58852860Y-95757781D01*
X58852863Y-95757785D01*
X58992214Y-95897136D01*
X58992218Y-95897139D01*
X59156079Y-96006628D01*
X59156092Y-96006635D01*
X59315814Y-96072793D01*
X59338165Y-96082051D01*
X59338169Y-96082051D01*
X59338170Y-96082052D01*
X59531456Y-96120500D01*
X59531459Y-96120500D01*
X59728543Y-96120500D01*
X59858582Y-96094632D01*
X59921835Y-96082051D01*
X60103914Y-96006632D01*
X60267782Y-95897139D01*
X60407139Y-95757782D01*
X60516632Y-95593914D01*
X60592051Y-95411835D01*
X60630500Y-95218541D01*
X60630500Y-95021459D01*
X60630500Y-95021456D01*
X60592052Y-94828170D01*
X60592051Y-94828169D01*
X60592051Y-94828165D01*
X60551301Y-94729785D01*
X60516635Y-94646092D01*
X60516625Y-94646074D01*
X60473630Y-94581727D01*
X60473629Y-94581726D01*
X60429531Y-94515730D01*
X66249500Y-94515730D01*
X66249500Y-95724269D01*
X66252353Y-95754699D01*
X66252353Y-95754701D01*
X66297206Y-95882880D01*
X66297207Y-95882882D01*
X66377850Y-95992150D01*
X66487118Y-96072793D01*
X66513576Y-96082051D01*
X66615299Y-96117646D01*
X66645730Y-96120500D01*
X66645734Y-96120500D01*
X67854270Y-96120500D01*
X67884699Y-96117646D01*
X67884701Y-96117646D01*
X67948790Y-96095219D01*
X68012882Y-96072793D01*
X68122150Y-95992150D01*
X68202793Y-95882882D01*
X68225219Y-95818790D01*
X68247646Y-95754701D01*
X68247646Y-95754699D01*
X68250500Y-95724269D01*
X68250500Y-94934108D01*
X68999500Y-94934108D01*
X68999500Y-95065891D01*
X69033608Y-95193187D01*
X69048248Y-95218543D01*
X69099500Y-95307314D01*
X69099502Y-95307316D01*
X69113181Y-95320995D01*
X69146666Y-95382318D01*
X69149500Y-95408676D01*
X69149500Y-99349824D01*
X69129815Y-99416863D01*
X69113181Y-99437505D01*
X69099502Y-99451183D01*
X69099500Y-99451186D01*
X69033608Y-99565312D01*
X68999500Y-99692608D01*
X68999500Y-99824391D01*
X69033608Y-99951687D01*
X69066554Y-100008750D01*
X69099500Y-100065814D01*
X69192686Y-100159000D01*
X69306814Y-100224892D01*
X69434108Y-100259000D01*
X69434110Y-100259000D01*
X69565890Y-100259000D01*
X69565892Y-100259000D01*
X69693186Y-100224892D01*
X69807314Y-100159000D01*
X69900500Y-100065814D01*
X69966392Y-99951686D01*
X70000500Y-99824392D01*
X70000500Y-99692608D01*
X69966392Y-99565314D01*
X69900500Y-99451186D01*
X69886819Y-99437505D01*
X69853334Y-99376182D01*
X69850500Y-99349824D01*
X69850500Y-95408676D01*
X69870185Y-95341637D01*
X69886819Y-95320995D01*
X69900500Y-95307314D01*
X69966392Y-95193186D01*
X70000500Y-95065892D01*
X70000500Y-94934108D01*
X70499500Y-94934108D01*
X70499500Y-95065891D01*
X70533608Y-95193187D01*
X70548248Y-95218543D01*
X70599500Y-95307314D01*
X70599502Y-95307316D01*
X70613181Y-95320995D01*
X70646666Y-95382318D01*
X70649500Y-95408676D01*
X70649500Y-100891324D01*
X70629815Y-100958363D01*
X70613181Y-100979005D01*
X70599502Y-100992683D01*
X70599500Y-100992686D01*
X70533608Y-101106812D01*
X70499500Y-101234108D01*
X70499500Y-101365891D01*
X70533608Y-101493187D01*
X70535811Y-101497002D01*
X70599500Y-101607314D01*
X70692686Y-101700500D01*
X70806814Y-101766392D01*
X70934108Y-101800500D01*
X70934110Y-101800500D01*
X71065890Y-101800500D01*
X71065892Y-101800500D01*
X71141478Y-101780247D01*
X97349500Y-101780247D01*
X97349500Y-103719752D01*
X97361131Y-103778229D01*
X97361132Y-103778230D01*
X97405447Y-103844552D01*
X97471769Y-103888867D01*
X97471770Y-103888868D01*
X97530247Y-103900499D01*
X97530250Y-103900500D01*
X97530252Y-103900500D01*
X99469750Y-103900500D01*
X99469751Y-103900499D01*
X99484568Y-103897552D01*
X99528229Y-103888868D01*
X99528229Y-103888867D01*
X99528231Y-103888867D01*
X99594552Y-103844552D01*
X99638867Y-103778231D01*
X99638867Y-103778229D01*
X99638868Y-103778229D01*
X99650499Y-103719752D01*
X99650500Y-103719750D01*
X99650500Y-102573920D01*
X101749499Y-102573920D01*
X101778340Y-102718907D01*
X101778343Y-102718917D01*
X101834912Y-102855488D01*
X101834919Y-102855501D01*
X101917048Y-102978415D01*
X101917051Y-102978419D01*
X102021580Y-103082948D01*
X102021584Y-103082951D01*
X102144498Y-103165080D01*
X102144511Y-103165087D01*
X102281082Y-103221656D01*
X102281087Y-103221658D01*
X102281091Y-103221658D01*
X102281092Y-103221659D01*
X102426079Y-103250500D01*
X102426082Y-103250500D01*
X102573920Y-103250500D01*
X102671462Y-103231096D01*
X102718913Y-103221658D01*
X102855495Y-103165084D01*
X102978416Y-103082951D01*
X103082951Y-102978416D01*
X103165084Y-102855495D01*
X103221658Y-102718913D01*
X103250500Y-102573918D01*
X103250500Y-102426082D01*
X103250500Y-102426079D01*
X103221659Y-102281092D01*
X103221658Y-102281091D01*
X103221658Y-102281087D01*
X103184155Y-102190546D01*
X103165087Y-102144511D01*
X103165077Y-102144493D01*
X103117624Y-102073474D01*
X103117623Y-102073473D01*
X103082951Y-102021584D01*
X103082948Y-102021580D01*
X103070816Y-102009448D01*
X104849500Y-102009448D01*
X104849500Y-102190551D01*
X104877829Y-102369410D01*
X104933787Y-102541636D01*
X104933788Y-102541639D01*
X105016006Y-102702997D01*
X105122441Y-102849494D01*
X105122445Y-102849499D01*
X105250500Y-102977554D01*
X105250505Y-102977558D01*
X105378287Y-103070396D01*
X105397006Y-103083996D01*
X105502484Y-103137740D01*
X105558360Y-103166211D01*
X105558363Y-103166212D01*
X105644476Y-103194191D01*
X105730591Y-103222171D01*
X105813429Y-103235291D01*
X105909449Y-103250500D01*
X105909454Y-103250500D01*
X106090551Y-103250500D01*
X106177259Y-103236765D01*
X106269409Y-103222171D01*
X106441639Y-103166211D01*
X106602994Y-103083996D01*
X106749501Y-102977553D01*
X106877553Y-102849501D01*
X106983996Y-102702994D01*
X107066211Y-102541639D01*
X107122171Y-102369409D01*
X107136765Y-102277259D01*
X107150500Y-102190551D01*
X107150500Y-102009448D01*
X107122856Y-101834919D01*
X107122171Y-101830591D01*
X107094191Y-101744476D01*
X107066212Y-101658363D01*
X107066211Y-101658360D01*
X107036220Y-101599500D01*
X106983996Y-101497006D01*
X106888736Y-101365891D01*
X106877558Y-101350505D01*
X106877554Y-101350500D01*
X106749499Y-101222445D01*
X106749494Y-101222441D01*
X106602997Y-101116006D01*
X106602996Y-101116005D01*
X106602994Y-101116004D01*
X106551300Y-101089664D01*
X106441639Y-101033788D01*
X106441636Y-101033787D01*
X106269410Y-100977829D01*
X106090551Y-100949500D01*
X106090546Y-100949500D01*
X105909454Y-100949500D01*
X105909449Y-100949500D01*
X105730589Y-100977829D01*
X105558363Y-101033787D01*
X105558360Y-101033788D01*
X105397002Y-101116006D01*
X105250505Y-101222441D01*
X105250500Y-101222445D01*
X105122445Y-101350500D01*
X105122441Y-101350505D01*
X105016006Y-101497002D01*
X104933788Y-101658360D01*
X104933787Y-101658363D01*
X104877829Y-101830589D01*
X104849500Y-102009448D01*
X103070816Y-102009448D01*
X102978419Y-101917051D01*
X102978415Y-101917048D01*
X102855501Y-101834919D01*
X102855488Y-101834912D01*
X102718917Y-101778343D01*
X102718907Y-101778340D01*
X102573920Y-101749500D01*
X102573918Y-101749500D01*
X102426082Y-101749500D01*
X102426080Y-101749500D01*
X102281092Y-101778340D01*
X102281082Y-101778343D01*
X102144511Y-101834912D01*
X102144498Y-101834919D01*
X102021584Y-101917048D01*
X102021580Y-101917051D01*
X101917051Y-102021580D01*
X101917048Y-102021584D01*
X101834919Y-102144498D01*
X101834912Y-102144511D01*
X101778343Y-102281082D01*
X101778340Y-102281092D01*
X101749500Y-102426079D01*
X101749500Y-102426082D01*
X101749500Y-102573918D01*
X101749500Y-102573920D01*
X101749499Y-102573920D01*
X99650500Y-102573920D01*
X99650500Y-101780249D01*
X99650499Y-101780247D01*
X99638868Y-101721770D01*
X99638867Y-101721769D01*
X99594552Y-101655447D01*
X99528230Y-101611132D01*
X99528229Y-101611131D01*
X99469752Y-101599500D01*
X99469748Y-101599500D01*
X97530252Y-101599500D01*
X97530247Y-101599500D01*
X97471770Y-101611131D01*
X97471769Y-101611132D01*
X97405447Y-101655447D01*
X97361132Y-101721769D01*
X97361131Y-101721770D01*
X97349500Y-101780247D01*
X71141478Y-101780247D01*
X71193186Y-101766392D01*
X71307314Y-101700500D01*
X71400500Y-101607314D01*
X71466392Y-101493186D01*
X71500500Y-101365892D01*
X71500500Y-101234108D01*
X71466392Y-101106814D01*
X71400500Y-100992686D01*
X71386819Y-100979005D01*
X71353334Y-100917682D01*
X71350500Y-100891324D01*
X71350500Y-95408676D01*
X71370185Y-95341637D01*
X71386819Y-95320995D01*
X71400500Y-95307314D01*
X71466392Y-95193186D01*
X71500500Y-95065892D01*
X71500500Y-94934108D01*
X71466392Y-94806814D01*
X71400500Y-94692686D01*
X71307314Y-94599500D01*
X71220712Y-94549500D01*
X71193187Y-94533608D01*
X71126464Y-94515730D01*
X71065892Y-94499500D01*
X70934108Y-94499500D01*
X70806812Y-94533608D01*
X70692686Y-94599500D01*
X70692683Y-94599502D01*
X70599502Y-94692683D01*
X70599500Y-94692686D01*
X70533608Y-94806812D01*
X70499500Y-94934108D01*
X70000500Y-94934108D01*
X69966392Y-94806814D01*
X69900500Y-94692686D01*
X69807314Y-94599500D01*
X69720712Y-94549500D01*
X69693187Y-94533608D01*
X69626464Y-94515730D01*
X69565892Y-94499500D01*
X69434108Y-94499500D01*
X69306812Y-94533608D01*
X69192686Y-94599500D01*
X69192683Y-94599502D01*
X69099502Y-94692683D01*
X69099500Y-94692686D01*
X69033608Y-94806812D01*
X68999500Y-94934108D01*
X68250500Y-94934108D01*
X68250500Y-94515730D01*
X68247646Y-94485300D01*
X68247646Y-94485298D01*
X68202793Y-94357119D01*
X68202792Y-94357117D01*
X68192270Y-94342860D01*
X68122150Y-94247850D01*
X68012882Y-94167207D01*
X68012880Y-94167206D01*
X67884700Y-94122353D01*
X67854270Y-94119500D01*
X67854266Y-94119500D01*
X66645734Y-94119500D01*
X66645730Y-94119500D01*
X66615300Y-94122353D01*
X66615298Y-94122353D01*
X66487119Y-94167206D01*
X66487117Y-94167207D01*
X66377850Y-94247850D01*
X66297207Y-94357117D01*
X66297206Y-94357119D01*
X66252353Y-94485298D01*
X66252353Y-94485300D01*
X66249500Y-94515730D01*
X60429531Y-94515730D01*
X60407139Y-94482218D01*
X60407136Y-94482214D01*
X60267785Y-94342863D01*
X60267781Y-94342860D01*
X60103920Y-94233371D01*
X60103907Y-94233364D01*
X59921839Y-94157950D01*
X59921829Y-94157947D01*
X59728543Y-94119500D01*
X59728541Y-94119500D01*
X59531459Y-94119500D01*
X59531457Y-94119500D01*
X59338170Y-94157947D01*
X59338160Y-94157950D01*
X59156092Y-94233364D01*
X59156079Y-94233371D01*
X58992218Y-94342860D01*
X58992214Y-94342863D01*
X58852863Y-94482214D01*
X58852860Y-94482218D01*
X58743371Y-94646079D01*
X58743365Y-94646090D01*
X58740370Y-94653322D01*
X58696527Y-94707723D01*
X58630232Y-94729785D01*
X58563811Y-94713251D01*
X58443188Y-94643609D01*
X58443187Y-94643608D01*
X58443186Y-94643608D01*
X58315892Y-94609500D01*
X58184108Y-94609500D01*
X58056814Y-94643608D01*
X58049304Y-94646719D01*
X58048750Y-94645381D01*
X58042575Y-94647036D01*
X58030998Y-94654477D01*
X57996063Y-94659500D01*
X57984461Y-94659500D01*
X57922460Y-94642887D01*
X57916615Y-94639512D01*
X57916614Y-94639511D01*
X57847314Y-94599500D01*
X57813888Y-94580201D01*
X57801780Y-94576957D01*
X57789673Y-94573713D01*
X57789670Y-94573712D01*
X57751478Y-94563478D01*
X57699309Y-94549500D01*
X57699308Y-94549500D01*
X52503937Y-94549500D01*
X52451249Y-94535381D01*
X52450696Y-94536719D01*
X52443188Y-94533609D01*
X52443186Y-94533608D01*
X52315892Y-94499500D01*
X52184108Y-94499500D01*
X52056812Y-94533608D01*
X51942686Y-94599500D01*
X51942683Y-94599502D01*
X51849502Y-94692683D01*
X51849500Y-94692686D01*
X51783608Y-94806812D01*
X51749500Y-94934108D01*
X51000000Y-94934108D01*
X51000000Y-92678543D01*
X58629499Y-92678543D01*
X58667947Y-92871829D01*
X58667950Y-92871839D01*
X58743364Y-93053907D01*
X58743371Y-93053920D01*
X58852860Y-93217781D01*
X58852863Y-93217785D01*
X58992214Y-93357136D01*
X58992218Y-93357139D01*
X59156079Y-93466628D01*
X59156092Y-93466635D01*
X59338160Y-93542049D01*
X59338165Y-93542051D01*
X59338169Y-93542051D01*
X59338170Y-93542052D01*
X59531456Y-93580500D01*
X59531459Y-93580500D01*
X59728543Y-93580500D01*
X59858582Y-93554632D01*
X59921835Y-93542051D01*
X60103914Y-93466632D01*
X60267782Y-93357139D01*
X60407139Y-93217782D01*
X60516632Y-93053914D01*
X60592051Y-92871835D01*
X60630500Y-92678543D01*
X66249499Y-92678543D01*
X66287947Y-92871829D01*
X66287950Y-92871839D01*
X66363364Y-93053907D01*
X66363371Y-93053920D01*
X66472860Y-93217781D01*
X66472863Y-93217785D01*
X66612214Y-93357136D01*
X66612218Y-93357139D01*
X66776079Y-93466628D01*
X66776092Y-93466635D01*
X66958160Y-93542049D01*
X66958165Y-93542051D01*
X66958169Y-93542051D01*
X66958170Y-93542052D01*
X67151456Y-93580500D01*
X67151459Y-93580500D01*
X67348543Y-93580500D01*
X67478582Y-93554632D01*
X67541835Y-93542051D01*
X67723914Y-93466632D01*
X67887782Y-93357139D01*
X68027139Y-93217782D01*
X68136632Y-93053914D01*
X68212051Y-92871835D01*
X68250500Y-92678541D01*
X68250500Y-92481459D01*
X68250500Y-92481456D01*
X68212052Y-92288170D01*
X68212051Y-92288169D01*
X68212051Y-92288165D01*
X68212049Y-92288160D01*
X68136635Y-92106092D01*
X68136628Y-92106079D01*
X68027139Y-91942218D01*
X68027136Y-91942214D01*
X67887785Y-91802863D01*
X67887781Y-91802860D01*
X67723920Y-91693371D01*
X67723907Y-91693364D01*
X67541839Y-91617950D01*
X67541829Y-91617947D01*
X67348543Y-91579500D01*
X67348541Y-91579500D01*
X67151459Y-91579500D01*
X67151457Y-91579500D01*
X66958170Y-91617947D01*
X66958160Y-91617950D01*
X66776092Y-91693364D01*
X66776079Y-91693371D01*
X66612218Y-91802860D01*
X66612214Y-91802863D01*
X66472863Y-91942214D01*
X66472860Y-91942218D01*
X66363371Y-92106079D01*
X66363364Y-92106092D01*
X66287950Y-92288160D01*
X66287947Y-92288170D01*
X66249500Y-92481456D01*
X66249500Y-92481459D01*
X66249500Y-92678541D01*
X66249500Y-92678543D01*
X66249499Y-92678543D01*
X60630500Y-92678543D01*
X60630500Y-92678541D01*
X60630500Y-92481459D01*
X60630500Y-92481456D01*
X60592052Y-92288170D01*
X60592051Y-92288169D01*
X60592051Y-92288165D01*
X60592049Y-92288160D01*
X60516635Y-92106092D01*
X60516628Y-92106079D01*
X60407139Y-91942218D01*
X60407136Y-91942214D01*
X60267785Y-91802863D01*
X60267781Y-91802860D01*
X60103920Y-91693371D01*
X60103907Y-91693364D01*
X59921839Y-91617950D01*
X59921829Y-91617947D01*
X59728543Y-91579500D01*
X59728541Y-91579500D01*
X59531459Y-91579500D01*
X59531457Y-91579500D01*
X59338170Y-91617947D01*
X59338160Y-91617950D01*
X59156092Y-91693364D01*
X59156079Y-91693371D01*
X58992218Y-91802860D01*
X58992214Y-91802863D01*
X58852863Y-91942214D01*
X58852860Y-91942218D01*
X58743371Y-92106079D01*
X58743364Y-92106092D01*
X58667950Y-92288160D01*
X58667947Y-92288170D01*
X58629500Y-92481456D01*
X58629500Y-92481459D01*
X58629500Y-92678541D01*
X58629500Y-92678543D01*
X58629499Y-92678543D01*
X51000000Y-92678543D01*
X51000000Y-90138543D01*
X58629499Y-90138543D01*
X58667947Y-90331829D01*
X58667950Y-90331839D01*
X58743364Y-90513907D01*
X58743371Y-90513920D01*
X58852860Y-90677781D01*
X58852863Y-90677785D01*
X58992214Y-90817136D01*
X58992218Y-90817139D01*
X59156079Y-90926628D01*
X59156092Y-90926635D01*
X59338160Y-91002049D01*
X59338165Y-91002051D01*
X59338169Y-91002051D01*
X59338170Y-91002052D01*
X59531456Y-91040500D01*
X59531459Y-91040500D01*
X59728543Y-91040500D01*
X59858582Y-91014632D01*
X59921835Y-91002051D01*
X60103914Y-90926632D01*
X60267782Y-90817139D01*
X60407139Y-90677782D01*
X60516632Y-90513914D01*
X60592051Y-90331835D01*
X60630500Y-90138541D01*
X60630500Y-89941459D01*
X60630500Y-89941456D01*
X60592052Y-89748170D01*
X60592051Y-89748169D01*
X60592051Y-89748165D01*
X60592049Y-89748160D01*
X60516635Y-89566092D01*
X60516628Y-89566079D01*
X60407139Y-89402218D01*
X60407136Y-89402214D01*
X60267785Y-89262863D01*
X60267781Y-89262860D01*
X60103920Y-89153371D01*
X60103907Y-89153364D01*
X59921839Y-89077950D01*
X59921829Y-89077947D01*
X59728543Y-89039500D01*
X59728541Y-89039500D01*
X59531459Y-89039500D01*
X59531457Y-89039500D01*
X59338170Y-89077947D01*
X59338160Y-89077950D01*
X59156092Y-89153364D01*
X59156079Y-89153371D01*
X58992218Y-89262860D01*
X58992214Y-89262863D01*
X58852863Y-89402214D01*
X58852860Y-89402218D01*
X58743371Y-89566079D01*
X58743364Y-89566092D01*
X58667950Y-89748160D01*
X58667947Y-89748170D01*
X58629500Y-89941456D01*
X58629500Y-89941459D01*
X58629500Y-90138541D01*
X58629500Y-90138543D01*
X58629499Y-90138543D01*
X51000000Y-90138543D01*
X51000000Y-87598543D01*
X58629499Y-87598543D01*
X58667947Y-87791829D01*
X58667950Y-87791839D01*
X58743364Y-87973907D01*
X58743371Y-87973920D01*
X58852860Y-88137781D01*
X58852863Y-88137785D01*
X58992214Y-88277136D01*
X58992218Y-88277139D01*
X59156079Y-88386628D01*
X59156092Y-88386635D01*
X59291406Y-88442683D01*
X59338165Y-88462051D01*
X59338169Y-88462051D01*
X59338170Y-88462052D01*
X59531456Y-88500500D01*
X59531459Y-88500500D01*
X59728543Y-88500500D01*
X59858582Y-88474632D01*
X59921835Y-88462051D01*
X60103914Y-88386632D01*
X60267782Y-88277139D01*
X60407139Y-88137782D01*
X60516632Y-87973914D01*
X60592051Y-87791835D01*
X60630500Y-87598541D01*
X60630500Y-87401459D01*
X60629749Y-87397682D01*
X65950000Y-87397682D01*
X65950000Y-87602317D01*
X65982009Y-87804417D01*
X66045244Y-87999031D01*
X66138141Y-88181350D01*
X66138147Y-88181359D01*
X66170523Y-88225921D01*
X66170524Y-88225922D01*
X66850000Y-87546446D01*
X66850000Y-87552661D01*
X66877259Y-87654394D01*
X66929920Y-87745606D01*
X67004394Y-87820080D01*
X67095606Y-87872741D01*
X67197339Y-87900000D01*
X67203553Y-87900000D01*
X66524076Y-88579474D01*
X66568650Y-88611859D01*
X66750968Y-88704755D01*
X66945582Y-88767990D01*
X67134268Y-88797875D01*
X67197403Y-88827804D01*
X67234334Y-88887116D01*
X67233336Y-88956978D01*
X67194726Y-89015211D01*
X67139062Y-89041965D01*
X66958170Y-89077947D01*
X66958160Y-89077950D01*
X66776092Y-89153364D01*
X66776079Y-89153371D01*
X66612218Y-89262860D01*
X66612214Y-89262863D01*
X66472863Y-89402214D01*
X66472860Y-89402218D01*
X66363371Y-89566079D01*
X66363364Y-89566092D01*
X66287950Y-89748160D01*
X66287947Y-89748170D01*
X66249500Y-89941456D01*
X66249500Y-89941459D01*
X66249500Y-90138541D01*
X66249500Y-90138543D01*
X66249499Y-90138543D01*
X66287947Y-90331829D01*
X66287950Y-90331839D01*
X66363364Y-90513907D01*
X66363371Y-90513920D01*
X66472860Y-90677781D01*
X66472863Y-90677785D01*
X66612214Y-90817136D01*
X66612218Y-90817139D01*
X66776079Y-90926628D01*
X66776092Y-90926635D01*
X66958160Y-91002049D01*
X66958165Y-91002051D01*
X66958169Y-91002051D01*
X66958170Y-91002052D01*
X67151456Y-91040500D01*
X67151459Y-91040500D01*
X67348543Y-91040500D01*
X67478582Y-91014632D01*
X67541835Y-91002051D01*
X67723914Y-90926632D01*
X67887782Y-90817139D01*
X68027139Y-90677782D01*
X68136632Y-90513914D01*
X68212051Y-90331835D01*
X68250500Y-90138541D01*
X68250500Y-89941459D01*
X68250500Y-89941456D01*
X68212052Y-89748170D01*
X68212051Y-89748169D01*
X68212051Y-89748165D01*
X68212049Y-89748160D01*
X68136635Y-89566092D01*
X68136628Y-89566079D01*
X68027139Y-89402218D01*
X68027136Y-89402214D01*
X67887785Y-89262863D01*
X67887781Y-89262860D01*
X67723920Y-89153371D01*
X67723907Y-89153364D01*
X67541839Y-89077950D01*
X67541829Y-89077947D01*
X67360937Y-89041965D01*
X67299026Y-89009580D01*
X67264452Y-88948864D01*
X67268192Y-88879095D01*
X67309059Y-88822423D01*
X67365731Y-88797875D01*
X67554417Y-88767990D01*
X67749031Y-88704755D01*
X67789553Y-88684108D01*
X68999500Y-88684108D01*
X68999500Y-88815891D01*
X69033608Y-88943187D01*
X69066554Y-89000250D01*
X69099500Y-89057314D01*
X69099502Y-89057316D01*
X69113181Y-89070995D01*
X69146666Y-89132318D01*
X69149500Y-89158676D01*
X69149500Y-90791324D01*
X69129815Y-90858363D01*
X69113181Y-90879005D01*
X69099502Y-90892683D01*
X69099500Y-90892686D01*
X69033608Y-91006812D01*
X68999500Y-91134108D01*
X68999500Y-91265891D01*
X69033608Y-91393187D01*
X69066554Y-91450250D01*
X69099500Y-91507314D01*
X69192686Y-91600500D01*
X69306814Y-91666392D01*
X69434108Y-91700500D01*
X69434110Y-91700500D01*
X69565890Y-91700500D01*
X69565892Y-91700500D01*
X69693186Y-91666392D01*
X69807314Y-91600500D01*
X69900500Y-91507314D01*
X69966392Y-91393186D01*
X70000500Y-91265892D01*
X70000500Y-91134108D01*
X69966392Y-91006814D01*
X69900500Y-90892686D01*
X69886819Y-90879005D01*
X69853334Y-90817682D01*
X69850500Y-90791324D01*
X69850500Y-89158676D01*
X69870185Y-89091637D01*
X69886819Y-89070995D01*
X69900500Y-89057314D01*
X69966392Y-88943186D01*
X70000500Y-88815892D01*
X70000500Y-88684108D01*
X69966392Y-88556814D01*
X69900500Y-88442686D01*
X69807314Y-88349500D01*
X69750250Y-88316554D01*
X69693187Y-88283608D01*
X69629539Y-88266554D01*
X69565892Y-88249500D01*
X69434108Y-88249500D01*
X69306812Y-88283608D01*
X69192686Y-88349500D01*
X69192683Y-88349502D01*
X69099502Y-88442683D01*
X69099500Y-88442686D01*
X69033608Y-88556812D01*
X68999500Y-88684108D01*
X67789553Y-88684108D01*
X67931349Y-88611859D01*
X67975922Y-88579474D01*
X67296447Y-87900000D01*
X67302661Y-87900000D01*
X67404394Y-87872741D01*
X67495606Y-87820080D01*
X67570080Y-87745606D01*
X67622741Y-87654394D01*
X67650000Y-87552661D01*
X67650000Y-87546448D01*
X68329474Y-88225922D01*
X68329474Y-88225921D01*
X68361859Y-88181349D01*
X68454755Y-87999031D01*
X68517990Y-87804417D01*
X68550000Y-87602317D01*
X68550000Y-87397682D01*
X68517990Y-87195582D01*
X68454755Y-87000968D01*
X68361859Y-86818650D01*
X68329474Y-86774077D01*
X68329474Y-86774076D01*
X67650000Y-87453551D01*
X67650000Y-87447339D01*
X67622741Y-87345606D01*
X67570080Y-87254394D01*
X67495606Y-87179920D01*
X67404394Y-87127259D01*
X67302661Y-87100000D01*
X67296446Y-87100000D01*
X67975922Y-86420524D01*
X67975921Y-86420523D01*
X67931359Y-86388147D01*
X67931350Y-86388141D01*
X67749031Y-86295244D01*
X67554417Y-86232009D01*
X67352317Y-86200000D01*
X67147683Y-86200000D01*
X66945582Y-86232009D01*
X66750968Y-86295244D01*
X66568644Y-86388143D01*
X66524077Y-86420523D01*
X66524077Y-86420524D01*
X67203554Y-87100000D01*
X67197339Y-87100000D01*
X67095606Y-87127259D01*
X67004394Y-87179920D01*
X66929920Y-87254394D01*
X66877259Y-87345606D01*
X66850000Y-87447339D01*
X66850000Y-87453553D01*
X66170524Y-86774077D01*
X66170523Y-86774077D01*
X66138143Y-86818644D01*
X66045244Y-87000968D01*
X65982009Y-87195582D01*
X65950000Y-87397682D01*
X60629749Y-87397682D01*
X60592051Y-87208165D01*
X60580352Y-87179920D01*
X60516635Y-87026092D01*
X60516628Y-87026079D01*
X60407139Y-86862218D01*
X60407136Y-86862214D01*
X60267785Y-86722863D01*
X60267781Y-86722860D01*
X60103920Y-86613371D01*
X60103907Y-86613364D01*
X60029016Y-86582344D01*
X59921839Y-86537950D01*
X59921829Y-86537947D01*
X59728543Y-86499500D01*
X59728541Y-86499500D01*
X59531459Y-86499500D01*
X59531457Y-86499500D01*
X59338170Y-86537947D01*
X59338160Y-86537950D01*
X59156092Y-86613364D01*
X59156079Y-86613371D01*
X58992218Y-86722860D01*
X58992214Y-86722863D01*
X58852863Y-86862214D01*
X58852860Y-86862218D01*
X58743371Y-87026079D01*
X58743364Y-87026092D01*
X58667950Y-87208160D01*
X58667947Y-87208170D01*
X58629500Y-87401456D01*
X58629500Y-87401458D01*
X58629500Y-87401459D01*
X58629500Y-87598541D01*
X58629500Y-87598543D01*
X58629499Y-87598543D01*
X51000000Y-87598543D01*
X51000000Y-84600000D01*
X58700000Y-84600000D01*
X62900000Y-84600000D01*
X62900000Y-83184108D01*
X75749500Y-83184108D01*
X75749500Y-83315891D01*
X75783608Y-83443187D01*
X75816554Y-83500250D01*
X75849500Y-83557314D01*
X75849502Y-83557316D01*
X75863181Y-83570995D01*
X75896666Y-83632318D01*
X75899500Y-83658676D01*
X75899500Y-86091324D01*
X75879815Y-86158363D01*
X75863181Y-86179005D01*
X75849502Y-86192683D01*
X75849500Y-86192686D01*
X75783608Y-86306812D01*
X75749500Y-86434108D01*
X75749500Y-86565891D01*
X75783608Y-86693187D01*
X75800740Y-86722860D01*
X75849500Y-86807314D01*
X75942686Y-86900500D01*
X76056814Y-86966392D01*
X76184108Y-87000500D01*
X76184110Y-87000500D01*
X76315890Y-87000500D01*
X76315892Y-87000500D01*
X76443186Y-86966392D01*
X76557314Y-86900500D01*
X76650500Y-86807314D01*
X76716392Y-86693186D01*
X76750500Y-86565892D01*
X76750500Y-86434108D01*
X76716392Y-86306814D01*
X76650500Y-86192686D01*
X76636819Y-86179005D01*
X76603334Y-86117682D01*
X76600500Y-86091324D01*
X76600500Y-83658676D01*
X76620185Y-83591637D01*
X76636819Y-83570995D01*
X76650500Y-83557314D01*
X76716392Y-83443186D01*
X76750500Y-83315892D01*
X76750500Y-83184108D01*
X93249500Y-83184108D01*
X93249500Y-83315891D01*
X93283608Y-83443187D01*
X93316554Y-83500250D01*
X93349500Y-83557314D01*
X93349502Y-83557316D01*
X93363181Y-83570995D01*
X93396666Y-83632318D01*
X93399500Y-83658676D01*
X93399500Y-86159460D01*
X93382887Y-86221460D01*
X93333609Y-86306810D01*
X93333609Y-86306811D01*
X93299500Y-86434108D01*
X93299500Y-86565891D01*
X93333608Y-86693187D01*
X93350740Y-86722860D01*
X93399500Y-86807314D01*
X93492686Y-86900500D01*
X93606814Y-86966392D01*
X93734108Y-87000500D01*
X93734110Y-87000500D01*
X93865890Y-87000500D01*
X93865892Y-87000500D01*
X93993186Y-86966392D01*
X94107314Y-86900500D01*
X94200500Y-86807314D01*
X94266392Y-86693186D01*
X94300500Y-86565892D01*
X94300500Y-86434108D01*
X94266392Y-86306814D01*
X94200500Y-86192686D01*
X94136818Y-86129004D01*
X94103334Y-86067680D01*
X94100500Y-86041323D01*
X94100500Y-83658676D01*
X94120185Y-83591637D01*
X94136819Y-83570995D01*
X94150500Y-83557314D01*
X94216392Y-83443186D01*
X94250500Y-83315892D01*
X94250500Y-83184108D01*
X94216392Y-83056814D01*
X94150500Y-82942686D01*
X94057314Y-82849500D01*
X94000250Y-82816554D01*
X93943187Y-82783608D01*
X93879539Y-82766554D01*
X93815892Y-82749500D01*
X93684108Y-82749500D01*
X93556812Y-82783608D01*
X93442686Y-82849500D01*
X93442683Y-82849502D01*
X93349502Y-82942683D01*
X93349500Y-82942686D01*
X93283608Y-83056812D01*
X93249500Y-83184108D01*
X76750500Y-83184108D01*
X76716392Y-83056814D01*
X76650500Y-82942686D01*
X76557314Y-82849500D01*
X76500250Y-82816554D01*
X76443187Y-82783608D01*
X76379539Y-82766554D01*
X76315892Y-82749500D01*
X76184108Y-82749500D01*
X76056812Y-82783608D01*
X75942686Y-82849500D01*
X75942683Y-82849502D01*
X75849502Y-82942683D01*
X75849500Y-82942686D01*
X75783608Y-83056812D01*
X75749500Y-83184108D01*
X62900000Y-83184108D01*
X62900000Y-82600000D01*
X58700000Y-82600000D01*
X58700000Y-84600000D01*
X51000000Y-84600000D01*
X51000000Y-80448543D01*
X76099499Y-80448543D01*
X76137947Y-80641829D01*
X76137950Y-80641839D01*
X76213364Y-80823907D01*
X76213371Y-80823920D01*
X76322860Y-80987781D01*
X76322863Y-80987785D01*
X76462214Y-81127136D01*
X76462218Y-81127139D01*
X76626079Y-81236628D01*
X76626092Y-81236635D01*
X76785495Y-81302661D01*
X76808165Y-81312051D01*
X76808169Y-81312051D01*
X76808170Y-81312052D01*
X77001456Y-81350500D01*
X77001459Y-81350500D01*
X77198543Y-81350500D01*
X77328582Y-81324632D01*
X77391835Y-81312051D01*
X77573914Y-81236632D01*
X77737782Y-81127139D01*
X77769315Y-81095606D01*
X77809787Y-81055135D01*
X77877136Y-80987785D01*
X77877139Y-80987782D01*
X77986632Y-80823914D01*
X78062051Y-80641835D01*
X78100500Y-80448541D01*
X78100500Y-80251459D01*
X78100500Y-80251456D01*
X78062052Y-80058170D01*
X78062051Y-80058169D01*
X78062051Y-80058165D01*
X78056699Y-80045244D01*
X77986635Y-79876092D01*
X77986628Y-79876079D01*
X77877139Y-79712218D01*
X77877136Y-79712214D01*
X77737785Y-79572863D01*
X77737781Y-79572860D01*
X77573920Y-79463371D01*
X77573907Y-79463364D01*
X77391839Y-79387950D01*
X77391829Y-79387947D01*
X77198543Y-79349500D01*
X77198541Y-79349500D01*
X77001459Y-79349500D01*
X77001457Y-79349500D01*
X76808170Y-79387947D01*
X76808160Y-79387950D01*
X76626092Y-79463364D01*
X76626079Y-79463371D01*
X76462218Y-79572860D01*
X76462214Y-79572863D01*
X76322863Y-79712214D01*
X76322860Y-79712218D01*
X76213371Y-79876079D01*
X76213364Y-79876092D01*
X76137950Y-80058160D01*
X76137947Y-80058170D01*
X76099500Y-80251456D01*
X76099500Y-80251459D01*
X76099500Y-80448541D01*
X76099500Y-80448543D01*
X76099499Y-80448543D01*
X51000000Y-80448543D01*
X51000000Y-80400000D01*
X58700000Y-80400000D01*
X62900000Y-80400000D01*
X62900000Y-78400000D01*
X58700000Y-78400000D01*
X58700000Y-80400000D01*
X51000000Y-80400000D01*
X51000000Y-76100000D01*
X58800000Y-76100000D01*
X62900000Y-76100000D01*
X62900000Y-75647682D01*
X80100000Y-75647682D01*
X80100000Y-75852317D01*
X80132009Y-76054417D01*
X80195244Y-76249031D01*
X80288141Y-76431350D01*
X80288147Y-76431359D01*
X80320523Y-76475921D01*
X80320524Y-76475922D01*
X81000000Y-75796446D01*
X81000000Y-75802661D01*
X81027259Y-75904394D01*
X81079920Y-75995606D01*
X81154394Y-76070080D01*
X81245606Y-76122741D01*
X81347339Y-76150000D01*
X81353553Y-76150000D01*
X80674076Y-76829474D01*
X80718650Y-76861859D01*
X80900968Y-76954755D01*
X80985030Y-76982069D01*
X81042705Y-77021507D01*
X81069903Y-77085866D01*
X81057988Y-77154712D01*
X81010743Y-77206188D01*
X80985030Y-77217931D01*
X80900968Y-77245244D01*
X80718644Y-77338143D01*
X80674077Y-77370523D01*
X80674077Y-77370524D01*
X81353554Y-78050000D01*
X81347339Y-78050000D01*
X81245606Y-78077259D01*
X81154394Y-78129920D01*
X81079920Y-78204394D01*
X81027259Y-78295606D01*
X81000000Y-78397339D01*
X81000000Y-78403553D01*
X80320524Y-77724077D01*
X80320523Y-77724077D01*
X80288143Y-77768644D01*
X80195244Y-77950968D01*
X80132009Y-78145582D01*
X80100000Y-78347682D01*
X80100000Y-78552317D01*
X80132009Y-78754417D01*
X80195244Y-78949031D01*
X80288141Y-79131350D01*
X80288147Y-79131359D01*
X80320523Y-79175921D01*
X80320524Y-79175922D01*
X81000000Y-78496446D01*
X81000000Y-78502661D01*
X81027259Y-78604394D01*
X81079920Y-78695606D01*
X81154394Y-78770080D01*
X81245606Y-78822741D01*
X81347339Y-78850000D01*
X81353553Y-78850000D01*
X80674076Y-79529474D01*
X80718650Y-79561859D01*
X80900968Y-79654755D01*
X81095582Y-79717990D01*
X81155795Y-79727527D01*
X81218930Y-79757456D01*
X81255861Y-79816768D01*
X81254863Y-79886631D01*
X81216253Y-79944863D01*
X81155795Y-79972473D01*
X81095582Y-79982009D01*
X80900968Y-80045244D01*
X80718644Y-80138143D01*
X80674077Y-80170523D01*
X80674077Y-80170524D01*
X81353554Y-80850000D01*
X81347339Y-80850000D01*
X81245606Y-80877259D01*
X81154394Y-80929920D01*
X81079920Y-81004394D01*
X81027259Y-81095606D01*
X81000000Y-81197339D01*
X81000000Y-81203553D01*
X80320524Y-80524077D01*
X80320523Y-80524077D01*
X80288143Y-80568644D01*
X80195244Y-80750968D01*
X80132009Y-80945582D01*
X80100000Y-81147682D01*
X80100000Y-81352317D01*
X80132009Y-81554417D01*
X80195244Y-81749031D01*
X80288141Y-81931350D01*
X80288147Y-81931359D01*
X80320523Y-81975921D01*
X80320524Y-81975922D01*
X81000000Y-81296446D01*
X81000000Y-81302661D01*
X81027259Y-81404394D01*
X81079920Y-81495606D01*
X81154394Y-81570080D01*
X81245606Y-81622741D01*
X81347339Y-81650000D01*
X81353553Y-81650000D01*
X80674076Y-82329474D01*
X80718650Y-82361859D01*
X80900968Y-82454755D01*
X81095582Y-82517990D01*
X81297683Y-82550000D01*
X81502317Y-82550000D01*
X81704417Y-82517990D01*
X81899031Y-82454755D01*
X82081349Y-82361859D01*
X82125921Y-82329474D01*
X81446447Y-81650000D01*
X81452661Y-81650000D01*
X81554394Y-81622741D01*
X81645606Y-81570080D01*
X81720080Y-81495606D01*
X81772741Y-81404394D01*
X81800000Y-81302661D01*
X81800000Y-81296447D01*
X82479474Y-81975921D01*
X82511859Y-81931349D01*
X82604755Y-81749031D01*
X82667990Y-81554417D01*
X82700000Y-81352317D01*
X82700000Y-81147682D01*
X82667990Y-80945582D01*
X82604755Y-80750968D01*
X82511859Y-80568650D01*
X82479474Y-80524077D01*
X82479474Y-80524076D01*
X81800000Y-81203551D01*
X81800000Y-81197339D01*
X81772741Y-81095606D01*
X81720080Y-81004394D01*
X81645606Y-80929920D01*
X81554394Y-80877259D01*
X81452661Y-80850000D01*
X81446446Y-80850000D01*
X81847903Y-80448543D01*
X83799499Y-80448543D01*
X83837947Y-80641829D01*
X83837950Y-80641839D01*
X83913364Y-80823907D01*
X83913371Y-80823920D01*
X84022860Y-80987781D01*
X84022863Y-80987785D01*
X84162214Y-81127136D01*
X84162218Y-81127139D01*
X84326079Y-81236628D01*
X84326092Y-81236635D01*
X84485495Y-81302661D01*
X84508165Y-81312051D01*
X84508169Y-81312051D01*
X84508170Y-81312052D01*
X84701456Y-81350500D01*
X84701459Y-81350500D01*
X84898543Y-81350500D01*
X85028582Y-81324632D01*
X85091835Y-81312051D01*
X85273914Y-81236632D01*
X85437782Y-81127139D01*
X85469315Y-81095606D01*
X85509787Y-81055135D01*
X85577136Y-80987785D01*
X85577139Y-80987782D01*
X85686632Y-80823914D01*
X85762051Y-80641835D01*
X85800500Y-80448541D01*
X85800500Y-80251459D01*
X85800500Y-80251456D01*
X85762052Y-80058170D01*
X85762051Y-80058169D01*
X85762051Y-80058165D01*
X85756699Y-80045244D01*
X85686635Y-79876092D01*
X85686628Y-79876079D01*
X85577139Y-79712218D01*
X85577136Y-79712214D01*
X85437785Y-79572863D01*
X85437781Y-79572860D01*
X85273920Y-79463371D01*
X85273907Y-79463364D01*
X85091839Y-79387950D01*
X85091829Y-79387947D01*
X84898543Y-79349500D01*
X84898541Y-79349500D01*
X84701459Y-79349500D01*
X84701457Y-79349500D01*
X84508170Y-79387947D01*
X84508160Y-79387950D01*
X84326092Y-79463364D01*
X84326079Y-79463371D01*
X84162218Y-79572860D01*
X84162214Y-79572863D01*
X84022863Y-79712214D01*
X84022860Y-79712218D01*
X83913371Y-79876079D01*
X83913364Y-79876092D01*
X83837950Y-80058160D01*
X83837947Y-80058170D01*
X83799500Y-80251456D01*
X83799500Y-80251459D01*
X83799500Y-80448541D01*
X83799500Y-80448543D01*
X83799499Y-80448543D01*
X81847903Y-80448543D01*
X82125922Y-80170524D01*
X82125921Y-80170523D01*
X82081359Y-80138147D01*
X82081350Y-80138141D01*
X81899031Y-80045244D01*
X81704417Y-79982009D01*
X81644204Y-79972473D01*
X81581069Y-79942544D01*
X81544138Y-79883232D01*
X81545136Y-79813370D01*
X81583746Y-79755137D01*
X81644204Y-79727527D01*
X81704417Y-79717990D01*
X81899031Y-79654755D01*
X82081349Y-79561859D01*
X82125921Y-79529474D01*
X81446447Y-78850000D01*
X81452661Y-78850000D01*
X81554394Y-78822741D01*
X81645606Y-78770080D01*
X81720080Y-78695606D01*
X81772741Y-78604394D01*
X81800000Y-78502661D01*
X81800000Y-78496447D01*
X82479474Y-79175921D01*
X82511859Y-79131349D01*
X82604755Y-78949031D01*
X82667990Y-78754417D01*
X82700000Y-78552317D01*
X82700000Y-78347682D01*
X82667990Y-78145582D01*
X82604755Y-77950968D01*
X82511859Y-77768650D01*
X82479474Y-77724077D01*
X82479474Y-77724076D01*
X81800000Y-78403551D01*
X81800000Y-78397339D01*
X81772741Y-78295606D01*
X81720080Y-78204394D01*
X81645606Y-78129920D01*
X81554394Y-78077259D01*
X81452661Y-78050000D01*
X81446446Y-78050000D01*
X82125922Y-77370524D01*
X82125921Y-77370523D01*
X82081359Y-77338147D01*
X82081350Y-77338141D01*
X81899031Y-77245244D01*
X81814969Y-77217931D01*
X81757294Y-77178493D01*
X81730096Y-77114134D01*
X81742011Y-77045288D01*
X81789255Y-76993812D01*
X81814969Y-76982069D01*
X81899031Y-76954755D01*
X82081349Y-76861859D01*
X82125921Y-76829474D01*
X81446447Y-76150000D01*
X81452661Y-76150000D01*
X81554394Y-76122741D01*
X81645606Y-76070080D01*
X81720080Y-75995606D01*
X81772741Y-75904394D01*
X81800000Y-75802661D01*
X81800000Y-75796447D01*
X82479474Y-76475921D01*
X82511859Y-76431349D01*
X82604755Y-76249031D01*
X82667990Y-76054417D01*
X82700000Y-75852317D01*
X82700000Y-75647682D01*
X87800000Y-75647682D01*
X87800000Y-75852317D01*
X87832009Y-76054417D01*
X87895244Y-76249031D01*
X87988141Y-76431350D01*
X87988147Y-76431359D01*
X88020523Y-76475921D01*
X88020524Y-76475922D01*
X88700000Y-75796446D01*
X88700000Y-75802661D01*
X88727259Y-75904394D01*
X88779920Y-75995606D01*
X88854394Y-76070080D01*
X88945606Y-76122741D01*
X89047339Y-76150000D01*
X89053553Y-76150000D01*
X88374076Y-76829474D01*
X88418650Y-76861859D01*
X88600968Y-76954755D01*
X88685030Y-76982069D01*
X88742705Y-77021507D01*
X88769903Y-77085866D01*
X88757988Y-77154712D01*
X88710743Y-77206188D01*
X88685030Y-77217931D01*
X88600968Y-77245244D01*
X88418644Y-77338143D01*
X88374077Y-77370523D01*
X88374077Y-77370524D01*
X89053554Y-78050000D01*
X89047339Y-78050000D01*
X88945606Y-78077259D01*
X88854394Y-78129920D01*
X88779920Y-78204394D01*
X88727259Y-78295606D01*
X88700000Y-78397339D01*
X88700000Y-78403553D01*
X88020524Y-77724077D01*
X88020523Y-77724077D01*
X87988143Y-77768644D01*
X87895244Y-77950968D01*
X87832009Y-78145582D01*
X87800000Y-78347682D01*
X87800000Y-78552317D01*
X87832009Y-78754417D01*
X87895244Y-78949031D01*
X87988141Y-79131350D01*
X87988147Y-79131359D01*
X88020523Y-79175921D01*
X88020524Y-79175922D01*
X88700000Y-78496446D01*
X88700000Y-78502661D01*
X88727259Y-78604394D01*
X88779920Y-78695606D01*
X88854394Y-78770080D01*
X88945606Y-78822741D01*
X89047339Y-78850000D01*
X89053553Y-78850000D01*
X88374076Y-79529474D01*
X88418650Y-79561859D01*
X88600968Y-79654755D01*
X88795582Y-79717990D01*
X88855795Y-79727527D01*
X88918930Y-79757456D01*
X88955861Y-79816768D01*
X88954863Y-79886631D01*
X88916253Y-79944863D01*
X88855795Y-79972473D01*
X88795582Y-79982009D01*
X88600968Y-80045244D01*
X88418644Y-80138143D01*
X88374077Y-80170523D01*
X88374077Y-80170524D01*
X89053554Y-80850000D01*
X89047339Y-80850000D01*
X88945606Y-80877259D01*
X88854394Y-80929920D01*
X88779920Y-81004394D01*
X88727259Y-81095606D01*
X88700000Y-81197339D01*
X88700000Y-81203553D01*
X88020524Y-80524077D01*
X88020523Y-80524077D01*
X87988143Y-80568644D01*
X87895244Y-80750968D01*
X87832009Y-80945582D01*
X87800000Y-81147682D01*
X87800000Y-81352317D01*
X87832009Y-81554417D01*
X87895244Y-81749031D01*
X87988141Y-81931350D01*
X87988147Y-81931359D01*
X88020523Y-81975921D01*
X88020524Y-81975922D01*
X88700000Y-81296446D01*
X88700000Y-81302661D01*
X88727259Y-81404394D01*
X88779920Y-81495606D01*
X88854394Y-81570080D01*
X88945606Y-81622741D01*
X89047339Y-81650000D01*
X89053553Y-81650000D01*
X88374076Y-82329474D01*
X88418650Y-82361859D01*
X88600968Y-82454755D01*
X88795582Y-82517990D01*
X88997683Y-82550000D01*
X89202317Y-82550000D01*
X89404417Y-82517990D01*
X89599031Y-82454755D01*
X89781349Y-82361859D01*
X89825921Y-82329474D01*
X89146447Y-81650000D01*
X89152661Y-81650000D01*
X89254394Y-81622741D01*
X89345606Y-81570080D01*
X89420080Y-81495606D01*
X89472741Y-81404394D01*
X89500000Y-81302661D01*
X89500000Y-81296447D01*
X90179474Y-81975921D01*
X90211859Y-81931349D01*
X90304755Y-81749031D01*
X90367990Y-81554417D01*
X90400000Y-81352317D01*
X90400000Y-81147682D01*
X90367990Y-80945582D01*
X90304755Y-80750968D01*
X90211859Y-80568650D01*
X90179474Y-80524077D01*
X90179474Y-80524076D01*
X89500000Y-81203551D01*
X89500000Y-81197339D01*
X89472741Y-81095606D01*
X89420080Y-81004394D01*
X89345606Y-80929920D01*
X89254394Y-80877259D01*
X89152661Y-80850000D01*
X89146446Y-80850000D01*
X89825922Y-80170524D01*
X89825921Y-80170523D01*
X89781359Y-80138147D01*
X89781350Y-80138141D01*
X89599031Y-80045244D01*
X89404417Y-79982009D01*
X89344204Y-79972473D01*
X89281069Y-79942544D01*
X89244138Y-79883232D01*
X89245136Y-79813370D01*
X89283746Y-79755137D01*
X89344204Y-79727527D01*
X89404417Y-79717990D01*
X89599031Y-79654755D01*
X89781349Y-79561859D01*
X89825921Y-79529474D01*
X89146447Y-78850000D01*
X89152661Y-78850000D01*
X89254394Y-78822741D01*
X89345606Y-78770080D01*
X89420080Y-78695606D01*
X89472741Y-78604394D01*
X89500000Y-78502661D01*
X89500000Y-78496447D01*
X90179474Y-79175921D01*
X90211859Y-79131349D01*
X90304755Y-78949031D01*
X90367990Y-78754417D01*
X90400000Y-78552317D01*
X90400000Y-78347682D01*
X90367990Y-78145582D01*
X90304755Y-77950968D01*
X90211859Y-77768650D01*
X90179474Y-77724077D01*
X90179474Y-77724076D01*
X89500000Y-78403551D01*
X89500000Y-78397339D01*
X89472741Y-78295606D01*
X89420080Y-78204394D01*
X89345606Y-78129920D01*
X89254394Y-78077259D01*
X89152661Y-78050000D01*
X89146446Y-78050000D01*
X89825922Y-77370524D01*
X89825921Y-77370523D01*
X89781359Y-77338147D01*
X89781350Y-77338141D01*
X89599031Y-77245244D01*
X89514969Y-77217931D01*
X89457294Y-77178493D01*
X89430096Y-77114134D01*
X89442011Y-77045288D01*
X89489255Y-76993812D01*
X89514969Y-76982069D01*
X89599031Y-76954755D01*
X89781349Y-76861859D01*
X89825921Y-76829474D01*
X89146447Y-76150000D01*
X89152661Y-76150000D01*
X89254394Y-76122741D01*
X89345606Y-76070080D01*
X89420080Y-75995606D01*
X89472741Y-75904394D01*
X89500000Y-75802661D01*
X89500000Y-75796447D01*
X90179474Y-76475921D01*
X90211859Y-76431349D01*
X90304755Y-76249031D01*
X90367990Y-76054417D01*
X90400000Y-75852317D01*
X90400000Y-75647682D01*
X90367990Y-75445582D01*
X90304755Y-75250968D01*
X90211859Y-75068650D01*
X90179474Y-75024077D01*
X90179474Y-75024076D01*
X89500000Y-75703551D01*
X89500000Y-75697339D01*
X89472741Y-75595606D01*
X89420080Y-75504394D01*
X89345606Y-75429920D01*
X89254394Y-75377259D01*
X89152661Y-75350000D01*
X89146446Y-75350000D01*
X89825922Y-74670524D01*
X89825921Y-74670523D01*
X89781359Y-74638147D01*
X89781350Y-74638141D01*
X89599031Y-74545244D01*
X89404417Y-74482009D01*
X89202317Y-74450000D01*
X88997683Y-74450000D01*
X88795582Y-74482009D01*
X88600968Y-74545244D01*
X88418644Y-74638143D01*
X88374077Y-74670523D01*
X88374077Y-74670524D01*
X89053554Y-75350000D01*
X89047339Y-75350000D01*
X88945606Y-75377259D01*
X88854394Y-75429920D01*
X88779920Y-75504394D01*
X88727259Y-75595606D01*
X88700000Y-75697339D01*
X88700000Y-75703553D01*
X88020524Y-75024077D01*
X88020523Y-75024077D01*
X87988143Y-75068644D01*
X87895244Y-75250968D01*
X87832009Y-75445582D01*
X87800000Y-75647682D01*
X82700000Y-75647682D01*
X82667990Y-75445582D01*
X82604755Y-75250968D01*
X82511859Y-75068650D01*
X82479474Y-75024077D01*
X82479474Y-75024076D01*
X81800000Y-75703551D01*
X81800000Y-75697339D01*
X81772741Y-75595606D01*
X81720080Y-75504394D01*
X81645606Y-75429920D01*
X81554394Y-75377259D01*
X81452661Y-75350000D01*
X81446446Y-75350000D01*
X82125922Y-74670524D01*
X82125921Y-74670523D01*
X82081359Y-74638147D01*
X82081350Y-74638141D01*
X81899031Y-74545244D01*
X81704417Y-74482009D01*
X81502317Y-74450000D01*
X81297683Y-74450000D01*
X81095582Y-74482009D01*
X80900968Y-74545244D01*
X80718644Y-74638143D01*
X80674077Y-74670523D01*
X80674077Y-74670524D01*
X81353554Y-75350000D01*
X81347339Y-75350000D01*
X81245606Y-75377259D01*
X81154394Y-75429920D01*
X81079920Y-75504394D01*
X81027259Y-75595606D01*
X81000000Y-75697339D01*
X81000000Y-75703553D01*
X80320524Y-75024077D01*
X80320523Y-75024077D01*
X80288143Y-75068644D01*
X80195244Y-75250968D01*
X80132009Y-75445582D01*
X80100000Y-75647682D01*
X62900000Y-75647682D01*
X62900000Y-74100000D01*
X58800000Y-74100000D01*
X58800000Y-76100000D01*
X51000000Y-76100000D01*
X51000000Y-72645730D01*
X76099500Y-72645730D01*
X76099500Y-73854269D01*
X76102353Y-73884699D01*
X76102353Y-73884701D01*
X76147206Y-74012880D01*
X76147207Y-74012882D01*
X76227850Y-74122150D01*
X76337118Y-74202793D01*
X76379845Y-74217744D01*
X76465299Y-74247646D01*
X76495730Y-74250500D01*
X76495734Y-74250500D01*
X77704270Y-74250500D01*
X77734699Y-74247646D01*
X77734701Y-74247646D01*
X77798790Y-74225219D01*
X77862882Y-74202793D01*
X77972150Y-74122150D01*
X78052793Y-74012882D01*
X78075219Y-73948790D01*
X78097646Y-73884701D01*
X78097646Y-73884699D01*
X78100500Y-73854269D01*
X78100500Y-72645730D01*
X83799500Y-72645730D01*
X83799500Y-73854269D01*
X83802353Y-73884699D01*
X83802353Y-73884701D01*
X83847206Y-74012880D01*
X83847207Y-74012882D01*
X83927850Y-74122150D01*
X84037118Y-74202793D01*
X84079845Y-74217744D01*
X84165299Y-74247646D01*
X84195730Y-74250500D01*
X84195734Y-74250500D01*
X85404270Y-74250500D01*
X85434699Y-74247646D01*
X85434701Y-74247646D01*
X85498790Y-74225219D01*
X85562882Y-74202793D01*
X85672150Y-74122150D01*
X85752793Y-74012882D01*
X85772292Y-73957155D01*
X97490000Y-73957155D01*
X97490000Y-74280000D01*
X98459670Y-74280000D01*
X98439925Y-74299745D01*
X98390556Y-74385255D01*
X98365000Y-74480630D01*
X98365000Y-74579370D01*
X98390556Y-74674745D01*
X98439925Y-74760255D01*
X98459670Y-74780000D01*
X97490000Y-74780000D01*
X97490000Y-75102844D01*
X97496401Y-75162372D01*
X97496403Y-75162379D01*
X97546645Y-75297086D01*
X97546649Y-75297093D01*
X97632809Y-75412187D01*
X97632812Y-75412190D01*
X97755011Y-75503669D01*
X97754023Y-75504987D01*
X97796167Y-75547131D01*
X97811019Y-75615404D01*
X97808952Y-75630749D01*
X97789500Y-75728540D01*
X97789500Y-75728545D01*
X97789500Y-75871455D01*
X97789500Y-75871457D01*
X97789499Y-75871457D01*
X97817379Y-76011614D01*
X97817381Y-76011620D01*
X97872069Y-76143650D01*
X97872074Y-76143659D01*
X97951467Y-76262478D01*
X97951470Y-76262482D01*
X98036307Y-76347319D01*
X98069792Y-76408642D01*
X98064808Y-76478334D01*
X98036307Y-76522681D01*
X97951470Y-76607517D01*
X97951467Y-76607521D01*
X97872074Y-76726340D01*
X97872069Y-76726349D01*
X97817381Y-76858379D01*
X97817379Y-76858385D01*
X97789500Y-76998542D01*
X97789500Y-76998545D01*
X97789500Y-77141455D01*
X97789500Y-77141457D01*
X97789499Y-77141457D01*
X97817379Y-77281614D01*
X97817381Y-77281620D01*
X97872069Y-77413650D01*
X97872074Y-77413659D01*
X97951467Y-77532478D01*
X97951470Y-77532482D01*
X98052517Y-77633529D01*
X98052521Y-77633532D01*
X98171340Y-77712925D01*
X98171346Y-77712928D01*
X98171347Y-77712929D01*
X98303380Y-77767619D01*
X98303384Y-77767619D01*
X98303385Y-77767620D01*
X98443542Y-77795500D01*
X98443545Y-77795500D01*
X99036457Y-77795500D01*
X99130751Y-77776742D01*
X99176620Y-77767619D01*
X99308653Y-77712929D01*
X99427479Y-77633532D01*
X99528532Y-77532479D01*
X99607929Y-77413653D01*
X99662619Y-77281620D01*
X99690500Y-77141455D01*
X99690500Y-76998545D01*
X99690500Y-76998542D01*
X99662620Y-76858385D01*
X99662619Y-76858384D01*
X99662619Y-76858380D01*
X99607929Y-76726347D01*
X99607928Y-76726346D01*
X99607925Y-76726340D01*
X99528532Y-76607521D01*
X99528529Y-76607517D01*
X99443693Y-76522681D01*
X99410208Y-76461358D01*
X99415192Y-76391666D01*
X99443693Y-76347319D01*
X99528529Y-76262482D01*
X99528532Y-76262479D01*
X99607929Y-76143653D01*
X99662619Y-76011620D01*
X99690500Y-75871455D01*
X99690500Y-75728545D01*
X99690500Y-75728542D01*
X99671047Y-75630750D01*
X99677274Y-75561159D01*
X99720136Y-75505981D01*
X99731280Y-75498959D01*
X99847187Y-75412190D01*
X99847190Y-75412187D01*
X99933350Y-75297093D01*
X99933354Y-75297086D01*
X99983596Y-75162379D01*
X99983598Y-75162372D01*
X99989999Y-75102844D01*
X99990000Y-75102827D01*
X99990000Y-74780000D01*
X99020330Y-74780000D01*
X99040075Y-74760255D01*
X99089444Y-74674745D01*
X99115000Y-74579370D01*
X99115000Y-74480630D01*
X99089444Y-74385255D01*
X99040075Y-74299745D01*
X99020330Y-74280000D01*
X99990000Y-74280000D01*
X99990000Y-73957172D01*
X99989999Y-73957155D01*
X99983598Y-73897627D01*
X99983596Y-73897620D01*
X99933354Y-73762913D01*
X99933350Y-73762906D01*
X99847190Y-73647812D01*
X99847187Y-73647809D01*
X99732093Y-73561649D01*
X99732086Y-73561645D01*
X99597379Y-73511403D01*
X99597372Y-73511401D01*
X99537844Y-73505000D01*
X98990000Y-73505000D01*
X98990000Y-74249670D01*
X98970255Y-74229925D01*
X98884745Y-74180556D01*
X98789370Y-74155000D01*
X98690630Y-74155000D01*
X98595255Y-74180556D01*
X98509745Y-74229925D01*
X98490000Y-74249670D01*
X98490000Y-73505000D01*
X97942155Y-73505000D01*
X97882627Y-73511401D01*
X97882620Y-73511403D01*
X97747913Y-73561645D01*
X97747906Y-73561649D01*
X97632812Y-73647809D01*
X97632809Y-73647812D01*
X97546649Y-73762906D01*
X97546645Y-73762913D01*
X97496403Y-73897620D01*
X97496401Y-73897627D01*
X97490000Y-73957155D01*
X85772292Y-73957155D01*
X85772877Y-73955484D01*
X85787780Y-73912896D01*
X85787780Y-73912895D01*
X85797646Y-73884698D01*
X85800500Y-73854269D01*
X85800500Y-72645730D01*
X85797646Y-72615300D01*
X85797646Y-72615298D01*
X85752793Y-72487119D01*
X85752792Y-72487117D01*
X85672150Y-72377850D01*
X85562882Y-72297207D01*
X85562880Y-72297206D01*
X85434700Y-72252353D01*
X85404270Y-72249500D01*
X85404266Y-72249500D01*
X84195734Y-72249500D01*
X84195730Y-72249500D01*
X84165300Y-72252353D01*
X84165298Y-72252353D01*
X84037119Y-72297206D01*
X84037117Y-72297207D01*
X83927850Y-72377850D01*
X83847207Y-72487117D01*
X83847206Y-72487119D01*
X83802353Y-72615298D01*
X83802353Y-72615300D01*
X83799500Y-72645730D01*
X78100500Y-72645730D01*
X78097646Y-72615300D01*
X78097646Y-72615298D01*
X78052793Y-72487119D01*
X78052792Y-72487117D01*
X77972150Y-72377850D01*
X77862882Y-72297207D01*
X77862880Y-72297206D01*
X77734700Y-72252353D01*
X77704270Y-72249500D01*
X77704266Y-72249500D01*
X76495734Y-72249500D01*
X76495730Y-72249500D01*
X76465300Y-72252353D01*
X76465298Y-72252353D01*
X76337119Y-72297206D01*
X76337117Y-72297207D01*
X76227850Y-72377850D01*
X76147207Y-72487117D01*
X76147206Y-72487119D01*
X76102353Y-72615298D01*
X76102353Y-72615300D01*
X76099500Y-72645730D01*
X51000000Y-72645730D01*
X51000000Y-68513753D01*
X97350000Y-68513753D01*
X97350000Y-68726246D01*
X97383242Y-68936127D01*
X97383242Y-68936130D01*
X97448904Y-69138217D01*
X97545375Y-69327550D01*
X97584728Y-69381716D01*
X98217037Y-68749408D01*
X98234075Y-68812993D01*
X98299901Y-68927007D01*
X98392993Y-69020099D01*
X98507007Y-69085925D01*
X98570590Y-69102962D01*
X97938282Y-69735269D01*
X97938282Y-69735270D01*
X97992449Y-69774624D01*
X98181782Y-69871095D01*
X98383870Y-69936757D01*
X98593754Y-69970000D01*
X98806246Y-69970000D01*
X99016127Y-69936757D01*
X99016130Y-69936757D01*
X99218217Y-69871095D01*
X99407554Y-69774622D01*
X99461716Y-69735270D01*
X99461717Y-69735270D01*
X98829408Y-69102962D01*
X98892993Y-69085925D01*
X99007007Y-69020099D01*
X99100099Y-68927007D01*
X99165925Y-68812993D01*
X99182962Y-68749409D01*
X99815270Y-69381717D01*
X99815270Y-69381716D01*
X99854622Y-69327554D01*
X99951095Y-69138217D01*
X100016757Y-68936130D01*
X100016757Y-68936127D01*
X100050000Y-68726246D01*
X100050000Y-68513753D01*
X100016757Y-68303872D01*
X100016757Y-68303869D01*
X99951095Y-68101782D01*
X99854624Y-67912449D01*
X99815270Y-67858282D01*
X99815269Y-67858282D01*
X99182962Y-68490590D01*
X99165925Y-68427007D01*
X99100099Y-68312993D01*
X99007007Y-68219901D01*
X98892993Y-68154075D01*
X98829409Y-68137037D01*
X99461716Y-67504728D01*
X99407550Y-67465375D01*
X99218216Y-67368904D01*
X99042026Y-67311656D01*
X98984350Y-67272218D01*
X98957152Y-67207860D01*
X98969067Y-67139013D01*
X99016311Y-67087538D01*
X99032882Y-67079168D01*
X99197598Y-67010941D01*
X99369655Y-66895977D01*
X99515977Y-66749655D01*
X99630941Y-66577598D01*
X99710130Y-66386420D01*
X99750500Y-66183465D01*
X99750500Y-65976535D01*
X99710130Y-65773580D01*
X99630941Y-65582402D01*
X99515977Y-65410345D01*
X99515975Y-65410342D01*
X99369657Y-65264024D01*
X99283626Y-65206541D01*
X99197598Y-65149059D01*
X99006420Y-65069870D01*
X99006412Y-65069868D01*
X98803469Y-65029500D01*
X98803465Y-65029500D01*
X98596535Y-65029500D01*
X98596530Y-65029500D01*
X98393587Y-65069868D01*
X98393579Y-65069870D01*
X98202403Y-65149058D01*
X98030342Y-65264024D01*
X97884024Y-65410342D01*
X97769058Y-65582403D01*
X97689870Y-65773579D01*
X97689868Y-65773587D01*
X97649500Y-65976530D01*
X97649500Y-66183469D01*
X97689868Y-66386412D01*
X97689870Y-66386420D01*
X97769058Y-66577596D01*
X97884024Y-66749657D01*
X98030342Y-66895975D01*
X98202405Y-67010943D01*
X98305043Y-67053456D01*
X98367108Y-67079164D01*
X98421511Y-67123005D01*
X98443576Y-67189299D01*
X98426297Y-67256998D01*
X98375160Y-67304609D01*
X98357974Y-67311656D01*
X98181781Y-67368905D01*
X97992439Y-67465380D01*
X97938282Y-67504727D01*
X97938282Y-67504728D01*
X98570591Y-68137037D01*
X98507007Y-68154075D01*
X98392993Y-68219901D01*
X98299901Y-68312993D01*
X98234075Y-68427007D01*
X98217037Y-68490591D01*
X97584728Y-67858282D01*
X97584727Y-67858282D01*
X97545380Y-67912439D01*
X97448904Y-68101782D01*
X97383242Y-68303869D01*
X97383242Y-68303872D01*
X97350000Y-68513753D01*
X51000000Y-68513753D01*
X51000000Y-64443109D01*
X76370500Y-64443109D01*
X76370500Y-64574892D01*
X76404608Y-64702188D01*
X76437554Y-64759251D01*
X76470500Y-64816315D01*
X76563686Y-64909501D01*
X76677814Y-64975393D01*
X76805108Y-65009501D01*
X76805110Y-65009501D01*
X76936890Y-65009501D01*
X76936892Y-65009501D01*
X77064186Y-64975393D01*
X77178314Y-64909501D01*
X77191995Y-64895820D01*
X77253318Y-64862335D01*
X77279676Y-64859501D01*
X79862324Y-64859501D01*
X79929363Y-64879186D01*
X79950005Y-64895820D01*
X79963686Y-64909501D01*
X80077814Y-64975393D01*
X80205108Y-65009501D01*
X80205110Y-65009501D01*
X80336890Y-65009501D01*
X80336892Y-65009501D01*
X80464186Y-64975393D01*
X80578314Y-64909501D01*
X80671500Y-64816315D01*
X80737392Y-64702187D01*
X80771500Y-64574893D01*
X80771500Y-64443109D01*
X80737392Y-64315815D01*
X80671500Y-64201687D01*
X80578314Y-64108501D01*
X80521250Y-64075555D01*
X80464187Y-64042609D01*
X80400539Y-64025555D01*
X80336892Y-64008501D01*
X80205108Y-64008501D01*
X80077812Y-64042609D01*
X79963686Y-64108501D01*
X79963683Y-64108503D01*
X79950005Y-64122182D01*
X79888682Y-64155667D01*
X79862324Y-64158501D01*
X77279676Y-64158501D01*
X77212637Y-64138816D01*
X77191995Y-64122182D01*
X77178316Y-64108503D01*
X77178314Y-64108501D01*
X77121250Y-64075555D01*
X77064187Y-64042609D01*
X77000539Y-64025555D01*
X76936892Y-64008501D01*
X76805108Y-64008501D01*
X76677812Y-64042609D01*
X76563686Y-64108501D01*
X76563683Y-64108503D01*
X76470502Y-64201684D01*
X76470500Y-64201687D01*
X76404608Y-64315813D01*
X76370500Y-64443109D01*
X51000000Y-64443109D01*
X51000000Y-63436530D01*
X97649500Y-63436530D01*
X97649500Y-63643469D01*
X97689868Y-63846412D01*
X97689870Y-63846420D01*
X97757006Y-64008501D01*
X97769059Y-64037598D01*
X97816435Y-64108501D01*
X97884024Y-64209657D01*
X98030342Y-64355975D01*
X98030345Y-64355977D01*
X98202402Y-64470941D01*
X98393580Y-64550130D01*
X98596530Y-64590499D01*
X98596534Y-64590500D01*
X98596535Y-64590500D01*
X98803466Y-64590500D01*
X98803467Y-64590499D01*
X99006420Y-64550130D01*
X99197598Y-64470941D01*
X99369655Y-64355977D01*
X99515977Y-64209655D01*
X99630941Y-64037598D01*
X99710130Y-63846420D01*
X99750500Y-63643465D01*
X99750500Y-63436535D01*
X99710130Y-63233580D01*
X99630941Y-63042402D01*
X99515977Y-62870345D01*
X99515975Y-62870342D01*
X99369657Y-62724024D01*
X99208456Y-62616314D01*
X99197598Y-62609059D01*
X99006420Y-62529870D01*
X99006412Y-62529868D01*
X98803469Y-62489500D01*
X98803465Y-62489500D01*
X98596535Y-62489500D01*
X98596530Y-62489500D01*
X98393587Y-62529868D01*
X98393579Y-62529870D01*
X98202403Y-62609058D01*
X98030342Y-62724024D01*
X97884024Y-62870342D01*
X97769058Y-63042403D01*
X97689870Y-63233579D01*
X97689868Y-63233587D01*
X97649500Y-63436530D01*
X51000000Y-63436530D01*
X51000000Y-62243109D01*
X76370500Y-62243109D01*
X76370500Y-62374892D01*
X76404608Y-62502188D01*
X76420591Y-62529870D01*
X76470500Y-62616315D01*
X76563686Y-62709501D01*
X76677814Y-62775393D01*
X76805108Y-62809501D01*
X76805110Y-62809501D01*
X76936890Y-62809501D01*
X76936892Y-62809501D01*
X77064186Y-62775393D01*
X77178314Y-62709501D01*
X77191995Y-62695820D01*
X77253318Y-62662335D01*
X77279676Y-62659501D01*
X79862324Y-62659501D01*
X79929363Y-62679186D01*
X79950005Y-62695820D01*
X79963686Y-62709501D01*
X80077814Y-62775393D01*
X80205108Y-62809501D01*
X80205110Y-62809501D01*
X80336890Y-62809501D01*
X80336892Y-62809501D01*
X80464186Y-62775393D01*
X80578314Y-62709501D01*
X80671500Y-62616315D01*
X80737392Y-62502187D01*
X80771500Y-62374893D01*
X80771500Y-62243109D01*
X80737392Y-62115815D01*
X80671500Y-62001687D01*
X80578314Y-61908501D01*
X80511199Y-61869752D01*
X80464187Y-61842609D01*
X80400539Y-61825555D01*
X80336892Y-61808501D01*
X80205108Y-61808501D01*
X80077812Y-61842609D01*
X79963686Y-61908501D01*
X79963683Y-61908503D01*
X79950005Y-61922182D01*
X79888682Y-61955667D01*
X79862324Y-61958501D01*
X77279676Y-61958501D01*
X77212637Y-61938816D01*
X77191995Y-61922182D01*
X77178316Y-61908503D01*
X77178314Y-61908501D01*
X77111199Y-61869752D01*
X77064187Y-61842609D01*
X77000539Y-61825555D01*
X76936892Y-61808501D01*
X76805108Y-61808501D01*
X76677812Y-61842609D01*
X76563686Y-61908501D01*
X76563683Y-61908503D01*
X76470502Y-62001684D01*
X76470500Y-62001687D01*
X76404608Y-62115813D01*
X76370500Y-62243109D01*
X51000000Y-62243109D01*
X51000000Y-61243109D01*
X87370500Y-61243109D01*
X87370500Y-61374892D01*
X87404608Y-61502188D01*
X87437554Y-61559251D01*
X87470500Y-61616315D01*
X87563686Y-61709501D01*
X87677814Y-61775393D01*
X87805108Y-61809501D01*
X87805110Y-61809501D01*
X87936890Y-61809501D01*
X87936892Y-61809501D01*
X88064186Y-61775393D01*
X88178314Y-61709501D01*
X88191995Y-61695820D01*
X88253318Y-61662335D01*
X88279676Y-61659501D01*
X89862324Y-61659501D01*
X89929363Y-61679186D01*
X89950005Y-61695820D01*
X89963686Y-61709501D01*
X90077814Y-61775393D01*
X90205108Y-61809501D01*
X90205110Y-61809501D01*
X90336890Y-61809501D01*
X90336892Y-61809501D01*
X90464186Y-61775393D01*
X90578314Y-61709501D01*
X90671500Y-61616315D01*
X90737392Y-61502187D01*
X90771500Y-61374893D01*
X90771500Y-61243109D01*
X90737392Y-61115815D01*
X90671500Y-61001687D01*
X90578314Y-60908501D01*
X90521250Y-60875555D01*
X90464187Y-60842609D01*
X90400539Y-60825555D01*
X90336892Y-60808501D01*
X90205108Y-60808501D01*
X90077812Y-60842609D01*
X89963686Y-60908501D01*
X89963683Y-60908503D01*
X89950005Y-60922182D01*
X89888682Y-60955667D01*
X89862324Y-60958501D01*
X88279676Y-60958501D01*
X88212637Y-60938816D01*
X88191995Y-60922182D01*
X88178316Y-60908503D01*
X88178314Y-60908501D01*
X88121250Y-60875555D01*
X88064187Y-60842609D01*
X88000539Y-60825555D01*
X87936892Y-60808501D01*
X87805108Y-60808501D01*
X87677812Y-60842609D01*
X87563686Y-60908501D01*
X87563683Y-60908503D01*
X87470502Y-61001684D01*
X87470500Y-61001687D01*
X87404608Y-61115813D01*
X87370500Y-61243109D01*
X51000000Y-61243109D01*
X51000000Y-60130247D01*
X97649500Y-60130247D01*
X97649500Y-61869752D01*
X97661131Y-61928229D01*
X97661132Y-61928230D01*
X97705447Y-61994552D01*
X97771769Y-62038867D01*
X97771770Y-62038868D01*
X97830247Y-62050499D01*
X97830250Y-62050500D01*
X97830252Y-62050500D01*
X99569750Y-62050500D01*
X99569751Y-62050499D01*
X99584568Y-62047552D01*
X99628229Y-62038868D01*
X99628229Y-62038867D01*
X99628231Y-62038867D01*
X99694552Y-61994552D01*
X99738867Y-61928231D01*
X99738867Y-61928229D01*
X99738868Y-61928229D01*
X99750499Y-61869752D01*
X99750500Y-61869750D01*
X99750500Y-60130249D01*
X99750499Y-60130247D01*
X99738868Y-60071770D01*
X99738867Y-60071769D01*
X99694552Y-60005447D01*
X99628230Y-59961132D01*
X99628229Y-59961131D01*
X99569752Y-59949500D01*
X99569748Y-59949500D01*
X97830252Y-59949500D01*
X97830247Y-59949500D01*
X97771770Y-59961131D01*
X97771769Y-59961132D01*
X97705447Y-60005447D01*
X97661132Y-60071769D01*
X97661131Y-60071770D01*
X97649500Y-60130247D01*
X51000000Y-60130247D01*
X51000000Y-52184108D01*
X67749500Y-52184108D01*
X67749500Y-52315891D01*
X67783608Y-52443186D01*
X67786718Y-52450693D01*
X67785381Y-52451246D01*
X67799500Y-52503936D01*
X67799500Y-56496062D01*
X67785383Y-56548751D01*
X67786719Y-56549304D01*
X67783608Y-56556814D01*
X67749500Y-56684108D01*
X67749500Y-56815891D01*
X67783608Y-56943187D01*
X67816554Y-57000250D01*
X67849500Y-57057314D01*
X67942686Y-57150500D01*
X68056814Y-57216392D01*
X68184108Y-57250500D01*
X68184110Y-57250500D01*
X68315890Y-57250500D01*
X68315892Y-57250500D01*
X68443186Y-57216392D01*
X68557314Y-57150500D01*
X68650500Y-57057314D01*
X68716392Y-56943186D01*
X68750500Y-56815892D01*
X68750500Y-56776758D01*
X94751794Y-56776758D01*
X94751794Y-56776759D01*
X94783431Y-56797898D01*
X94962681Y-56872145D01*
X94962693Y-56872148D01*
X95152981Y-56909999D01*
X95152984Y-56910000D01*
X95347016Y-56910000D01*
X95347018Y-56909999D01*
X95537306Y-56872148D01*
X95537318Y-56872145D01*
X95716565Y-56797899D01*
X95718273Y-56796758D01*
X100151794Y-56796758D01*
X100151794Y-56796759D01*
X100183431Y-56817898D01*
X100362681Y-56892145D01*
X100362693Y-56892148D01*
X100552981Y-56929999D01*
X100552984Y-56930000D01*
X100747016Y-56930000D01*
X100747018Y-56929999D01*
X100937306Y-56892148D01*
X100937318Y-56892145D01*
X101116565Y-56817899D01*
X101148204Y-56796758D01*
X100650001Y-56298554D01*
X100650000Y-56298554D01*
X100151794Y-56796758D01*
X95718273Y-56796758D01*
X95748204Y-56776758D01*
X95250001Y-56278554D01*
X95250000Y-56278554D01*
X94751794Y-56776758D01*
X68750500Y-56776758D01*
X68750500Y-56684108D01*
X68716392Y-56556814D01*
X68707313Y-56541089D01*
X68703226Y-56521921D01*
X68704151Y-56509690D01*
X68700500Y-56496062D01*
X68700500Y-55092844D01*
X94075000Y-55092844D01*
X94081401Y-55152372D01*
X94081403Y-55152379D01*
X94131645Y-55287086D01*
X94131649Y-55287093D01*
X94217809Y-55402187D01*
X94280071Y-55448797D01*
X94321941Y-55504731D01*
X94326925Y-55574422D01*
X94320321Y-55595514D01*
X94302852Y-55637689D01*
X94302850Y-55637693D01*
X94265000Y-55827981D01*
X94265000Y-56022018D01*
X94302851Y-56212306D01*
X94302853Y-56212314D01*
X94377102Y-56391568D01*
X94377106Y-56391575D01*
X94398240Y-56423204D01*
X94398240Y-56423205D01*
X94985542Y-55835904D01*
X95046865Y-55802419D01*
X95051681Y-55802763D01*
X95020000Y-55879250D01*
X95020000Y-55970750D01*
X95055015Y-56055285D01*
X95119715Y-56119985D01*
X95204250Y-56155000D01*
X95295750Y-56155000D01*
X95380285Y-56119985D01*
X95444985Y-56055285D01*
X95480000Y-55970750D01*
X95480000Y-55879250D01*
X95449633Y-55805938D01*
X95470111Y-55807403D01*
X95514458Y-55835904D01*
X96101758Y-56423204D01*
X96122899Y-56391565D01*
X96197145Y-56212318D01*
X96197148Y-56212306D01*
X96234999Y-56022018D01*
X96235000Y-56022016D01*
X96235000Y-55827983D01*
X96198365Y-55643810D01*
X96204592Y-55574218D01*
X96247455Y-55519041D01*
X96276650Y-55503436D01*
X96317084Y-55488355D01*
X96317093Y-55488350D01*
X96432187Y-55402190D01*
X96432190Y-55402187D01*
X96518350Y-55287093D01*
X96518354Y-55287086D01*
X96568596Y-55152379D01*
X96568598Y-55152372D01*
X96574999Y-55092844D01*
X96575000Y-55092827D01*
X96575000Y-55067844D01*
X99450000Y-55067844D01*
X99456401Y-55127372D01*
X99456403Y-55127379D01*
X99506645Y-55262086D01*
X99506649Y-55262093D01*
X99592809Y-55377186D01*
X99688381Y-55448732D01*
X99730252Y-55504666D01*
X99735236Y-55574358D01*
X99728632Y-55595451D01*
X99702851Y-55657693D01*
X99702850Y-55657693D01*
X99665000Y-55847981D01*
X99665000Y-56042018D01*
X99702851Y-56232306D01*
X99702853Y-56232314D01*
X99777102Y-56411568D01*
X99777106Y-56411575D01*
X99798240Y-56443204D01*
X99798240Y-56443205D01*
X100385542Y-55855904D01*
X100446865Y-55822419D01*
X100451681Y-55822763D01*
X100420000Y-55899250D01*
X100420000Y-55990750D01*
X100455015Y-56075285D01*
X100519715Y-56139985D01*
X100604250Y-56175000D01*
X100695750Y-56175000D01*
X100780285Y-56139985D01*
X100844985Y-56075285D01*
X100880000Y-55990750D01*
X100880000Y-55899250D01*
X100849633Y-55825938D01*
X100870111Y-55827403D01*
X100914458Y-55855904D01*
X101501758Y-56443204D01*
X101522899Y-56411565D01*
X101597145Y-56232318D01*
X101597148Y-56232306D01*
X101634999Y-56042018D01*
X101635000Y-56042016D01*
X101635000Y-55847983D01*
X101634999Y-55847981D01*
X101597148Y-55657693D01*
X101597146Y-55657685D01*
X101589306Y-55638757D01*
X101581837Y-55569288D01*
X101613112Y-55506809D01*
X101660536Y-55475121D01*
X101692088Y-55463353D01*
X101692093Y-55463350D01*
X101807187Y-55377190D01*
X101807190Y-55377187D01*
X101893350Y-55262093D01*
X101893354Y-55262086D01*
X101943596Y-55127379D01*
X101943598Y-55127372D01*
X101949999Y-55067844D01*
X101950000Y-55067827D01*
X101950000Y-53045000D01*
X99450000Y-53045000D01*
X99450000Y-55067844D01*
X96575000Y-55067844D01*
X96575000Y-53045000D01*
X94075000Y-53045000D01*
X94075000Y-55092844D01*
X68700500Y-55092844D01*
X68700500Y-52503936D01*
X68714618Y-52451246D01*
X68713282Y-52450693D01*
X68716388Y-52443192D01*
X68716392Y-52443186D01*
X68750500Y-52315892D01*
X68750500Y-52184108D01*
X68716392Y-52056814D01*
X68650500Y-51942686D01*
X68557314Y-51849500D01*
X68500250Y-51816554D01*
X68443187Y-51783608D01*
X68379539Y-51766554D01*
X68315892Y-51749500D01*
X68184108Y-51749500D01*
X68056812Y-51783608D01*
X67942686Y-51849500D01*
X67942683Y-51849502D01*
X67849502Y-51942683D01*
X67849500Y-51942686D01*
X67783608Y-52056812D01*
X67749500Y-52184108D01*
X51000000Y-52184108D01*
X51000000Y-52051362D01*
X51019685Y-51984323D01*
X51036319Y-51963681D01*
X51963681Y-51036319D01*
X52025004Y-51002834D01*
X52051362Y-51000000D01*
X93951000Y-51000000D01*
X94018039Y-51019685D01*
G37*
%TD.AperFunction*%
%TD*%
M02*
