%TF.GenerationSoftware,KiCad,Pcbnew,9.0.6*%
%TF.CreationDate,2026-03-09T22:44:44+09:00*%
%TF.ProjectId,ARDFReceiver,41524446-5265-4636-9569-7665722e6b69,rev?*%
%TF.SameCoordinates,Original*%
%TF.FileFunction,Drillmap*%
%TF.FilePolarity,Positive*%
%FSLAX45Y45*%
G04 Gerber Fmt 4.5, Leading zero omitted, Abs format (unit mm)*
G04 Created by KiCad (PCBNEW 9.0.6) date 2026-03-09 22:44:44*
%MOMM*%
%LPD*%
G01*
G04 APERTURE LIST*
%ADD10C,0.050000*%
%ADD11C,0.200000*%
%ADD12C,0.100000*%
G04 APERTURE END LIST*
D10*
X5000000Y-5000000D02*
X11000000Y-5000000D01*
X11000000Y-12500000D01*
X5000000Y-12500000D01*
X5000000Y-5000000D01*
D11*
D12*
X10200000Y-10200000D02*
X10300000Y-10300000D01*
X10300000Y-10200000D02*
X10200000Y-10300000D01*
X10200000Y-10700000D02*
X10300000Y-10800000D01*
X10300000Y-10700000D02*
X10200000Y-10800000D01*
D11*
X5258277Y-12813984D02*
X5258277Y-12613984D01*
X5258277Y-12613984D02*
X5305896Y-12613984D01*
X5305896Y-12613984D02*
X5334467Y-12623508D01*
X5334467Y-12623508D02*
X5353515Y-12642555D01*
X5353515Y-12642555D02*
X5363039Y-12661603D01*
X5363039Y-12661603D02*
X5372563Y-12699698D01*
X5372563Y-12699698D02*
X5372563Y-12728269D01*
X5372563Y-12728269D02*
X5363039Y-12766365D01*
X5363039Y-12766365D02*
X5353515Y-12785412D01*
X5353515Y-12785412D02*
X5334467Y-12804460D01*
X5334467Y-12804460D02*
X5305896Y-12813984D01*
X5305896Y-12813984D02*
X5258277Y-12813984D01*
X5458277Y-12813984D02*
X5458277Y-12680650D01*
X5458277Y-12718746D02*
X5467801Y-12699698D01*
X5467801Y-12699698D02*
X5477324Y-12690174D01*
X5477324Y-12690174D02*
X5496372Y-12680650D01*
X5496372Y-12680650D02*
X5515420Y-12680650D01*
X5582086Y-12813984D02*
X5582086Y-12680650D01*
X5582086Y-12613984D02*
X5572563Y-12623508D01*
X5572563Y-12623508D02*
X5582086Y-12633031D01*
X5582086Y-12633031D02*
X5591610Y-12623508D01*
X5591610Y-12623508D02*
X5582086Y-12613984D01*
X5582086Y-12613984D02*
X5582086Y-12633031D01*
X5705896Y-12813984D02*
X5686848Y-12804460D01*
X5686848Y-12804460D02*
X5677324Y-12785412D01*
X5677324Y-12785412D02*
X5677324Y-12613984D01*
X5810658Y-12813984D02*
X5791610Y-12804460D01*
X5791610Y-12804460D02*
X5782086Y-12785412D01*
X5782086Y-12785412D02*
X5782086Y-12613984D01*
X6039229Y-12813984D02*
X6039229Y-12613984D01*
X6039229Y-12613984D02*
X6105896Y-12756841D01*
X6105896Y-12756841D02*
X6172562Y-12613984D01*
X6172562Y-12613984D02*
X6172562Y-12813984D01*
X6353515Y-12813984D02*
X6353515Y-12709222D01*
X6353515Y-12709222D02*
X6343991Y-12690174D01*
X6343991Y-12690174D02*
X6324943Y-12680650D01*
X6324943Y-12680650D02*
X6286848Y-12680650D01*
X6286848Y-12680650D02*
X6267801Y-12690174D01*
X6353515Y-12804460D02*
X6334467Y-12813984D01*
X6334467Y-12813984D02*
X6286848Y-12813984D01*
X6286848Y-12813984D02*
X6267801Y-12804460D01*
X6267801Y-12804460D02*
X6258277Y-12785412D01*
X6258277Y-12785412D02*
X6258277Y-12766365D01*
X6258277Y-12766365D02*
X6267801Y-12747317D01*
X6267801Y-12747317D02*
X6286848Y-12737793D01*
X6286848Y-12737793D02*
X6334467Y-12737793D01*
X6334467Y-12737793D02*
X6353515Y-12728269D01*
X6448753Y-12680650D02*
X6448753Y-12880650D01*
X6448753Y-12690174D02*
X6467801Y-12680650D01*
X6467801Y-12680650D02*
X6505896Y-12680650D01*
X6505896Y-12680650D02*
X6524943Y-12690174D01*
X6524943Y-12690174D02*
X6534467Y-12699698D01*
X6534467Y-12699698D02*
X6543991Y-12718746D01*
X6543991Y-12718746D02*
X6543991Y-12775888D01*
X6543991Y-12775888D02*
X6534467Y-12794936D01*
X6534467Y-12794936D02*
X6524943Y-12804460D01*
X6524943Y-12804460D02*
X6505896Y-12813984D01*
X6505896Y-12813984D02*
X6467801Y-12813984D01*
X6467801Y-12813984D02*
X6448753Y-12804460D01*
X6629705Y-12794936D02*
X6639229Y-12804460D01*
X6639229Y-12804460D02*
X6629705Y-12813984D01*
X6629705Y-12813984D02*
X6620182Y-12804460D01*
X6620182Y-12804460D02*
X6629705Y-12794936D01*
X6629705Y-12794936D02*
X6629705Y-12813984D01*
X6629705Y-12690174D02*
X6639229Y-12699698D01*
X6639229Y-12699698D02*
X6629705Y-12709222D01*
X6629705Y-12709222D02*
X6620182Y-12699698D01*
X6620182Y-12699698D02*
X6629705Y-12690174D01*
X6629705Y-12690174D02*
X6629705Y-12709222D01*
D12*
X4897500Y-13092500D02*
X4997500Y-13192500D01*
X4997500Y-13092500D02*
X4897500Y-13192500D01*
D11*
X5363039Y-13233984D02*
X5248753Y-13233984D01*
X5305896Y-13233984D02*
X5305896Y-13033984D01*
X5305896Y-13033984D02*
X5286848Y-13062555D01*
X5286848Y-13062555D02*
X5267801Y-13081603D01*
X5267801Y-13081603D02*
X5248753Y-13091127D01*
X5448753Y-13214936D02*
X5458277Y-13224460D01*
X5458277Y-13224460D02*
X5448753Y-13233984D01*
X5448753Y-13233984D02*
X5439229Y-13224460D01*
X5439229Y-13224460D02*
X5448753Y-13214936D01*
X5448753Y-13214936D02*
X5448753Y-13233984D01*
X5582086Y-13033984D02*
X5601134Y-13033984D01*
X5601134Y-13033984D02*
X5620182Y-13043508D01*
X5620182Y-13043508D02*
X5629705Y-13053031D01*
X5629705Y-13053031D02*
X5639229Y-13072079D01*
X5639229Y-13072079D02*
X5648753Y-13110174D01*
X5648753Y-13110174D02*
X5648753Y-13157793D01*
X5648753Y-13157793D02*
X5639229Y-13195888D01*
X5639229Y-13195888D02*
X5629705Y-13214936D01*
X5629705Y-13214936D02*
X5620182Y-13224460D01*
X5620182Y-13224460D02*
X5601134Y-13233984D01*
X5601134Y-13233984D02*
X5582086Y-13233984D01*
X5582086Y-13233984D02*
X5563039Y-13224460D01*
X5563039Y-13224460D02*
X5553515Y-13214936D01*
X5553515Y-13214936D02*
X5543991Y-13195888D01*
X5543991Y-13195888D02*
X5534467Y-13157793D01*
X5534467Y-13157793D02*
X5534467Y-13110174D01*
X5534467Y-13110174D02*
X5543991Y-13072079D01*
X5543991Y-13072079D02*
X5553515Y-13053031D01*
X5553515Y-13053031D02*
X5563039Y-13043508D01*
X5563039Y-13043508D02*
X5582086Y-13033984D01*
X5772562Y-13033984D02*
X5791610Y-13033984D01*
X5791610Y-13033984D02*
X5810658Y-13043508D01*
X5810658Y-13043508D02*
X5820182Y-13053031D01*
X5820182Y-13053031D02*
X5829705Y-13072079D01*
X5829705Y-13072079D02*
X5839229Y-13110174D01*
X5839229Y-13110174D02*
X5839229Y-13157793D01*
X5839229Y-13157793D02*
X5829705Y-13195888D01*
X5829705Y-13195888D02*
X5820182Y-13214936D01*
X5820182Y-13214936D02*
X5810658Y-13224460D01*
X5810658Y-13224460D02*
X5791610Y-13233984D01*
X5791610Y-13233984D02*
X5772562Y-13233984D01*
X5772562Y-13233984D02*
X5753515Y-13224460D01*
X5753515Y-13224460D02*
X5743991Y-13214936D01*
X5743991Y-13214936D02*
X5734467Y-13195888D01*
X5734467Y-13195888D02*
X5724943Y-13157793D01*
X5724943Y-13157793D02*
X5724943Y-13110174D01*
X5724943Y-13110174D02*
X5734467Y-13072079D01*
X5734467Y-13072079D02*
X5743991Y-13053031D01*
X5743991Y-13053031D02*
X5753515Y-13043508D01*
X5753515Y-13043508D02*
X5772562Y-13033984D01*
X5963039Y-13033984D02*
X5982086Y-13033984D01*
X5982086Y-13033984D02*
X6001134Y-13043508D01*
X6001134Y-13043508D02*
X6010658Y-13053031D01*
X6010658Y-13053031D02*
X6020182Y-13072079D01*
X6020182Y-13072079D02*
X6029705Y-13110174D01*
X6029705Y-13110174D02*
X6029705Y-13157793D01*
X6029705Y-13157793D02*
X6020182Y-13195888D01*
X6020182Y-13195888D02*
X6010658Y-13214936D01*
X6010658Y-13214936D02*
X6001134Y-13224460D01*
X6001134Y-13224460D02*
X5982086Y-13233984D01*
X5982086Y-13233984D02*
X5963039Y-13233984D01*
X5963039Y-13233984D02*
X5943991Y-13224460D01*
X5943991Y-13224460D02*
X5934467Y-13214936D01*
X5934467Y-13214936D02*
X5924943Y-13195888D01*
X5924943Y-13195888D02*
X5915420Y-13157793D01*
X5915420Y-13157793D02*
X5915420Y-13110174D01*
X5915420Y-13110174D02*
X5924943Y-13072079D01*
X5924943Y-13072079D02*
X5934467Y-13053031D01*
X5934467Y-13053031D02*
X5943991Y-13043508D01*
X5943991Y-13043508D02*
X5963039Y-13033984D01*
X6115420Y-13233984D02*
X6115420Y-13100650D01*
X6115420Y-13119698D02*
X6124943Y-13110174D01*
X6124943Y-13110174D02*
X6143991Y-13100650D01*
X6143991Y-13100650D02*
X6172563Y-13100650D01*
X6172563Y-13100650D02*
X6191610Y-13110174D01*
X6191610Y-13110174D02*
X6201134Y-13129222D01*
X6201134Y-13129222D02*
X6201134Y-13233984D01*
X6201134Y-13129222D02*
X6210658Y-13110174D01*
X6210658Y-13110174D02*
X6229705Y-13100650D01*
X6229705Y-13100650D02*
X6258277Y-13100650D01*
X6258277Y-13100650D02*
X6277324Y-13110174D01*
X6277324Y-13110174D02*
X6286848Y-13129222D01*
X6286848Y-13129222D02*
X6286848Y-13233984D01*
X6382086Y-13233984D02*
X6382086Y-13100650D01*
X6382086Y-13119698D02*
X6391610Y-13110174D01*
X6391610Y-13110174D02*
X6410658Y-13100650D01*
X6410658Y-13100650D02*
X6439229Y-13100650D01*
X6439229Y-13100650D02*
X6458277Y-13110174D01*
X6458277Y-13110174D02*
X6467801Y-13129222D01*
X6467801Y-13129222D02*
X6467801Y-13233984D01*
X6467801Y-13129222D02*
X6477324Y-13110174D01*
X6477324Y-13110174D02*
X6496372Y-13100650D01*
X6496372Y-13100650D02*
X6524943Y-13100650D01*
X6524943Y-13100650D02*
X6543991Y-13110174D01*
X6543991Y-13110174D02*
X6553515Y-13129222D01*
X6553515Y-13129222D02*
X6553515Y-13233984D01*
X6943991Y-13024460D02*
X6772563Y-13281603D01*
X7201134Y-13033984D02*
X7220182Y-13033984D01*
X7220182Y-13033984D02*
X7239229Y-13043508D01*
X7239229Y-13043508D02*
X7248753Y-13053031D01*
X7248753Y-13053031D02*
X7258277Y-13072079D01*
X7258277Y-13072079D02*
X7267801Y-13110174D01*
X7267801Y-13110174D02*
X7267801Y-13157793D01*
X7267801Y-13157793D02*
X7258277Y-13195888D01*
X7258277Y-13195888D02*
X7248753Y-13214936D01*
X7248753Y-13214936D02*
X7239229Y-13224460D01*
X7239229Y-13224460D02*
X7220182Y-13233984D01*
X7220182Y-13233984D02*
X7201134Y-13233984D01*
X7201134Y-13233984D02*
X7182086Y-13224460D01*
X7182086Y-13224460D02*
X7172563Y-13214936D01*
X7172563Y-13214936D02*
X7163039Y-13195888D01*
X7163039Y-13195888D02*
X7153515Y-13157793D01*
X7153515Y-13157793D02*
X7153515Y-13110174D01*
X7153515Y-13110174D02*
X7163039Y-13072079D01*
X7163039Y-13072079D02*
X7172563Y-13053031D01*
X7172563Y-13053031D02*
X7182086Y-13043508D01*
X7182086Y-13043508D02*
X7201134Y-13033984D01*
X7353515Y-13214936D02*
X7363039Y-13224460D01*
X7363039Y-13224460D02*
X7353515Y-13233984D01*
X7353515Y-13233984D02*
X7343991Y-13224460D01*
X7343991Y-13224460D02*
X7353515Y-13214936D01*
X7353515Y-13214936D02*
X7353515Y-13233984D01*
X7486848Y-13033984D02*
X7505896Y-13033984D01*
X7505896Y-13033984D02*
X7524944Y-13043508D01*
X7524944Y-13043508D02*
X7534467Y-13053031D01*
X7534467Y-13053031D02*
X7543991Y-13072079D01*
X7543991Y-13072079D02*
X7553515Y-13110174D01*
X7553515Y-13110174D02*
X7553515Y-13157793D01*
X7553515Y-13157793D02*
X7543991Y-13195888D01*
X7543991Y-13195888D02*
X7534467Y-13214936D01*
X7534467Y-13214936D02*
X7524944Y-13224460D01*
X7524944Y-13224460D02*
X7505896Y-13233984D01*
X7505896Y-13233984D02*
X7486848Y-13233984D01*
X7486848Y-13233984D02*
X7467801Y-13224460D01*
X7467801Y-13224460D02*
X7458277Y-13214936D01*
X7458277Y-13214936D02*
X7448753Y-13195888D01*
X7448753Y-13195888D02*
X7439229Y-13157793D01*
X7439229Y-13157793D02*
X7439229Y-13110174D01*
X7439229Y-13110174D02*
X7448753Y-13072079D01*
X7448753Y-13072079D02*
X7458277Y-13053031D01*
X7458277Y-13053031D02*
X7467801Y-13043508D01*
X7467801Y-13043508D02*
X7486848Y-13033984D01*
X7620182Y-13033984D02*
X7743991Y-13033984D01*
X7743991Y-13033984D02*
X7677325Y-13110174D01*
X7677325Y-13110174D02*
X7705896Y-13110174D01*
X7705896Y-13110174D02*
X7724944Y-13119698D01*
X7724944Y-13119698D02*
X7734467Y-13129222D01*
X7734467Y-13129222D02*
X7743991Y-13148269D01*
X7743991Y-13148269D02*
X7743991Y-13195888D01*
X7743991Y-13195888D02*
X7734467Y-13214936D01*
X7734467Y-13214936D02*
X7724944Y-13224460D01*
X7724944Y-13224460D02*
X7705896Y-13233984D01*
X7705896Y-13233984D02*
X7648753Y-13233984D01*
X7648753Y-13233984D02*
X7629706Y-13224460D01*
X7629706Y-13224460D02*
X7620182Y-13214936D01*
X7839229Y-13233984D02*
X7877325Y-13233984D01*
X7877325Y-13233984D02*
X7896372Y-13224460D01*
X7896372Y-13224460D02*
X7905896Y-13214936D01*
X7905896Y-13214936D02*
X7924944Y-13186365D01*
X7924944Y-13186365D02*
X7934467Y-13148269D01*
X7934467Y-13148269D02*
X7934467Y-13072079D01*
X7934467Y-13072079D02*
X7924944Y-13053031D01*
X7924944Y-13053031D02*
X7915420Y-13043508D01*
X7915420Y-13043508D02*
X7896372Y-13033984D01*
X7896372Y-13033984D02*
X7858277Y-13033984D01*
X7858277Y-13033984D02*
X7839229Y-13043508D01*
X7839229Y-13043508D02*
X7829706Y-13053031D01*
X7829706Y-13053031D02*
X7820182Y-13072079D01*
X7820182Y-13072079D02*
X7820182Y-13119698D01*
X7820182Y-13119698D02*
X7829706Y-13138746D01*
X7829706Y-13138746D02*
X7839229Y-13148269D01*
X7839229Y-13148269D02*
X7858277Y-13157793D01*
X7858277Y-13157793D02*
X7896372Y-13157793D01*
X7896372Y-13157793D02*
X7915420Y-13148269D01*
X7915420Y-13148269D02*
X7924944Y-13138746D01*
X7924944Y-13138746D02*
X7934467Y-13119698D01*
X8105896Y-13100650D02*
X8105896Y-13233984D01*
X8058277Y-13024460D02*
X8010658Y-13167317D01*
X8010658Y-13167317D02*
X8134467Y-13167317D01*
X8201134Y-13033984D02*
X8201134Y-13072079D01*
X8277325Y-13033984D02*
X8277325Y-13072079D01*
X8572563Y-13310174D02*
X8563039Y-13300650D01*
X8563039Y-13300650D02*
X8543991Y-13272079D01*
X8543991Y-13272079D02*
X8534468Y-13253031D01*
X8534468Y-13253031D02*
X8524944Y-13224460D01*
X8524944Y-13224460D02*
X8515420Y-13176841D01*
X8515420Y-13176841D02*
X8515420Y-13138746D01*
X8515420Y-13138746D02*
X8524944Y-13091127D01*
X8524944Y-13091127D02*
X8534468Y-13062555D01*
X8534468Y-13062555D02*
X8543991Y-13043508D01*
X8543991Y-13043508D02*
X8563039Y-13014936D01*
X8563039Y-13014936D02*
X8572563Y-13005412D01*
X8639230Y-13053031D02*
X8648753Y-13043508D01*
X8648753Y-13043508D02*
X8667801Y-13033984D01*
X8667801Y-13033984D02*
X8715420Y-13033984D01*
X8715420Y-13033984D02*
X8734468Y-13043508D01*
X8734468Y-13043508D02*
X8743991Y-13053031D01*
X8743991Y-13053031D02*
X8753515Y-13072079D01*
X8753515Y-13072079D02*
X8753515Y-13091127D01*
X8753515Y-13091127D02*
X8743991Y-13119698D01*
X8743991Y-13119698D02*
X8629706Y-13233984D01*
X8629706Y-13233984D02*
X8753515Y-13233984D01*
X8991611Y-13233984D02*
X8991611Y-13033984D01*
X9077325Y-13233984D02*
X9077325Y-13129222D01*
X9077325Y-13129222D02*
X9067801Y-13110174D01*
X9067801Y-13110174D02*
X9048753Y-13100650D01*
X9048753Y-13100650D02*
X9020182Y-13100650D01*
X9020182Y-13100650D02*
X9001134Y-13110174D01*
X9001134Y-13110174D02*
X8991611Y-13119698D01*
X9201134Y-13233984D02*
X9182087Y-13224460D01*
X9182087Y-13224460D02*
X9172563Y-13214936D01*
X9172563Y-13214936D02*
X9163039Y-13195888D01*
X9163039Y-13195888D02*
X9163039Y-13138746D01*
X9163039Y-13138746D02*
X9172563Y-13119698D01*
X9172563Y-13119698D02*
X9182087Y-13110174D01*
X9182087Y-13110174D02*
X9201134Y-13100650D01*
X9201134Y-13100650D02*
X9229706Y-13100650D01*
X9229706Y-13100650D02*
X9248753Y-13110174D01*
X9248753Y-13110174D02*
X9258277Y-13119698D01*
X9258277Y-13119698D02*
X9267801Y-13138746D01*
X9267801Y-13138746D02*
X9267801Y-13195888D01*
X9267801Y-13195888D02*
X9258277Y-13214936D01*
X9258277Y-13214936D02*
X9248753Y-13224460D01*
X9248753Y-13224460D02*
X9229706Y-13233984D01*
X9229706Y-13233984D02*
X9201134Y-13233984D01*
X9382087Y-13233984D02*
X9363039Y-13224460D01*
X9363039Y-13224460D02*
X9353515Y-13205412D01*
X9353515Y-13205412D02*
X9353515Y-13033984D01*
X9534468Y-13224460D02*
X9515420Y-13233984D01*
X9515420Y-13233984D02*
X9477325Y-13233984D01*
X9477325Y-13233984D02*
X9458277Y-13224460D01*
X9458277Y-13224460D02*
X9448753Y-13205412D01*
X9448753Y-13205412D02*
X9448753Y-13129222D01*
X9448753Y-13129222D02*
X9458277Y-13110174D01*
X9458277Y-13110174D02*
X9477325Y-13100650D01*
X9477325Y-13100650D02*
X9515420Y-13100650D01*
X9515420Y-13100650D02*
X9534468Y-13110174D01*
X9534468Y-13110174D02*
X9543992Y-13129222D01*
X9543992Y-13129222D02*
X9543992Y-13148269D01*
X9543992Y-13148269D02*
X9448753Y-13167317D01*
X9620182Y-13224460D02*
X9639230Y-13233984D01*
X9639230Y-13233984D02*
X9677325Y-13233984D01*
X9677325Y-13233984D02*
X9696373Y-13224460D01*
X9696373Y-13224460D02*
X9705896Y-13205412D01*
X9705896Y-13205412D02*
X9705896Y-13195888D01*
X9705896Y-13195888D02*
X9696373Y-13176841D01*
X9696373Y-13176841D02*
X9677325Y-13167317D01*
X9677325Y-13167317D02*
X9648753Y-13167317D01*
X9648753Y-13167317D02*
X9629706Y-13157793D01*
X9629706Y-13157793D02*
X9620182Y-13138746D01*
X9620182Y-13138746D02*
X9620182Y-13129222D01*
X9620182Y-13129222D02*
X9629706Y-13110174D01*
X9629706Y-13110174D02*
X9648753Y-13100650D01*
X9648753Y-13100650D02*
X9677325Y-13100650D01*
X9677325Y-13100650D02*
X9696373Y-13110174D01*
X9772563Y-13310174D02*
X9782087Y-13300650D01*
X9782087Y-13300650D02*
X9801134Y-13272079D01*
X9801134Y-13272079D02*
X9810658Y-13253031D01*
X9810658Y-13253031D02*
X9820182Y-13224460D01*
X9820182Y-13224460D02*
X9829706Y-13176841D01*
X9829706Y-13176841D02*
X9829706Y-13138746D01*
X9829706Y-13138746D02*
X9820182Y-13091127D01*
X9820182Y-13091127D02*
X9810658Y-13062555D01*
X9810658Y-13062555D02*
X9801134Y-13043508D01*
X9801134Y-13043508D02*
X9782087Y-13014936D01*
X9782087Y-13014936D02*
X9772563Y-13005412D01*
X10134468Y-13310174D02*
X10124944Y-13300650D01*
X10124944Y-13300650D02*
X10105896Y-13272079D01*
X10105896Y-13272079D02*
X10096373Y-13253031D01*
X10096373Y-13253031D02*
X10086849Y-13224460D01*
X10086849Y-13224460D02*
X10077325Y-13176841D01*
X10077325Y-13176841D02*
X10077325Y-13138746D01*
X10077325Y-13138746D02*
X10086849Y-13091127D01*
X10086849Y-13091127D02*
X10096373Y-13062555D01*
X10096373Y-13062555D02*
X10105896Y-13043508D01*
X10105896Y-13043508D02*
X10124944Y-13014936D01*
X10124944Y-13014936D02*
X10134468Y-13005412D01*
X10210658Y-13100650D02*
X10210658Y-13233984D01*
X10210658Y-13119698D02*
X10220182Y-13110174D01*
X10220182Y-13110174D02*
X10239230Y-13100650D01*
X10239230Y-13100650D02*
X10267801Y-13100650D01*
X10267801Y-13100650D02*
X10286849Y-13110174D01*
X10286849Y-13110174D02*
X10296373Y-13129222D01*
X10296373Y-13129222D02*
X10296373Y-13233984D01*
X10420182Y-13233984D02*
X10401134Y-13224460D01*
X10401134Y-13224460D02*
X10391611Y-13214936D01*
X10391611Y-13214936D02*
X10382087Y-13195888D01*
X10382087Y-13195888D02*
X10382087Y-13138746D01*
X10382087Y-13138746D02*
X10391611Y-13119698D01*
X10391611Y-13119698D02*
X10401134Y-13110174D01*
X10401134Y-13110174D02*
X10420182Y-13100650D01*
X10420182Y-13100650D02*
X10448754Y-13100650D01*
X10448754Y-13100650D02*
X10467801Y-13110174D01*
X10467801Y-13110174D02*
X10477325Y-13119698D01*
X10477325Y-13119698D02*
X10486849Y-13138746D01*
X10486849Y-13138746D02*
X10486849Y-13195888D01*
X10486849Y-13195888D02*
X10477325Y-13214936D01*
X10477325Y-13214936D02*
X10467801Y-13224460D01*
X10467801Y-13224460D02*
X10448754Y-13233984D01*
X10448754Y-13233984D02*
X10420182Y-13233984D01*
X10543992Y-13100650D02*
X10620182Y-13100650D01*
X10572563Y-13033984D02*
X10572563Y-13205412D01*
X10572563Y-13205412D02*
X10582087Y-13224460D01*
X10582087Y-13224460D02*
X10601134Y-13233984D01*
X10601134Y-13233984D02*
X10620182Y-13233984D01*
X10839230Y-13100650D02*
X10839230Y-13300650D01*
X10839230Y-13110174D02*
X10858277Y-13100650D01*
X10858277Y-13100650D02*
X10896373Y-13100650D01*
X10896373Y-13100650D02*
X10915420Y-13110174D01*
X10915420Y-13110174D02*
X10924944Y-13119698D01*
X10924944Y-13119698D02*
X10934468Y-13138746D01*
X10934468Y-13138746D02*
X10934468Y-13195888D01*
X10934468Y-13195888D02*
X10924944Y-13214936D01*
X10924944Y-13214936D02*
X10915420Y-13224460D01*
X10915420Y-13224460D02*
X10896373Y-13233984D01*
X10896373Y-13233984D02*
X10858277Y-13233984D01*
X10858277Y-13233984D02*
X10839230Y-13224460D01*
X11048754Y-13233984D02*
X11029706Y-13224460D01*
X11029706Y-13224460D02*
X11020182Y-13205412D01*
X11020182Y-13205412D02*
X11020182Y-13033984D01*
X11210658Y-13233984D02*
X11210658Y-13129222D01*
X11210658Y-13129222D02*
X11201134Y-13110174D01*
X11201134Y-13110174D02*
X11182087Y-13100650D01*
X11182087Y-13100650D02*
X11143992Y-13100650D01*
X11143992Y-13100650D02*
X11124944Y-13110174D01*
X11210658Y-13224460D02*
X11191611Y-13233984D01*
X11191611Y-13233984D02*
X11143992Y-13233984D01*
X11143992Y-13233984D02*
X11124944Y-13224460D01*
X11124944Y-13224460D02*
X11115420Y-13205412D01*
X11115420Y-13205412D02*
X11115420Y-13186365D01*
X11115420Y-13186365D02*
X11124944Y-13167317D01*
X11124944Y-13167317D02*
X11143992Y-13157793D01*
X11143992Y-13157793D02*
X11191611Y-13157793D01*
X11191611Y-13157793D02*
X11210658Y-13148269D01*
X11277325Y-13100650D02*
X11353515Y-13100650D01*
X11305896Y-13033984D02*
X11305896Y-13205412D01*
X11305896Y-13205412D02*
X11315420Y-13224460D01*
X11315420Y-13224460D02*
X11334468Y-13233984D01*
X11334468Y-13233984D02*
X11353515Y-13233984D01*
X11496373Y-13224460D02*
X11477325Y-13233984D01*
X11477325Y-13233984D02*
X11439230Y-13233984D01*
X11439230Y-13233984D02*
X11420182Y-13224460D01*
X11420182Y-13224460D02*
X11410658Y-13205412D01*
X11410658Y-13205412D02*
X11410658Y-13129222D01*
X11410658Y-13129222D02*
X11420182Y-13110174D01*
X11420182Y-13110174D02*
X11439230Y-13100650D01*
X11439230Y-13100650D02*
X11477325Y-13100650D01*
X11477325Y-13100650D02*
X11496373Y-13110174D01*
X11496373Y-13110174D02*
X11505896Y-13129222D01*
X11505896Y-13129222D02*
X11505896Y-13148269D01*
X11505896Y-13148269D02*
X11410658Y-13167317D01*
X11677325Y-13233984D02*
X11677325Y-13033984D01*
X11677325Y-13224460D02*
X11658277Y-13233984D01*
X11658277Y-13233984D02*
X11620182Y-13233984D01*
X11620182Y-13233984D02*
X11601134Y-13224460D01*
X11601134Y-13224460D02*
X11591611Y-13214936D01*
X11591611Y-13214936D02*
X11582087Y-13195888D01*
X11582087Y-13195888D02*
X11582087Y-13138746D01*
X11582087Y-13138746D02*
X11591611Y-13119698D01*
X11591611Y-13119698D02*
X11601134Y-13110174D01*
X11601134Y-13110174D02*
X11620182Y-13100650D01*
X11620182Y-13100650D02*
X11658277Y-13100650D01*
X11658277Y-13100650D02*
X11677325Y-13110174D01*
X11753515Y-13310174D02*
X11763039Y-13300650D01*
X11763039Y-13300650D02*
X11782087Y-13272079D01*
X11782087Y-13272079D02*
X11791611Y-13253031D01*
X11791611Y-13253031D02*
X11801134Y-13224460D01*
X11801134Y-13224460D02*
X11810658Y-13176841D01*
X11810658Y-13176841D02*
X11810658Y-13138746D01*
X11810658Y-13138746D02*
X11801134Y-13091127D01*
X11801134Y-13091127D02*
X11791611Y-13062555D01*
X11791611Y-13062555D02*
X11782087Y-13043508D01*
X11782087Y-13043508D02*
X11763039Y-13014936D01*
X11763039Y-13014936D02*
X11753515Y-13005412D01*
M02*
