%TF.GenerationSoftware,KiCad,Pcbnew,9.0.6*%
%TF.CreationDate,2026-03-09T22:44:48+09:00*%
%TF.ProjectId,ARDFReceiver,41524446-5265-4636-9569-7665722e6b69,rev?*%
%TF.SameCoordinates,Original*%
%TF.FileFunction,Legend,Bot*%
%TF.FilePolarity,Positive*%
%FSLAX46Y46*%
G04 Gerber Fmt 4.6, Leading zero omitted, Abs format (unit mm)*
G04 Created by KiCad (PCBNEW 9.0.6) date 2026-03-09 22:44:48*
%MOMM*%
%LPD*%
G01*
G04 APERTURE LIST*
%ADD10C,0.187500*%
%ADD11C,0.100000*%
%ADD12C,0.150000*%
%ADD13C,0.120000*%
G04 APERTURE END LIST*
D10*
X68980000Y-51313125D02*
X70091250Y-52847709D01*
X70250000Y-54250000D01*
X69323958Y-54752709D01*
X67125350Y-54752709D01*
X66199308Y-54250000D01*
X66358058Y-52847709D01*
X67469308Y-51313125D01*
X67614829Y-51273438D01*
X67919100Y-52774710D01*
X68530208Y-52774710D01*
X68834479Y-51273438D01*
X68980000Y-51313125D01*
D11*
X67125350Y-54752709D02*
X66199308Y-54250000D01*
X66358058Y-52847709D01*
X67125350Y-54752709D01*
G36*
X67125350Y-54752709D02*
G01*
X66199308Y-54250000D01*
X66358058Y-52847709D01*
X67125350Y-54752709D01*
G37*
D10*
X64590930Y-52306678D02*
X64590930Y-53378107D01*
X64590930Y-53378107D02*
X64662359Y-53592392D01*
X64662359Y-53592392D02*
X64805216Y-53735250D01*
X64805216Y-53735250D02*
X65019502Y-53806678D01*
X65019502Y-53806678D02*
X65162359Y-53806678D01*
X63162359Y-53806678D02*
X63876645Y-53806678D01*
X63876645Y-53806678D02*
X63876645Y-52306678D01*
X61876644Y-53806678D02*
X62733787Y-53806678D01*
X62305216Y-53806678D02*
X62305216Y-52306678D01*
X62305216Y-52306678D02*
X62448073Y-52520964D01*
X62448073Y-52520964D02*
X62590930Y-52663821D01*
X62590930Y-52663821D02*
X62733787Y-52735250D01*
X61233788Y-53806678D02*
X61233788Y-52306678D01*
X61233788Y-53020964D02*
X60376645Y-53020964D01*
X60376645Y-53806678D02*
X60376645Y-52306678D01*
X59662359Y-53806678D02*
X59662359Y-52306678D01*
X59662359Y-52306678D02*
X59162359Y-53378107D01*
X59162359Y-53378107D02*
X58662359Y-52306678D01*
X58662359Y-52306678D02*
X58662359Y-53806678D01*
X58162358Y-52306678D02*
X57305216Y-52306678D01*
X57733787Y-53806678D02*
X57733787Y-52306678D01*
X93090930Y-53378107D02*
X92376645Y-53378107D01*
X93233787Y-53806678D02*
X92733787Y-52306678D01*
X92733787Y-52306678D02*
X92233787Y-53806678D01*
X90876645Y-53806678D02*
X91376645Y-53092392D01*
X91733788Y-53806678D02*
X91733788Y-52306678D01*
X91733788Y-52306678D02*
X91162359Y-52306678D01*
X91162359Y-52306678D02*
X91019502Y-52378107D01*
X91019502Y-52378107D02*
X90948073Y-52449535D01*
X90948073Y-52449535D02*
X90876645Y-52592392D01*
X90876645Y-52592392D02*
X90876645Y-52806678D01*
X90876645Y-52806678D02*
X90948073Y-52949535D01*
X90948073Y-52949535D02*
X91019502Y-53020964D01*
X91019502Y-53020964D02*
X91162359Y-53092392D01*
X91162359Y-53092392D02*
X91733788Y-53092392D01*
X90233788Y-53806678D02*
X90233788Y-52306678D01*
X90233788Y-52306678D02*
X89876645Y-52306678D01*
X89876645Y-52306678D02*
X89662359Y-52378107D01*
X89662359Y-52378107D02*
X89519502Y-52520964D01*
X89519502Y-52520964D02*
X89448073Y-52663821D01*
X89448073Y-52663821D02*
X89376645Y-52949535D01*
X89376645Y-52949535D02*
X89376645Y-53163821D01*
X89376645Y-53163821D02*
X89448073Y-53449535D01*
X89448073Y-53449535D02*
X89519502Y-53592392D01*
X89519502Y-53592392D02*
X89662359Y-53735250D01*
X89662359Y-53735250D02*
X89876645Y-53806678D01*
X89876645Y-53806678D02*
X90233788Y-53806678D01*
X88233788Y-53020964D02*
X88733788Y-53020964D01*
X88733788Y-53806678D02*
X88733788Y-52306678D01*
X88733788Y-52306678D02*
X88019502Y-52306678D01*
X85448074Y-53806678D02*
X85948074Y-53092392D01*
X86305217Y-53806678D02*
X86305217Y-52306678D01*
X86305217Y-52306678D02*
X85733788Y-52306678D01*
X85733788Y-52306678D02*
X85590931Y-52378107D01*
X85590931Y-52378107D02*
X85519502Y-52449535D01*
X85519502Y-52449535D02*
X85448074Y-52592392D01*
X85448074Y-52592392D02*
X85448074Y-52806678D01*
X85448074Y-52806678D02*
X85519502Y-52949535D01*
X85519502Y-52949535D02*
X85590931Y-53020964D01*
X85590931Y-53020964D02*
X85733788Y-53092392D01*
X85733788Y-53092392D02*
X86305217Y-53092392D01*
X84233788Y-53735250D02*
X84376645Y-53806678D01*
X84376645Y-53806678D02*
X84662360Y-53806678D01*
X84662360Y-53806678D02*
X84805217Y-53735250D01*
X84805217Y-53735250D02*
X84876645Y-53592392D01*
X84876645Y-53592392D02*
X84876645Y-53020964D01*
X84876645Y-53020964D02*
X84805217Y-52878107D01*
X84805217Y-52878107D02*
X84662360Y-52806678D01*
X84662360Y-52806678D02*
X84376645Y-52806678D01*
X84376645Y-52806678D02*
X84233788Y-52878107D01*
X84233788Y-52878107D02*
X84162360Y-53020964D01*
X84162360Y-53020964D02*
X84162360Y-53163821D01*
X84162360Y-53163821D02*
X84876645Y-53306678D01*
X82876646Y-53735250D02*
X83019503Y-53806678D01*
X83019503Y-53806678D02*
X83305217Y-53806678D01*
X83305217Y-53806678D02*
X83448074Y-53735250D01*
X83448074Y-53735250D02*
X83519503Y-53663821D01*
X83519503Y-53663821D02*
X83590931Y-53520964D01*
X83590931Y-53520964D02*
X83590931Y-53092392D01*
X83590931Y-53092392D02*
X83519503Y-52949535D01*
X83519503Y-52949535D02*
X83448074Y-52878107D01*
X83448074Y-52878107D02*
X83305217Y-52806678D01*
X83305217Y-52806678D02*
X83019503Y-52806678D01*
X83019503Y-52806678D02*
X82876646Y-52878107D01*
X81662360Y-53735250D02*
X81805217Y-53806678D01*
X81805217Y-53806678D02*
X82090932Y-53806678D01*
X82090932Y-53806678D02*
X82233789Y-53735250D01*
X82233789Y-53735250D02*
X82305217Y-53592392D01*
X82305217Y-53592392D02*
X82305217Y-53020964D01*
X82305217Y-53020964D02*
X82233789Y-52878107D01*
X82233789Y-52878107D02*
X82090932Y-52806678D01*
X82090932Y-52806678D02*
X81805217Y-52806678D01*
X81805217Y-52806678D02*
X81662360Y-52878107D01*
X81662360Y-52878107D02*
X81590932Y-53020964D01*
X81590932Y-53020964D02*
X81590932Y-53163821D01*
X81590932Y-53163821D02*
X82305217Y-53306678D01*
X80948075Y-53806678D02*
X80948075Y-52806678D01*
X80948075Y-52306678D02*
X81019503Y-52378107D01*
X81019503Y-52378107D02*
X80948075Y-52449535D01*
X80948075Y-52449535D02*
X80876646Y-52378107D01*
X80876646Y-52378107D02*
X80948075Y-52306678D01*
X80948075Y-52306678D02*
X80948075Y-52449535D01*
X80376646Y-52806678D02*
X80019503Y-53806678D01*
X80019503Y-53806678D02*
X79662360Y-52806678D01*
X78519503Y-53735250D02*
X78662360Y-53806678D01*
X78662360Y-53806678D02*
X78948075Y-53806678D01*
X78948075Y-53806678D02*
X79090932Y-53735250D01*
X79090932Y-53735250D02*
X79162360Y-53592392D01*
X79162360Y-53592392D02*
X79162360Y-53020964D01*
X79162360Y-53020964D02*
X79090932Y-52878107D01*
X79090932Y-52878107D02*
X78948075Y-52806678D01*
X78948075Y-52806678D02*
X78662360Y-52806678D01*
X78662360Y-52806678D02*
X78519503Y-52878107D01*
X78519503Y-52878107D02*
X78448075Y-53020964D01*
X78448075Y-53020964D02*
X78448075Y-53163821D01*
X78448075Y-53163821D02*
X79162360Y-53306678D01*
X77805218Y-53806678D02*
X77805218Y-52806678D01*
X77805218Y-53092392D02*
X77733789Y-52949535D01*
X77733789Y-52949535D02*
X77662361Y-52878107D01*
X77662361Y-52878107D02*
X77519503Y-52806678D01*
X77519503Y-52806678D02*
X77376646Y-52806678D01*
X75876647Y-52806678D02*
X75519504Y-53806678D01*
X75519504Y-53806678D02*
X75162361Y-52806678D01*
X74305218Y-52306678D02*
X74162361Y-52306678D01*
X74162361Y-52306678D02*
X74019504Y-52378107D01*
X74019504Y-52378107D02*
X73948076Y-52449535D01*
X73948076Y-52449535D02*
X73876647Y-52592392D01*
X73876647Y-52592392D02*
X73805218Y-52878107D01*
X73805218Y-52878107D02*
X73805218Y-53235250D01*
X73805218Y-53235250D02*
X73876647Y-53520964D01*
X73876647Y-53520964D02*
X73948076Y-53663821D01*
X73948076Y-53663821D02*
X74019504Y-53735250D01*
X74019504Y-53735250D02*
X74162361Y-53806678D01*
X74162361Y-53806678D02*
X74305218Y-53806678D01*
X74305218Y-53806678D02*
X74448076Y-53735250D01*
X74448076Y-53735250D02*
X74519504Y-53663821D01*
X74519504Y-53663821D02*
X74590933Y-53520964D01*
X74590933Y-53520964D02*
X74662361Y-53235250D01*
X74662361Y-53235250D02*
X74662361Y-52878107D01*
X74662361Y-52878107D02*
X74590933Y-52592392D01*
X74590933Y-52592392D02*
X74519504Y-52449535D01*
X74519504Y-52449535D02*
X74448076Y-52378107D01*
X74448076Y-52378107D02*
X74305218Y-52306678D01*
X73162362Y-53663821D02*
X73090933Y-53735250D01*
X73090933Y-53735250D02*
X73162362Y-53806678D01*
X73162362Y-53806678D02*
X73233790Y-53735250D01*
X73233790Y-53735250D02*
X73162362Y-53663821D01*
X73162362Y-53663821D02*
X73162362Y-53806678D01*
X72590933Y-52306678D02*
X71662361Y-52306678D01*
X71662361Y-52306678D02*
X72162361Y-52878107D01*
X72162361Y-52878107D02*
X71948076Y-52878107D01*
X71948076Y-52878107D02*
X71805219Y-52949535D01*
X71805219Y-52949535D02*
X71733790Y-53020964D01*
X71733790Y-53020964D02*
X71662361Y-53163821D01*
X71662361Y-53163821D02*
X71662361Y-53520964D01*
X71662361Y-53520964D02*
X71733790Y-53663821D01*
X71733790Y-53663821D02*
X71805219Y-53735250D01*
X71805219Y-53735250D02*
X71948076Y-53806678D01*
X71948076Y-53806678D02*
X72376647Y-53806678D01*
X72376647Y-53806678D02*
X72519504Y-53735250D01*
X72519504Y-53735250D02*
X72590933Y-53663821D01*
D12*
X103583333Y-99454819D02*
X103583333Y-100169104D01*
X103583333Y-100169104D02*
X103630952Y-100311961D01*
X103630952Y-100311961D02*
X103726190Y-100407200D01*
X103726190Y-100407200D02*
X103869047Y-100454819D01*
X103869047Y-100454819D02*
X103964285Y-100454819D01*
X102678571Y-99788152D02*
X102678571Y-100454819D01*
X102916666Y-99407200D02*
X103154761Y-100121485D01*
X103154761Y-100121485D02*
X102535714Y-100121485D01*
X98583333Y-118654819D02*
X98583333Y-119369104D01*
X98583333Y-119369104D02*
X98630952Y-119511961D01*
X98630952Y-119511961D02*
X98726190Y-119607200D01*
X98726190Y-119607200D02*
X98869047Y-119654819D01*
X98869047Y-119654819D02*
X98964285Y-119654819D01*
X97583333Y-119654819D02*
X98154761Y-119654819D01*
X97869047Y-119654819D02*
X97869047Y-118654819D01*
X97869047Y-118654819D02*
X97964285Y-118797676D01*
X97964285Y-118797676D02*
X98059523Y-118892914D01*
X98059523Y-118892914D02*
X98154761Y-118940533D01*
X99438094Y-58704819D02*
X99438094Y-57704819D01*
X99438094Y-57704819D02*
X99057142Y-57704819D01*
X99057142Y-57704819D02*
X98961904Y-57752438D01*
X98961904Y-57752438D02*
X98914285Y-57800057D01*
X98914285Y-57800057D02*
X98866666Y-57895295D01*
X98866666Y-57895295D02*
X98866666Y-58038152D01*
X98866666Y-58038152D02*
X98914285Y-58133390D01*
X98914285Y-58133390D02*
X98961904Y-58181009D01*
X98961904Y-58181009D02*
X99057142Y-58228628D01*
X99057142Y-58228628D02*
X99438094Y-58228628D01*
X97914285Y-58704819D02*
X98485713Y-58704819D01*
X98199999Y-58704819D02*
X98199999Y-57704819D01*
X98199999Y-57704819D02*
X98295237Y-57847676D01*
X98295237Y-57847676D02*
X98390475Y-57942914D01*
X98390475Y-57942914D02*
X98485713Y-57990533D01*
X59183333Y-106754819D02*
X59183333Y-107469104D01*
X59183333Y-107469104D02*
X59230952Y-107611961D01*
X59230952Y-107611961D02*
X59326190Y-107707200D01*
X59326190Y-107707200D02*
X59469047Y-107754819D01*
X59469047Y-107754819D02*
X59564285Y-107754819D01*
X58754761Y-106850057D02*
X58707142Y-106802438D01*
X58707142Y-106802438D02*
X58611904Y-106754819D01*
X58611904Y-106754819D02*
X58373809Y-106754819D01*
X58373809Y-106754819D02*
X58278571Y-106802438D01*
X58278571Y-106802438D02*
X58230952Y-106850057D01*
X58230952Y-106850057D02*
X58183333Y-106945295D01*
X58183333Y-106945295D02*
X58183333Y-107040533D01*
X58183333Y-107040533D02*
X58230952Y-107183390D01*
X58230952Y-107183390D02*
X58802380Y-107754819D01*
X58802380Y-107754819D02*
X58183333Y-107754819D01*
D13*
%TO.C,J4*%
X97800000Y-103950000D02*
X97800000Y-106050000D01*
X104800000Y-101550000D02*
X99700000Y-101550000D01*
X104800000Y-108450000D02*
X97800000Y-108450000D01*
X107200000Y-108450000D02*
X109700000Y-108450000D01*
X109700000Y-101550000D02*
X107200000Y-101550000D01*
X109700000Y-102300000D02*
X109700000Y-101550000D01*
X109700000Y-108450000D02*
X109700000Y-107700000D01*
%TO.C,J1*%
X94165000Y-112890000D02*
X96490000Y-112890000D01*
X94165000Y-113740000D02*
X94165000Y-112890000D01*
X94165000Y-117260000D02*
X94165000Y-118110000D01*
X94165000Y-118110000D02*
X102335000Y-118110000D01*
X96490000Y-112890000D02*
X96490000Y-110500000D01*
X102335000Y-112890000D02*
X100010000Y-112890000D01*
X102335000Y-113740000D02*
X102335000Y-112890000D01*
X102335000Y-118110000D02*
X102335000Y-117260000D01*
%TO.C,P1*%
X97370000Y-59670000D02*
X97370000Y-61000000D01*
X97370000Y-62270000D02*
X97370000Y-69950000D01*
X98700000Y-59670000D02*
X97370000Y-59670000D01*
X100030000Y-62270000D02*
X97370000Y-62270000D01*
X100030000Y-62270000D02*
X100030000Y-69950000D01*
X100030000Y-69950000D02*
X97370000Y-69950000D01*
%TO.C,J2*%
X52765000Y-108390000D02*
X52765000Y-109240000D01*
X52765000Y-112760000D02*
X52765000Y-113610000D01*
X52765000Y-113610000D02*
X55090000Y-113610000D01*
X62610000Y-113610000D02*
X62610000Y-116000000D01*
X64935000Y-108390000D02*
X52765000Y-108390000D01*
X64935000Y-109240000D02*
X64935000Y-108390000D01*
X64935000Y-112760000D02*
X64935000Y-113610000D01*
X64935000Y-113610000D02*
X62610000Y-113610000D01*
%TD*%
M02*
